  0
SECTION
  2
HEADER
  9
$ACADVER
  1
AC1009
  9
$DWGCODEPAGE
  3
ansi_932
  9
$INSBASE
 10
0.0
 20
0.0
 30
0.0
  9
$EXTMIN
 10
10.68690495192446
 20
11.87749038996821
 30
0.0
  9
$EXTMAX
 10
180.2894169881594
 20
94.95021816352215
 30
0.0
  9
$LIMMIN
 10
0.0
 20
0.0
  9
$LIMMAX
 10
12.0
 20
9.0
  9
$ORTHOMODE
 70
     0
  9
$REGENMODE
 70
     1
  9
$FILLMODE
 70
     1
  9
$QTEXTMODE
 70
     0
  9
$MIRRTEXT
 70
     1
  9
$DRAGMODE
 70
     2
  9
$LTSCALE
 40
1.0
  9
$OSMODE
 70
    37
  9
$ATTMODE
 70
     1
  9
$TEXTSIZE
 40
0.2
  9
$TRACEWID
 40
0.05
  9
$TEXTSTYLE
  7
STANDARD
  9
$CLAYER
  8
0
  9
$CELTYPE
  6
BYLAYER
  9
$CECOLOR
 62
   256
  9
$DIMSCALE
 40
1.0
  9
$DIMASZ
 40
0.18
  9
$DIMEXO
 40
0.0625
  9
$DIMDLI
 40
0.38
  9
$DIMRND
 40
0.0
  9
$DIMDLE
 40
0.0
  9
$DIMEXE
 40
0.18
  9
$DIMTP
 40
0.0
  9
$DIMTM
 40
0.0
  9
$DIMTXT
 40
0.18
  9
$DIMCEN
 40
0.09
  9
$DIMTSZ
 40
0.0
  9
$DIMTOL
 70
     0
  9
$DIMLIM
 70
     0
  9
$DIMTIH
 70
     1
  9
$DIMTOH
 70
     1
  9
$DIMSE1
 70
     0
  9
$DIMSE2
 70
     0
  9
$DIMTAD
 70
     0
  9
$DIMZIN
 70
     0
  9
$DIMBLK
  1

  9
$DIMASO
 70
     1
  9
$DIMSHO
 70
     1
  9
$DIMPOST
  1

  9
$DIMAPOST
  1

  9
$DIMALT
 70
     0
  9
$DIMALTD
 70
     2
  9
$DIMALTF
 40
25.4
  9
$DIMLFAC
 40
1.0
  9
$DIMTOFL
 70
     0
  9
$DIMTVP
 40
0.0
  9
$DIMTIX
 70
     0
  9
$DIMSOXD
 70
     0
  9
$DIMSAH
 70
     0
  9
$DIMBLK1
  1

  9
$DIMBLK2
  1

  9
$DIMSTYLE
  2
STANDARD
  9
$DIMCLRD
 70
     0
  9
$DIMCLRE
 70
     0
  9
$DIMCLRT
 70
     0
  9
$DIMTFAC
 40
1.0
  9
$DIMGAP
 40
0.09
  9
$LUNITS
 70
     2
  9
$LUPREC
 70
     4
  9
$SKETCHINC
 40
0.1
  9
$FILLETRAD
 40
0.5
  9
$AUNITS
 70
     0
  9
$AUPREC
 70
     0
  9
$MENU
  1
.
  9
$ELEVATION
 40
0.0
  9
$PELEVATION
 40
0.0
  9
$THICKNESS
 40
0.0
  9
$LIMCHECK
 70
     0
  9
$CHAMFERA
 40
0.5
  9
$CHAMFERB
 40
0.5
  9
$SKPOLY
 70
     0
  9
$TDCREATE
 40
2454910.5
  9
$TDUPDATE
 40
2459565.683771099
  9
$TDINDWG
 40
0.0000000116
  9
$TDUSRTIMER
 40
0.0000000116
  9
$USRTIMER
 70
     1
  9
$ANGBASE
 50
0.0
  9
$ANGDIR
 70
     0
  9
$PDMODE
 70
     0
  9
$PDSIZE
 40
0.0
  9
$PLINEWID
 40
0.0
  9
$COORDS
 70
     1
  9
$SPLFRAME
 70
     0
  9
$SPLINETYPE
 70
     6
  9
$SPLINESEGS
 70
     8
  9
$ATTDIA
 70
     0
  9
$ATTREQ
 70
     1
  9
$HANDLING
 70
     1
  9
$HANDSEED
  5
265
  9
$SURFTAB1
 70
     6
  9
$SURFTAB2
 70
     6
  9
$SURFTYPE
 70
     6
  9
$SURFU
 70
     6
  9
$SURFV
 70
     6
  9
$UCSNAME
  2

  9
$UCSORG
 10
0.0
 20
0.0
 30
0.0
  9
$UCSXDIR
 10
1.0
 20
0.0
 30
0.0
  9
$UCSYDIR
 10
0.0
 20
1.0
 30
0.0
  9
$PUCSNAME
  2

  9
$PUCSORG
 10
0.0
 20
0.0
 30
0.0
  9
$PUCSXDIR
 10
1.0
 20
0.0
 30
0.0
  9
$PUCSYDIR
 10
0.0
 20
1.0
 30
0.0
  9
$USERI1
 70
     0
  9
$USERI2
 70
     0
  9
$USERI3
 70
     0
  9
$USERI4
 70
     0
  9
$USERI5
 70
     0
  9
$USERR1
 40
0.0
  9
$USERR2
 40
0.0
  9
$USERR3
 40
0.0
  9
$USERR4
 40
0.0
  9
$USERR5
 40
0.0
  9
$WORLDVIEW
 70
     1
  9
$SHADEDGE
 70
     3
  9
$SHADEDIF
 70
    70
  9
$TILEMODE
 70
     1
  9
$MAXACTVP
 70
    64
  9
$PLIMCHECK
 70
     0
  9
$PEXTMIN
 10
1.000000000000000E+20
 20
1.000000000000000E+20
 30
1.000000000000000E+20
  9
$PEXTMAX
 10
-1.000000000000000E+20
 20
-1.000000000000000E+20
 30
-1.000000000000000E+20
  9
$PLIMMIN
 10
0.0
 20
0.0
  9
$PLIMMAX
 10
12.0
 20
9.0
  9
$UNITMODE
 70
     0
  9
$VISRETAIN
 70
     1
  9
$PLINEGEN
 70
     0
  9
$PSLTSCALE
 70
     1
  0
ENDSEC
  0
SECTION
  2
TABLES
  0
TABLE
  2
VPORT
 70
     1
  0
VPORT
  2
*ACTIVE
 70
     0
 10
0.0
 20
0.0
 11
1.0
 21
1.0
 12
10.42990654205607
 22
4.5
 13
0.0
 23
0.0
 14
0.5
 24
0.5
 15
0.5
 25
0.5
 16
0.0
 26
0.0
 36
1.0
 17
0.0
 27
0.0
 37
0.0
 40
9.0
 41
1.972972972850329
 42
50.0
 43
0.0
 44
0.0
 50
0.0
 51
0.0
 71
     0
 72
   100
 73
     1
 74
     3
 75
     0
 76
     0
 77
     0
 78
     0
  0
ENDTAB
  0
TABLE
  2
LTYPE
 70
     2
  0
LTYPE
  2
CONTINUOUS
 70
     0
  3
Solid line
 72
    65
 73
     0
 40
0.0
  0
LTYPE
  2
CONTINUOUS2
 70
     0
  3
Solid Line
 72
    65
 73
     0
 40
0.0
  0
ENDTAB
  0
TABLE
  2
LAYER
 70
     1
  0
LAYER
  2
0
 70
     0
 62
     7
  6
CONTINUOUS
  0
ENDTAB
  0
TABLE
  2
STYLE
 70
     1
  0
STYLE
  2
STANDARD
 70
     0
 40
0.0
 41
1.0
 50
0.0
 71
     0
 42
0.2
  3
txt
  4

  0
ENDTAB
  0
TABLE
  2
VIEW
 70
     0
  0
ENDTAB
  0
TABLE
  2
UCS
 70
     0
  0
ENDTAB
  0
TABLE
  2
APPID
 70
     1
  0
APPID
  2
ACAD
 70
     0
  0
ENDTAB
  0
TABLE
  2
DIMSTYLE
 70
     1
  0
DIMSTYLE
  2
STANDARD
 70
     0
  3

  4

  5

  6

  7

 40
1.0
 41
0.18
 42
0.0625
 43
0.38
 44
0.18
 45
0.0
 46
0.0
 47
0.0
 48
0.0
140
0.18
141
0.09
142
0.0
143
25.4
144
1.0
145
0.0
146
1.0
147
0.09
 71
     0
 72
     0
 73
     1
 74
     1
 75
     0
 76
     0
 77
     0
 78
     0
170
     0
171
     2
172
     0
173
     0
174
     0
175
     0
176
     0
177
     0
178
     0
  0
ENDTAB
  0
ENDSEC
  0
SECTION
  2
BLOCKS
  0
BLOCK
  8
0
  2
$MODEL_SPACE
 70
     0
 10
0.0
 20
0.0
 30
0.0
  3
$MODEL_SPACE
  1

  0
ENDBLK
  5
21
  8
0
  0
BLOCK
 67
     1
  8
0
  2
$PAPER_SPACE
 70
     0
 10
0.0
 20
0.0
 30
0.0
  3
$PAPER_SPACE
  1

  0
ENDBLK
  5
1D
 67
     1
  8
0
  0
ENDSEC
  0
SECTION
  2
ENTITIES
  0
POLYLINE
  5
40
  8
0
 66
     1
 10
0.0
 20
0.0
 30
0.0
  0
VERTEX
  5
AD
  8
0
 10
35.99020581082446
 20
28.68952905570125
 30
0.0
  0
VERTEX
  5
AE
  8
0
 10
34.57599224842446
 20
27.27531549330125
 30
0.0
  0
SEQEND
  5
AF
  8
0
  0
POLYLINE
  5
41
  8
0
 66
     1
 10
0.0
 20
0.0
 30
0.0
  0
VERTEX
  5
B0
  8
0
 10
43.06127362272446
 20
21.61846124380125
 30
0.0
  0
VERTEX
  5
B1
  8
0
 10
35.99020581082446
 20
28.68952905570125
 30
0.0
  0
SEQEND
  5
B2
  8
0
  0
POLYLINE
  5
42
  8
0
 66
     1
 10
0.0
 20
0.0
 30
0.0
  0
VERTEX
  5
B3
  8
0
 10
41.64706006032446
 20
20.20424768140125
 30
0.0
  0
VERTEX
  5
B4
  8
0
 10
43.06127362272446
 20
21.61846124380125
 30
0.0
  0
SEQEND
  5
B5
  8
0
  0
POLYLINE
  5
43
  8
0
 66
     1
 10
0.0
 20
0.0
 30
0.0
  0
VERTEX
  5
B6
  8
0
 10
34.57599224842446
 20
27.27531549330125
 30
0.0
  0
VERTEX
  5
B7
  8
0
 10
41.64706006032446
 20
20.20424768140125
 30
0.0
  0
SEQEND
  5
B8
  8
0
  0
POLYLINE
  5
44
  8
0
 66
     1
 10
0.0
 20
0.0
 30
0.0
  0
VERTEX
  5
B9
  8
0
 10
26.79781765542446
 20
27.27531549330125
 30
0.0
  0
VERTEX
  5
BA
  8
0
 10
25.38360409302446
 20
28.68952905570125
 30
0.0
  0
SEQEND
  5
BB
  8
0
  0
POLYLINE
  5
45
  8
0
 66
     1
 10
0.0
 20
0.0
 30
0.0
  0
VERTEX
  5
BC
  8
0
 10
19.72674984352446
 20
20.20424768140125
 30
0.0
  0
VERTEX
  5
BD
  8
0
 10
26.79781765542446
 20
27.27531549330125
 30
0.0
  0
SEQEND
  5
BE
  8
0
  0
POLYLINE
  5
46
  8
0
 66
     1
 10
0.0
 20
0.0
 30
0.0
  0
VERTEX
  5
BF
  8
0
 10
18.31253628112446
 20
21.61846124380125
 30
0.0
  0
VERTEX
  5
C0
  8
0
 10
19.72674984352446
 20
20.20424768140125
 30
0.0
  0
SEQEND
  5
C1
  8
0
  0
POLYLINE
  5
47
  8
0
 66
     1
 10
0.0
 20
0.0
 30
0.0
  0
VERTEX
  5
C2
  8
0
 10
25.38360409302446
 20
28.68952905570125
 30
0.0
  0
VERTEX
  5
C3
  8
0
 10
18.31253628112446
 20
21.61846124380125
 30
0.0
  0
SEQEND
  5
C4
  8
0
  0
POLYLINE
  5
48
  8
0
 66
     1
 10
0.0
 20
0.0
 30
0.0
  0
VERTEX
  5
C5
  8
0
 10
25.38360409302446
 20
36.46770364870125
 30
0.0
  0
VERTEX
  5
C6
  8
0
 10
26.79781765542446
 20
37.88191721110125
 30
0.0
  0
SEQEND
  5
C7
  8
0
  0
POLYLINE
  5
49
  8
0
 66
     1
 10
0.0
 20
0.0
 30
0.0
  0
VERTEX
  5
C8
  8
0
 10
18.31253628112446
 20
43.53877146060125
 30
0.0
  0
VERTEX
  5
C9
  8
0
 10
25.38360409302446
 20
36.46770364870125
 30
0.0
  0
SEQEND
  5
CA
  8
0
  0
POLYLINE
  5
4A
  8
0
 66
     1
 10
0.0
 20
0.0
 30
0.0
  0
VERTEX
  5
CB
  8
0
 10
19.72674984352446
 20
44.95298502300125
 30
0.0
  0
VERTEX
  5
CC
  8
0
 10
18.31253628112446
 20
43.53877146060125
 30
0.0
  0
SEQEND
  5
CD
  8
0
  0
POLYLINE
  5
4B
  8
0
 66
     1
 10
0.0
 20
0.0
 30
0.0
  0
VERTEX
  5
CE
  8
0
 10
26.79781765542446
 20
37.88191721110125
 30
0.0
  0
VERTEX
  5
CF
  8
0
 10
19.72674984352446
 20
44.95298502300125
 30
0.0
  0
SEQEND
  5
D0
  8
0
  0
POLYLINE
  5
4C
  8
0
 66
     1
 10
0.0
 20
0.0
 30
0.0
  0
VERTEX
  5
D1
  8
0
 10
34.57599224842446
 20
37.88191721110125
 30
0.0
  0
VERTEX
  5
D2
  8
0
 10
35.99020581082446
 20
36.46770364870125
 30
0.0
  0
SEQEND
  5
D3
  8
0
  0
POLYLINE
  5
4D
  8
0
 66
     1
 10
0.0
 20
0.0
 30
0.0
  0
VERTEX
  5
D4
  8
0
 10
41.64706006032446
 20
44.95298502300125
 30
0.0
  0
VERTEX
  5
D5
  8
0
 10
34.57599224842446
 20
37.88191721110125
 30
0.0
  0
SEQEND
  5
D6
  8
0
  0
POLYLINE
  5
4E
  8
0
 66
     1
 10
0.0
 20
0.0
 30
0.0
  0
VERTEX
  5
D7
  8
0
 10
43.06127362272446
 20
43.53877146060125
 30
0.0
  0
VERTEX
  5
D8
  8
0
 10
41.64706006032446
 20
44.95298502300125
 30
0.0
  0
SEQEND
  5
D9
  8
0
  0
POLYLINE
  5
4F
  8
0
 66
     1
 10
0.0
 20
0.0
 30
0.0
 70
     1
  0
VERTEX
  5
DA
  8
0
 10
30.68690495192446
 20
35.07861635220125
 30
0.0
 42
0.4142135623730951
  0
VERTEX
  5
DB
  8
0
 10
28.18690495192446
 20
32.57861635220125
 30
0.0
 42
0.4142135623730951
  0
VERTEX
  5
DC
  8
0
 10
30.68690495192446
 20
30.07861635220125
 30
0.0
 42
0.4142135623730951
  0
VERTEX
  5
DD
  8
0
 10
33.18690495192446
 20
32.57861635220125
 30
0.0
 42
0.4142135623730951
  0
SEQEND
  5
DE
  8
0
  0
POLYLINE
  5
50
  8
0
 66
     1
 10
0.0
 20
0.0
 30
0.0
 70
     1
  0
VERTEX
  5
DF
  8
0
 10
14.68690495192446
 20
33.27861635220125
 30
0.0
 42
0.4142135623730951
  0
VERTEX
  5
E0
  8
0
 10
13.98690495192446
 20
32.57861635220125
 30
0.0
 42
0.4142135623730951
  0
VERTEX
  5
E1
  8
0
 10
14.68690495192446
 20
31.87861635220125
 30
0.0
 42
0.4142135623730951
  0
VERTEX
  5
E2
  8
0
 10
15.38690495192446
 20
32.57861635220125
 30
0.0
 42
0.4142135623730951
  0
SEQEND
  5
E3
  8
0
  0
POLYLINE
  5
51
  8
0
 66
     1
 10
0.0
 20
0.0
 30
0.0
 70
     1
  0
VERTEX
  5
E4
  8
0
 10
30.68690495192446
 20
17.27861635220125
 30
0.0
 42
0.4142135623730951
  0
VERTEX
  5
E5
  8
0
 10
29.98690495192446
 20
16.57861635220125
 30
0.0
 42
0.4142135623730951
  0
VERTEX
  5
E6
  8
0
 10
30.68690495192446
 20
15.87861635220125
 30
0.0
 42
0.4142135623730951
  0
VERTEX
  5
E7
  8
0
 10
31.38690495192446
 20
16.57861635220125
 30
0.0
 42
0.4142135623730951
  0
SEQEND
  5
E8
  8
0
  0
POLYLINE
  5
52
  8
0
 66
     1
 10
0.0
 20
0.0
 30
0.0
 70
     1
  0
VERTEX
  5
E9
  8
0
 10
46.68690495192446
 20
33.27861635220125
 30
0.0
 42
0.4142135623730951
  0
VERTEX
  5
EA
  8
0
 10
45.98690495192446
 20
32.57861635220125
 30
0.0
 42
0.4142135623730951
  0
VERTEX
  5
EB
  8
0
 10
46.68690495192446
 20
31.87861635220125
 30
0.0
 42
0.4142135623730951
  0
VERTEX
  5
EC
  8
0
 10
47.38690495192446
 20
32.57861635220125
 30
0.0
 42
0.4142135623730951
  0
SEQEND
  5
ED
  8
0
  0
POLYLINE
  5
53
  8
0
 66
     1
 10
0.0
 20
0.0
 30
0.0
 70
     1
  0
VERTEX
  5
EE
  8
0
 10
30.68690495192446
 20
49.27861635220125
 30
0.0
 42
0.4142135623730951
  0
VERTEX
  5
EF
  8
0
 10
29.98690495192446
 20
48.57861635220125
 30
0.0
 42
0.4142135623730951
  0
VERTEX
  5
F0
  8
0
 10
30.68690495192446
 20
47.87861635220125
 30
0.0
 42
0.4142135623730951
  0
VERTEX
  5
F1
  8
0
 10
31.38690495192446
 20
48.57861635220125
 30
0.0
 42
0.4142135623730951
  0
SEQEND
  5
F2
  8
0
  0
POLYLINE
  5
54
  8
0
 66
     1
 10
0.0
 20
0.0
 30
0.0
 70
     1
  0
VERTEX
  5
F3
  8
0
 10
30.68690495192446
 20
52.57861635220125
 30
0.0
 42
0.4142135623730951
  0
VERTEX
  5
F4
  8
0
 10
10.68690495192446
 20
32.57861635220125
 30
0.0
 42
0.4142135623730951
  0
VERTEX
  5
F5
  8
0
 10
30.68690495192446
 20
12.57861635220125
 30
0.0
 42
0.4142135623730951
  0
VERTEX
  5
F6
  8
0
 10
50.68690495192446
 20
32.57861635220125
 30
0.0
 42
0.4142135623730951
  0
SEQEND
  5
F7
  8
0
  0
POLYLINE
  5
55
  8
0
 66
     1
 10
0.0
 20
0.0
 30
0.0
  0
VERTEX
  5
F8
  8
0
 10
35.99020581082446
 20
36.46770364870125
 30
0.0
  0
VERTEX
  5
F9
  8
0
 10
43.06127362272446
 20
43.53877146060125
 30
0.0
  0
SEQEND
  5
FA
  8
0
  0
POLYLINE
  5
56
  8
0
 66
     1
 10
0.0
 20
0.0
 30
0.0
 70
     1
  0
VERTEX
  5
FB
  8
0
 10
14.84294295344652
 20
80.79048805031454
 30
0.0
  0
VERTEX
  5
FC
  8
0
 10
16.84294295344652
 20
80.79048805031454
 30
0.0
  0
VERTEX
  5
FD
  8
0
 10
16.84294295344652
 20
76.79048805031454
 30
0.0
  0
VERTEX
  5
FE
  8
0
 10
38.84294295344652
 20
76.79048805031454
 30
0.0
  0
VERTEX
  5
FF
  8
0
 10
16.84294295344652
 20
93.29048805031454
 30
0.0
  0
VERTEX
  5
100
  8
0
 10
16.84294295344652
 20
90.79048805031454
 30
0.0
  0
VERTEX
  5
101
  8
0
 10
14.84294295344652
 20
90.79048805031454
 30
0.0
  0
SEQEND
  5
102
  8
0
  0
POLYLINE
  5
57
  8
0
 66
     1
 10
0.0
 20
0.0
 30
0.0
 70
     1
  0
VERTEX
  5
103
  8
0
 10
48.64370064743845
 20
88.98992011190548
 30
0.0
  0
VERTEX
  5
104
  8
0
 10
46.64370064743844
 20
88.98992011190548
 30
0.0
  0
VERTEX
  5
105
  8
0
 10
46.64370064743844
 20
92.98992011190548
 30
0.0
  0
VERTEX
  5
106
  8
0
 10
24.64370064743845
 20
92.98992011190548
 30
0.0
  0
VERTEX
  5
107
  8
0
 10
46.64370064743844
 20
76.48992011190548
 30
0.0
  0
VERTEX
  5
108
  8
0
 10
46.64370064743844
 20
78.98992011190548
 30
0.0
  0
VERTEX
  5
109
  8
0
 10
48.64370064743845
 20
78.98992011190548
 30
0.0
  0
SEQEND
  5
10A
  8
0
  0
POLYLINE
  5
58
  8
0
 66
     1
 10
0.0
 20
0.0
 30
0.0
 70
     1
  0
VERTEX
  5
10B
  8
0
 10
15.70851276476726
 20
61.74795220125793
 30
0.0
  0
VERTEX
  5
10C
  8
0
 10
17.70851276476726
 20
61.74795220125793
 30
0.0
  0
VERTEX
  5
10D
  8
0
 10
17.70851276476726
 20
57.74795220125793
 30
0.0
  0
VERTEX
  5
10E
  8
0
 10
39.70851276476726
 20
57.74795220125793
 30
0.0
  0
VERTEX
  5
10F
  8
0
 10
17.70851276476726
 20
74.24795220125793
 30
0.0
  0
VERTEX
  5
110
  8
0
 10
17.70851276476726
 20
71.74795220125793
 30
0.0
  0
VERTEX
  5
111
  8
0
 10
15.70851276476726
 20
71.74795220125793
 30
0.0
  0
SEQEND
  5
112
  8
0
  0
POLYLINE
  5
59
  8
0
 66
     1
 10
0.0
 20
0.0
 30
0.0
 70
     1
  0
VERTEX
  5
113
  8
0
 10
49.5092704587592
 20
69.94738426284887
 30
0.0
  0
VERTEX
  5
114
  8
0
 10
47.50927045875919
 20
69.94738426284887
 30
0.0
  0
VERTEX
  5
115
  8
0
 10
47.50927045875919
 20
73.94738426284887
 30
0.0
  0
VERTEX
  5
116
  8
0
 10
25.5092704587592
 20
73.94738426284887
 30
0.0
  0
VERTEX
  5
117
  8
0
 10
47.50927045875919
 20
57.44738426284887
 30
0.0
  0
VERTEX
  5
118
  8
0
 10
47.50927045875919
 20
59.94738426284887
 30
0.0
  0
VERTEX
  5
119
  8
0
 10
49.5092704587592
 20
59.94738426284887
 30
0.0
  0
SEQEND
  5
11A
  8
0
  0
POLYLINE
  5
5A
  8
0
 66
     1
 10
0.0
 20
0.0
 30
0.0
 70
     1
  0
VERTEX
  5
11B
  8
0
 10
51.48539829935845
 20
81.0790113207548
 30
0.0
  0
VERTEX
  5
11C
  8
0
 10
53.48539829935845
 20
81.0790113207548
 30
0.0
  0
VERTEX
  5
11D
  8
0
 10
53.48539829935845
 20
77.0790113207548
 30
0.0
  0
VERTEX
  5
11E
  8
0
 10
75.48539829935845
 20
77.0790113207548
 30
0.0
  0
VERTEX
  5
11F
  8
0
 10
53.48539829935845
 20
93.5790113207548
 30
0.0
  0
VERTEX
  5
120
  8
0
 10
53.48539829935845
 20
91.0790113207548
 30
0.0
  0
VERTEX
  5
121
  8
0
 10
51.48539829935845
 20
91.0790113207548
 30
0.0
  0
SEQEND
  5
122
  8
0
  0
POLYLINE
  5
5B
  8
0
 66
     1
 10
0.0
 20
0.0
 30
0.0
 70
     1
  0
VERTEX
  5
123
  8
0
 10
85.28615599335038
 20
89.27844338234574
 30
0.0
  0
VERTEX
  5
124
  8
0
 10
83.28615599335038
 20
89.27844338234574
 30
0.0
  0
VERTEX
  5
125
  8
0
 10
83.28615599335038
 20
93.27844338234574
 30
0.0
  0
VERTEX
  5
126
  8
0
 10
61.28615599335038
 20
93.27844338234574
 30
0.0
  0
VERTEX
  5
127
  8
0
 10
83.28615599335038
 20
76.77844338234574
 30
0.0
  0
VERTEX
  5
128
  8
0
 10
83.28615599335038
 20
79.27844338234574
 30
0.0
  0
VERTEX
  5
129
  8
0
 10
85.28615599335038
 20
79.27844338234574
 30
0.0
  0
SEQEND
  5
12A
  8
0
  0
POLYLINE
  5
5C
  8
0
 66
     1
 10
0.0
 20
0.0
 30
0.0
 70
     1
  0
VERTEX
  5
12B
  8
0
 10
52.3509681106792
 20
62.0364754716982
 30
0.0
  0
VERTEX
  5
12C
  8
0
 10
54.3509681106792
 20
62.0364754716982
 30
0.0
  0
VERTEX
  5
12D
  8
0
 10
54.3509681106792
 20
58.0364754716982
 30
0.0
  0
VERTEX
  5
12E
  8
0
 10
76.35096811067919
 20
58.0364754716982
 30
0.0
  0
VERTEX
  5
12F
  8
0
 10
54.3509681106792
 20
74.5364754716982
 30
0.0
  0
VERTEX
  5
130
  8
0
 10
54.3509681106792
 20
72.0364754716982
 30
0.0
  0
VERTEX
  5
131
  8
0
 10
52.3509681106792
 20
72.0364754716982
 30
0.0
  0
SEQEND
  5
132
  8
0
  0
POLYLINE
  5
5D
  8
0
 66
     1
 10
0.0
 20
0.0
 30
0.0
 70
     1
  0
VERTEX
  5
133
  8
0
 10
86.15172580467113
 20
70.23590753328914
 30
0.0
  0
VERTEX
  5
134
  8
0
 10
84.15172580467112
 20
70.23590753328914
 30
0.0
  0
VERTEX
  5
135
  8
0
 10
84.15172580467112
 20
74.23590753328914
 30
0.0
  0
VERTEX
  5
136
  8
0
 10
62.15172580467113
 20
74.23590753328914
 30
0.0
  0
VERTEX
  5
137
  8
0
 10
84.15172580467112
 20
57.73590753328914
 30
0.0
  0
VERTEX
  5
138
  8
0
 10
84.15172580467112
 20
60.23590753328914
 30
0.0
  0
VERTEX
  5
139
  8
0
 10
86.15172580467113
 20
60.23590753328914
 30
0.0
  0
SEQEND
  5
13A
  8
0
  0
POLYLINE
  5
5E
  8
0
 66
     1
 10
0.0
 20
0.0
 30
0.0
 70
     1
  0
VERTEX
  5
13B
  8
0
 10
90.80823482766037
 20
81.66543486792466
 30
0.0
  0
VERTEX
  5
13C
  8
0
 10
92.80823482766037
 20
81.66543486792466
 30
0.0
  0
VERTEX
  5
13D
  8
0
 10
92.80823482766037
 20
77.66543486792466
 30
0.0
  0
VERTEX
  5
13E
  8
0
 10
114.8082348276604
 20
77.66543486792466
 30
0.0
  0
VERTEX
  5
13F
  8
0
 10
92.80823482766037
 20
94.16543486792466
 30
0.0
  0
VERTEX
  5
140
  8
0
 10
92.80823482766037
 20
91.66543486792466
 30
0.0
  0
VERTEX
  5
141
  8
0
 10
90.80823482766037
 20
91.66543486792466
 30
0.0
  0
SEQEND
  5
142
  8
0
  0
POLYLINE
  5
5F
  8
0
 66
     1
 10
0.0
 20
0.0
 30
0.0
 70
     1
  0
VERTEX
  5
143
  8
0
 10
124.6089925216523
 20
89.86486692951559
 30
0.0
  0
VERTEX
  5
144
  8
0
 10
122.6089925216523
 20
89.86486692951559
 30
0.0
  0
VERTEX
  5
145
  8
0
 10
122.6089925216523
 20
93.86486692951559
 30
0.0
  0
VERTEX
  5
146
  8
0
 10
100.6089925216523
 20
93.86486692951559
 30
0.0
  0
VERTEX
  5
147
  8
0
 10
122.6089925216523
 20
77.36486692951559
 30
0.0
  0
VERTEX
  5
148
  8
0
 10
122.6089925216523
 20
79.86486692951559
 30
0.0
  0
VERTEX
  5
149
  8
0
 10
124.6089925216523
 20
79.86486692951559
 30
0.0
  0
SEQEND
  5
14A
  8
0
  0
POLYLINE
  5
60
  8
0
 66
     1
 10
0.0
 20
0.0
 30
0.0
 70
     1
  0
VERTEX
  5
14B
  8
0
 10
91.67380463898112
 20
62.62289901886805
 30
0.0
  0
VERTEX
  5
14C
  8
0
 10
93.67380463898112
 20
62.62289901886805
 30
0.0
  0
VERTEX
  5
14D
  8
0
 10
93.67380463898112
 20
58.62289901886805
 30
0.0
  0
VERTEX
  5
14E
  8
0
 10
115.6738046389811
 20
58.62289901886805
 30
0.0
  0
VERTEX
  5
14F
  8
0
 10
93.67380463898112
 20
75.12289901886805
 30
0.0
  0
VERTEX
  5
150
  8
0
 10
93.67380463898112
 20
72.62289901886805
 30
0.0
  0
VERTEX
  5
151
  8
0
 10
91.67380463898112
 20
72.62289901886805
 30
0.0
  0
SEQEND
  5
152
  8
0
  0
POLYLINE
  5
61
  8
0
 66
     1
 10
0.0
 20
0.0
 30
0.0
 70
     1
  0
VERTEX
  5
153
  8
0
 10
125.4745623329731
 20
70.82233108045898
 30
0.0
  0
VERTEX
  5
154
  8
0
 10
123.474562332973
 20
70.82233108045898
 30
0.0
  0
VERTEX
  5
155
  8
0
 10
123.474562332973
 20
74.82233108045898
 30
0.0
  0
VERTEX
  5
156
  8
0
 10
101.4745623329731
 20
74.82233108045898
 30
0.0
  0
VERTEX
  5
157
  8
0
 10
123.474562332973
 20
58.32233108045899
 30
0.0
  0
VERTEX
  5
158
  8
0
 10
123.474562332973
 20
60.82233108045899
 30
0.0
  0
VERTEX
  5
159
  8
0
 10
125.4745623329731
 20
60.82233108045899
 30
0.0
  0
SEQEND
  5
15A
  8
0
  0
POLYLINE
  5
62
  8
0
 66
     1
 10
0.0
 20
0.0
 30
0.0
  0
VERTEX
  5
15B
  8
0
 10
78.68553367243534
 20
27.98840309346821
 30
0.0
  0
VERTEX
  5
15C
  8
0
 10
77.27132011003533
 20
26.57418953106821
 30
0.0
  0
SEQEND
  5
15D
  8
0
  0
POLYLINE
  5
63
  8
0
 66
     1
 10
0.0
 20
0.0
 30
0.0
  0
VERTEX
  5
15E
  8
0
 10
85.75660148433533
 20
20.91733528156821
 30
0.0
  0
VERTEX
  5
15F
  8
0
 10
78.68553367243534
 20
27.98840309346821
 30
0.0
  0
SEQEND
  5
160
  8
0
  0
POLYLINE
  5
64
  8
0
 66
     1
 10
0.0
 20
0.0
 30
0.0
  0
VERTEX
  5
161
  8
0
 10
84.34238792193534
 20
19.50312171916821
 30
0.0
  0
VERTEX
  5
162
  8
0
 10
85.75660148433533
 20
20.91733528156821
 30
0.0
  0
SEQEND
  5
163
  8
0
  0
POLYLINE
  5
65
  8
0
 66
     1
 10
0.0
 20
0.0
 30
0.0
  0
VERTEX
  5
164
  8
0
 10
77.27132011003533
 20
26.57418953106821
 30
0.0
  0
VERTEX
  5
165
  8
0
 10
84.34238792193534
 20
19.50312171916821
 30
0.0
  0
SEQEND
  5
166
  8
0
  0
POLYLINE
  5
66
  8
0
 66
     1
 10
0.0
 20
0.0
 30
0.0
  0
VERTEX
  5
167
  8
0
 10
69.49314551703534
 20
26.57418953106821
 30
0.0
  0
VERTEX
  5
168
  8
0
 10
68.07893195463534
 20
27.98840309346821
 30
0.0
  0
SEQEND
  5
169
  8
0
  0
POLYLINE
  5
67
  8
0
 66
     1
 10
0.0
 20
0.0
 30
0.0
  0
VERTEX
  5
16A
  8
0
 10
62.42207770513534
 20
19.50312171916821
 30
0.0
  0
VERTEX
  5
16B
  8
0
 10
69.49314551703534
 20
26.57418953106821
 30
0.0
  0
SEQEND
  5
16C
  8
0
  0
POLYLINE
  5
68
  8
0
 66
     1
 10
0.0
 20
0.0
 30
0.0
  0
VERTEX
  5
16D
  8
0
 10
61.00786414273534
 20
20.91733528156821
 30
0.0
  0
VERTEX
  5
16E
  8
0
 10
62.42207770513534
 20
19.50312171916821
 30
0.0
  0
SEQEND
  5
16F
  8
0
  0
POLYLINE
  5
69
  8
0
 66
     1
 10
0.0
 20
0.0
 30
0.0
  0
VERTEX
  5
170
  8
0
 10
68.07893195463534
 20
27.98840309346821
 30
0.0
  0
VERTEX
  5
171
  8
0
 10
61.00786414273534
 20
20.91733528156821
 30
0.0
  0
SEQEND
  5
172
  8
0
  0
POLYLINE
  5
6A
  8
0
 66
     1
 10
0.0
 20
0.0
 30
0.0
  0
VERTEX
  5
173
  8
0
 10
68.07893195463534
 20
35.76657768646821
 30
0.0
  0
VERTEX
  5
174
  8
0
 10
69.49314551703534
 20
37.18079124886821
 30
0.0
  0
SEQEND
  5
175
  8
0
  0
POLYLINE
  5
6B
  8
0
 66
     1
 10
0.0
 20
0.0
 30
0.0
  0
VERTEX
  5
176
  8
0
 10
61.00786414273534
 20
42.83764549836821
 30
0.0
  0
VERTEX
  5
177
  8
0
 10
68.07893195463534
 20
35.76657768646821
 30
0.0
  0
SEQEND
  5
178
  8
0
  0
POLYLINE
  5
6C
  8
0
 66
     1
 10
0.0
 20
0.0
 30
0.0
  0
VERTEX
  5
179
  8
0
 10
62.42207770513534
 20
44.2518590607682
 30
0.0
  0
VERTEX
  5
17A
  8
0
 10
61.00786414273534
 20
42.83764549836821
 30
0.0
  0
SEQEND
  5
17B
  8
0
  0
POLYLINE
  5
6D
  8
0
 66
     1
 10
0.0
 20
0.0
 30
0.0
  0
VERTEX
  5
17C
  8
0
 10
69.49314551703534
 20
37.18079124886821
 30
0.0
  0
VERTEX
  5
17D
  8
0
 10
62.42207770513534
 20
44.2518590607682
 30
0.0
  0
SEQEND
  5
17E
  8
0
  0
POLYLINE
  5
6E
  8
0
 66
     1
 10
0.0
 20
0.0
 30
0.0
  0
VERTEX
  5
17F
  8
0
 10
77.27132011003533
 20
37.18079124886821
 30
0.0
  0
VERTEX
  5
180
  8
0
 10
78.68553367243534
 20
35.76657768646821
 30
0.0
  0
SEQEND
  5
181
  8
0
  0
POLYLINE
  5
6F
  8
0
 66
     1
 10
0.0
 20
0.0
 30
0.0
  0
VERTEX
  5
182
  8
0
 10
84.34238792193534
 20
44.2518590607682
 30
0.0
  0
VERTEX
  5
183
  8
0
 10
77.27132011003533
 20
37.18079124886821
 30
0.0
  0
SEQEND
  5
184
  8
0
  0
POLYLINE
  5
70
  8
0
 66
     1
 10
0.0
 20
0.0
 30
0.0
  0
VERTEX
  5
185
  8
0
 10
85.75660148433533
 20
42.83764549836821
 30
0.0
  0
VERTEX
  5
186
  8
0
 10
84.34238792193534
 20
44.2518590607682
 30
0.0
  0
SEQEND
  5
187
  8
0
  0
POLYLINE
  5
71
  8
0
 66
     1
 10
0.0
 20
0.0
 30
0.0
 70
     1
  0
VERTEX
  5
188
  8
0
 10
73.38223281353534
 20
34.37749038996821
 30
0.0
 42
0.4142135623730951
  0
VERTEX
  5
189
  8
0
 10
70.88223281353534
 20
31.87749038996821
 30
0.0
 42
0.4142135623730951
  0
VERTEX
  5
18A
  8
0
 10
73.38223281353534
 20
29.37749038996821
 30
0.0
 42
0.4142135623730951
  0
VERTEX
  5
18B
  8
0
 10
75.88223281353534
 20
31.87749038996821
 30
0.0
 42
0.4142135623730951
  0
SEQEND
  5
18C
  8
0
  0
POLYLINE
  5
72
  8
0
 66
     1
 10
0.0
 20
0.0
 30
0.0
 70
     1
  0
VERTEX
  5
18D
  8
0
 10
57.38223281353534
 20
32.57749038996821
 30
0.0
 42
0.4142135623730951
  0
VERTEX
  5
18E
  8
0
 10
56.68223281353534
 20
31.87749038996821
 30
0.0
 42
0.4142135623730951
  0
VERTEX
  5
18F
  8
0
 10
57.38223281353534
 20
31.17749038996821
 30
0.0
 42
0.4142135623730951
  0
VERTEX
  5
190
  8
0
 10
58.08223281353534
 20
31.87749038996821
 30
0.0
 42
0.4142135623730951
  0
SEQEND
  5
191
  8
0
  0
POLYLINE
  5
73
  8
0
 66
     1
 10
0.0
 20
0.0
 30
0.0
 70
     1
  0
VERTEX
  5
192
  8
0
 10
73.38223281353534
 20
16.57749038996821
 30
0.0
 42
0.4142135623730951
  0
VERTEX
  5
193
  8
0
 10
72.68223281353534
 20
15.87749038996821
 30
0.0
 42
0.4142135623730951
  0
VERTEX
  5
194
  8
0
 10
73.38223281353534
 20
15.17749038996821
 30
0.0
 42
0.4142135623730951
  0
VERTEX
  5
195
  8
0
 10
74.08223281353534
 20
15.87749038996821
 30
0.0
 42
0.4142135623730951
  0
SEQEND
  5
196
  8
0
  0
POLYLINE
  5
74
  8
0
 66
     1
 10
0.0
 20
0.0
 30
0.0
 70
     1
  0
VERTEX
  5
197
  8
0
 10
89.38223281353534
 20
32.57749038996821
 30
0.0
 42
0.4142135623730951
  0
VERTEX
  5
198
  8
0
 10
88.68223281353534
 20
31.87749038996821
 30
0.0
 42
0.4142135623730951
  0
VERTEX
  5
199
  8
0
 10
89.38223281353534
 20
31.17749038996821
 30
0.0
 42
0.4142135623730951
  0
VERTEX
  5
19A
  8
0
 10
90.08223281353534
 20
31.87749038996821
 30
0.0
 42
0.4142135623730951
  0
SEQEND
  5
19B
  8
0
  0
POLYLINE
  5
75
  8
0
 66
     1
 10
0.0
 20
0.0
 30
0.0
 70
     1
  0
VERTEX
  5
19C
  8
0
 10
73.38223281353534
 20
48.57749038996821
 30
0.0
 42
0.4142135623730951
  0
VERTEX
  5
19D
  8
0
 10
72.68223281353534
 20
47.87749038996821
 30
0.0
 42
0.4142135623730951
  0
VERTEX
  5
19E
  8
0
 10
73.38223281353534
 20
47.17749038996821
 30
0.0
 42
0.4142135623730951
  0
VERTEX
  5
19F
  8
0
 10
74.08223281353534
 20
47.87749038996821
 30
0.0
 42
0.4142135623730951
  0
SEQEND
  5
1A0
  8
0
  0
POLYLINE
  5
76
  8
0
 66
     1
 10
0.0
 20
0.0
 30
0.0
 70
     1
  0
VERTEX
  5
1A1
  8
0
 10
73.38223281353534
 20
51.87749038996821
 30
0.0
 42
0.4142135623730951
  0
VERTEX
  5
1A2
  8
0
 10
53.38223281353534
 20
31.87749038996821
 30
0.0
 42
0.4142135623730951
  0
VERTEX
  5
1A3
  8
0
 10
73.38223281353534
 20
11.87749038996821
 30
0.0
 42
0.4142135623730951
  0
VERTEX
  5
1A4
  8
0
 10
93.38223281353534
 20
31.87749038996821
 30
0.0
 42
0.4142135623730951
  0
SEQEND
  5
1A5
  8
0
  0
POLYLINE
  5
77
  8
0
 66
     1
 10
0.0
 20
0.0
 30
0.0
  0
VERTEX
  5
1A6
  8
0
 10
78.68553367243534
 20
35.76657768646821
 30
0.0
  0
VERTEX
  5
1A7
  8
0
 10
85.75660148433533
 20
42.83764549836821
 30
0.0
  0
SEQEND
  5
1A8
  8
0
  0
POLYLINE
  5
78
  8
0
 66
     1
 10
0.0
 20
0.0
 30
0.0
  0
VERTEX
  5
1A9
  8
0
 10
122.8973899854485
 20
29.88336681679167
 30
0.0
  0
VERTEX
  5
1AA
  8
0
 10
121.4831764230485
 20
28.46915325439167
 30
0.0
  0
SEQEND
  5
1AB
  8
0
  0
POLYLINE
  5
79
  8
0
 66
     1
 10
0.0
 20
0.0
 30
0.0
  0
VERTEX
  5
1AC
  8
0
 10
129.9684577973485
 20
22.81229900489167
 30
0.0
  0
VERTEX
  5
1AD
  8
0
 10
122.8973899854485
 20
29.88336681679167
 30
0.0
  0
SEQEND
  5
1AE
  8
0
  0
POLYLINE
  5
7A
  8
0
 66
     1
 10
0.0
 20
0.0
 30
0.0
  0
VERTEX
  5
1AF
  8
0
 10
128.5542442349486
 20
21.39808544249167
 30
0.0
  0
VERTEX
  5
1B0
  8
0
 10
129.9684577973485
 20
22.81229900489167
 30
0.0
  0
SEQEND
  5
1B1
  8
0
  0
POLYLINE
  5
7B
  8
0
 66
     1
 10
0.0
 20
0.0
 30
0.0
  0
VERTEX
  5
1B2
  8
0
 10
121.4831764230485
 20
28.46915325439167
 30
0.0
  0
VERTEX
  5
1B3
  8
0
 10
128.5542442349486
 20
21.39808544249167
 30
0.0
  0
SEQEND
  5
1B4
  8
0
  0
POLYLINE
  5
7C
  8
0
 66
     1
 10
0.0
 20
0.0
 30
0.0
  0
VERTEX
  5
1B5
  8
0
 10
113.7050018300485
 20
28.46915325439167
 30
0.0
  0
VERTEX
  5
1B6
  8
0
 10
112.2907882676485
 20
29.88336681679167
 30
0.0
  0
SEQEND
  5
1B7
  8
0
  0
POLYLINE
  5
7D
  8
0
 66
     1
 10
0.0
 20
0.0
 30
0.0
  0
VERTEX
  5
1B8
  8
0
 10
106.6339340181485
 20
21.39808544249167
 30
0.0
  0
VERTEX
  5
1B9
  8
0
 10
113.7050018300485
 20
28.46915325439167
 30
0.0
  0
SEQEND
  5
1BA
  8
0
  0
POLYLINE
  5
7E
  8
0
 66
     1
 10
0.0
 20
0.0
 30
0.0
  0
VERTEX
  5
1BB
  8
0
 10
105.2197204557485
 20
22.81229900489167
 30
0.0
  0
VERTEX
  5
1BC
  8
0
 10
106.6339340181485
 20
21.39808544249167
 30
0.0
  0
SEQEND
  5
1BD
  8
0
  0
POLYLINE
  5
7F
  8
0
 66
     1
 10
0.0
 20
0.0
 30
0.0
  0
VERTEX
  5
1BE
  8
0
 10
112.2907882676485
 20
29.88336681679167
 30
0.0
  0
VERTEX
  5
1BF
  8
0
 10
105.2197204557485
 20
22.81229900489167
 30
0.0
  0
SEQEND
  5
1C0
  8
0
  0
POLYLINE
  5
80
  8
0
 66
     1
 10
0.0
 20
0.0
 30
0.0
  0
VERTEX
  5
1C1
  8
0
 10
112.2907882676485
 20
37.66154140979167
 30
0.0
  0
VERTEX
  5
1C2
  8
0
 10
113.7050018300485
 20
39.07575497219167
 30
0.0
  0
SEQEND
  5
1C3
  8
0
  0
POLYLINE
  5
81
  8
0
 66
     1
 10
0.0
 20
0.0
 30
0.0
  0
VERTEX
  5
1C4
  8
0
 10
105.2197204557485
 20
44.73260922169167
 30
0.0
  0
VERTEX
  5
1C5
  8
0
 10
112.2907882676485
 20
37.66154140979167
 30
0.0
  0
SEQEND
  5
1C6
  8
0
  0
POLYLINE
  5
82
  8
0
 66
     1
 10
0.0
 20
0.0
 30
0.0
  0
VERTEX
  5
1C7
  8
0
 10
106.6339340181485
 20
46.14682278409167
 30
0.0
  0
VERTEX
  5
1C8
  8
0
 10
105.2197204557485
 20
44.73260922169167
 30
0.0
  0
SEQEND
  5
1C9
  8
0
  0
POLYLINE
  5
83
  8
0
 66
     1
 10
0.0
 20
0.0
 30
0.0
  0
VERTEX
  5
1CA
  8
0
 10
113.7050018300485
 20
39.07575497219167
 30
0.0
  0
VERTEX
  5
1CB
  8
0
 10
106.6339340181485
 20
46.14682278409167
 30
0.0
  0
SEQEND
  5
1CC
  8
0
  0
POLYLINE
  5
84
  8
0
 66
     1
 10
0.0
 20
0.0
 30
0.0
  0
VERTEX
  5
1CD
  8
0
 10
121.4831764230485
 20
39.07575497219167
 30
0.0
  0
VERTEX
  5
1CE
  8
0
 10
122.8973899854485
 20
37.66154140979167
 30
0.0
  0
SEQEND
  5
1CF
  8
0
  0
POLYLINE
  5
85
  8
0
 66
     1
 10
0.0
 20
0.0
 30
0.0
  0
VERTEX
  5
1D0
  8
0
 10
128.5542442349486
 20
46.14682278409167
 30
0.0
  0
VERTEX
  5
1D1
  8
0
 10
121.4831764230485
 20
39.07575497219167
 30
0.0
  0
SEQEND
  5
1D2
  8
0
  0
POLYLINE
  5
86
  8
0
 66
     1
 10
0.0
 20
0.0
 30
0.0
  0
VERTEX
  5
1D3
  8
0
 10
129.9684577973485
 20
44.73260922169167
 30
0.0
  0
VERTEX
  5
1D4
  8
0
 10
128.5542442349486
 20
46.14682278409167
 30
0.0
  0
SEQEND
  5
1D5
  8
0
  0
POLYLINE
  5
87
  8
0
 66
     1
 10
0.0
 20
0.0
 30
0.0
 70
     1
  0
VERTEX
  5
1D6
  8
0
 10
117.5940891265485
 20
36.27245411329167
 30
0.0
 42
0.4142135623730951
  0
VERTEX
  5
1D7
  8
0
 10
115.0940891265485
 20
33.77245411329167
 30
0.0
 42
0.4142135623730951
  0
VERTEX
  5
1D8
  8
0
 10
117.5940891265485
 20
31.27245411329167
 30
0.0
 42
0.4142135623730951
  0
VERTEX
  5
1D9
  8
0
 10
120.0940891265485
 20
33.77245411329167
 30
0.0
 42
0.4142135623730951
  0
SEQEND
  5
1DA
  8
0
  0
POLYLINE
  5
88
  8
0
 66
     1
 10
0.0
 20
0.0
 30
0.0
 70
     1
  0
VERTEX
  5
1DB
  8
0
 10
101.5940891265485
 20
34.47245411329168
 30
0.0
 42
0.4142135623730951
  0
VERTEX
  5
1DC
  8
0
 10
100.8940891265485
 20
33.77245411329167
 30
0.0
 42
0.4142135623730951
  0
VERTEX
  5
1DD
  8
0
 10
101.5940891265485
 20
33.07245411329167
 30
0.0
 42
0.4142135623730951
  0
VERTEX
  5
1DE
  8
0
 10
102.2940891265485
 20
33.77245411329167
 30
0.0
 42
0.4142135623730951
  0
SEQEND
  5
1DF
  8
0
  0
POLYLINE
  5
89
  8
0
 66
     1
 10
0.0
 20
0.0
 30
0.0
 70
     1
  0
VERTEX
  5
1E0
  8
0
 10
117.5940891265485
 20
18.47245411329167
 30
0.0
 42
0.4142135623730951
  0
VERTEX
  5
1E1
  8
0
 10
116.8940891265485
 20
17.77245411329167
 30
0.0
 42
0.4142135623730951
  0
VERTEX
  5
1E2
  8
0
 10
117.5940891265485
 20
17.07245411329167
 30
0.0
 42
0.4142135623730951
  0
VERTEX
  5
1E3
  8
0
 10
118.2940891265485
 20
17.77245411329167
 30
0.0
 42
0.4142135623730951
  0
SEQEND
  5
1E4
  8
0
  0
POLYLINE
  5
8A
  8
0
 66
     1
 10
0.0
 20
0.0
 30
0.0
 70
     1
  0
VERTEX
  5
1E5
  8
0
 10
133.5940891265485
 20
34.47245411329168
 30
0.0
 42
0.4142135623730951
  0
VERTEX
  5
1E6
  8
0
 10
132.8940891265485
 20
33.77245411329167
 30
0.0
 42
0.4142135623730951
  0
VERTEX
  5
1E7
  8
0
 10
133.5940891265485
 20
33.07245411329167
 30
0.0
 42
0.4142135623730951
  0
VERTEX
  5
1E8
  8
0
 10
134.2940891265486
 20
33.77245411329167
 30
0.0
 42
0.4142135623730951
  0
SEQEND
  5
1E9
  8
0
  0
POLYLINE
  5
8B
  8
0
 66
     1
 10
0.0
 20
0.0
 30
0.0
 70
     1
  0
VERTEX
  5
1EA
  8
0
 10
117.5940891265485
 20
50.47245411329168
 30
0.0
 42
0.4142135623730951
  0
VERTEX
  5
1EB
  8
0
 10
116.8940891265485
 20
49.77245411329167
 30
0.0
 42
0.4142135623730951
  0
VERTEX
  5
1EC
  8
0
 10
117.5940891265485
 20
49.07245411329167
 30
0.0
 42
0.4142135623730951
  0
VERTEX
  5
1ED
  8
0
 10
118.2940891265485
 20
49.77245411329167
 30
0.0
 42
0.4142135623730951
  0
SEQEND
  5
1EE
  8
0
  0
POLYLINE
  5
8C
  8
0
 66
     1
 10
0.0
 20
0.0
 30
0.0
 70
     1
  0
VERTEX
  5
1EF
  8
0
 10
117.5940891265485
 20
53.77245411329167
 30
0.0
 42
0.4142135623730951
  0
VERTEX
  5
1F0
  8
0
 10
97.59408912654854
 20
33.77245411329167
 30
0.0
 42
0.4142135623730951
  0
VERTEX
  5
1F1
  8
0
 10
117.5940891265485
 20
13.77245411329167
 30
0.0
 42
0.4142135623730951
  0
VERTEX
  5
1F2
  8
0
 10
137.5940891265485
 20
33.77245411329167
 30
0.0
 42
0.4142135623730951
  0
SEQEND
  5
1F3
  8
0
  0
POLYLINE
  5
8D
  8
0
 66
     1
 10
0.0
 20
0.0
 30
0.0
  0
VERTEX
  5
1F4
  8
0
 10
122.8973899854485
 20
37.66154140979167
 30
0.0
  0
VERTEX
  5
1F5
  8
0
 10
129.9684577973485
 20
44.73260922169167
 30
0.0
  0
SEQEND
  5
1F6
  8
0
  0
POLYLINE
  5
8E
  8
0
 66
     1
 10
0.0
 20
0.0
 30
0.0
  0
VERTEX
  5
1F7
  8
0
 10
165.5927178470594
 20
29.18224085455862
 30
0.0
  0
VERTEX
  5
1F8
  8
0
 10
164.1785042846594
 20
27.76802729215862
 30
0.0
  0
SEQEND
  5
1F9
  8
0
  0
POLYLINE
  5
8F
  8
0
 66
     1
 10
0.0
 20
0.0
 30
0.0
  0
VERTEX
  5
1FA
  8
0
 10
172.6637856589594
 20
22.11117304265862
 30
0.0
  0
VERTEX
  5
1FB
  8
0
 10
165.5927178470594
 20
29.18224085455862
 30
0.0
  0
SEQEND
  5
1FC
  8
0
  0
POLYLINE
  5
90
  8
0
 66
     1
 10
0.0
 20
0.0
 30
0.0
  0
VERTEX
  5
1FD
  8
0
 10
171.2495720965594
 20
20.69695948025863
 30
0.0
  0
VERTEX
  5
1FE
  8
0
 10
172.6637856589594
 20
22.11117304265862
 30
0.0
  0
SEQEND
  5
1FF
  8
0
  0
POLYLINE
  5
91
  8
0
 66
     1
 10
0.0
 20
0.0
 30
0.0
  0
VERTEX
  5
200
  8
0
 10
164.1785042846594
 20
27.76802729215862
 30
0.0
  0
VERTEX
  5
201
  8
0
 10
171.2495720965594
 20
20.69695948025863
 30
0.0
  0
SEQEND
  5
202
  8
0
  0
POLYLINE
  5
92
  8
0
 66
     1
 10
0.0
 20
0.0
 30
0.0
  0
VERTEX
  5
203
  8
0
 10
156.4003296916594
 20
27.76802729215862
 30
0.0
  0
VERTEX
  5
204
  8
0
 10
154.9861161292594
 20
29.18224085455862
 30
0.0
  0
SEQEND
  5
205
  8
0
  0
POLYLINE
  5
93
  8
0
 66
     1
 10
0.0
 20
0.0
 30
0.0
  0
VERTEX
  5
206
  8
0
 10
149.3292618797594
 20
20.69695948025863
 30
0.0
  0
VERTEX
  5
207
  8
0
 10
156.4003296916594
 20
27.76802729215862
 30
0.0
  0
SEQEND
  5
208
  8
0
  0
POLYLINE
  5
94
  8
0
 66
     1
 10
0.0
 20
0.0
 30
0.0
  0
VERTEX
  5
209
  8
0
 10
147.9150483173594
 20
22.11117304265862
 30
0.0
  0
VERTEX
  5
20A
  8
0
 10
149.3292618797594
 20
20.69695948025863
 30
0.0
  0
SEQEND
  5
20B
  8
0
  0
POLYLINE
  5
95
  8
0
 66
     1
 10
0.0
 20
0.0
 30
0.0
  0
VERTEX
  5
20C
  8
0
 10
154.9861161292594
 20
29.18224085455862
 30
0.0
  0
VERTEX
  5
20D
  8
0
 10
147.9150483173594
 20
22.11117304265862
 30
0.0
  0
SEQEND
  5
20E
  8
0
  0
POLYLINE
  5
96
  8
0
 66
     1
 10
0.0
 20
0.0
 30
0.0
  0
VERTEX
  5
20F
  8
0
 10
154.9861161292594
 20
36.96041544755863
 30
0.0
  0
VERTEX
  5
210
  8
0
 10
156.4003296916594
 20
38.37462900995862
 30
0.0
  0
SEQEND
  5
211
  8
0
  0
POLYLINE
  5
97
  8
0
 66
     1
 10
0.0
 20
0.0
 30
0.0
  0
VERTEX
  5
212
  8
0
 10
147.9150483173594
 20
44.03148325945862
 30
0.0
  0
VERTEX
  5
213
  8
0
 10
154.9861161292594
 20
36.96041544755863
 30
0.0
  0
SEQEND
  5
214
  8
0
  0
POLYLINE
  5
98
  8
0
 66
     1
 10
0.0
 20
0.0
 30
0.0
  0
VERTEX
  5
215
  8
0
 10
149.3292618797594
 20
45.44569682185862
 30
0.0
  0
VERTEX
  5
216
  8
0
 10
147.9150483173594
 20
44.03148325945862
 30
0.0
  0
SEQEND
  5
217
  8
0
  0
POLYLINE
  5
99
  8
0
 66
     1
 10
0.0
 20
0.0
 30
0.0
  0
VERTEX
  5
218
  8
0
 10
156.4003296916594
 20
38.37462900995862
 30
0.0
  0
VERTEX
  5
219
  8
0
 10
149.3292618797594
 20
45.44569682185862
 30
0.0
  0
SEQEND
  5
21A
  8
0
  0
POLYLINE
  5
9A
  8
0
 66
     1
 10
0.0
 20
0.0
 30
0.0
  0
VERTEX
  5
21B
  8
0
 10
164.1785042846594
 20
38.37462900995862
 30
0.0
  0
VERTEX
  5
21C
  8
0
 10
165.5927178470594
 20
36.96041544755863
 30
0.0
  0
SEQEND
  5
21D
  8
0
  0
POLYLINE
  5
9B
  8
0
 66
     1
 10
0.0
 20
0.0
 30
0.0
  0
VERTEX
  5
21E
  8
0
 10
171.2495720965594
 20
45.44569682185862
 30
0.0
  0
VERTEX
  5
21F
  8
0
 10
164.1785042846594
 20
38.37462900995862
 30
0.0
  0
SEQEND
  5
220
  8
0
  0
POLYLINE
  5
9C
  8
0
 66
     1
 10
0.0
 20
0.0
 30
0.0
  0
VERTEX
  5
221
  8
0
 10
172.6637856589594
 20
44.03148325945862
 30
0.0
  0
VERTEX
  5
222
  8
0
 10
171.2495720965594
 20
45.44569682185862
 30
0.0
  0
SEQEND
  5
223
  8
0
  0
POLYLINE
  5
9D
  8
0
 66
     1
 10
0.0
 20
0.0
 30
0.0
 70
     1
  0
VERTEX
  5
224
  8
0
 10
160.2894169881594
 20
35.57132815105862
 30
0.0
 42
0.4142135623730951
  0
VERTEX
  5
225
  8
0
 10
157.7894169881594
 20
33.07132815105862
 30
0.0
 42
0.4142135623730951
  0
VERTEX
  5
226
  8
0
 10
160.2894169881594
 20
30.57132815105863
 30
0.0
 42
0.4142135623730951
  0
VERTEX
  5
227
  8
0
 10
162.7894169881594
 20
33.07132815105862
 30
0.0
 42
0.4142135623730951
  0
SEQEND
  5
228
  8
0
  0
POLYLINE
  5
9E
  8
0
 66
     1
 10
0.0
 20
0.0
 30
0.0
 70
     1
  0
VERTEX
  5
229
  8
0
 10
144.2894169881594
 20
33.77132815105863
 30
0.0
 42
0.4142135623730951
  0
VERTEX
  5
22A
  8
0
 10
143.5894169881594
 20
33.07132815105862
 30
0.0
 42
0.4142135623730951
  0
VERTEX
  5
22B
  8
0
 10
144.2894169881594
 20
32.37132815105863
 30
0.0
 42
0.4142135623730951
  0
VERTEX
  5
22C
  8
0
 10
144.9894169881594
 20
33.07132815105862
 30
0.0
 42
0.4142135623730951
  0
SEQEND
  5
22D
  8
0
  0
POLYLINE
  5
9F
  8
0
 66
     1
 10
0.0
 20
0.0
 30
0.0
 70
     1
  0
VERTEX
  5
22E
  8
0
 10
160.2894169881594
 20
17.77132815105863
 30
0.0
 42
0.4142135623730951
  0
VERTEX
  5
22F
  8
0
 10
159.5894169881594
 20
17.07132815105863
 30
0.0
 42
0.4142135623730951
  0
VERTEX
  5
230
  8
0
 10
160.2894169881594
 20
16.37132815105863
 30
0.0
 42
0.4142135623730951
  0
VERTEX
  5
231
  8
0
 10
160.9894169881594
 20
17.07132815105863
 30
0.0
 42
0.4142135623730951
  0
SEQEND
  5
232
  8
0
  0
POLYLINE
  5
A0
  8
0
 66
     1
 10
0.0
 20
0.0
 30
0.0
 70
     1
  0
VERTEX
  5
233
  8
0
 10
176.2894169881594
 20
33.77132815105863
 30
0.0
 42
0.4142135623730951
  0
VERTEX
  5
234
  8
0
 10
175.5894169881594
 20
33.07132815105862
 30
0.0
 42
0.4142135623730951
  0
VERTEX
  5
235
  8
0
 10
176.2894169881594
 20
32.37132815105863
 30
0.0
 42
0.4142135623730951
  0
VERTEX
  5
236
  8
0
 10
176.9894169881594
 20
33.07132815105862
 30
0.0
 42
0.4142135623730951
  0
SEQEND
  5
237
  8
0
  0
POLYLINE
  5
A1
  8
0
 66
     1
 10
0.0
 20
0.0
 30
0.0
 70
     1
  0
VERTEX
  5
238
  8
0
 10
160.2894169881594
 20
49.77132815105863
 30
0.0
 42
0.4142135623730951
  0
VERTEX
  5
239
  8
0
 10
159.5894169881594
 20
49.07132815105862
 30
0.0
 42
0.4142135623730951
  0
VERTEX
  5
23A
  8
0
 10
160.2894169881594
 20
48.37132815105862
 30
0.0
 42
0.4142135623730951
  0
VERTEX
  5
23B
  8
0
 10
160.9894169881594
 20
49.07132815105862
 30
0.0
 42
0.4142135623730951
  0
SEQEND
  5
23C
  8
0
  0
POLYLINE
  5
A2
  8
0
 66
     1
 10
0.0
 20
0.0
 30
0.0
 70
     1
  0
VERTEX
  5
23D
  8
0
 10
160.2894169881594
 20
53.07132815105862
 30
0.0
 42
0.4142135623730951
  0
VERTEX
  5
23E
  8
0
 10
140.2894169881594
 20
33.07132815105862
 30
0.0
 42
0.4142135623730951
  0
VERTEX
  5
23F
  8
0
 10
160.2894169881594
 20
13.07132815105863
 30
0.0
 42
0.4142135623730951
  0
VERTEX
  5
240
  8
0
 10
180.2894169881594
 20
33.07132815105862
 30
0.0
 42
0.4142135623730951
  0
SEQEND
  5
241
  8
0
  0
POLYLINE
  5
A3
  8
0
 66
     1
 10
0.0
 20
0.0
 30
0.0
  0
VERTEX
  5
242
  8
0
 10
165.5927178470594
 20
36.96041544755863
 30
0.0
  0
VERTEX
  5
243
  8
0
 10
172.6637856589594
 20
44.03148325945862
 30
0.0
  0
SEQEND
  5
244
  8
0
  0
POLYLINE
  5
A4
  8
0
 66
     1
 10
0.0
 20
0.0
 30
0.0
 70
     1
  0
VERTEX
  5
245
  8
0
 10
129.2655015446415
 20
82.45021816352215
 30
0.0
  0
VERTEX
  5
246
  8
0
 10
131.2655015446415
 20
82.45021816352215
 30
0.0
  0
VERTEX
  5
247
  8
0
 10
131.2655015446415
 20
78.45021816352215
 30
0.0
  0
VERTEX
  5
248
  8
0
 10
153.2655015446415
 20
78.45021816352215
 30
0.0
  0
VERTEX
  5
249
  8
0
 10
131.2655015446415
 20
94.95021816352215
 30
0.0
  0
VERTEX
  5
24A
  8
0
 10
131.2655015446415
 20
92.45021816352215
 30
0.0
  0
VERTEX
  5
24B
  8
0
 10
129.2655015446415
 20
92.45021816352215
 30
0.0
  0
SEQEND
  5
24C
  8
0
  0
POLYLINE
  5
A5
  8
0
 66
     1
 10
0.0
 20
0.0
 30
0.0
 70
     1
  0
VERTEX
  5
24D
  8
0
 10
163.0662592386334
 20
90.64965022511308
 30
0.0
  0
VERTEX
  5
24E
  8
0
 10
161.0662592386334
 20
90.64965022511308
 30
0.0
  0
VERTEX
  5
24F
  8
0
 10
161.0662592386334
 20
94.64965022511308
 30
0.0
  0
VERTEX
  5
250
  8
0
 10
139.0662592386334
 20
94.64965022511308
 30
0.0
  0
VERTEX
  5
251
  8
0
 10
161.0662592386334
 20
78.14965022511308
 30
0.0
  0
VERTEX
  5
252
  8
0
 10
161.0662592386334
 20
80.64965022511308
 30
0.0
  0
VERTEX
  5
253
  8
0
 10
163.0662592386334
 20
80.64965022511308
 30
0.0
  0
SEQEND
  5
254
  8
0
  0
POLYLINE
  5
A6
  8
0
 66
     1
 10
0.0
 20
0.0
 30
0.0
 70
     1
  0
VERTEX
  5
255
  8
0
 10
130.1310713559623
 20
63.40768231446555
 30
0.0
  0
VERTEX
  5
256
  8
0
 10
132.1310713559623
 20
63.40768231446555
 30
0.0
  0
VERTEX
  5
257
  8
0
 10
132.1310713559623
 20
59.40768231446555
 30
0.0
  0
VERTEX
  5
258
  8
0
 10
154.1310713559622
 20
59.40768231446555
 30
0.0
  0
VERTEX
  5
259
  8
0
 10
132.1310713559623
 20
75.90768231446555
 30
0.0
  0
VERTEX
  5
25A
  8
0
 10
132.1310713559623
 20
73.40768231446555
 30
0.0
  0
VERTEX
  5
25B
  8
0
 10
130.1310713559623
 20
73.40768231446555
 30
0.0
  0
SEQEND
  5
25C
  8
0
  0
POLYLINE
  5
A7
  8
0
 66
     1
 10
0.0
 20
0.0
 30
0.0
 70
     1
  0
VERTEX
  5
25D
  8
0
 10
163.9318290499542
 20
71.60711437605647
 30
0.0
  0
VERTEX
  5
25E
  8
0
 10
161.9318290499542
 20
71.60711437605647
 30
0.0
  0
VERTEX
  5
25F
  8
0
 10
161.9318290499542
 20
75.60711437605647
 30
0.0
  0
VERTEX
  5
260
  8
0
 10
139.9318290499542
 20
75.60711437605647
 30
0.0
  0
VERTEX
  5
261
  8
0
 10
161.9318290499542
 20
59.10711437605649
 30
0.0
  0
VERTEX
  5
262
  8
0
 10
161.9318290499542
 20
61.60711437605649
 30
0.0
  0
VERTEX
  5
263
  8
0
 10
163.9318290499542
 20
61.60711437605649
 30
0.0
  0
SEQEND
  5
264
  8
0
  0
ENDSEC
  0
EOF
