  0
SECTION
  2
HEADER
  9
$ACADVER
  1
AC1009
  9
$DWGCODEPAGE
  3
ansi_932
  9
$INSBASE
 10
0.0
 20
0.0
 30
0.0
  9
$EXTMIN
 10
4.381932191670984
 20
29.47392377077251
 30
0.0
  9
$EXTMAX
 10
285.305046217089
 20
99.07538150322549
 30
0.0
  9
$LIMMIN
 10
0.0
 20
0.0
  9
$LIMMAX
 10
12.0
 20
9.0
  9
$ORTHOMODE
 70
     0
  9
$REGENMODE
 70
     1
  9
$FILLMODE
 70
     1
  9
$QTEXTMODE
 70
     0
  9
$MIRRTEXT
 70
     1
  9
$DRAGMODE
 70
     2
  9
$LTSCALE
 40
1.0
  9
$OSMODE
 70
    37
  9
$ATTMODE
 70
     1
  9
$TEXTSIZE
 40
0.2
  9
$TRACEWID
 40
0.05
  9
$TEXTSTYLE
  7
STANDARD
  9
$CLAYER
  8
0
  9
$CELTYPE
  6
BYLAYER
  9
$CECOLOR
 62
   256
  9
$DIMSCALE
 40
1.0
  9
$DIMASZ
 40
0.18
  9
$DIMEXO
 40
0.0625
  9
$DIMDLI
 40
0.38
  9
$DIMRND
 40
0.0
  9
$DIMDLE
 40
0.0
  9
$DIMEXE
 40
0.18
  9
$DIMTP
 40
0.0
  9
$DIMTM
 40
0.0
  9
$DIMTXT
 40
0.18
  9
$DIMCEN
 40
0.09
  9
$DIMTSZ
 40
0.0
  9
$DIMTOL
 70
     0
  9
$DIMLIM
 70
     0
  9
$DIMTIH
 70
     1
  9
$DIMTOH
 70
     1
  9
$DIMSE1
 70
     0
  9
$DIMSE2
 70
     0
  9
$DIMTAD
 70
     0
  9
$DIMZIN
 70
     0
  9
$DIMBLK
  1

  9
$DIMASO
 70
     1
  9
$DIMSHO
 70
     1
  9
$DIMPOST
  1

  9
$DIMAPOST
  1

  9
$DIMALT
 70
     0
  9
$DIMALTD
 70
     2
  9
$DIMALTF
 40
25.4
  9
$DIMLFAC
 40
1.0
  9
$DIMTOFL
 70
     0
  9
$DIMTVP
 40
0.0
  9
$DIMTIX
 70
     0
  9
$DIMSOXD
 70
     0
  9
$DIMSAH
 70
     0
  9
$DIMBLK1
  1

  9
$DIMBLK2
  1

  9
$DIMSTYLE
  2
STANDARD
  9
$DIMCLRD
 70
     0
  9
$DIMCLRE
 70
     0
  9
$DIMCLRT
 70
     0
  9
$DIMTFAC
 40
1.0
  9
$DIMGAP
 40
0.09
  9
$LUNITS
 70
     2
  9
$LUPREC
 70
     4
  9
$SKETCHINC
 40
0.1
  9
$FILLETRAD
 40
0.5
  9
$AUNITS
 70
     0
  9
$AUPREC
 70
     0
  9
$MENU
  1
.
  9
$ELEVATION
 40
0.0
  9
$PELEVATION
 40
0.0
  9
$THICKNESS
 40
0.0
  9
$LIMCHECK
 70
     0
  9
$CHAMFERA
 40
0.5
  9
$CHAMFERB
 40
0.5
  9
$SKPOLY
 70
     0
  9
$TDCREATE
 40
2454910.5
  9
$TDUPDATE
 40
2459545.683779965
  9
$TDINDWG
 40
0.0000000116
  9
$TDUSRTIMER
 40
0.0000000116
  9
$USRTIMER
 70
     1
  9
$ANGBASE
 50
0.0
  9
$ANGDIR
 70
     0
  9
$PDMODE
 70
     0
  9
$PDSIZE
 40
0.0
  9
$PLINEWID
 40
0.0
  9
$COORDS
 70
     1
  9
$SPLFRAME
 70
     0
  9
$SPLINETYPE
 70
     6
  9
$SPLINESEGS
 70
     8
  9
$ATTDIA
 70
     0
  9
$ATTREQ
 70
     1
  9
$HANDLING
 70
     1
  9
$HANDSEED
  5
3AF
  9
$SURFTAB1
 70
     6
  9
$SURFTAB2
 70
     6
  9
$SURFTYPE
 70
     6
  9
$SURFU
 70
     6
  9
$SURFV
 70
     6
  9
$UCSNAME
  2

  9
$UCSORG
 10
0.0
 20
0.0
 30
0.0
  9
$UCSXDIR
 10
1.0
 20
0.0
 30
0.0
  9
$UCSYDIR
 10
0.0
 20
1.0
 30
0.0
  9
$PUCSNAME
  2

  9
$PUCSORG
 10
0.0
 20
0.0
 30
0.0
  9
$PUCSXDIR
 10
1.0
 20
0.0
 30
0.0
  9
$PUCSYDIR
 10
0.0
 20
1.0
 30
0.0
  9
$USERI1
 70
     0
  9
$USERI2
 70
     0
  9
$USERI3
 70
     0
  9
$USERI4
 70
     0
  9
$USERI5
 70
     0
  9
$USERR1
 40
0.0
  9
$USERR2
 40
0.0
  9
$USERR3
 40
0.0
  9
$USERR4
 40
0.0
  9
$USERR5
 40
0.0
  9
$WORLDVIEW
 70
     1
  9
$SHADEDGE
 70
     3
  9
$SHADEDIF
 70
    70
  9
$TILEMODE
 70
     1
  9
$MAXACTVP
 70
    64
  9
$PLIMCHECK
 70
     0
  9
$PEXTMIN
 10
1.000000000000000E+20
 20
1.000000000000000E+20
 30
1.000000000000000E+20
  9
$PEXTMAX
 10
-1.000000000000000E+20
 20
-1.000000000000000E+20
 30
-1.000000000000000E+20
  9
$PLIMMIN
 10
0.0
 20
0.0
  9
$PLIMMAX
 10
12.0
 20
9.0
  9
$UNITMODE
 70
     0
  9
$VISRETAIN
 70
     1
  9
$PLINEGEN
 70
     0
  9
$PSLTSCALE
 70
     1
  0
ENDSEC
  0
SECTION
  2
TABLES
  0
TABLE
  2
VPORT
 70
     1
  0
VPORT
  2
*ACTIVE
 70
     0
 10
0.0
 20
0.0
 11
1.0
 21
1.0
 12
10.42990654205607
 22
4.5
 13
0.0
 23
0.0
 14
0.5
 24
0.5
 15
0.5
 25
0.5
 16
0.0
 26
0.0
 36
1.0
 17
0.0
 27
0.0
 37
0.0
 40
9.0
 41
1.972972972850329
 42
50.0
 43
0.0
 44
0.0
 50
0.0
 51
0.0
 71
     0
 72
   100
 73
     1
 74
     3
 75
     0
 76
     0
 77
     0
 78
     0
  0
ENDTAB
  0
TABLE
  2
LTYPE
 70
     2
  0
LTYPE
  2
CONTINUOUS
 70
     0
  3
Solid line
 72
    65
 73
     0
 40
0.0
  0
LTYPE
  2
CONTINUOUS2
 70
     0
  3
Solid Line
 72
    65
 73
     0
 40
0.0
  0
ENDTAB
  0
TABLE
  2
LAYER
 70
     1
  0
LAYER
  2
0
 70
     0
 62
     7
  6
CONTINUOUS
  0
ENDTAB
  0
TABLE
  2
STYLE
 70
     1
  0
STYLE
  2
STANDARD
 70
     0
 40
0.0
 41
1.0
 50
0.0
 71
     0
 42
0.2
  3
txt
  4

  0
ENDTAB
  0
TABLE
  2
VIEW
 70
     0
  0
ENDTAB
  0
TABLE
  2
UCS
 70
     0
  0
ENDTAB
  0
TABLE
  2
APPID
 70
     1
  0
APPID
  2
ACAD
 70
     0
  0
ENDTAB
  0
TABLE
  2
DIMSTYLE
 70
     1
  0
DIMSTYLE
  2
STANDARD
 70
     0
  3

  4

  5

  6

  7

 40
1.0
 41
0.18
 42
0.0625
 43
0.38
 44
0.18
 45
0.0
 46
0.0
 47
0.0
 48
0.0
140
0.18
141
0.09
142
0.0
143
25.4
144
1.0
145
0.0
146
1.0
147
0.09
 71
     0
 72
     0
 73
     1
 74
     1
 75
     0
 76
     0
 77
     0
 78
     0
170
     0
171
     2
172
     0
173
     0
174
     0
175
     0
176
     0
177
     0
178
     0
  0
ENDTAB
  0
ENDSEC
  0
SECTION
  2
BLOCKS
  0
BLOCK
  8
0
  2
$MODEL_SPACE
 70
     0
 10
0.0
 20
0.0
 30
0.0
  3
$MODEL_SPACE
  1

  0
ENDBLK
  5
21
  8
0
  0
BLOCK
 67
     1
  8
0
  2
$PAPER_SPACE
 70
     0
 10
0.0
 20
0.0
 30
0.0
  3
$PAPER_SPACE
  1

  0
ENDBLK
  5
1D
 67
     1
  8
0
  0
ENDSEC
  0
SECTION
  2
ENTITIES
  0
POLYLINE
  5
40
  8
0
 66
     1
 10
0.0
 20
0.0
 30
0.0
 70
     1
  0
VERTEX
  5
103
  8
0
 10
140.5310077718807
 20
46.30794148165481
 30
0.0
 42
0.4142135623730951
  0
VERTEX
  5
104
  8
0
 10
143.0310077718807
 20
43.80794148165481
 30
0.0
 42
0.4142135623730951
  0
VERTEX
  5
105
  8
0
 10
145.5310077718807
 20
46.30794148165481
 30
0.0
 42
0.4142135623730951
  0
VERTEX
  5
106
  8
0
 10
143.0310077718807
 20
48.80794148165481
 30
0.0
 42
0.4142135623730951
  0
SEQEND
  5
107
  8
0
  0
POLYLINE
  5
41
  8
0
 66
     1
 10
0.0
 20
0.0
 30
0.0
  0
VERTEX
  5
108
  8
0
 10
128.9356184600807
 20
43.30794148165481
 30
0.0
  0
VERTEX
  5
109
  8
0
 10
127.5675378867807
 20
39.54917099855481
 30
0.0
  0
SEQEND
  5
10A
  8
0
  0
POLYLINE
  5
42
  8
0
 66
     1
 10
0.0
 20
0.0
 30
0.0
  0
VERTEX
  5
10B
  8
0
 10
143.0310077718807
 20
38.1776393317548
 30
0.0
  0
VERTEX
  5
10C
  8
0
 10
128.9356184600807
 20
43.30794148165481
 30
0.0
  0
SEQEND
  5
10D
  8
0
  0
POLYLINE
  5
43
  8
0
 66
     1
 10
0.0
 20
0.0
 30
0.0
  0
VERTEX
  5
10E
  8
0
 10
141.6629271985807
 20
34.41886884865481
 30
0.0
  0
VERTEX
  5
10F
  8
0
 10
143.0310077718807
 20
38.1776393317548
 30
0.0
  0
SEQEND
  5
110
  8
0
  0
POLYLINE
  5
44
  8
0
 66
     1
 10
0.0
 20
0.0
 30
0.0
  0
VERTEX
  5
111
  8
0
 10
127.5675378867807
 20
39.54917099855481
 30
0.0
  0
VERTEX
  5
112
  8
0
 10
141.6629271985807
 20
34.41886884865481
 30
0.0
  0
SEQEND
  5
113
  8
0
  0
POLYLINE
  5
45
  8
0
 66
     1
 10
0.0
 20
0.0
 30
0.0
 70
     1
  0
VERTEX
  5
114
  8
0
 10
128.9356184600807
 20
49.30794148165481
 30
0.0
  0
VERTEX
  5
115
  8
0
 10
127.5675378867807
 20
53.06671196475481
 30
0.0
  0
VERTEX
  5
116
  8
0
 10
141.6629271985807
 20
58.19701411465481
 30
0.0
  0
VERTEX
  5
117
  8
0
 10
143.0310077718807
 20
54.4382436315548
 30
0.0
  0
SEQEND
  5
118
  8
0
  0
POLYLINE
  5
46
  8
0
 66
     1
 10
0.0
 20
0.0
 30
0.0
  0
VERTEX
  5
119
  8
0
 10
141.1764815287807
 20
30.66009836545481
 30
0.0
  0
VERTEX
  5
11A
  8
0
 10
142.9274714781807
 20
30.66009836545481
 30
0.0
 42
0.2517840899748129
  0
VERTEX
  5
11B
  8
0
 10
147.0983278210581
 20
32.90257096448876
 30
0.0
  0
VERTEX
  5
11C
  8
0
 10
151.5987903225807
 20
39.7096774193548
 30
0.0
 42
0.1470891899877284
  0
VERTEX
  5
11D
  8
0
 10
152.4279339797807
 20
42.46720482025481
 30
0.0
  0
VERTEX
  5
11E
  8
0
 10
152.4279339797807
 20
50.14867814305481
 30
0.0
 42
0.1470891899877279
  0
VERTEX
  5
11F
  8
0
 10
151.5987903226581
 20
52.90620554402085
 30
0.0
  0
SEQEND
  5
120
  8
0
  0
POLYLINE
  5
47
  8
0
 66
     1
 10
0.0
 20
0.0
 30
0.0
  0
VERTEX
  5
121
  8
0
 10
147.0983278210807
 20
59.71331199875481
 30
0.0
  0
VERTEX
  5
122
  8
0
 10
151.5987903225807
 20
52.9062055439548
 30
0.0
  0
SEQEND
  5
123
  8
0
  0
POLYLINE
  5
48
  8
0
 66
     1
 10
0.0
 20
0.0
 30
0.0
  0
VERTEX
  5
124
  8
0
 10
147.0983278210581
 20
59.71331199882085
 30
0.0
 42
0.2517840899748137
  0
VERTEX
  5
125
  8
0
 10
142.9274714781807
 20
61.95578459785481
 30
0.0
  0
SEQEND
  5
126
  8
0
  0
POLYLINE
  5
49
  8
0
 66
     1
 10
0.0
 20
0.0
 30
0.0
  0
VERTEX
  5
127
  8
0
 10
141.1764815287807
 20
61.95578459785481
 30
0.0
  0
VERTEX
  5
128
  8
0
 10
142.9274714781807
 20
61.95578459785481
 30
0.0
  0
SEQEND
  5
129
  8
0
  0
POLYLINE
  5
4A
  8
0
 66
     1
 10
0.0
 20
0.0
 30
0.0
  0
VERTEX
  5
12A
  8
0
 10
141.1764815287807
 20
61.95578459785481
 30
0.0
 42
0.087488663525923
  0
VERTEX
  5
12B
  8
0
 10
139.4663808121523
 20
61.65424770178435
 30
0.0
  0
SEQEND
  5
12C
  8
0
  0
POLYLINE
  5
4B
  8
0
 66
     1
 10
0.0
 20
0.0
 30
0.0
  0
VERTEX
  5
12D
  8
0
 10
125.3209070552807
 20
56.5057163046548
 30
0.0
  0
VERTEX
  5
12E
  8
0
 10
139.4663808121807
 20
61.65424770175481
 30
0.0
  0
SEQEND
  5
12F
  8
0
  0
POLYLINE
  5
4C
  8
0
 66
     1
 10
0.0
 20
0.0
 30
0.0
  0
VERTEX
  5
130
  8
0
 10
125.3209070552523
 20
56.50571630468435
 30
0.0
 42
0.3152987888789843
  0
VERTEX
  5
131
  8
0
 10
122.0310077718807
 20
51.80725320075481
 30
0.0
  0
SEQEND
  5
132
  8
0
  0
POLYLINE
  5
4D
  8
0
 66
     1
 10
0.0
 20
0.0
 30
0.0
  0
VERTEX
  5
133
  8
0
 10
122.0310077718807
 20
40.80862976255481
 30
0.0
  0
VERTEX
  5
134
  8
0
 10
122.0310077718807
 20
51.80725320075481
 30
0.0
  0
SEQEND
  5
135
  8
0
  0
POLYLINE
  5
4E
  8
0
 66
     1
 10
0.0
 20
0.0
 30
0.0
  0
VERTEX
  5
136
  8
0
 10
122.0310077718807
 20
40.80862976255481
 30
0.0
 42
0.3152987888789828
  0
VERTEX
  5
137
  8
0
 10
125.3209070552523
 20
36.11016665862526
 30
0.0
  0
VERTEX
  5
138
  8
0
 10
139.4663808121807
 20
30.9616352615548
 30
0.0
 42
0.0874886635259228
  0
VERTEX
  5
139
  8
0
 10
141.1764815287807
 20
30.66009836545481
 30
0.0
  0
SEQEND
  5
13A
  8
0
  0
POLYLINE
  5
4F
  8
0
 66
     1
 10
0.0
 20
0.0
 30
0.0
 70
     1
  0
VERTEX
  5
13B
  8
0
 10
124.9646395705554
 20
82.75220302540642
 30
0.0
 42
0.4142135623730951
  0
VERTEX
  5
13C
  8
0
 10
127.4646395705554
 20
80.25220302540642
 30
0.0
 42
0.4142135623730951
  0
VERTEX
  5
13D
  8
0
 10
129.9646395705554
 20
82.75220302540642
 30
0.0
 42
0.4142135623730951
  0
VERTEX
  5
13E
  8
0
 10
127.4646395705554
 20
85.25220302540642
 30
0.0
 42
0.4142135623730951
  0
SEQEND
  5
13F
  8
0
  0
POLYLINE
  5
50
  8
0
 66
     1
 10
0.0
 20
0.0
 30
0.0
  0
VERTEX
  5
140
  8
0
 10
149.8746395705554
 20
76.86296682610642
 30
0.0
  0
VERTEX
  5
141
  8
0
 10
146.9783953398554
 20
88.92003882390641
 30
0.0
 42
0.3467346945476802
  0
VERTEX
  5
142
  8
0
 10
142.1166919811554
 20
92.75220302540642
 30
0.0
  0
SEQEND
  5
143
  8
0
  0
POLYLINE
  5
51
  8
0
 66
     1
 10
0.0
 20
0.0
 30
0.0
  0
VERTEX
  5
144
  8
0
 10
126.8746395705554
 20
92.75220302540642
 30
0.0
  0
VERTEX
  5
145
  8
0
 10
142.1166919811554
 20
92.75220302540642
 30
0.0
  0
SEQEND
  5
146
  8
0
  0
POLYLINE
  5
52
  8
0
 66
     1
 10
0.0
 20
0.0
 30
0.0
  0
VERTEX
  5
147
  8
0
 10
126.8746395705554
 20
92.75220302540642
 30
0.0
 42
0.4142135623730956
  0
VERTEX
  5
148
  8
0
 10
121.8746395705554
 20
87.75220302540643
 30
0.0
  0
SEQEND
  5
149
  8
0
  0
POLYLINE
  5
53
  8
0
 66
     1
 10
0.0
 20
0.0
 30
0.0
  0
VERTEX
  5
14A
  8
0
 10
121.8746395705554
 20
72.75220302540642
 30
0.0
  0
VERTEX
  5
14B
  8
0
 10
121.8746395705554
 20
87.75220302540643
 30
0.0
  0
SEQEND
  5
14C
  8
0
  0
POLYLINE
  5
54
  8
0
 66
     1
 10
0.0
 20
0.0
 30
0.0
  0
VERTEX
  5
14D
  8
0
 10
128.8746395705554
 20
72.75220302540642
 30
0.0
  0
VERTEX
  5
14E
  8
0
 10
121.8746395705554
 20
72.75220302540642
 30
0.0
  0
SEQEND
  5
14F
  8
0
  0
POLYLINE
  5
55
  8
0
 66
     1
 10
0.0
 20
0.0
 30
0.0
  0
VERTEX
  5
150
  8
0
 10
128.8746395705554
 20
68.75220302540642
 30
0.0
  0
VERTEX
  5
151
  8
0
 10
128.8746395705554
 20
72.75220302540642
 30
0.0
  0
SEQEND
  5
152
  8
0
  0
POLYLINE
  5
56
  8
0
 66
     1
 10
0.0
 20
0.0
 30
0.0
  0
VERTEX
  5
153
  8
0
 10
143.8746395705554
 20
68.75220302540642
 30
0.0
  0
VERTEX
  5
154
  8
0
 10
128.8746395705554
 20
68.75220302540642
 30
0.0
  0
SEQEND
  5
155
  8
0
  0
POLYLINE
  5
57
  8
0
 66
     1
 10
0.0
 20
0.0
 30
0.0
  0
VERTEX
  5
156
  8
0
 10
143.8746395705554
 20
72.75220302540642
 30
0.0
  0
VERTEX
  5
157
  8
0
 10
143.8746395705554
 20
68.75220302540642
 30
0.0
  0
SEQEND
  5
158
  8
0
  0
POLYLINE
  5
58
  8
0
 66
     1
 10
0.0
 20
0.0
 30
0.0
  0
VERTEX
  5
159
  8
0
 10
149.8746395705554
 20
72.75220302540642
 30
0.0
  0
VERTEX
  5
15A
  8
0
 10
143.8746395705554
 20
72.75220302540642
 30
0.0
  0
SEQEND
  5
15B
  8
0
  0
POLYLINE
  5
59
  8
0
 66
     1
 10
0.0
 20
0.0
 30
0.0
  0
VERTEX
  5
15C
  8
0
 10
149.8746395705554
 20
76.86296682610642
 30
0.0
  0
VERTEX
  5
15D
  8
0
 10
149.8746395705554
 20
72.75220302540642
 30
0.0
  0
SEQEND
  5
15E
  8
0
  0
POLYLINE
  5
5A
  8
0
 66
     1
 10
0.0
 20
0.0
 30
0.0
 70
     1
  0
VERTEX
  5
15F
  8
0
 10
26.48297407306129
 20
86.94635663360748
 30
0.0
 42
0.4142135623730951
  0
VERTEX
  5
160
  8
0
 10
28.98297407306129
 20
84.44635663360748
 30
0.0
 42
0.4142135623730951
  0
VERTEX
  5
161
  8
0
 10
31.48297407306127
 20
86.94635663360748
 30
0.0
 42
0.4142135623730951
  0
VERTEX
  5
162
  8
0
 10
28.98297407306129
 20
89.44635663360748
 30
0.0
 42
0.4142135623730951
  0
SEQEND
  5
163
  8
0
  0
POLYLINE
  5
5B
  8
0
 66
     1
 10
0.0
 20
0.0
 30
0.0
  0
VERTEX
  5
164
  8
0
 10
26.30752188936128
 20
96.94635663360748
 30
0.0
  0
VERTEX
  5
165
  8
0
 10
30.22502648366128
 20
96.94635663360748
 30
0.0
  0
SEQEND
  5
166
  8
0
  0
POLYLINE
  5
5C
  8
0
 66
     1
 10
0.0
 20
0.0
 30
0.0
  0
VERTEX
  5
167
  8
0
 10
26.30752188936128
 20
96.94635663360748
 30
0.0
 42
0.2475351742623904
  0
VERTEX
  5
168
  8
0
 10
22.18131361587135
 20
94.77025558431075
 30
0.0
  0
SEQEND
  5
169
  8
0
  0
POLYLINE
  5
5D
  8
0
 66
     1
 10
0.0
 20
0.0
 30
0.0
  0
VERTEX
  5
16A
  8
0
 10
9.982974073061285
 20
76.94635663360748
 30
0.0
  0
VERTEX
  5
16B
  8
0
 10
22.18131361586128
 20
94.7702555843075
 30
0.0
  0
SEQEND
  5
16C
  8
0
  0
POLYLINE
  5
5E
  8
0
 66
     1
 10
0.0
 20
0.0
 30
0.0
  0
VERTEX
  5
16D
  8
0
 10
16.98297407306129
 20
76.94635663360748
 30
0.0
  0
VERTEX
  5
16E
  8
0
 10
9.982974073061285
 20
76.94635663360748
 30
0.0
  0
SEQEND
  5
16F
  8
0
  0
POLYLINE
  5
5F
  8
0
 66
     1
 10
0.0
 20
0.0
 30
0.0
  0
VERTEX
  5
170
  8
0
 10
16.98297407306129
 20
72.94635663360748
 30
0.0
  0
VERTEX
  5
171
  8
0
 10
16.98297407306129
 20
76.94635663360748
 30
0.0
  0
SEQEND
  5
172
  8
0
  0
POLYLINE
  5
60
  8
0
 66
     1
 10
0.0
 20
0.0
 30
0.0
  0
VERTEX
  5
173
  8
0
 10
31.98297407306129
 20
72.94635663360748
 30
0.0
  0
VERTEX
  5
174
  8
0
 10
16.98297407306129
 20
72.94635663360748
 30
0.0
  0
SEQEND
  5
175
  8
0
  0
POLYLINE
  5
61
  8
0
 66
     1
 10
0.0
 20
0.0
 30
0.0
  0
VERTEX
  5
176
  8
0
 10
31.98297407306129
 20
76.94635663360748
 30
0.0
  0
VERTEX
  5
177
  8
0
 10
31.98297407306129
 20
72.94635663360748
 30
0.0
  0
SEQEND
  5
178
  8
0
  0
POLYLINE
  5
62
  8
0
 66
     1
 10
0.0
 20
0.0
 30
0.0
  0
VERTEX
  5
179
  8
0
 10
37.98297407306129
 20
76.94635663360748
 30
0.0
  0
VERTEX
  5
17A
  8
0
 10
31.98297407306129
 20
76.94635663360748
 30
0.0
  0
SEQEND
  5
17B
  8
0
  0
POLYLINE
  5
63
  8
0
 66
     1
 10
0.0
 20
0.0
 30
0.0
  0
VERTEX
  5
17C
  8
0
 10
37.98297407306129
 20
81.05712043430748
 30
0.0
  0
VERTEX
  5
17D
  8
0
 10
37.98297407306129
 20
76.94635663360748
 30
0.0
  0
SEQEND
  5
17E
  8
0
  0
POLYLINE
  5
64
  8
0
 66
     1
 10
0.0
 20
0.0
 30
0.0
  0
VERTEX
  5
17F
  8
0
 10
37.98297407306129
 20
81.05712043430748
 30
0.0
  0
VERTEX
  5
180
  8
0
 10
35.08672984236128
 20
93.11419243210747
 30
0.0
 42
0.3467346945476802
  0
VERTEX
  5
181
  8
0
 10
30.22502648366128
 20
96.94635663360748
 30
0.0
  0
SEQEND
  5
182
  8
0
  0
POLYLINE
  5
65
  8
0
 66
     1
 10
0.0
 20
0.0
 30
0.0
 70
     1
  0
VERTEX
  5
183
  8
0
 10
22.88193219167098
 20
52.68168722598219
 30
0.0
 42
-0.4142135623730951
  0
VERTEX
  5
184
  8
0
 10
25.38193219167098
 20
55.18168722598219
 30
0.0
 42
-0.4142135623730951
  0
VERTEX
  5
185
  8
0
 10
27.88193219167098
 20
52.68168722598219
 30
0.0
 42
-0.4142135623730951
  0
VERTEX
  5
186
  8
0
 10
25.38193219167098
 20
50.18168722598218
 30
0.0
 42
-0.4142135623730951
  0
SEQEND
  5
187
  8
0
  0
POLYLINE
  5
66
  8
0
 66
     1
 10
0.0
 20
0.0
 30
0.0
  0
VERTEX
  5
188
  8
0
 10
11.28654287987098
 20
55.68168722598219
 30
0.0
  0
VERTEX
  5
189
  8
0
 10
9.918462306570987
 20
59.44045770908217
 30
0.0
  0
SEQEND
  5
18A
  8
0
  0
POLYLINE
  5
67
  8
0
 66
     1
 10
0.0
 20
0.0
 30
0.0
  0
VERTEX
  5
18B
  8
0
 10
25.38193219167098
 20
60.81198937588216
 30
0.0
  0
VERTEX
  5
18C
  8
0
 10
11.28654287987098
 20
55.68168722598219
 30
0.0
  0
SEQEND
  5
18D
  8
0
  0
POLYLINE
  5
68
  8
0
 66
     1
 10
0.0
 20
0.0
 30
0.0
  0
VERTEX
  5
18E
  8
0
 10
24.01385161837098
 20
64.57075985898219
 30
0.0
  0
VERTEX
  5
18F
  8
0
 10
25.38193219167098
 20
60.81198937588216
 30
0.0
  0
SEQEND
  5
190
  8
0
  0
POLYLINE
  5
69
  8
0
 66
     1
 10
0.0
 20
0.0
 30
0.0
  0
VERTEX
  5
191
  8
0
 10
9.918462306570987
 20
59.44045770908217
 30
0.0
  0
VERTEX
  5
192
  8
0
 10
24.01385161837098
 20
64.57075985898219
 30
0.0
  0
SEQEND
  5
193
  8
0
  0
POLYLINE
  5
6A
  8
0
 66
     1
 10
0.0
 20
0.0
 30
0.0
 70
     1
  0
VERTEX
  5
194
  8
0
 10
11.28654287987098
 20
49.68168722598218
 30
0.0
  0
VERTEX
  5
195
  8
0
 10
9.918462306570987
 20
45.92291674288218
 30
0.0
  0
VERTEX
  5
196
  8
0
 10
24.01385161837098
 20
40.79261459298218
 30
0.0
  0
VERTEX
  5
197
  8
0
 10
25.38193219167098
 20
44.55138507608218
 30
0.0
  0
SEQEND
  5
198
  8
0
  0
POLYLINE
  5
6B
  8
0
 66
     1
 10
0.0
 20
0.0
 30
0.0
  0
VERTEX
  5
199
  8
0
 10
23.52740594857099
 20
68.32953034218217
 30
0.0
  0
VERTEX
  5
19A
  8
0
 10
25.27839589797098
 20
68.32953034218217
 30
0.0
 42
-0.2517840899748129
  0
VERTEX
  5
19B
  8
0
 10
29.44925224084848
 20
66.08705774314821
 30
0.0
  0
VERTEX
  5
19C
  8
0
 10
33.94971474237099
 20
59.27995128828216
 30
0.0
 42
-0.1470891899877284
  0
VERTEX
  5
19D
  8
0
 10
34.77885839957098
 20
56.52242388738217
 30
0.0
  0
VERTEX
  5
19E
  8
0
 10
34.77885839957098
 20
48.84095056458218
 30
0.0
 42
-0.1470891899877279
  0
VERTEX
  5
19F
  8
0
 10
33.94971474244848
 20
46.08342316361614
 30
0.0
  0
SEQEND
  5
1A0
  8
0
  0
POLYLINE
  5
6C
  8
0
 66
     1
 10
0.0
 20
0.0
 30
0.0
  0
VERTEX
  5
1A1
  8
0
 10
29.44925224087099
 20
39.27631670888218
 30
0.0
  0
VERTEX
  5
1A2
  8
0
 10
33.94971474237099
 20
46.08342316368218
 30
0.0
  0
SEQEND
  5
1A3
  8
0
  0
POLYLINE
  5
6D
  8
0
 66
     1
 10
0.0
 20
0.0
 30
0.0
  0
VERTEX
  5
1A4
  8
0
 10
29.44925224084848
 20
39.27631670881614
 30
0.0
 42
-0.2517840899748137
  0
VERTEX
  5
1A5
  8
0
 10
25.27839589797098
 20
37.03384410978218
 30
0.0
  0
SEQEND
  5
1A6
  8
0
  0
POLYLINE
  5
6E
  8
0
 66
     1
 10
0.0
 20
0.0
 30
0.0
  0
VERTEX
  5
1A7
  8
0
 10
23.52740594857099
 20
37.03384410978218
 30
0.0
  0
VERTEX
  5
1A8
  8
0
 10
25.27839589797098
 20
37.03384410978218
 30
0.0
  0
SEQEND
  5
1A9
  8
0
  0
POLYLINE
  5
6F
  8
0
 66
     1
 10
0.0
 20
0.0
 30
0.0
  0
VERTEX
  5
1AA
  8
0
 10
23.52740594857099
 20
37.03384410978218
 30
0.0
 42
-0.087488663525923
  0
VERTEX
  5
1AB
  8
0
 10
21.81730523194264
 20
37.33538100585264
 30
0.0
  0
SEQEND
  5
1AC
  8
0
  0
POLYLINE
  5
70
  8
0
 66
     1
 10
0.0
 20
0.0
 30
0.0
  0
VERTEX
  5
1AD
  8
0
 10
7.671831475070988
 20
42.48391240298218
 30
0.0
  0
VERTEX
  5
1AE
  8
0
 10
21.81730523197098
 20
37.33538100588218
 30
0.0
  0
SEQEND
  5
1AF
  8
0
  0
POLYLINE
  5
71
  8
0
 66
     1
 10
0.0
 20
0.0
 30
0.0
  0
VERTEX
  5
1B0
  8
0
 10
7.671831475042637
 20
42.48391240295264
 30
0.0
 42
-0.3152987888789843
  0
VERTEX
  5
1B1
  8
0
 10
4.381932191670984
 20
47.18237550688218
 30
0.0
  0
SEQEND
  5
1B2
  8
0
  0
POLYLINE
  5
72
  8
0
 66
     1
 10
0.0
 20
0.0
 30
0.0
  0
VERTEX
  5
1B3
  8
0
 10
4.381932191670984
 20
58.18099894508218
 30
0.0
  0
VERTEX
  5
1B4
  8
0
 10
4.381932191670984
 20
47.18237550688218
 30
0.0
  0
SEQEND
  5
1B5
  8
0
  0
POLYLINE
  5
73
  8
0
 66
     1
 10
0.0
 20
0.0
 30
0.0
  0
VERTEX
  5
1B6
  8
0
 10
4.381932191670984
 20
58.18099894508218
 30
0.0
 42
-0.3152987888789828
  0
VERTEX
  5
1B7
  8
0
 10
7.671831475042637
 20
62.87946204901171
 30
0.0
  0
VERTEX
  5
1B8
  8
0
 10
21.81730523197098
 20
68.02799344608216
 30
0.0
 42
-0.0874886635259228
  0
VERTEX
  5
1B9
  8
0
 10
23.52740594857099
 20
68.32953034218217
 30
0.0
  0
SEQEND
  5
1BA
  8
0
  0
POLYLINE
  5
74
  8
0
 66
     1
 10
0.0
 20
0.0
 30
0.0
 70
     1
  0
VERTEX
  5
1BB
  8
0
 10
44.42877379142153
 20
44.07492928533023
 30
0.0
 42
-0.4142135623730951
  0
VERTEX
  5
1BC
  8
0
 10
46.92877379142153
 20
46.57492928533023
 30
0.0
 42
-0.4142135623730951
  0
VERTEX
  5
1BD
  8
0
 10
49.42877379142152
 20
44.07492928533023
 30
0.0
 42
-0.4142135623730951
  0
VERTEX
  5
1BE
  8
0
 10
46.92877379142153
 20
41.57492928533023
 30
0.0
 42
-0.4142135623730951
  0
SEQEND
  5
1BF
  8
0
  0
POLYLINE
  5
75
  8
0
 66
     1
 10
0.0
 20
0.0
 30
0.0
  0
VERTEX
  5
1C0
  8
0
 10
69.33877379142153
 20
49.96416548463023
 30
0.0
  0
VERTEX
  5
1C1
  8
0
 10
66.44252956072152
 20
37.90709348683023
 30
0.0
 42
-0.3467346945476802
  0
VERTEX
  5
1C2
  8
0
 10
61.58082620202153
 20
34.07492928533023
 30
0.0
  0
SEQEND
  5
1C3
  8
0
  0
POLYLINE
  5
76
  8
0
 66
     1
 10
0.0
 20
0.0
 30
0.0
  0
VERTEX
  5
1C4
  8
0
 10
46.33877379142153
 20
34.07492928533023
 30
0.0
  0
VERTEX
  5
1C5
  8
0
 10
61.58082620202153
 20
34.07492928533023
 30
0.0
  0
SEQEND
  5
1C6
  8
0
  0
POLYLINE
  5
77
  8
0
 66
     1
 10
0.0
 20
0.0
 30
0.0
  0
VERTEX
  5
1C7
  8
0
 10
46.33877379142153
 20
34.07492928533023
 30
0.0
 42
-0.4142135623730956
  0
VERTEX
  5
1C8
  8
0
 10
41.33877379142152
 20
39.07492928533024
 30
0.0
  0
SEQEND
  5
1C9
  8
0
  0
POLYLINE
  5
78
  8
0
 66
     1
 10
0.0
 20
0.0
 30
0.0
  0
VERTEX
  5
1CA
  8
0
 10
41.33877379142153
 20
54.07492928533023
 30
0.0
  0
VERTEX
  5
1CB
  8
0
 10
41.33877379142152
 20
39.07492928533024
 30
0.0
  0
SEQEND
  5
1CC
  8
0
  0
POLYLINE
  5
79
  8
0
 66
     1
 10
0.0
 20
0.0
 30
0.0
  0
VERTEX
  5
1CD
  8
0
 10
48.33877379142153
 20
54.07492928533023
 30
0.0
  0
VERTEX
  5
1CE
  8
0
 10
41.33877379142153
 20
54.07492928533023
 30
0.0
  0
SEQEND
  5
1CF
  8
0
  0
POLYLINE
  5
7A
  8
0
 66
     1
 10
0.0
 20
0.0
 30
0.0
  0
VERTEX
  5
1D0
  8
0
 10
48.33877379142153
 20
58.07492928533023
 30
0.0
  0
VERTEX
  5
1D1
  8
0
 10
48.33877379142153
 20
54.07492928533023
 30
0.0
  0
SEQEND
  5
1D2
  8
0
  0
POLYLINE
  5
7B
  8
0
 66
     1
 10
0.0
 20
0.0
 30
0.0
  0
VERTEX
  5
1D3
  8
0
 10
63.33877379142153
 20
58.07492928533023
 30
0.0
  0
VERTEX
  5
1D4
  8
0
 10
48.33877379142153
 20
58.07492928533023
 30
0.0
  0
SEQEND
  5
1D5
  8
0
  0
POLYLINE
  5
7C
  8
0
 66
     1
 10
0.0
 20
0.0
 30
0.0
  0
VERTEX
  5
1D6
  8
0
 10
63.33877379142153
 20
54.07492928533023
 30
0.0
  0
VERTEX
  5
1D7
  8
0
 10
63.33877379142153
 20
58.07492928533023
 30
0.0
  0
SEQEND
  5
1D8
  8
0
  0
POLYLINE
  5
7D
  8
0
 66
     1
 10
0.0
 20
0.0
 30
0.0
  0
VERTEX
  5
1D9
  8
0
 10
69.33877379142153
 20
54.07492928533023
 30
0.0
  0
VERTEX
  5
1DA
  8
0
 10
63.33877379142153
 20
54.07492928533023
 30
0.0
  0
SEQEND
  5
1DB
  8
0
  0
POLYLINE
  5
7E
  8
0
 66
     1
 10
0.0
 20
0.0
 30
0.0
  0
VERTEX
  5
1DC
  8
0
 10
69.33877379142153
 20
49.96416548463023
 30
0.0
  0
VERTEX
  5
1DD
  8
0
 10
69.33877379142153
 20
54.07492928533023
 30
0.0
  0
SEQEND
  5
1DE
  8
0
  0
POLYLINE
  5
7F
  8
0
 66
     1
 10
0.0
 20
0.0
 30
0.0
 70
     1
  0
VERTEX
  5
1DF
  8
0
 10
53.40371073312151
 20
78.57564345471319
 30
0.0
 42
-0.4142135623730951
  0
VERTEX
  5
1E0
  8
0
 10
50.90371073312151
 20
76.07564345471319
 30
0.0
 42
-0.4142135623730951
  0
VERTEX
  5
1E1
  8
0
 10
48.40371073312151
 20
78.57564345471319
 30
0.0
 42
-0.4142135623730951
  0
VERTEX
  5
1E2
  8
0
 10
50.90371073312151
 20
81.07564345471319
 30
0.0
 42
-0.4142135623730951
  0
SEQEND
  5
1E3
  8
0
  0
POLYLINE
  5
80
  8
0
 66
     1
 10
0.0
 20
0.0
 30
0.0
  0
VERTEX
  5
1E4
  8
0
 10
53.57916291682152
 20
88.57564345471319
 30
0.0
  0
VERTEX
  5
1E5
  8
0
 10
49.66165832252152
 20
88.57564345471319
 30
0.0
  0
SEQEND
  5
1E6
  8
0
  0
POLYLINE
  5
81
  8
0
 66
     1
 10
0.0
 20
0.0
 30
0.0
  0
VERTEX
  5
1E7
  8
0
 10
53.57916291682152
 20
88.57564345471319
 30
0.0
 42
-0.2475351742623904
  0
VERTEX
  5
1E8
  8
0
 10
57.70537119031145
 20
86.39954240541645
 30
0.0
  0
SEQEND
  5
1E9
  8
0
  0
POLYLINE
  5
82
  8
0
 66
     1
 10
0.0
 20
0.0
 30
0.0
  0
VERTEX
  5
1EA
  8
0
 10
69.9037107331215
 20
68.57564345471319
 30
0.0
  0
VERTEX
  5
1EB
  8
0
 10
57.70537119032151
 20
86.39954240541321
 30
0.0
  0
SEQEND
  5
1EC
  8
0
  0
POLYLINE
  5
83
  8
0
 66
     1
 10
0.0
 20
0.0
 30
0.0
  0
VERTEX
  5
1ED
  8
0
 10
62.90371073312151
 20
68.57564345471319
 30
0.0
  0
VERTEX
  5
1EE
  8
0
 10
69.9037107331215
 20
68.57564345471319
 30
0.0
  0
SEQEND
  5
1EF
  8
0
  0
POLYLINE
  5
84
  8
0
 66
     1
 10
0.0
 20
0.0
 30
0.0
  0
VERTEX
  5
1F0
  8
0
 10
62.90371073312151
 20
64.57564345471319
 30
0.0
  0
VERTEX
  5
1F1
  8
0
 10
62.90371073312151
 20
68.57564345471319
 30
0.0
  0
SEQEND
  5
1F2
  8
0
  0
POLYLINE
  5
85
  8
0
 66
     1
 10
0.0
 20
0.0
 30
0.0
  0
VERTEX
  5
1F3
  8
0
 10
47.90371073312151
 20
64.57564345471319
 30
0.0
  0
VERTEX
  5
1F4
  8
0
 10
62.90371073312151
 20
64.57564345471319
 30
0.0
  0
SEQEND
  5
1F5
  8
0
  0
POLYLINE
  5
86
  8
0
 66
     1
 10
0.0
 20
0.0
 30
0.0
  0
VERTEX
  5
1F6
  8
0
 10
47.90371073312151
 20
68.57564345471319
 30
0.0
  0
VERTEX
  5
1F7
  8
0
 10
47.90371073312151
 20
64.57564345471319
 30
0.0
  0
SEQEND
  5
1F8
  8
0
  0
POLYLINE
  5
87
  8
0
 66
     1
 10
0.0
 20
0.0
 30
0.0
  0
VERTEX
  5
1F9
  8
0
 10
41.90371073312151
 20
68.57564345471319
 30
0.0
  0
VERTEX
  5
1FA
  8
0
 10
47.90371073312151
 20
68.57564345471319
 30
0.0
  0
SEQEND
  5
1FB
  8
0
  0
POLYLINE
  5
88
  8
0
 66
     1
 10
0.0
 20
0.0
 30
0.0
  0
VERTEX
  5
1FC
  8
0
 10
41.90371073312151
 20
72.68640725541319
 30
0.0
  0
VERTEX
  5
1FD
  8
0
 10
41.90371073312151
 20
68.57564345471319
 30
0.0
  0
SEQEND
  5
1FE
  8
0
  0
POLYLINE
  5
89
  8
0
 66
     1
 10
0.0
 20
0.0
 30
0.0
  0
VERTEX
  5
1FF
  8
0
 10
41.90371073312151
 20
72.68640725541319
 30
0.0
  0
VERTEX
  5
200
  8
0
 10
44.79995496382152
 20
84.74347925321318
 30
0.0
 42
-0.3467346945476802
  0
VERTEX
  5
201
  8
0
 10
49.66165832252152
 20
88.57564345471319
 30
0.0
  0
SEQEND
  5
202
  8
0
  0
POLYLINE
  5
8A
  8
0
 66
     1
 10
0.0
 20
0.0
 30
0.0
 70
     1
  0
VERTEX
  5
203
  8
0
 10
79.27393067096754
 20
49.74193548387095
 30
0.0
 42
0.4142135623730951
  0
VERTEX
  5
204
  8
0
 10
81.77393067096754
 20
47.24193548387095
 30
0.0
 42
0.4142135623730951
  0
VERTEX
  5
205
  8
0
 10
84.27393067096756
 20
49.74193548387095
 30
0.0
 42
0.4142135623730951
  0
VERTEX
  5
206
  8
0
 10
81.77393067096754
 20
52.24193548387095
 30
0.0
 42
0.4142135623730951
  0
SEQEND
  5
207
  8
0
  0
POLYLINE
  5
8B
  8
0
 66
     1
 10
0.0
 20
0.0
 30
0.0
  0
VERTEX
  5
208
  8
0
 10
75.17393067096754
 20
35.24193548387095
 30
0.0
  0
VERTEX
  5
209
  8
0
 10
75.17393067096754
 20
37.59193548387094
 30
0.0
  0
SEQEND
  5
20A
  8
0
  0
POLYLINE
  5
8C
  8
0
 66
     1
 10
0.0
 20
0.0
 30
0.0
  0
VERTEX
  5
20B
  8
0
 10
75.17393067096754
 20
35.24193548387095
 30
0.0
 42
0.4142135623730944
  0
VERTEX
  5
20C
  8
0
 10
75.67393067096754
 20
34.74193548387095
 30
0.0
  0
VERTEX
  5
20D
  8
0
 10
85.57393067096751
 20
34.74193548387095
 30
0.0
  0
SEQEND
  5
20E
  8
0
  0
POLYLINE
  5
8D
  8
0
 66
     1
 10
0.0
 20
0.0
 30
0.0
  0
VERTEX
  5
20F
  8
0
 10
85.57393067096751
 20
40.74193548387095
 30
0.0
  0
VERTEX
  5
210
  8
0
 10
85.57393067096751
 20
34.74193548387095
 30
0.0
  0
SEQEND
  5
211
  8
0
  0
POLYLINE
  5
8E
  8
0
 66
     1
 10
0.0
 20
0.0
 30
0.0
  0
VERTEX
  5
212
  8
0
 10
87.57393067096751
 20
40.74193548387095
 30
0.0
  0
VERTEX
  5
213
  8
0
 10
85.57393067096751
 20
40.74193548387095
 30
0.0
  0
SEQEND
  5
214
  8
0
  0
POLYLINE
  5
8F
  8
0
 66
     1
 10
0.0
 20
0.0
 30
0.0
  0
VERTEX
  5
215
  8
0
 10
87.57393067096751
 20
34.74193548387095
 30
0.0
  0
VERTEX
  5
216
  8
0
 10
87.57393067096751
 20
40.74193548387095
 30
0.0
  0
SEQEND
  5
217
  8
0
  0
POLYLINE
  5
90
  8
0
 66
     1
 10
0.0
 20
0.0
 30
0.0
  0
VERTEX
  5
218
  8
0
 10
87.57393067096751
 20
34.74193548387095
 30
0.0
  0
VERTEX
  5
219
  8
0
 10
93.77393067096753
 20
34.74193548387095
 30
0.0
  0
VERTEX
  5
21A
  8
0
 10
93.77393067096756
 20
43.74193548387095
 30
0.0
  0
VERTEX
  5
21B
  8
0
 10
91.77393067096756
 20
43.74193548387095
 30
0.0
  0
VERTEX
  5
21C
  8
0
 10
91.77393067096756
 20
45.74193548387095
 30
0.0
  0
VERTEX
  5
21D
  8
0
 10
93.77393067096756
 20
45.74193548387095
 30
0.0
  0
VERTEX
  5
21E
  8
0
 10
93.77393067096756
 20
53.74193548387095
 30
0.0
  0
SEQEND
  5
21F
  8
0
  0
POLYLINE
  5
91
  8
0
 66
     1
 10
0.0
 20
0.0
 30
0.0
  0
VERTEX
  5
220
  8
0
 10
91.77393067096756
 20
53.74193548387095
 30
0.0
  0
VERTEX
  5
221
  8
0
 10
93.77393067096756
 20
53.74193548387095
 30
0.0
  0
SEQEND
  5
222
  8
0
  0
POLYLINE
  5
92
  8
0
 66
     1
 10
0.0
 20
0.0
 30
0.0
  0
VERTEX
  5
223
  8
0
 10
91.77393067096756
 20
55.74193548387095
 30
0.0
  0
VERTEX
  5
224
  8
0
 10
91.77393067096756
 20
53.74193548387095
 30
0.0
  0
SEQEND
  5
225
  8
0
  0
POLYLINE
  5
93
  8
0
 66
     1
 10
0.0
 20
0.0
 30
0.0
  0
VERTEX
  5
226
  8
0
 10
93.77393067096756
 20
55.74193548387095
 30
0.0
  0
VERTEX
  5
227
  8
0
 10
91.77393067096756
 20
55.74193548387095
 30
0.0
  0
SEQEND
  5
228
  8
0
  0
POLYLINE
  5
94
  8
0
 66
     1
 10
0.0
 20
0.0
 30
0.0
  0
VERTEX
  5
229
  8
0
 10
93.77393067096756
 20
55.74193548387095
 30
0.0
  0
VERTEX
  5
22A
  8
0
 10
93.77393067096756
 20
64.74193548387095
 30
0.0
  0
SEQEND
  5
22B
  8
0
  0
POLYLINE
  5
95
  8
0
 66
     1
 10
0.0
 20
0.0
 30
0.0
  0
VERTEX
  5
22C
  8
0
 10
75.67393067096755
 20
64.74193548387095
 30
0.0
  0
VERTEX
  5
22D
  8
0
 10
93.77393067096756
 20
64.74193548387095
 30
0.0
  0
SEQEND
  5
22E
  8
0
  0
POLYLINE
  5
96
  8
0
 66
     1
 10
0.0
 20
0.0
 30
0.0
  0
VERTEX
  5
22F
  8
0
 10
75.67393067096755
 20
64.74193548387095
 30
0.0
 42
0.4142135623730944
  0
VERTEX
  5
230
  8
0
 10
75.17393067096755
 20
64.24193548387095
 30
0.0
  0
SEQEND
  5
231
  8
0
  0
POLYLINE
  5
97
  8
0
 66
     1
 10
0.0
 20
0.0
 30
0.0
  0
VERTEX
  5
232
  8
0
 10
75.17393067096755
 20
61.89193548387095
 30
0.0
  0
VERTEX
  5
233
  8
0
 10
75.17393067096755
 20
64.24193548387095
 30
0.0
  0
SEQEND
  5
234
  8
0
  0
POLYLINE
  5
98
  8
0
 66
     1
 10
0.0
 20
0.0
 30
0.0
  0
VERTEX
  5
235
  8
0
 10
75.17393067096755
 20
61.89193548387095
 30
0.0
  0
VERTEX
  5
236
  8
0
 10
77.17393067096755
 20
61.89193548387095
 30
0.0
  0
VERTEX
  5
237
  8
0
 10
77.17393067096755
 20
59.89193548387095
 30
0.0
  0
VERTEX
  5
238
  8
0
 10
75.17393067096755
 20
59.89193548387095
 30
0.0
  0
SEQEND
  5
239
  8
0
  0
POLYLINE
  5
99
  8
0
 66
     1
 10
0.0
 20
0.0
 30
0.0
  0
VERTEX
  5
23A
  8
0
 10
75.17393067096754
 20
39.59193548387094
 30
0.0
  0
VERTEX
  5
23B
  8
0
 10
75.17393067096755
 20
59.89193548387095
 30
0.0
  0
SEQEND
  5
23C
  8
0
  0
POLYLINE
  5
9A
  8
0
 66
     1
 10
0.0
 20
0.0
 30
0.0
  0
VERTEX
  5
23D
  8
0
 10
77.17393067096754
 20
39.59193548387094
 30
0.0
  0
VERTEX
  5
23E
  8
0
 10
75.17393067096754
 20
39.59193548387094
 30
0.0
  0
SEQEND
  5
23F
  8
0
  0
POLYLINE
  5
9B
  8
0
 66
     1
 10
0.0
 20
0.0
 30
0.0
  0
VERTEX
  5
240
  8
0
 10
77.17393067096754
 20
37.59193548387094
 30
0.0
  0
VERTEX
  5
241
  8
0
 10
77.17393067096754
 20
39.59193548387094
 30
0.0
  0
SEQEND
  5
242
  8
0
  0
POLYLINE
  5
9C
  8
0
 66
     1
 10
0.0
 20
0.0
 30
0.0
  0
VERTEX
  5
243
  8
0
 10
75.17393067096754
 20
37.59193548387094
 30
0.0
  0
VERTEX
  5
244
  8
0
 10
77.17393067096754
 20
37.59193548387094
 30
0.0
  0
SEQEND
  5
245
  8
0
  0
POLYLINE
  5
9D
  8
0
 66
     1
 10
0.0
 20
0.0
 30
0.0
  0
VERTEX
  5
246
  8
0
 10
210.6854577032269
 20
51.685488119285
 30
0.0
 42
0.716290667375691
  0
VERTEX
  5
247
  8
0
 10
215.167636824181
 20
53.2089597903225
 30
0.0
 42
0.716290667375691
  0
VERTEX
  5
248
  8
0
 10
210.6854577032269
 20
54.73243146135999
 30
0.0
  0
SEQEND
  5
249
  8
0
  0
POLYLINE
  5
9E
  8
0
 66
     1
 10
0.0
 20
0.0
 30
0.0
  0
VERTEX
  5
24A
  8
0
 10
210.167636824181
 20
51.68548811932249
 30
0.0
  0
VERTEX
  5
24B
  8
0
 10
210.685457703181
 20
51.68548811932249
 30
0.0
  0
SEQEND
  5
24C
  8
0
  0
POLYLINE
  5
9F
  8
0
 66
     1
 10
0.0
 20
0.0
 30
0.0
  0
VERTEX
  5
24D
  8
0
 10
210.167636824181
 20
51.68548811932249
 30
0.0
  0
VERTEX
  5
24E
  8
0
 10
210.167636824181
 20
38.2089597903225
 30
0.0
  0
VERTEX
  5
24F
  8
0
 10
206.167636824181
 20
38.2089597903225
 30
0.0
  0
VERTEX
  5
250
  8
0
 10
206.167636824181
 20
33.2089597903225
 30
0.0
  0
VERTEX
  5
251
  8
0
 10
241.167636824181
 20
33.2089597903225
 30
0.0
  0
VERTEX
  5
252
  8
0
 10
246.167636824181
 20
38.2089597903225
 30
0.0
  0
VERTEX
  5
253
  8
0
 10
246.167636824181
 20
41.2089597903225
 30
0.0
  0
VERTEX
  5
254
  8
0
 10
244.167636824181
 20
41.2089597903225
 30
0.0
  0
VERTEX
  5
255
  8
0
 10
244.167636824181
 20
43.2089597903225
 30
0.0
  0
VERTEX
  5
256
  8
0
 10
246.167636824181
 20
43.2089597903225
 30
0.0
  0
VERTEX
  5
257
  8
0
 10
246.167636824181
 20
63.2089597903225
 30
0.0
  0
SEQEND
  5
258
  8
0
  0
POLYLINE
  5
A0
  8
0
 66
     1
 10
0.0
 20
0.0
 30
0.0
  0
VERTEX
  5
259
  8
0
 10
244.167636824181
 20
63.2089597903225
 30
0.0
  0
VERTEX
  5
25A
  8
0
 10
246.167636824181
 20
63.2089597903225
 30
0.0
  0
SEQEND
  5
25B
  8
0
  0
POLYLINE
  5
A1
  8
0
 66
     1
 10
0.0
 20
0.0
 30
0.0
  0
VERTEX
  5
25C
  8
0
 10
244.167636824181
 20
65.2089597903225
 30
0.0
  0
VERTEX
  5
25D
  8
0
 10
244.167636824181
 20
63.2089597903225
 30
0.0
  0
SEQEND
  5
25E
  8
0
  0
POLYLINE
  5
A2
  8
0
 66
     1
 10
0.0
 20
0.0
 30
0.0
  0
VERTEX
  5
25F
  8
0
 10
246.167636824181
 20
65.2089597903225
 30
0.0
  0
VERTEX
  5
260
  8
0
 10
244.167636824181
 20
65.2089597903225
 30
0.0
  0
SEQEND
  5
261
  8
0
  0
POLYLINE
  5
A3
  8
0
 66
     1
 10
0.0
 20
0.0
 30
0.0
  0
VERTEX
  5
262
  8
0
 10
246.167636824181
 20
68.2089597903225
 30
0.0
  0
VERTEX
  5
263
  8
0
 10
246.167636824181
 20
65.2089597903225
 30
0.0
  0
SEQEND
  5
264
  8
0
  0
POLYLINE
  5
A4
  8
0
 66
     1
 10
0.0
 20
0.0
 30
0.0
  0
VERTEX
  5
265
  8
0
 10
241.167636824181
 20
73.2089597903225
 30
0.0
  0
VERTEX
  5
266
  8
0
 10
246.167636824181
 20
68.2089597903225
 30
0.0
  0
SEQEND
  5
267
  8
0
  0
POLYLINE
  5
A5
  8
0
 66
     1
 10
0.0
 20
0.0
 30
0.0
  0
VERTEX
  5
268
  8
0
 10
206.167636824181
 20
73.2089597903225
 30
0.0
  0
VERTEX
  5
269
  8
0
 10
241.167636824181
 20
73.2089597903225
 30
0.0
  0
SEQEND
  5
26A
  8
0
  0
POLYLINE
  5
A6
  8
0
 66
     1
 10
0.0
 20
0.0
 30
0.0
  0
VERTEX
  5
26B
  8
0
 10
206.167636824181
 20
68.2089597903225
 30
0.0
  0
VERTEX
  5
26C
  8
0
 10
206.167636824181
 20
73.2089597903225
 30
0.0
  0
SEQEND
  5
26D
  8
0
  0
POLYLINE
  5
A7
  8
0
 66
     1
 10
0.0
 20
0.0
 30
0.0
  0
VERTEX
  5
26E
  8
0
 10
210.167636824181
 20
68.2089597903225
 30
0.0
  0
VERTEX
  5
26F
  8
0
 10
206.167636824181
 20
68.2089597903225
 30
0.0
  0
SEQEND
  5
270
  8
0
  0
POLYLINE
  5
A8
  8
0
 66
     1
 10
0.0
 20
0.0
 30
0.0
  0
VERTEX
  5
271
  8
0
 10
210.167636824181
 20
68.2089597903225
 30
0.0
  0
VERTEX
  5
272
  8
0
 10
210.167636824181
 20
54.73243146132251
 30
0.0
  0
VERTEX
  5
273
  8
0
 10
210.685457703181
 20
54.73243146132251
 30
0.0
  0
SEQEND
  5
274
  8
0
  0
POLYLINE
  5
A9
  8
0
 66
     1
 10
0.0
 20
0.0
 30
0.0
  0
VERTEX
  5
275
  8
0
 10
228.184520111481
 20
51.56575318762251
 30
0.0
  0
VERTEX
  5
276
  8
0
 10
214.1495272257809
 20
38.2089597903225
 30
0.0
  0
SEQEND
  5
277
  8
0
  0
POLYLINE
  5
AA
  8
0
 66
     1
 10
0.0
 20
0.0
 30
0.0
  0
VERTEX
  5
278
  8
0
 10
239.9473833944809
 20
38.2089597903225
 30
0.0
  0
VERTEX
  5
279
  8
0
 10
228.184520111481
 20
51.56575318762251
 30
0.0
  0
SEQEND
  5
27A
  8
0
  0
POLYLINE
  5
AB
  8
0
 66
     1
 10
0.0
 20
0.0
 30
0.0
  0
VERTEX
  5
27B
  8
0
 10
214.1495272257809
 20
38.2089597903225
 30
0.0
  0
VERTEX
  5
27C
  8
0
 10
239.9473833944809
 20
38.2089597903225
 30
0.0
  0
SEQEND
  5
27D
  8
0
  0
POLYLINE
  5
AC
  8
0
 66
     1
 10
0.0
 20
0.0
 30
0.0
  0
VERTEX
  5
27E
  8
0
 10
229.6937986156809
 20
53.2089597903225
 30
0.0
  0
VERTEX
  5
27F
  8
0
 10
239.406709762181
 20
42.17989787332249
 30
0.0
  0
SEQEND
  5
280
  8
0
  0
POLYLINE
  5
AD
  8
0
 66
     1
 10
0.0
 20
0.0
 30
0.0
  0
VERTEX
  5
281
  8
0
 10
229.6937986156809
 20
53.2089597903225
 30
0.0
  0
VERTEX
  5
282
  8
0
 10
239.406709762181
 20
64.2380217073225
 30
0.0
  0
SEQEND
  5
283
  8
0
  0
POLYLINE
  5
AE
  8
0
 66
     1
 10
0.0
 20
0.0
 30
0.0
  0
VERTEX
  5
284
  8
0
 10
239.406709762181
 20
42.17989787332249
 30
0.0
  0
VERTEX
  5
285
  8
0
 10
239.406709762181
 20
64.2380217073225
 30
0.0
  0
SEQEND
  5
286
  8
0
  0
POLYLINE
  5
AF
  8
0
 66
     1
 10
0.0
 20
0.0
 30
0.0
  0
VERTEX
  5
287
  8
0
 10
217.548047200081
 20
61.73508878642249
 30
0.0
  0
VERTEX
  5
288
  8
0
 10
217.548047200081
 20
44.6828307942225
 30
0.0
  0
SEQEND
  5
289
  8
0
  0
POLYLINE
  5
B0
  8
0
 66
     1
 10
0.0
 20
0.0
 30
0.0
  0
VERTEX
  5
28A
  8
0
 10
217.548047200081
 20
61.73508878642249
 30
0.0
  0
VERTEX
  5
28B
  8
0
 10
226.5070956964809
 20
53.2089597903225
 30
0.0
  0
SEQEND
  5
28C
  8
0
  0
POLYLINE
  5
B1
  8
0
 66
     1
 10
0.0
 20
0.0
 30
0.0
  0
VERTEX
  5
28D
  8
0
 10
217.548047200081
 20
44.6828307942225
 30
0.0
  0
VERTEX
  5
28E
  8
0
 10
226.5070956964809
 20
53.2089597903225
 30
0.0
  0
SEQEND
  5
28F
  8
0
  0
POLYLINE
  5
B2
  8
0
 66
     1
 10
0.0
 20
0.0
 30
0.0
 70
     1
  0
VERTEX
  5
290
  8
0
 10
228.184520111481
 20
54.85216639302249
 30
0.0
  0
VERTEX
  5
291
  8
0
 10
214.1495272257809
 20
68.2089597903225
 30
0.0
  0
VERTEX
  5
292
  8
0
 10
239.9473833944809
 20
68.2089597903225
 30
0.0
  0
SEQEND
  5
293
  8
0
  0
POLYLINE
  5
B3
  8
0
 66
     1
 10
0.0
 20
0.0
 30
0.0
 70
     1
  0
VERTEX
  5
294
  8
0
 10
103.8836080903224
 20
80.58033309440046
 30
0.0
 42
0.4142135623730951
  0
VERTEX
  5
295
  8
0
 10
105.4836080903223
 20
78.98033309440046
 30
0.0
 42
0.4142135623730951
  0
VERTEX
  5
296
  8
0
 10
107.0836080903223
 20
80.58033309440046
 30
0.0
 42
0.4142135623730951
  0
VERTEX
  5
297
  8
0
 10
105.4836080903223
 20
82.18033309440045
 30
0.0
 42
0.4142135623730951
  0
SEQEND
  5
298
  8
0
  0
POLYLINE
  5
B4
  8
0
 66
     1
 10
0.0
 20
0.0
 30
0.0
 70
     1
  0
VERTEX
  5
299
  8
0
 10
103.8836080903224
 20
64.58033309440046
 30
0.0
 42
0.4142135623730951
  0
VERTEX
  5
29A
  8
0
 10
105.4836080903223
 20
62.98033309440046
 30
0.0
 42
0.4142135623730951
  0
VERTEX
  5
29B
  8
0
 10
107.0836080903223
 20
64.58033309440046
 30
0.0
 42
0.4142135623730951
  0
VERTEX
  5
29C
  8
0
 10
105.4836080903223
 20
66.18033309440045
 30
0.0
 42
0.4142135623730951
  0
SEQEND
  5
29D
  8
0
  0
POLYLINE
  5
B5
  8
0
 66
     1
 10
0.0
 20
0.0
 30
0.0
  0
VERTEX
  5
29E
  8
0
 10
111.6081752099223
 20
36.43133290890046
 30
0.0
  0
VERTEX
  5
29F
  8
0
 10
100.8573094491223
 20
55.90347900500046
 30
0.0
  0
SEQEND
  5
2A0
  8
0
  0
POLYLINE
  5
B6
  8
0
 66
     1
 10
0.0
 20
0.0
 30
0.0
  0
VERTEX
  5
2A1
  8
0
 10
111.6081752099235
 20
36.43133290886203
 30
0.0
 42
0.7749546823730569
  0
VERTEX
  5
2A2
  8
0
 10
113.4836080903223
 20
36.91467261540046
 30
0.0
  0
VERTEX
  5
2A3
  8
0
 10
113.4836080903223
 20
41.58033309440046
 30
0.0
  0
VERTEX
  5
2A4
  8
0
 10
117.4836080903223
 20
41.58033309440046
 30
0.0
  0
VERTEX
  5
2A5
  8
0
 10
117.4836080903223
 20
71.58033309440046
 30
0.0
  0
VERTEX
  5
2A6
  8
0
 10
113.4836080903223
 20
71.58033309440046
 30
0.0
  0
VERTEX
  5
2A7
  8
0
 10
113.4836080903223
 20
81.58033309440046
 30
0.0
 42
0.4142135623730949
  0
VERTEX
  5
2A8
  8
0
 10
110.4836080903223
 20
84.58033309440046
 30
0.0
  0
VERTEX
  5
2A9
  8
0
 10
103.4836080903223
 20
84.58033309440046
 30
0.0
 42
0.4142135623730951
  0
VERTEX
  5
2AA
  8
0
 10
100.4836080903223
 20
81.58033309440046
 30
0.0
  0
VERTEX
  5
2AB
  8
0
 10
100.4836080903223
 20
57.35349812460046
 30
0.0
 42
0.1267893315034178
  0
VERTEX
  5
2AC
  8
0
 10
100.8573094491259
 20
55.9034790049852
 30
0.0
  0
SEQEND
  5
2AD
  8
0
  0
POLYLINE
  5
B7
  8
0
 66
     1
 10
0.0
 20
0.0
 30
0.0
 70
     1
  0
VERTEX
  5
2AE
  8
0
 10
79.27393067096754
 20
84.07538150322549
 30
0.0
 42
-0.4142135623730951
  0
VERTEX
  5
2AF
  8
0
 10
81.77393067096754
 20
86.57538150322549
 30
0.0
 42
-0.4142135623730951
  0
VERTEX
  5
2B0
  8
0
 10
84.27393067096756
 20
84.07538150322549
 30
0.0
 42
-0.4142135623730951
  0
VERTEX
  5
2B1
  8
0
 10
81.77393067096754
 20
81.57538150322549
 30
0.0
 42
-0.4142135623730951
  0
SEQEND
  5
2B2
  8
0
  0
POLYLINE
  5
B8
  8
0
 66
     1
 10
0.0
 20
0.0
 30
0.0
  0
VERTEX
  5
2B3
  8
0
 10
75.17393067096755
 20
98.57538150322549
 30
0.0
  0
VERTEX
  5
2B4
  8
0
 10
75.17393067096755
 20
96.22538150322549
 30
0.0
  0
SEQEND
  5
2B5
  8
0
  0
POLYLINE
  5
B9
  8
0
 66
     1
 10
0.0
 20
0.0
 30
0.0
  0
VERTEX
  5
2B6
  8
0
 10
75.17393067096755
 20
98.57538150322549
 30
0.0
 42
-0.4142135623730944
  0
VERTEX
  5
2B7
  8
0
 10
75.67393067096755
 20
99.07538150322549
 30
0.0
  0
VERTEX
  5
2B8
  8
0
 10
85.57393067096754
 20
99.07538150322549
 30
0.0
  0
SEQEND
  5
2B9
  8
0
  0
POLYLINE
  5
BA
  8
0
 66
     1
 10
0.0
 20
0.0
 30
0.0
  0
VERTEX
  5
2BA
  8
0
 10
85.57393067096754
 20
93.07538150322549
 30
0.0
  0
VERTEX
  5
2BB
  8
0
 10
85.57393067096754
 20
99.07538150322549
 30
0.0
  0
SEQEND
  5
2BC
  8
0
  0
POLYLINE
  5
BB
  8
0
 66
     1
 10
0.0
 20
0.0
 30
0.0
  0
VERTEX
  5
2BD
  8
0
 10
87.57393067096754
 20
93.07538150322549
 30
0.0
  0
VERTEX
  5
2BE
  8
0
 10
85.57393067096754
 20
93.07538150322549
 30
0.0
  0
SEQEND
  5
2BF
  8
0
  0
POLYLINE
  5
BC
  8
0
 66
     1
 10
0.0
 20
0.0
 30
0.0
  0
VERTEX
  5
2C0
  8
0
 10
87.57393067096754
 20
99.07538150322549
 30
0.0
  0
VERTEX
  5
2C1
  8
0
 10
87.57393067096754
 20
93.07538150322549
 30
0.0
  0
SEQEND
  5
2C2
  8
0
  0
POLYLINE
  5
BD
  8
0
 66
     1
 10
0.0
 20
0.0
 30
0.0
  0
VERTEX
  5
2C3
  8
0
 10
87.57393067096754
 20
99.07538150322549
 30
0.0
  0
VERTEX
  5
2C4
  8
0
 10
93.77393067096756
 20
99.07538150322549
 30
0.0
  0
VERTEX
  5
2C5
  8
0
 10
93.77393067096756
 20
90.07538150322549
 30
0.0
  0
VERTEX
  5
2C6
  8
0
 10
91.77393067096756
 20
90.07538150322549
 30
0.0
  0
VERTEX
  5
2C7
  8
0
 10
91.77393067096756
 20
88.07538150322549
 30
0.0
  0
VERTEX
  5
2C8
  8
0
 10
93.77393067096756
 20
88.07538150322549
 30
0.0
  0
VERTEX
  5
2C9
  8
0
 10
93.77393067096756
 20
80.07538150322549
 30
0.0
  0
SEQEND
  5
2CA
  8
0
  0
POLYLINE
  5
BE
  8
0
 66
     1
 10
0.0
 20
0.0
 30
0.0
  0
VERTEX
  5
2CB
  8
0
 10
91.77393067096756
 20
80.07538150322549
 30
0.0
  0
VERTEX
  5
2CC
  8
0
 10
93.77393067096756
 20
80.07538150322549
 30
0.0
  0
SEQEND
  5
2CD
  8
0
  0
POLYLINE
  5
BF
  8
0
 66
     1
 10
0.0
 20
0.0
 30
0.0
  0
VERTEX
  5
2CE
  8
0
 10
91.77393067096756
 20
78.07538150322549
 30
0.0
  0
VERTEX
  5
2CF
  8
0
 10
91.77393067096756
 20
80.07538150322549
 30
0.0
  0
SEQEND
  5
2D0
  8
0
  0
POLYLINE
  5
C0
  8
0
 66
     1
 10
0.0
 20
0.0
 30
0.0
  0
VERTEX
  5
2D1
  8
0
 10
93.77393067096756
 20
78.07538150322549
 30
0.0
  0
VERTEX
  5
2D2
  8
0
 10
91.77393067096756
 20
78.07538150322549
 30
0.0
  0
SEQEND
  5
2D3
  8
0
  0
POLYLINE
  5
C1
  8
0
 66
     1
 10
0.0
 20
0.0
 30
0.0
  0
VERTEX
  5
2D4
  8
0
 10
93.77393067096756
 20
78.07538150322549
 30
0.0
  0
VERTEX
  5
2D5
  8
0
 10
93.77393067096756
 20
69.07538150322549
 30
0.0
  0
SEQEND
  5
2D6
  8
0
  0
POLYLINE
  5
C2
  8
0
 66
     1
 10
0.0
 20
0.0
 30
0.0
  0
VERTEX
  5
2D7
  8
0
 10
75.67393067096755
 20
69.07538150322549
 30
0.0
  0
VERTEX
  5
2D8
  8
0
 10
93.77393067096756
 20
69.07538150322549
 30
0.0
  0
SEQEND
  5
2D9
  8
0
  0
POLYLINE
  5
C3
  8
0
 66
     1
 10
0.0
 20
0.0
 30
0.0
  0
VERTEX
  5
2DA
  8
0
 10
75.67393067096755
 20
69.07538150322549
 30
0.0
 42
-0.4142135623730944
  0
VERTEX
  5
2DB
  8
0
 10
75.17393067096755
 20
69.57538150322549
 30
0.0
  0
SEQEND
  5
2DC
  8
0
  0
POLYLINE
  5
C4
  8
0
 66
     1
 10
0.0
 20
0.0
 30
0.0
  0
VERTEX
  5
2DD
  8
0
 10
75.17393067096755
 20
71.92538150322548
 30
0.0
  0
VERTEX
  5
2DE
  8
0
 10
75.17393067096755
 20
69.57538150322549
 30
0.0
  0
SEQEND
  5
2DF
  8
0
  0
POLYLINE
  5
C5
  8
0
 66
     1
 10
0.0
 20
0.0
 30
0.0
  0
VERTEX
  5
2E0
  8
0
 10
75.17393067096755
 20
71.92538150322548
 30
0.0
  0
VERTEX
  5
2E1
  8
0
 10
77.17393067096755
 20
71.92538150322548
 30
0.0
  0
VERTEX
  5
2E2
  8
0
 10
77.17393067096755
 20
73.92538150322548
 30
0.0
  0
VERTEX
  5
2E3
  8
0
 10
75.17393067096755
 20
73.92538150322548
 30
0.0
  0
SEQEND
  5
2E4
  8
0
  0
POLYLINE
  5
C6
  8
0
 66
     1
 10
0.0
 20
0.0
 30
0.0
  0
VERTEX
  5
2E5
  8
0
 10
75.17393067096755
 20
94.22538150322549
 30
0.0
  0
VERTEX
  5
2E6
  8
0
 10
75.17393067096755
 20
73.92538150322548
 30
0.0
  0
SEQEND
  5
2E7
  8
0
  0
POLYLINE
  5
C7
  8
0
 66
     1
 10
0.0
 20
0.0
 30
0.0
  0
VERTEX
  5
2E8
  8
0
 10
77.17393067096755
 20
94.22538150322549
 30
0.0
  0
VERTEX
  5
2E9
  8
0
 10
75.17393067096755
 20
94.22538150322549
 30
0.0
  0
SEQEND
  5
2EA
  8
0
  0
POLYLINE
  5
C8
  8
0
 66
     1
 10
0.0
 20
0.0
 30
0.0
  0
VERTEX
  5
2EB
  8
0
 10
77.17393067096755
 20
96.22538150322549
 30
0.0
  0
VERTEX
  5
2EC
  8
0
 10
77.17393067096755
 20
94.22538150322549
 30
0.0
  0
SEQEND
  5
2ED
  8
0
  0
POLYLINE
  5
C9
  8
0
 66
     1
 10
0.0
 20
0.0
 30
0.0
  0
VERTEX
  5
2EE
  8
0
 10
75.17393067096755
 20
96.22538150322549
 30
0.0
  0
VERTEX
  5
2EF
  8
0
 10
77.17393067096755
 20
96.22538150322549
 30
0.0
  0
SEQEND
  5
2F0
  8
0
  0
POLYLINE
  5
CA
  8
0
 66
     1
 10
0.0
 20
0.0
 30
0.0
  0
VERTEX
  5
2F1
  8
0
 10
164.7973876387235
 20
69.03960070329553
 30
0.0
 42
-0.716290667375691
  0
VERTEX
  5
2F2
  8
0
 10
169.2795667596776
 20
67.51612903225804
 30
0.0
 42
-0.716290667375691
  0
VERTEX
  5
2F3
  8
0
 10
164.7973876387235
 20
65.99265736122054
 30
0.0
  0
SEQEND
  5
2F4
  8
0
  0
POLYLINE
  5
CB
  8
0
 66
     1
 10
0.0
 20
0.0
 30
0.0
  0
VERTEX
  5
2F5
  8
0
 10
164.2795667596776
 20
69.03960070325805
 30
0.0
  0
VERTEX
  5
2F6
  8
0
 10
164.7973876386776
 20
69.03960070325805
 30
0.0
  0
SEQEND
  5
2F7
  8
0
  0
POLYLINE
  5
CC
  8
0
 66
     1
 10
0.0
 20
0.0
 30
0.0
  0
VERTEX
  5
2F8
  8
0
 10
164.2795667596776
 20
69.03960070325805
 30
0.0
  0
VERTEX
  5
2F9
  8
0
 10
164.2795667596776
 20
82.51612903225801
 30
0.0
  0
VERTEX
  5
2FA
  8
0
 10
160.2795667596776
 20
82.51612903225801
 30
0.0
  0
VERTEX
  5
2FB
  8
0
 10
160.2795667596776
 20
87.51612903225801
 30
0.0
  0
VERTEX
  5
2FC
  8
0
 10
195.2795667596776
 20
87.51612903225801
 30
0.0
  0
VERTEX
  5
2FD
  8
0
 10
200.2795667596776
 20
82.51612903225801
 30
0.0
  0
VERTEX
  5
2FE
  8
0
 10
200.2795667596776
 20
79.51612903225801
 30
0.0
  0
VERTEX
  5
2FF
  8
0
 10
198.2795667596776
 20
79.51612903225801
 30
0.0
  0
VERTEX
  5
300
  8
0
 10
198.2795667596776
 20
77.51612903225801
 30
0.0
  0
VERTEX
  5
301
  8
0
 10
200.2795667596776
 20
77.51612903225801
 30
0.0
  0
VERTEX
  5
302
  8
0
 10
200.2795667596776
 20
57.51612903225804
 30
0.0
  0
SEQEND
  5
303
  8
0
  0
POLYLINE
  5
CD
  8
0
 66
     1
 10
0.0
 20
0.0
 30
0.0
  0
VERTEX
  5
304
  8
0
 10
198.2795667596776
 20
57.51612903225804
 30
0.0
  0
VERTEX
  5
305
  8
0
 10
200.2795667596776
 20
57.51612903225804
 30
0.0
  0
SEQEND
  5
306
  8
0
  0
POLYLINE
  5
CE
  8
0
 66
     1
 10
0.0
 20
0.0
 30
0.0
  0
VERTEX
  5
307
  8
0
 10
198.2795667596776
 20
55.51612903225804
 30
0.0
  0
VERTEX
  5
308
  8
0
 10
198.2795667596776
 20
57.51612903225804
 30
0.0
  0
SEQEND
  5
309
  8
0
  0
POLYLINE
  5
CF
  8
0
 66
     1
 10
0.0
 20
0.0
 30
0.0
  0
VERTEX
  5
30A
  8
0
 10
200.2795667596776
 20
55.51612903225804
 30
0.0
  0
VERTEX
  5
30B
  8
0
 10
198.2795667596776
 20
55.51612903225804
 30
0.0
  0
SEQEND
  5
30C
  8
0
  0
POLYLINE
  5
D0
  8
0
 66
     1
 10
0.0
 20
0.0
 30
0.0
  0
VERTEX
  5
30D
  8
0
 10
200.2795667596776
 20
52.51612903225804
 30
0.0
  0
VERTEX
  5
30E
  8
0
 10
200.2795667596776
 20
55.51612903225804
 30
0.0
  0
SEQEND
  5
30F
  8
0
  0
POLYLINE
  5
D1
  8
0
 66
     1
 10
0.0
 20
0.0
 30
0.0
  0
VERTEX
  5
310
  8
0
 10
195.2795667596776
 20
47.51612903225804
 30
0.0
  0
VERTEX
  5
311
  8
0
 10
200.2795667596776
 20
52.51612903225804
 30
0.0
  0
SEQEND
  5
312
  8
0
  0
POLYLINE
  5
D2
  8
0
 66
     1
 10
0.0
 20
0.0
 30
0.0
  0
VERTEX
  5
313
  8
0
 10
160.2795667596776
 20
47.51612903225804
 30
0.0
  0
VERTEX
  5
314
  8
0
 10
195.2795667596776
 20
47.51612903225804
 30
0.0
  0
SEQEND
  5
315
  8
0
  0
POLYLINE
  5
D3
  8
0
 66
     1
 10
0.0
 20
0.0
 30
0.0
  0
VERTEX
  5
316
  8
0
 10
160.2795667596776
 20
52.51612903225804
 30
0.0
  0
VERTEX
  5
317
  8
0
 10
160.2795667596776
 20
47.51612903225804
 30
0.0
  0
SEQEND
  5
318
  8
0
  0
POLYLINE
  5
D4
  8
0
 66
     1
 10
0.0
 20
0.0
 30
0.0
  0
VERTEX
  5
319
  8
0
 10
164.2795667596776
 20
52.51612903225804
 30
0.0
  0
VERTEX
  5
31A
  8
0
 10
160.2795667596776
 20
52.51612903225804
 30
0.0
  0
SEQEND
  5
31B
  8
0
  0
POLYLINE
  5
D5
  8
0
 66
     1
 10
0.0
 20
0.0
 30
0.0
  0
VERTEX
  5
31C
  8
0
 10
164.2795667596776
 20
52.51612903225804
 30
0.0
  0
VERTEX
  5
31D
  8
0
 10
164.2795667596776
 20
65.99265736125803
 30
0.0
  0
VERTEX
  5
31E
  8
0
 10
164.7973876386776
 20
65.99265736125803
 30
0.0
  0
SEQEND
  5
31F
  8
0
  0
POLYLINE
  5
D6
  8
0
 66
     1
 10
0.0
 20
0.0
 30
0.0
  0
VERTEX
  5
320
  8
0
 10
182.2964500469776
 20
69.15933563495803
 30
0.0
  0
VERTEX
  5
321
  8
0
 10
168.2614571612776
 20
82.51612903225801
 30
0.0
  0
SEQEND
  5
322
  8
0
  0
POLYLINE
  5
D7
  8
0
 66
     1
 10
0.0
 20
0.0
 30
0.0
  0
VERTEX
  5
323
  8
0
 10
194.0593133299776
 20
82.51612903225801
 30
0.0
  0
VERTEX
  5
324
  8
0
 10
182.2964500469776
 20
69.15933563495803
 30
0.0
  0
SEQEND
  5
325
  8
0
  0
POLYLINE
  5
D8
  8
0
 66
     1
 10
0.0
 20
0.0
 30
0.0
  0
VERTEX
  5
326
  8
0
 10
168.2614571612776
 20
82.51612903225801
 30
0.0
  0
VERTEX
  5
327
  8
0
 10
194.0593133299776
 20
82.51612903225801
 30
0.0
  0
SEQEND
  5
328
  8
0
  0
POLYLINE
  5
D9
  8
0
 66
     1
 10
0.0
 20
0.0
 30
0.0
  0
VERTEX
  5
329
  8
0
 10
183.8057285511776
 20
67.51612903225804
 30
0.0
  0
VERTEX
  5
32A
  8
0
 10
193.5186396976776
 20
78.54519094925804
 30
0.0
  0
SEQEND
  5
32B
  8
0
  0
POLYLINE
  5
DA
  8
0
 66
     1
 10
0.0
 20
0.0
 30
0.0
  0
VERTEX
  5
32C
  8
0
 10
183.8057285511776
 20
67.51612903225804
 30
0.0
  0
VERTEX
  5
32D
  8
0
 10
193.5186396976776
 20
56.48706711525803
 30
0.0
  0
SEQEND
  5
32E
  8
0
  0
POLYLINE
  5
DB
  8
0
 66
     1
 10
0.0
 20
0.0
 30
0.0
  0
VERTEX
  5
32F
  8
0
 10
193.5186396976776
 20
78.54519094925804
 30
0.0
  0
VERTEX
  5
330
  8
0
 10
193.5186396976776
 20
56.48706711525803
 30
0.0
  0
SEQEND
  5
331
  8
0
  0
POLYLINE
  5
DC
  8
0
 66
     1
 10
0.0
 20
0.0
 30
0.0
  0
VERTEX
  5
332
  8
0
 10
171.6599771355776
 20
58.99000003615804
 30
0.0
  0
VERTEX
  5
333
  8
0
 10
171.6599771355776
 20
76.04225802835806
 30
0.0
  0
SEQEND
  5
334
  8
0
  0
POLYLINE
  5
DD
  8
0
 66
     1
 10
0.0
 20
0.0
 30
0.0
  0
VERTEX
  5
335
  8
0
 10
171.6599771355776
 20
58.99000003615804
 30
0.0
  0
VERTEX
  5
336
  8
0
 10
180.6190256319776
 20
67.51612903225804
 30
0.0
  0
SEQEND
  5
337
  8
0
  0
POLYLINE
  5
DE
  8
0
 66
     1
 10
0.0
 20
0.0
 30
0.0
  0
VERTEX
  5
338
  8
0
 10
171.6599771355776
 20
76.04225802835806
 30
0.0
  0
VERTEX
  5
339
  8
0
 10
180.6190256319776
 20
67.51612903225804
 30
0.0
  0
SEQEND
  5
33A
  8
0
  0
POLYLINE
  5
DF
  8
0
 66
     1
 10
0.0
 20
0.0
 30
0.0
 70
     1
  0
VERTEX
  5
33B
  8
0
 10
182.2964500469776
 20
65.87292242955805
 30
0.0
  0
VERTEX
  5
33C
  8
0
 10
168.2614571612776
 20
52.51612903225804
 30
0.0
  0
VERTEX
  5
33D
  8
0
 10
194.0593133299776
 20
52.51612903225804
 30
0.0
  0
SEQEND
  5
33E
  8
0
  0
POLYLINE
  5
E0
  8
0
 66
     1
 10
0.0
 20
0.0
 30
0.0
 70
     1
  0
VERTEX
  5
33F
  8
0
 10
267.9117167245767
 20
75.21685760937595
 30
0.0
 42
0.4142135623730951
  0
VERTEX
  5
340
  8
0
 10
265.4117167245767
 20
72.71685760937595
 30
0.0
 42
0.4142135623730951
  0
VERTEX
  5
341
  8
0
 10
267.9117167245767
 20
70.21685760937595
 30
0.0
 42
0.4142135623730951
  0
VERTEX
  5
342
  8
0
 10
270.4117167245767
 20
72.71685760937595
 30
0.0
 42
0.4142135623730951
  0
SEQEND
  5
343
  8
0
  0
POLYLINE
  5
E1
  8
0
 66
     1
 10
0.0
 20
0.0
 30
0.0
  0
VERTEX
  5
344
  8
0
 10
264.9117167245767
 20
86.81224692117593
 30
0.0
  0
VERTEX
  5
345
  8
0
 10
261.1529462414767
 20
88.18032749447593
 30
0.0
  0
SEQEND
  5
346
  8
0
  0
POLYLINE
  5
E2
  8
0
 66
     1
 10
0.0
 20
0.0
 30
0.0
  0
VERTEX
  5
347
  8
0
 10
259.7814145746767
 20
72.71685760937595
 30
0.0
  0
VERTEX
  5
348
  8
0
 10
264.9117167245767
 20
86.81224692117593
 30
0.0
  0
SEQEND
  5
349
  8
0
  0
POLYLINE
  5
E3
  8
0
 66
     1
 10
0.0
 20
0.0
 30
0.0
  0
VERTEX
  5
34A
  8
0
 10
256.0226440915767
 20
74.0849381826759
 30
0.0
  0
VERTEX
  5
34B
  8
0
 10
259.7814145746767
 20
72.71685760937595
 30
0.0
  0
SEQEND
  5
34C
  8
0
  0
POLYLINE
  5
E4
  8
0
 66
     1
 10
0.0
 20
0.0
 30
0.0
  0
VERTEX
  5
34D
  8
0
 10
261.1529462414767
 20
88.18032749447593
 30
0.0
  0
VERTEX
  5
34E
  8
0
 10
256.0226440915767
 20
74.0849381826759
 30
0.0
  0
SEQEND
  5
34F
  8
0
  0
POLYLINE
  5
E5
  8
0
 66
     1
 10
0.0
 20
0.0
 30
0.0
 70
     1
  0
VERTEX
  5
350
  8
0
 10
270.9117167245767
 20
86.81224692117593
 30
0.0
  0
VERTEX
  5
351
  8
0
 10
274.6704872076767
 20
88.18032749447593
 30
0.0
  0
VERTEX
  5
352
  8
0
 10
279.8007893575767
 20
74.0849381826759
 30
0.0
  0
VERTEX
  5
353
  8
0
 10
276.0420188744767
 20
72.71685760937595
 30
0.0
  0
SEQEND
  5
354
  8
0
  0
POLYLINE
  5
E6
  8
0
 66
     1
 10
0.0
 20
0.0
 30
0.0
  0
VERTEX
  5
355
  8
0
 10
252.2638736083767
 20
74.57138385247589
 30
0.0
  0
VERTEX
  5
356
  8
0
 10
252.2638736083767
 20
72.82039390307591
 30
0.0
 42
0.2517840899748129
  0
VERTEX
  5
357
  8
0
 10
254.5063462074107
 20
68.64953756019844
 30
0.0
  0
VERTEX
  5
358
  8
0
 10
261.3134526622767
 20
64.14907505867592
 30
0.0
 42
0.1470891899877284
  0
VERTEX
  5
359
  8
0
 10
264.0709800631767
 20
63.31993140147591
 30
0.0
  0
VERTEX
  5
35A
  8
0
 10
271.7524533859767
 20
63.31993140147591
 30
0.0
 42
0.1470891899877279
  0
VERTEX
  5
35B
  8
0
 10
274.5099807869427
 20
64.14907505859844
 30
0.0
  0
SEQEND
  5
35C
  8
0
  0
POLYLINE
  5
E7
  8
0
 66
     1
 10
0.0
 20
0.0
 30
0.0
  0
VERTEX
  5
35D
  8
0
 10
281.3170872416767
 20
68.64953756017593
 30
0.0
  0
VERTEX
  5
35E
  8
0
 10
274.5099807868767
 20
64.14907505867592
 30
0.0
  0
SEQEND
  5
35F
  8
0
  0
POLYLINE
  5
E8
  8
0
 66
     1
 10
0.0
 20
0.0
 30
0.0
  0
VERTEX
  5
360
  8
0
 10
281.3170872417427
 20
68.64953756019844
 30
0.0
 42
0.2517840899748137
  0
VERTEX
  5
361
  8
0
 10
283.5595598407767
 20
72.82039390307591
 30
0.0
  0
SEQEND
  5
362
  8
0
  0
POLYLINE
  5
E9
  8
0
 66
     1
 10
0.0
 20
0.0
 30
0.0
  0
VERTEX
  5
363
  8
0
 10
283.5595598407767
 20
74.57138385247589
 30
0.0
  0
VERTEX
  5
364
  8
0
 10
283.5595598407767
 20
72.82039390307591
 30
0.0
  0
SEQEND
  5
365
  8
0
  0
POLYLINE
  5
EA
  8
0
 66
     1
 10
0.0
 20
0.0
 30
0.0
  0
VERTEX
  5
366
  8
0
 10
283.5595598407767
 20
74.57138385247589
 30
0.0
 42
0.087488663525923
  0
VERTEX
  5
367
  8
0
 10
283.2580229447062
 20
76.2814845691043
 30
0.0
  0
SEQEND
  5
368
  8
0
  0
POLYLINE
  5
EB
  8
0
 66
     1
 10
0.0
 20
0.0
 30
0.0
  0
VERTEX
  5
369
  8
0
 10
278.1094915475767
 20
90.42695832597593
 30
0.0
  0
VERTEX
  5
36A
  8
0
 10
283.2580229446767
 20
76.28148456907593
 30
0.0
  0
SEQEND
  5
36B
  8
0
  0
POLYLINE
  5
EC
  8
0
 66
     1
 10
0.0
 20
0.0
 30
0.0
  0
VERTEX
  5
36C
  8
0
 10
278.1094915476062
 20
90.42695832600424
 30
0.0
 42
0.3152987888789843
  0
VERTEX
  5
36D
  8
0
 10
273.4110284436767
 20
93.71685760937595
 30
0.0
  0
SEQEND
  5
36E
  8
0
  0
POLYLINE
  5
ED
  8
0
 66
     1
 10
0.0
 20
0.0
 30
0.0
  0
VERTEX
  5
36F
  8
0
 10
262.4124050054767
 20
93.71685760937595
 30
0.0
  0
VERTEX
  5
370
  8
0
 10
273.4110284436767
 20
93.71685760937595
 30
0.0
  0
SEQEND
  5
371
  8
0
  0
POLYLINE
  5
EE
  8
0
 66
     1
 10
0.0
 20
0.0
 30
0.0
  0
VERTEX
  5
372
  8
0
 10
262.4124050054767
 20
93.71685760937595
 30
0.0
 42
0.3152987888789828
  0
VERTEX
  5
373
  8
0
 10
257.7139419015472
 20
90.42695832600424
 30
0.0
  0
VERTEX
  5
374
  8
0
 10
252.5654105044767
 20
76.28148456907593
 30
0.0
 42
0.0874886635259228
  0
VERTEX
  5
375
  8
0
 10
252.2638736083767
 20
74.57138385247589
 30
0.0
  0
SEQEND
  5
376
  8
0
  0
POLYLINE
  5
EF
  8
0
 66
     1
 10
0.0
 20
0.0
 30
0.0
 70
     1
  0
VERTEX
  5
377
  8
0
 10
269.657203100889
 20
47.97392377077251
 30
0.0
 42
-0.4142135623730951
  0
VERTEX
  5
378
  8
0
 10
267.157203100889
 20
50.47392377077251
 30
0.0
 42
-0.4142135623730951
  0
VERTEX
  5
379
  8
0
 10
269.657203100889
 20
52.97392377077251
 30
0.0
 42
-0.4142135623730951
  0
VERTEX
  5
37A
  8
0
 10
272.157203100889
 20
50.47392377077251
 30
0.0
 42
-0.4142135623730951
  0
SEQEND
  5
37B
  8
0
  0
POLYLINE
  5
F0
  8
0
 66
     1
 10
0.0
 20
0.0
 30
0.0
  0
VERTEX
  5
37C
  8
0
 10
266.657203100889
 20
36.37853445897253
 30
0.0
  0
VERTEX
  5
37D
  8
0
 10
262.898432617789
 20
35.01045388567253
 30
0.0
  0
SEQEND
  5
37E
  8
0
  0
POLYLINE
  5
F1
  8
0
 66
     1
 10
0.0
 20
0.0
 30
0.0
  0
VERTEX
  5
37F
  8
0
 10
261.526900950989
 20
50.47392377077251
 30
0.0
  0
VERTEX
  5
380
  8
0
 10
266.657203100889
 20
36.37853445897253
 30
0.0
  0
SEQEND
  5
381
  8
0
  0
POLYLINE
  5
F2
  8
0
 66
     1
 10
0.0
 20
0.0
 30
0.0
  0
VERTEX
  5
382
  8
0
 10
257.768130467889
 20
49.10584319747256
 30
0.0
  0
VERTEX
  5
383
  8
0
 10
261.526900950989
 20
50.47392377077251
 30
0.0
  0
SEQEND
  5
384
  8
0
  0
POLYLINE
  5
F3
  8
0
 66
     1
 10
0.0
 20
0.0
 30
0.0
  0
VERTEX
  5
385
  8
0
 10
262.898432617789
 20
35.01045388567253
 30
0.0
  0
VERTEX
  5
386
  8
0
 10
257.768130467889
 20
49.10584319747256
 30
0.0
  0
SEQEND
  5
387
  8
0
  0
POLYLINE
  5
F4
  8
0
 66
     1
 10
0.0
 20
0.0
 30
0.0
 70
     1
  0
VERTEX
  5
388
  8
0
 10
272.657203100889
 20
36.37853445897253
 30
0.0
  0
VERTEX
  5
389
  8
0
 10
276.4159735839889
 20
35.01045388567253
 30
0.0
  0
VERTEX
  5
38A
  8
0
 10
281.546275733889
 20
49.10584319747256
 30
0.0
  0
VERTEX
  5
38B
  8
0
 10
277.787505250789
 20
50.47392377077251
 30
0.0
  0
SEQEND
  5
38C
  8
0
  0
POLYLINE
  5
F5
  8
0
 66
     1
 10
0.0
 20
0.0
 30
0.0
  0
VERTEX
  5
38D
  8
0
 10
254.009359984689
 20
48.61939752767257
 30
0.0
  0
VERTEX
  5
38E
  8
0
 10
254.009359984689
 20
50.37038747707255
 30
0.0
 42
-0.2517840899748129
  0
VERTEX
  5
38F
  8
0
 10
256.2518325837229
 20
54.54124381995002
 30
0.0
  0
VERTEX
  5
390
  8
0
 10
263.058939038589
 20
59.04170632147254
 30
0.0
 42
-0.1470891899877284
  0
VERTEX
  5
391
  8
0
 10
265.816466439489
 20
59.87084997867255
 30
0.0
  0
VERTEX
  5
392
  8
0
 10
273.497939762289
 20
59.87084997867255
 30
0.0
 42
-0.1470891899877279
  0
VERTEX
  5
393
  8
0
 10
276.255467163255
 20
59.04170632155002
 30
0.0
  0
SEQEND
  5
394
  8
0
  0
POLYLINE
  5
F6
  8
0
 66
     1
 10
0.0
 20
0.0
 30
0.0
  0
VERTEX
  5
395
  8
0
 10
283.062573617989
 20
54.54124381997253
 30
0.0
  0
VERTEX
  5
396
  8
0
 10
276.255467163189
 20
59.04170632147254
 30
0.0
  0
SEQEND
  5
397
  8
0
  0
POLYLINE
  5
F7
  8
0
 66
     1
 10
0.0
 20
0.0
 30
0.0
  0
VERTEX
  5
398
  8
0
 10
283.062573618055
 20
54.54124381995002
 30
0.0
 42
-0.2517840899748137
  0
VERTEX
  5
399
  8
0
 10
285.305046217089
 20
50.37038747707255
 30
0.0
  0
SEQEND
  5
39A
  8
0
  0
POLYLINE
  5
F8
  8
0
 66
     1
 10
0.0
 20
0.0
 30
0.0
  0
VERTEX
  5
39B
  8
0
 10
285.305046217089
 20
48.61939752767257
 30
0.0
  0
VERTEX
  5
39C
  8
0
 10
285.305046217089
 20
50.37038747707255
 30
0.0
  0
SEQEND
  5
39D
  8
0
  0
POLYLINE
  5
F9
  8
0
 66
     1
 10
0.0
 20
0.0
 30
0.0
  0
VERTEX
  5
39E
  8
0
 10
285.305046217089
 20
48.61939752767257
 30
0.0
 42
-0.087488663525923
  0
VERTEX
  5
39F
  8
0
 10
285.0035093210185
 20
46.90929681104416
 30
0.0
  0
SEQEND
  5
3A0
  8
0
  0
POLYLINE
  5
FA
  8
0
 66
     1
 10
0.0
 20
0.0
 30
0.0
  0
VERTEX
  5
3A1
  8
0
 10
279.854977923889
 20
32.76382305417253
 30
0.0
  0
VERTEX
  5
3A2
  8
0
 10
285.003509320989
 20
46.90929681107253
 30
0.0
  0
SEQEND
  5
3A3
  8
0
  0
POLYLINE
  5
FB
  8
0
 66
     1
 10
0.0
 20
0.0
 30
0.0
  0
VERTEX
  5
3A4
  8
0
 10
279.8549779239185
 20
32.76382305414422
 30
0.0
 42
-0.3152987888789843
  0
VERTEX
  5
3A5
  8
0
 10
275.156514819989
 20
29.47392377077251
 30
0.0
  0
SEQEND
  5
3A6
  8
0
  0
POLYLINE
  5
FC
  8
0
 66
     1
 10
0.0
 20
0.0
 30
0.0
  0
VERTEX
  5
3A7
  8
0
 10
264.157891381789
 20
29.47392377077251
 30
0.0
  0
VERTEX
  5
3A8
  8
0
 10
275.156514819989
 20
29.47392377077251
 30
0.0
  0
SEQEND
  5
3A9
  8
0
  0
POLYLINE
  5
FD
  8
0
 66
     1
 10
0.0
 20
0.0
 30
0.0
  0
VERTEX
  5
3AA
  8
0
 10
264.157891381789
 20
29.47392377077251
 30
0.0
 42
-0.3152987888789828
  0
VERTEX
  5
3AB
  8
0
 10
259.4594282778594
 20
32.76382305414422
 30
0.0
  0
VERTEX
  5
3AC
  8
0
 10
254.310896880789
 20
46.90929681107253
 30
0.0
 42
-0.0874886635259228
  0
VERTEX
  5
3AD
  8
0
 10
254.009359984689
 20
48.61939752767257
 30
0.0
  0
SEQEND
  5
3AE
  8
0
  0
ENDSEC
  0
EOF
