  0
SECTION
  2
HEADER
  9
$ACADVER
  1
AC1009
  9
$DWGCODEPAGE
  3
ansi_932
  9
$INSBASE
 10
0.0
 20
0.0
 30
0.0
  9
$EXTMIN
 10
9.516945324414053
 20
29.68825199319794
 30
0.0
  9
$EXTMAX
 10
269.2309641645163
 20
95.21003053464845
 30
0.0
  9
$LIMMIN
 10
0.0
 20
0.0
  9
$LIMMAX
 10
12.0
 20
9.0
  9
$ORTHOMODE
 70
     0
  9
$REGENMODE
 70
     1
  9
$FILLMODE
 70
     1
  9
$QTEXTMODE
 70
     0
  9
$MIRRTEXT
 70
     1
  9
$DRAGMODE
 70
     2
  9
$LTSCALE
 40
1.0
  9
$OSMODE
 70
    37
  9
$ATTMODE
 70
     1
  9
$TEXTSIZE
 40
0.2
  9
$TRACEWID
 40
0.05
  9
$TEXTSTYLE
  7
STANDARD
  9
$CLAYER
  8
0
  9
$CELTYPE
  6
BYLAYER
  9
$CECOLOR
 62
   256
  9
$DIMSCALE
 40
1.0
  9
$DIMASZ
 40
0.18
  9
$DIMEXO
 40
0.0625
  9
$DIMDLI
 40
0.38
  9
$DIMRND
 40
0.0
  9
$DIMDLE
 40
0.0
  9
$DIMEXE
 40
0.18
  9
$DIMTP
 40
0.0
  9
$DIMTM
 40
0.0
  9
$DIMTXT
 40
0.18
  9
$DIMCEN
 40
0.09
  9
$DIMTSZ
 40
0.0
  9
$DIMTOL
 70
     0
  9
$DIMLIM
 70
     0
  9
$DIMTIH
 70
     1
  9
$DIMTOH
 70
     1
  9
$DIMSE1
 70
     0
  9
$DIMSE2
 70
     0
  9
$DIMTAD
 70
     0
  9
$DIMZIN
 70
     0
  9
$DIMBLK
  1

  9
$DIMASO
 70
     1
  9
$DIMSHO
 70
     1
  9
$DIMPOST
  1

  9
$DIMAPOST
  1

  9
$DIMALT
 70
     0
  9
$DIMALTD
 70
     2
  9
$DIMALTF
 40
25.4
  9
$DIMLFAC
 40
1.0
  9
$DIMTOFL
 70
     0
  9
$DIMTVP
 40
0.0
  9
$DIMTIX
 70
     0
  9
$DIMSOXD
 70
     0
  9
$DIMSAH
 70
     0
  9
$DIMBLK1
  1

  9
$DIMBLK2
  1

  9
$DIMSTYLE
  2
STANDARD
  9
$DIMCLRD
 70
     0
  9
$DIMCLRE
 70
     0
  9
$DIMCLRT
 70
     0
  9
$DIMTFAC
 40
1.0
  9
$DIMGAP
 40
0.09
  9
$LUNITS
 70
     2
  9
$LUPREC
 70
     4
  9
$SKETCHINC
 40
0.1
  9
$FILLETRAD
 40
0.5
  9
$AUNITS
 70
     0
  9
$AUPREC
 70
     0
  9
$MENU
  1
.
  9
$ELEVATION
 40
0.0
  9
$PELEVATION
 40
0.0
  9
$THICKNESS
 40
0.0
  9
$LIMCHECK
 70
     0
  9
$CHAMFERA
 40
0.5
  9
$CHAMFERB
 40
0.5
  9
$SKPOLY
 70
     0
  9
$TDCREATE
 40
2454910.5
  9
$TDUPDATE
 40
2459545.674210324
  9
$TDINDWG
 40
0.0000000116
  9
$TDUSRTIMER
 40
0.0000000116
  9
$USRTIMER
 70
     1
  9
$ANGBASE
 50
0.0
  9
$ANGDIR
 70
     0
  9
$PDMODE
 70
     0
  9
$PDSIZE
 40
0.0
  9
$PLINEWID
 40
0.0
  9
$COORDS
 70
     1
  9
$SPLFRAME
 70
     0
  9
$SPLINETYPE
 70
     6
  9
$SPLINESEGS
 70
     8
  9
$ATTDIA
 70
     0
  9
$ATTREQ
 70
     1
  9
$HANDLING
 70
     1
  9
$HANDSEED
  5
321
  9
$SURFTAB1
 70
     6
  9
$SURFTAB2
 70
     6
  9
$SURFTYPE
 70
     6
  9
$SURFU
 70
     6
  9
$SURFV
 70
     6
  9
$UCSNAME
  2

  9
$UCSORG
 10
0.0
 20
0.0
 30
0.0
  9
$UCSXDIR
 10
1.0
 20
0.0
 30
0.0
  9
$UCSYDIR
 10
0.0
 20
1.0
 30
0.0
  9
$PUCSNAME
  2

  9
$PUCSORG
 10
0.0
 20
0.0
 30
0.0
  9
$PUCSXDIR
 10
1.0
 20
0.0
 30
0.0
  9
$PUCSYDIR
 10
0.0
 20
1.0
 30
0.0
  9
$USERI1
 70
     0
  9
$USERI2
 70
     0
  9
$USERI3
 70
     0
  9
$USERI4
 70
     0
  9
$USERI5
 70
     0
  9
$USERR1
 40
0.0
  9
$USERR2
 40
0.0
  9
$USERR3
 40
0.0
  9
$USERR4
 40
0.0
  9
$USERR5
 40
0.0
  9
$WORLDVIEW
 70
     1
  9
$SHADEDGE
 70
     3
  9
$SHADEDIF
 70
    70
  9
$TILEMODE
 70
     1
  9
$MAXACTVP
 70
    64
  9
$PLIMCHECK
 70
     0
  9
$PEXTMIN
 10
1.000000000000000E+20
 20
1.000000000000000E+20
 30
1.000000000000000E+20
  9
$PEXTMAX
 10
-1.000000000000000E+20
 20
-1.000000000000000E+20
 30
-1.000000000000000E+20
  9
$PLIMMIN
 10
0.0
 20
0.0
  9
$PLIMMAX
 10
12.0
 20
9.0
  9
$UNITMODE
 70
     0
  9
$VISRETAIN
 70
     1
  9
$PLINEGEN
 70
     0
  9
$PSLTSCALE
 70
     1
  0
ENDSEC
  0
SECTION
  2
TABLES
  0
TABLE
  2
VPORT
 70
     1
  0
VPORT
  2
*ACTIVE
 70
     0
 10
0.0
 20
0.0
 11
1.0
 21
1.0
 12
10.42990654205607
 22
4.5
 13
0.0
 23
0.0
 14
0.5
 24
0.5
 15
0.5
 25
0.5
 16
0.0
 26
0.0
 36
1.0
 17
0.0
 27
0.0
 37
0.0
 40
9.0
 41
1.972972972850329
 42
50.0
 43
0.0
 44
0.0
 50
0.0
 51
0.0
 71
     0
 72
   100
 73
     1
 74
     3
 75
     0
 76
     0
 77
     0
 78
     0
  0
ENDTAB
  0
TABLE
  2
LTYPE
 70
     2
  0
LTYPE
  2
CONTINUOUS
 70
     0
  3
Solid line
 72
    65
 73
     0
 40
0.0
  0
LTYPE
  2
CONTINUOUS2
 70
     0
  3
Solid Line
 72
    65
 73
     0
 40
0.0
  0
ENDTAB
  0
TABLE
  2
LAYER
 70
     1
  0
LAYER
  2
0
 70
     0
 62
     7
  6
CONTINUOUS
  0
ENDTAB
  0
TABLE
  2
STYLE
 70
     1
  0
STYLE
  2
STANDARD
 70
     0
 40
0.0
 41
1.0
 50
0.0
 71
     0
 42
0.2
  3
txt
  4

  0
ENDTAB
  0
TABLE
  2
VIEW
 70
     0
  0
ENDTAB
  0
TABLE
  2
UCS
 70
     0
  0
ENDTAB
  0
TABLE
  2
APPID
 70
     1
  0
APPID
  2
ACAD
 70
     0
  0
ENDTAB
  0
TABLE
  2
DIMSTYLE
 70
     1
  0
DIMSTYLE
  2
STANDARD
 70
     0
  3

  4

  5

  6

  7

 40
1.0
 41
0.18
 42
0.0625
 43
0.38
 44
0.18
 45
0.0
 46
0.0
 47
0.0
 48
0.0
140
0.18
141
0.09
142
0.0
143
25.4
144
1.0
145
0.0
146
1.0
147
0.09
 71
     0
 72
     0
 73
     1
 74
     1
 75
     0
 76
     0
 77
     0
 78
     0
170
     0
171
     2
172
     0
173
     0
174
     0
175
     0
176
     0
177
     0
178
     0
  0
ENDTAB
  0
ENDSEC
  0
SECTION
  2
BLOCKS
  0
BLOCK
  8
0
  2
$MODEL_SPACE
 70
     0
 10
0.0
 20
0.0
 30
0.0
  3
$MODEL_SPACE
  1

  0
ENDBLK
  5
21
  8
0
  0
BLOCK
 67
     1
  8
0
  2
$PAPER_SPACE
 70
     0
 10
0.0
 20
0.0
 30
0.0
  3
$PAPER_SPACE
  1

  0
ENDBLK
  5
1D
 67
     1
  8
0
  0
ENDSEC
  0
SECTION
  2
ENTITIES
  0
POLYLINE
  5
40
  8
0
 66
     1
 10
0.0
 20
0.0
 30
0.0
 70
     1
  0
VERTEX
  5
E5
  8
0
 10
25.16478844061405
 20
76.304678682385
 30
0.0
 42
0.4142135623730951
  0
VERTEX
  5
E6
  8
0
 10
22.66478844061405
 20
73.804678682385
 30
0.0
 42
0.4142135623730951
  0
VERTEX
  5
E7
  8
0
 10
25.16478844061405
 20
71.304678682385
 30
0.0
 42
0.4142135623730951
  0
VERTEX
  5
E8
  8
0
 10
27.66478844061405
 20
73.804678682385
 30
0.0
 42
0.4142135623730951
  0
SEQEND
  5
E9
  8
0
  0
POLYLINE
  5
41
  8
0
 66
     1
 10
0.0
 20
0.0
 30
0.0
  0
VERTEX
  5
EA
  8
0
 10
22.16478844061405
 20
87.90006799418501
 30
0.0
  0
VERTEX
  5
EB
  8
0
 10
18.40601795751405
 20
89.268148567485
 30
0.0
  0
SEQEND
  5
EC
  8
0
  0
POLYLINE
  5
42
  8
0
 66
     1
 10
0.0
 20
0.0
 30
0.0
  0
VERTEX
  5
ED
  8
0
 10
17.03448629071405
 20
73.804678682385
 30
0.0
  0
VERTEX
  5
EE
  8
0
 10
22.16478844061405
 20
87.90006799418501
 30
0.0
  0
SEQEND
  5
EF
  8
0
  0
POLYLINE
  5
43
  8
0
 66
     1
 10
0.0
 20
0.0
 30
0.0
  0
VERTEX
  5
F0
  8
0
 10
13.27571580761405
 20
75.17275925568501
 30
0.0
  0
VERTEX
  5
F1
  8
0
 10
17.03448629071405
 20
73.804678682385
 30
0.0
  0
SEQEND
  5
F2
  8
0
  0
POLYLINE
  5
44
  8
0
 66
     1
 10
0.0
 20
0.0
 30
0.0
  0
VERTEX
  5
F3
  8
0
 10
18.40601795751405
 20
89.268148567485
 30
0.0
  0
VERTEX
  5
F4
  8
0
 10
13.27571580761405
 20
75.17275925568501
 30
0.0
  0
SEQEND
  5
F5
  8
0
  0
POLYLINE
  5
45
  8
0
 66
     1
 10
0.0
 20
0.0
 30
0.0
 70
     1
  0
VERTEX
  5
F6
  8
0
 10
28.16478844061405
 20
87.90006799418501
 30
0.0
  0
VERTEX
  5
F7
  8
0
 10
31.92355892371405
 20
89.268148567485
 30
0.0
  0
VERTEX
  5
F8
  8
0
 10
37.05386107361405
 20
75.17275925568501
 30
0.0
  0
VERTEX
  5
F9
  8
0
 10
33.29509059051405
 20
73.804678682385
 30
0.0
  0
SEQEND
  5
FA
  8
0
  0
POLYLINE
  5
46
  8
0
 66
     1
 10
0.0
 20
0.0
 30
0.0
  0
VERTEX
  5
FB
  8
0
 10
9.516945324414053
 20
75.659204925485
 30
0.0
  0
VERTEX
  5
FC
  8
0
 10
9.516945324414053
 20
73.908214976085
 30
0.0
 42
0.2517840899748129
  0
VERTEX
  5
FD
  8
0
 10
11.75941792344801
 20
69.7373586332075
 30
0.0
  0
VERTEX
  5
FE
  8
0
 10
18.56652437831405
 20
65.236896131685
 30
0.0
 42
0.1470891899877284
  0
VERTEX
  5
FF
  8
0
 10
21.32405177921405
 20
64.40775247448501
 30
0.0
  0
VERTEX
  5
100
  8
0
 10
29.00552510201405
 20
64.40775247448501
 30
0.0
 42
0.1470891899877279
  0
VERTEX
  5
101
  8
0
 10
31.76305250298009
 20
65.23689613160751
 30
0.0
  0
SEQEND
  5
102
  8
0
  0
POLYLINE
  5
47
  8
0
 66
     1
 10
0.0
 20
0.0
 30
0.0
  0
VERTEX
  5
103
  8
0
 10
38.57015895771406
 20
69.737358633185
 30
0.0
  0
VERTEX
  5
104
  8
0
 10
31.76305250291405
 20
65.236896131685
 30
0.0
  0
SEQEND
  5
105
  8
0
  0
POLYLINE
  5
48
  8
0
 66
     1
 10
0.0
 20
0.0
 30
0.0
  0
VERTEX
  5
106
  8
0
 10
38.57015895778009
 20
69.7373586332075
 30
0.0
 42
0.2517840899748137
  0
VERTEX
  5
107
  8
0
 10
40.81263155681405
 20
73.908214976085
 30
0.0
  0
SEQEND
  5
108
  8
0
  0
POLYLINE
  5
49
  8
0
 66
     1
 10
0.0
 20
0.0
 30
0.0
  0
VERTEX
  5
109
  8
0
 10
40.81263155681405
 20
75.659204925485
 30
0.0
  0
VERTEX
  5
10A
  8
0
 10
40.81263155681405
 20
73.908214976085
 30
0.0
  0
SEQEND
  5
10B
  8
0
  0
POLYLINE
  5
4A
  8
0
 66
     1
 10
0.0
 20
0.0
 30
0.0
  0
VERTEX
  5
10C
  8
0
 10
40.81263155681405
 20
75.659204925485
 30
0.0
 42
0.087488663525923
  0
VERTEX
  5
10D
  8
0
 10
40.51109466074359
 20
77.36930564211335
 30
0.0
  0
SEQEND
  5
10E
  8
0
  0
POLYLINE
  5
4B
  8
0
 66
     1
 10
0.0
 20
0.0
 30
0.0
  0
VERTEX
  5
10F
  8
0
 10
35.36256326361405
 20
91.514779398985
 30
0.0
  0
VERTEX
  5
110
  8
0
 10
40.51109466071405
 20
77.36930564208501
 30
0.0
  0
SEQEND
  5
111
  8
0
  0
POLYLINE
  5
4C
  8
0
 66
     1
 10
0.0
 20
0.0
 30
0.0
  0
VERTEX
  5
112
  8
0
 10
35.36256326364359
 20
91.51477939901335
 30
0.0
 42
0.3152987888789843
  0
VERTEX
  5
113
  8
0
 10
30.66410015971405
 20
94.804678682385
 30
0.0
  0
SEQEND
  5
114
  8
0
  0
POLYLINE
  5
4D
  8
0
 66
     1
 10
0.0
 20
0.0
 30
0.0
  0
VERTEX
  5
115
  8
0
 10
19.66547672151405
 20
94.804678682385
 30
0.0
  0
VERTEX
  5
116
  8
0
 10
30.66410015971405
 20
94.804678682385
 30
0.0
  0
SEQEND
  5
117
  8
0
  0
POLYLINE
  5
4E
  8
0
 66
     1
 10
0.0
 20
0.0
 30
0.0
  0
VERTEX
  5
118
  8
0
 10
19.66547672151405
 20
94.804678682385
 30
0.0
 42
0.3152987888789828
  0
VERTEX
  5
119
  8
0
 10
14.96701361758451
 20
91.51477939901335
 30
0.0
  0
VERTEX
  5
11A
  8
0
 10
9.818482220514053
 20
77.36930564208501
 30
0.0
 42
0.0874886635259228
  0
VERTEX
  5
11B
  8
0
 10
9.516945324414053
 20
75.659204925485
 30
0.0
  0
SEQEND
  5
11C
  8
0
  0
POLYLINE
  5
4F
  8
0
 66
     1
 10
0.0
 20
0.0
 30
0.0
 70
     1
  0
VERTEX
  5
11D
  8
0
 10
27.37937507332708
 20
55.16318893489791
 30
0.0
 42
0.4142135623730951
  0
VERTEX
  5
11E
  8
0
 10
24.87937507332708
 20
52.66318893489791
 30
0.0
 42
0.4142135623730951
  0
VERTEX
  5
11F
  8
0
 10
27.37937507332708
 20
50.16318893489792
 30
0.0
 42
0.4142135623730951
  0
VERTEX
  5
120
  8
0
 10
29.87937507332708
 20
52.66318893489791
 30
0.0
 42
0.4142135623730951
  0
SEQEND
  5
121
  8
0
  0
POLYLINE
  5
50
  8
0
 66
     1
 10
0.0
 20
0.0
 30
0.0
  0
VERTEX
  5
122
  8
0
 10
21.49013887402708
 20
30.25318893489791
 30
0.0
  0
VERTEX
  5
123
  8
0
 10
33.54721087182708
 20
33.14943316559791
 30
0.0
 42
0.3467346945476802
  0
VERTEX
  5
124
  8
0
 10
37.37937507332708
 20
38.01113652429791
 30
0.0
  0
SEQEND
  5
125
  8
0
  0
POLYLINE
  5
51
  8
0
 66
     1
 10
0.0
 20
0.0
 30
0.0
  0
VERTEX
  5
126
  8
0
 10
37.37937507332708
 20
53.25318893489791
 30
0.0
  0
VERTEX
  5
127
  8
0
 10
37.37937507332708
 20
38.01113652429791
 30
0.0
  0
SEQEND
  5
128
  8
0
  0
POLYLINE
  5
52
  8
0
 66
     1
 10
0.0
 20
0.0
 30
0.0
  0
VERTEX
  5
129
  8
0
 10
37.37937507332708
 20
53.25318893489791
 30
0.0
 42
0.4142135623730956
  0
VERTEX
  5
12A
  8
0
 10
32.37937507332708
 20
58.25318893489791
 30
0.0
  0
SEQEND
  5
12B
  8
0
  0
POLYLINE
  5
53
  8
0
 66
     1
 10
0.0
 20
0.0
 30
0.0
  0
VERTEX
  5
12C
  8
0
 10
17.37937507332708
 20
58.25318893489791
 30
0.0
  0
VERTEX
  5
12D
  8
0
 10
32.37937507332708
 20
58.25318893489791
 30
0.0
  0
SEQEND
  5
12E
  8
0
  0
POLYLINE
  5
54
  8
0
 66
     1
 10
0.0
 20
0.0
 30
0.0
  0
VERTEX
  5
12F
  8
0
 10
17.37937507332708
 20
51.25318893489791
 30
0.0
  0
VERTEX
  5
130
  8
0
 10
17.37937507332708
 20
58.25318893489791
 30
0.0
  0
SEQEND
  5
131
  8
0
  0
POLYLINE
  5
55
  8
0
 66
     1
 10
0.0
 20
0.0
 30
0.0
  0
VERTEX
  5
132
  8
0
 10
13.37937507332708
 20
51.25318893489791
 30
0.0
  0
VERTEX
  5
133
  8
0
 10
17.37937507332708
 20
51.25318893489791
 30
0.0
  0
SEQEND
  5
134
  8
0
  0
POLYLINE
  5
56
  8
0
 66
     1
 10
0.0
 20
0.0
 30
0.0
  0
VERTEX
  5
135
  8
0
 10
13.37937507332708
 20
36.25318893489791
 30
0.0
  0
VERTEX
  5
136
  8
0
 10
13.37937507332708
 20
51.25318893489791
 30
0.0
  0
SEQEND
  5
137
  8
0
  0
POLYLINE
  5
57
  8
0
 66
     1
 10
0.0
 20
0.0
 30
0.0
  0
VERTEX
  5
138
  8
0
 10
17.37937507332708
 20
36.25318893489791
 30
0.0
  0
VERTEX
  5
139
  8
0
 10
13.37937507332708
 20
36.25318893489791
 30
0.0
  0
SEQEND
  5
13A
  8
0
  0
POLYLINE
  5
58
  8
0
 66
     1
 10
0.0
 20
0.0
 30
0.0
  0
VERTEX
  5
13B
  8
0
 10
17.37937507332708
 20
30.25318893489791
 30
0.0
  0
VERTEX
  5
13C
  8
0
 10
17.37937507332708
 20
36.25318893489791
 30
0.0
  0
SEQEND
  5
13D
  8
0
  0
POLYLINE
  5
59
  8
0
 66
     1
 10
0.0
 20
0.0
 30
0.0
  0
VERTEX
  5
13E
  8
0
 10
21.49013887402708
 20
30.25318893489791
 30
0.0
  0
VERTEX
  5
13F
  8
0
 10
17.37937507332708
 20
30.25318893489791
 30
0.0
  0
SEQEND
  5
140
  8
0
  0
POLYLINE
  5
5A
  8
0
 66
     1
 10
0.0
 20
0.0
 30
0.0
 70
     1
  0
VERTEX
  5
141
  8
0
 10
95.25280242160433
 20
73.10898865325815
 30
0.0
 42
0.4142135623730951
  0
VERTEX
  5
142
  8
0
 10
92.75280242160433
 20
70.60898865325815
 30
0.0
 42
0.4142135623730951
  0
VERTEX
  5
143
  8
0
 10
95.25280242160433
 20
68.10898865325817
 30
0.0
 42
0.4142135623730951
  0
VERTEX
  5
144
  8
0
 10
97.75280242160433
 20
70.60898865325815
 30
0.0
 42
0.4142135623730951
  0
SEQEND
  5
145
  8
0
  0
POLYLINE
  5
5B
  8
0
 66
     1
 10
0.0
 20
0.0
 30
0.0
  0
VERTEX
  5
146
  8
0
 10
105.2528024216043
 20
73.28444083695815
 30
0.0
  0
VERTEX
  5
147
  8
0
 10
105.2528024216043
 20
69.36693624265816
 30
0.0
  0
SEQEND
  5
148
  8
0
  0
POLYLINE
  5
5C
  8
0
 66
     1
 10
0.0
 20
0.0
 30
0.0
  0
VERTEX
  5
149
  8
0
 10
105.2528024216043
 20
73.28444083695815
 30
0.0
 42
0.2475351742623904
  0
VERTEX
  5
14A
  8
0
 10
103.0767013723076
 20
77.41064911044809
 30
0.0
  0
SEQEND
  5
14B
  8
0
  0
POLYLINE
  5
5D
  8
0
 66
     1
 10
0.0
 20
0.0
 30
0.0
  0
VERTEX
  5
14C
  8
0
 10
85.25280242160433
 20
89.60898865325815
 30
0.0
  0
VERTEX
  5
14D
  8
0
 10
103.0767013723044
 20
77.41064911045815
 30
0.0
  0
SEQEND
  5
14E
  8
0
  0
POLYLINE
  5
5E
  8
0
 66
     1
 10
0.0
 20
0.0
 30
0.0
  0
VERTEX
  5
14F
  8
0
 10
85.25280242160433
 20
82.60898865325815
 30
0.0
  0
VERTEX
  5
150
  8
0
 10
85.25280242160433
 20
89.60898865325815
 30
0.0
  0
SEQEND
  5
151
  8
0
  0
POLYLINE
  5
5F
  8
0
 66
     1
 10
0.0
 20
0.0
 30
0.0
  0
VERTEX
  5
152
  8
0
 10
81.25280242160433
 20
82.60898865325815
 30
0.0
  0
VERTEX
  5
153
  8
0
 10
85.25280242160433
 20
82.60898865325815
 30
0.0
  0
SEQEND
  5
154
  8
0
  0
POLYLINE
  5
60
  8
0
 66
     1
 10
0.0
 20
0.0
 30
0.0
  0
VERTEX
  5
155
  8
0
 10
81.25280242160433
 20
67.60898865325815
 30
0.0
  0
VERTEX
  5
156
  8
0
 10
81.25280242160433
 20
82.60898865325815
 30
0.0
  0
SEQEND
  5
157
  8
0
  0
POLYLINE
  5
61
  8
0
 66
     1
 10
0.0
 20
0.0
 30
0.0
  0
VERTEX
  5
158
  8
0
 10
85.25280242160433
 20
67.60898865325815
 30
0.0
  0
VERTEX
  5
159
  8
0
 10
81.25280242160433
 20
67.60898865325815
 30
0.0
  0
SEQEND
  5
15A
  8
0
  0
POLYLINE
  5
62
  8
0
 66
     1
 10
0.0
 20
0.0
 30
0.0
  0
VERTEX
  5
15B
  8
0
 10
85.25280242160433
 20
61.60898865325815
 30
0.0
  0
VERTEX
  5
15C
  8
0
 10
85.25280242160433
 20
67.60898865325815
 30
0.0
  0
SEQEND
  5
15D
  8
0
  0
POLYLINE
  5
63
  8
0
 66
     1
 10
0.0
 20
0.0
 30
0.0
  0
VERTEX
  5
15E
  8
0
 10
89.36356622230433
 20
61.60898865325815
 30
0.0
  0
VERTEX
  5
15F
  8
0
 10
85.25280242160433
 20
61.60898865325815
 30
0.0
  0
SEQEND
  5
160
  8
0
  0
POLYLINE
  5
64
  8
0
 66
     1
 10
0.0
 20
0.0
 30
0.0
  0
VERTEX
  5
161
  8
0
 10
89.36356622230433
 20
61.60898865325815
 30
0.0
  0
VERTEX
  5
162
  8
0
 10
101.4206382201043
 20
64.50523288395816
 30
0.0
 42
0.3467346945476802
  0
VERTEX
  5
163
  8
0
 10
105.2528024216043
 20
69.36693624265816
 30
0.0
  0
SEQEND
  5
164
  8
0
  0
POLYLINE
  5
65
  8
0
 66
     1
 10
0.0
 20
0.0
 30
0.0
 70
     1
  0
VERTEX
  5
165
  8
0
 10
60.98813301397902
 20
76.71003053464845
 30
0.0
 42
-0.4142135623730951
  0
VERTEX
  5
166
  8
0
 10
63.48813301397902
 20
74.21003053464845
 30
0.0
 42
-0.4142135623730951
  0
VERTEX
  5
167
  8
0
 10
60.98813301397902
 20
71.71003053464845
 30
0.0
 42
-0.4142135623730951
  0
VERTEX
  5
168
  8
0
 10
58.48813301397902
 20
74.21003053464845
 30
0.0
 42
-0.4142135623730951
  0
SEQEND
  5
169
  8
0
  0
POLYLINE
  5
66
  8
0
 66
     1
 10
0.0
 20
0.0
 30
0.0
  0
VERTEX
  5
16A
  8
0
 10
63.98813301397902
 20
88.30541984644846
 30
0.0
  0
VERTEX
  5
16B
  8
0
 10
67.74690349707902
 20
89.67350041974845
 30
0.0
  0
SEQEND
  5
16C
  8
0
  0
POLYLINE
  5
67
  8
0
 66
     1
 10
0.0
 20
0.0
 30
0.0
  0
VERTEX
  5
16D
  8
0
 10
69.11843516387901
 20
74.21003053464845
 30
0.0
  0
VERTEX
  5
16E
  8
0
 10
63.98813301397902
 20
88.30541984644846
 30
0.0
  0
SEQEND
  5
16F
  8
0
  0
POLYLINE
  5
68
  8
0
 66
     1
 10
0.0
 20
0.0
 30
0.0
  0
VERTEX
  5
170
  8
0
 10
72.87720564697904
 20
75.57811110794846
 30
0.0
  0
VERTEX
  5
171
  8
0
 10
69.11843516387901
 20
74.21003053464845
 30
0.0
  0
SEQEND
  5
172
  8
0
  0
POLYLINE
  5
69
  8
0
 66
     1
 10
0.0
 20
0.0
 30
0.0
  0
VERTEX
  5
173
  8
0
 10
67.74690349707902
 20
89.67350041974845
 30
0.0
  0
VERTEX
  5
174
  8
0
 10
72.87720564697904
 20
75.57811110794846
 30
0.0
  0
SEQEND
  5
175
  8
0
  0
POLYLINE
  5
6A
  8
0
 66
     1
 10
0.0
 20
0.0
 30
0.0
 70
     1
  0
VERTEX
  5
176
  8
0
 10
57.98813301397902
 20
88.30541984644846
 30
0.0
  0
VERTEX
  5
177
  8
0
 10
54.22936253087902
 20
89.67350041974845
 30
0.0
  0
VERTEX
  5
178
  8
0
 10
49.09906038097903
 20
75.57811110794846
 30
0.0
  0
VERTEX
  5
179
  8
0
 10
52.85783086407903
 20
74.21003053464845
 30
0.0
  0
SEQEND
  5
17A
  8
0
  0
POLYLINE
  5
6B
  8
0
 66
     1
 10
0.0
 20
0.0
 30
0.0
  0
VERTEX
  5
17B
  8
0
 10
76.63597613017902
 20
76.06455677774845
 30
0.0
  0
VERTEX
  5
17C
  8
0
 10
76.63597613017902
 20
74.31356682834846
 30
0.0
 42
-0.2517840899748129
  0
VERTEX
  5
17D
  8
0
 10
74.39350353114506
 20
70.14271048547096
 30
0.0
  0
VERTEX
  5
17E
  8
0
 10
67.58639707627901
 20
65.64224798394845
 30
0.0
 42
-0.1470891899877284
  0
VERTEX
  5
17F
  8
0
 10
64.82886967537902
 20
64.81310432674846
 30
0.0
  0
VERTEX
  5
180
  8
0
 10
57.14739635257902
 20
64.81310432674846
 30
0.0
 42
-0.1470891899877279
  0
VERTEX
  5
181
  8
0
 10
54.38986895161298
 20
65.64224798387096
 30
0.0
  0
SEQEND
  5
182
  8
0
  0
POLYLINE
  5
6C
  8
0
 66
     1
 10
0.0
 20
0.0
 30
0.0
  0
VERTEX
  5
183
  8
0
 10
47.58276249687902
 20
70.14271048544845
 30
0.0
  0
VERTEX
  5
184
  8
0
 10
54.38986895167903
 20
65.64224798394845
 30
0.0
  0
SEQEND
  5
185
  8
0
  0
POLYLINE
  5
6D
  8
0
 66
     1
 10
0.0
 20
0.0
 30
0.0
  0
VERTEX
  5
186
  8
0
 10
47.58276249681298
 20
70.14271048547096
 30
0.0
 42
-0.2517840899748137
  0
VERTEX
  5
187
  8
0
 10
45.34028989777902
 20
74.31356682834846
 30
0.0
  0
SEQEND
  5
188
  8
0
  0
POLYLINE
  5
6E
  8
0
 66
     1
 10
0.0
 20
0.0
 30
0.0
  0
VERTEX
  5
189
  8
0
 10
45.34028989777902
 20
76.06455677774845
 30
0.0
  0
VERTEX
  5
18A
  8
0
 10
45.34028989777902
 20
74.31356682834846
 30
0.0
  0
SEQEND
  5
18B
  8
0
  0
POLYLINE
  5
6F
  8
0
 66
     1
 10
0.0
 20
0.0
 30
0.0
  0
VERTEX
  5
18C
  8
0
 10
45.34028989777902
 20
76.06455677774845
 30
0.0
 42
-0.087488663525923
  0
VERTEX
  5
18D
  8
0
 10
45.64182679384948
 20
77.7746574943768
 30
0.0
  0
SEQEND
  5
18E
  8
0
  0
POLYLINE
  5
70
  8
0
 66
     1
 10
0.0
 20
0.0
 30
0.0
  0
VERTEX
  5
18F
  8
0
 10
50.79035819097903
 20
91.92013125124845
 30
0.0
  0
VERTEX
  5
190
  8
0
 10
45.64182679387903
 20
77.77465749434846
 30
0.0
  0
SEQEND
  5
191
  8
0
  0
POLYLINE
  5
71
  8
0
 66
     1
 10
0.0
 20
0.0
 30
0.0
  0
VERTEX
  5
192
  8
0
 10
50.79035819094948
 20
91.9201312512768
 30
0.0
 42
-0.3152987888789843
  0
VERTEX
  5
193
  8
0
 10
55.48882129487902
 20
95.21003053464845
 30
0.0
  0
SEQEND
  5
194
  8
0
  0
POLYLINE
  5
72
  8
0
 66
     1
 10
0.0
 20
0.0
 30
0.0
  0
VERTEX
  5
195
  8
0
 10
66.48744473307903
 20
95.21003053464845
 30
0.0
  0
VERTEX
  5
196
  8
0
 10
55.48882129487902
 20
95.21003053464845
 30
0.0
  0
SEQEND
  5
197
  8
0
  0
POLYLINE
  5
73
  8
0
 66
     1
 10
0.0
 20
0.0
 30
0.0
  0
VERTEX
  5
198
  8
0
 10
66.48744473307903
 20
95.21003053464845
 30
0.0
 42
-0.3152987888789828
  0
VERTEX
  5
199
  8
0
 10
71.18590783700856
 20
91.9201312512768
 30
0.0
  0
VERTEX
  5
19A
  8
0
 10
76.33443923407901
 20
77.77465749434846
 30
0.0
 42
-0.0874886635259228
  0
VERTEX
  5
19B
  8
0
 10
76.63597613017902
 20
76.06455677774845
 30
0.0
  0
SEQEND
  5
19C
  8
0
  0
POLYLINE
  5
74
  8
0
 66
     1
 10
0.0
 20
0.0
 30
0.0
 70
     1
  0
VERTEX
  5
19D
  8
0
 10
52.38137507332708
 20
55.16318893489791
 30
0.0
 42
-0.4142135623730951
  0
VERTEX
  5
19E
  8
0
 10
54.88137507332708
 20
52.66318893489791
 30
0.0
 42
-0.4142135623730951
  0
VERTEX
  5
19F
  8
0
 10
52.38137507332708
 20
50.16318893489792
 30
0.0
 42
-0.4142135623730951
  0
VERTEX
  5
1A0
  8
0
 10
49.88137507332708
 20
52.66318893489791
 30
0.0
 42
-0.4142135623730951
  0
SEQEND
  5
1A1
  8
0
  0
POLYLINE
  5
75
  8
0
 66
     1
 10
0.0
 20
0.0
 30
0.0
  0
VERTEX
  5
1A2
  8
0
 10
58.27061127262708
 20
30.25318893489791
 30
0.0
  0
VERTEX
  5
1A3
  8
0
 10
46.21353927482708
 20
33.14943316559791
 30
0.0
 42
-0.3467346945476802
  0
VERTEX
  5
1A4
  8
0
 10
42.38137507332708
 20
38.01113652429791
 30
0.0
  0
SEQEND
  5
1A5
  8
0
  0
POLYLINE
  5
76
  8
0
 66
     1
 10
0.0
 20
0.0
 30
0.0
  0
VERTEX
  5
1A6
  8
0
 10
42.38137507332708
 20
53.25318893489791
 30
0.0
  0
VERTEX
  5
1A7
  8
0
 10
42.38137507332708
 20
38.01113652429791
 30
0.0
  0
SEQEND
  5
1A8
  8
0
  0
POLYLINE
  5
77
  8
0
 66
     1
 10
0.0
 20
0.0
 30
0.0
  0
VERTEX
  5
1A9
  8
0
 10
42.38137507332708
 20
53.25318893489791
 30
0.0
 42
-0.4142135623730956
  0
VERTEX
  5
1AA
  8
0
 10
47.38137507332708
 20
58.25318893489791
 30
0.0
  0
SEQEND
  5
1AB
  8
0
  0
POLYLINE
  5
78
  8
0
 66
     1
 10
0.0
 20
0.0
 30
0.0
  0
VERTEX
  5
1AC
  8
0
 10
62.38137507332708
 20
58.25318893489791
 30
0.0
  0
VERTEX
  5
1AD
  8
0
 10
47.38137507332708
 20
58.25318893489791
 30
0.0
  0
SEQEND
  5
1AE
  8
0
  0
POLYLINE
  5
79
  8
0
 66
     1
 10
0.0
 20
0.0
 30
0.0
  0
VERTEX
  5
1AF
  8
0
 10
62.38137507332708
 20
51.25318893489791
 30
0.0
  0
VERTEX
  5
1B0
  8
0
 10
62.38137507332708
 20
58.25318893489791
 30
0.0
  0
SEQEND
  5
1B1
  8
0
  0
POLYLINE
  5
7A
  8
0
 66
     1
 10
0.0
 20
0.0
 30
0.0
  0
VERTEX
  5
1B2
  8
0
 10
66.38137507332708
 20
51.25318893489791
 30
0.0
  0
VERTEX
  5
1B3
  8
0
 10
62.38137507332708
 20
51.25318893489791
 30
0.0
  0
SEQEND
  5
1B4
  8
0
  0
POLYLINE
  5
7B
  8
0
 66
     1
 10
0.0
 20
0.0
 30
0.0
  0
VERTEX
  5
1B5
  8
0
 10
66.38137507332708
 20
36.25318893489791
 30
0.0
  0
VERTEX
  5
1B6
  8
0
 10
66.38137507332708
 20
51.25318893489791
 30
0.0
  0
SEQEND
  5
1B7
  8
0
  0
POLYLINE
  5
7C
  8
0
 66
     1
 10
0.0
 20
0.0
 30
0.0
  0
VERTEX
  5
1B8
  8
0
 10
62.38137507332708
 20
36.25318893489791
 30
0.0
  0
VERTEX
  5
1B9
  8
0
 10
66.38137507332708
 20
36.25318893489791
 30
0.0
  0
SEQEND
  5
1BA
  8
0
  0
POLYLINE
  5
7D
  8
0
 66
     1
 10
0.0
 20
0.0
 30
0.0
  0
VERTEX
  5
1BB
  8
0
 10
62.38137507332708
 20
30.25318893489791
 30
0.0
  0
VERTEX
  5
1BC
  8
0
 10
62.38137507332708
 20
36.25318893489791
 30
0.0
  0
SEQEND
  5
1BD
  8
0
  0
POLYLINE
  5
7E
  8
0
 66
     1
 10
0.0
 20
0.0
 30
0.0
  0
VERTEX
  5
1BE
  8
0
 10
58.27061127262708
 20
30.25318893489791
 30
0.0
  0
VERTEX
  5
1BF
  8
0
 10
62.38137507332708
 20
30.25318893489791
 30
0.0
  0
SEQEND
  5
1C0
  8
0
  0
POLYLINE
  5
7F
  8
0
 66
     1
 10
0.0
 20
0.0
 30
0.0
 70
     1
  0
VERTEX
  5
1C1
  8
0
 10
86.88208924271004
 20
46.18825199319794
 30
0.0
 42
-0.4142135623730951
  0
VERTEX
  5
1C2
  8
0
 10
84.38208924271004
 20
48.68825199319794
 30
0.0
 42
-0.4142135623730951
  0
VERTEX
  5
1C3
  8
0
 10
86.88208924271004
 20
51.18825199319792
 30
0.0
 42
-0.4142135623730951
  0
VERTEX
  5
1C4
  8
0
 10
89.38208924271004
 20
48.68825199319794
 30
0.0
 42
-0.4142135623730951
  0
SEQEND
  5
1C5
  8
0
  0
POLYLINE
  5
80
  8
0
 66
     1
 10
0.0
 20
0.0
 30
0.0
  0
VERTEX
  5
1C6
  8
0
 10
96.88208924271004
 20
46.01279980949793
 30
0.0
  0
VERTEX
  5
1C7
  8
0
 10
96.88208924271004
 20
49.93030440379793
 30
0.0
  0
SEQEND
  5
1C8
  8
0
  0
POLYLINE
  5
81
  8
0
 66
     1
 10
0.0
 20
0.0
 30
0.0
  0
VERTEX
  5
1C9
  8
0
 10
96.88208924271004
 20
46.01279980949793
 30
0.0
 42
-0.2475351742623904
  0
VERTEX
  5
1CA
  8
0
 10
94.7059881934133
 20
41.886591536008
 30
0.0
  0
SEQEND
  5
1CB
  8
0
  0
POLYLINE
  5
82
  8
0
 66
     1
 10
0.0
 20
0.0
 30
0.0
  0
VERTEX
  5
1CC
  8
0
 10
76.88208924271004
 20
29.68825199319794
 30
0.0
  0
VERTEX
  5
1CD
  8
0
 10
94.70598819341006
 20
41.88659153599794
 30
0.0
  0
SEQEND
  5
1CE
  8
0
  0
POLYLINE
  5
83
  8
0
 66
     1
 10
0.0
 20
0.0
 30
0.0
  0
VERTEX
  5
1CF
  8
0
 10
76.88208924271004
 20
36.68825199319794
 30
0.0
  0
VERTEX
  5
1D0
  8
0
 10
76.88208924271004
 20
29.68825199319794
 30
0.0
  0
SEQEND
  5
1D1
  8
0
  0
POLYLINE
  5
84
  8
0
 66
     1
 10
0.0
 20
0.0
 30
0.0
  0
VERTEX
  5
1D2
  8
0
 10
72.88208924271004
 20
36.68825199319794
 30
0.0
  0
VERTEX
  5
1D3
  8
0
 10
76.88208924271004
 20
36.68825199319794
 30
0.0
  0
SEQEND
  5
1D4
  8
0
  0
POLYLINE
  5
85
  8
0
 66
     1
 10
0.0
 20
0.0
 30
0.0
  0
VERTEX
  5
1D5
  8
0
 10
72.88208924271004
 20
51.68825199319794
 30
0.0
  0
VERTEX
  5
1D6
  8
0
 10
72.88208924271004
 20
36.68825199319794
 30
0.0
  0
SEQEND
  5
1D7
  8
0
  0
POLYLINE
  5
86
  8
0
 66
     1
 10
0.0
 20
0.0
 30
0.0
  0
VERTEX
  5
1D8
  8
0
 10
76.88208924271004
 20
51.68825199319794
 30
0.0
  0
VERTEX
  5
1D9
  8
0
 10
72.88208924271004
 20
51.68825199319794
 30
0.0
  0
SEQEND
  5
1DA
  8
0
  0
POLYLINE
  5
87
  8
0
 66
     1
 10
0.0
 20
0.0
 30
0.0
  0
VERTEX
  5
1DB
  8
0
 10
76.88208924271004
 20
57.68825199319794
 30
0.0
  0
VERTEX
  5
1DC
  8
0
 10
76.88208924271004
 20
51.68825199319794
 30
0.0
  0
SEQEND
  5
1DD
  8
0
  0
POLYLINE
  5
88
  8
0
 66
     1
 10
0.0
 20
0.0
 30
0.0
  0
VERTEX
  5
1DE
  8
0
 10
80.99285304341004
 20
57.68825199319794
 30
0.0
  0
VERTEX
  5
1DF
  8
0
 10
76.88208924271004
 20
57.68825199319794
 30
0.0
  0
SEQEND
  5
1E0
  8
0
  0
POLYLINE
  5
89
  8
0
 66
     1
 10
0.0
 20
0.0
 30
0.0
  0
VERTEX
  5
1E1
  8
0
 10
80.99285304341004
 20
57.68825199319794
 30
0.0
  0
VERTEX
  5
1E2
  8
0
 10
93.04992504121003
 20
54.79200776249793
 30
0.0
 42
-0.3467346945476802
  0
VERTEX
  5
1E3
  8
0
 10
96.88208924271004
 20
49.93030440379793
 30
0.0
  0
SEQEND
  5
1E4
  8
0
  0
POLYLINE
  5
8A
  8
0
 66
     1
 10
0.0
 20
0.0
 30
0.0
 70
     1
  0
VERTEX
  5
1E5
  8
0
 10
124.9362399193548
 20
89.24100235645153
 30
0.0
 42
0.4142135623730951
  0
VERTEX
  5
1E6
  8
0
 10
122.4362399193548
 20
86.74100235645153
 30
0.0
 42
0.4142135623730951
  0
VERTEX
  5
1E7
  8
0
 10
124.9362399193548
 20
84.24100235645153
 30
0.0
 42
0.4142135623730951
  0
VERTEX
  5
1E8
  8
0
 10
127.4362399193548
 20
86.74100235645153
 30
0.0
 42
0.4142135623730951
  0
SEQEND
  5
1E9
  8
0
  0
POLYLINE
  5
8B
  8
0
 66
     1
 10
0.0
 20
0.0
 30
0.0
  0
VERTEX
  5
1EA
  8
0
 10
110.4362399193548
 20
93.34100235645153
 30
0.0
  0
VERTEX
  5
1EB
  8
0
 10
112.7862399193548
 20
93.34100235645153
 30
0.0
  0
SEQEND
  5
1EC
  8
0
  0
POLYLINE
  5
8C
  8
0
 66
     1
 10
0.0
 20
0.0
 30
0.0
  0
VERTEX
  5
1ED
  8
0
 10
110.4362399193548
 20
93.34100235645153
 30
0.0
 42
0.4142135623730944
  0
VERTEX
  5
1EE
  8
0
 10
109.9362399193548
 20
92.84100235645153
 30
0.0
  0
VERTEX
  5
1EF
  8
0
 10
109.9362399193548
 20
82.94100235645153
 30
0.0
  0
SEQEND
  5
1F0
  8
0
  0
POLYLINE
  5
8D
  8
0
 66
     1
 10
0.0
 20
0.0
 30
0.0
  0
VERTEX
  5
1F1
  8
0
 10
115.9362399193548
 20
82.94100235645153
 30
0.0
  0
VERTEX
  5
1F2
  8
0
 10
109.9362399193548
 20
82.94100235645153
 30
0.0
  0
SEQEND
  5
1F3
  8
0
  0
POLYLINE
  5
8E
  8
0
 66
     1
 10
0.0
 20
0.0
 30
0.0
  0
VERTEX
  5
1F4
  8
0
 10
115.9362399193548
 20
80.94100235645153
 30
0.0
  0
VERTEX
  5
1F5
  8
0
 10
115.9362399193548
 20
82.94100235645153
 30
0.0
  0
SEQEND
  5
1F6
  8
0
  0
POLYLINE
  5
8F
  8
0
 66
     1
 10
0.0
 20
0.0
 30
0.0
  0
VERTEX
  5
1F7
  8
0
 10
109.9362399193548
 20
80.94100235645153
 30
0.0
  0
VERTEX
  5
1F8
  8
0
 10
115.9362399193548
 20
80.94100235645153
 30
0.0
  0
SEQEND
  5
1F9
  8
0
  0
POLYLINE
  5
90
  8
0
 66
     1
 10
0.0
 20
0.0
 30
0.0
  0
VERTEX
  5
1FA
  8
0
 10
109.9362399193548
 20
80.94100235645153
 30
0.0
  0
VERTEX
  5
1FB
  8
0
 10
109.9362399193548
 20
74.74100235645153
 30
0.0
  0
VERTEX
  5
1FC
  8
0
 10
118.9362399193548
 20
74.74100235645153
 30
0.0
  0
VERTEX
  5
1FD
  8
0
 10
118.9362399193548
 20
76.74100235645153
 30
0.0
  0
VERTEX
  5
1FE
  8
0
 10
120.9362399193548
 20
76.74100235645153
 30
0.0
  0
VERTEX
  5
1FF
  8
0
 10
120.9362399193548
 20
74.74100235645153
 30
0.0
  0
VERTEX
  5
200
  8
0
 10
128.9362399193548
 20
74.74100235645153
 30
0.0
  0
SEQEND
  5
201
  8
0
  0
POLYLINE
  5
91
  8
0
 66
     1
 10
0.0
 20
0.0
 30
0.0
  0
VERTEX
  5
202
  8
0
 10
128.9362399193548
 20
76.74100235645153
 30
0.0
  0
VERTEX
  5
203
  8
0
 10
128.9362399193548
 20
74.74100235645153
 30
0.0
  0
SEQEND
  5
204
  8
0
  0
POLYLINE
  5
92
  8
0
 66
     1
 10
0.0
 20
0.0
 30
0.0
  0
VERTEX
  5
205
  8
0
 10
130.9362399193548
 20
76.74100235645153
 30
0.0
  0
VERTEX
  5
206
  8
0
 10
128.9362399193548
 20
76.74100235645153
 30
0.0
  0
SEQEND
  5
207
  8
0
  0
POLYLINE
  5
93
  8
0
 66
     1
 10
0.0
 20
0.0
 30
0.0
  0
VERTEX
  5
208
  8
0
 10
130.9362399193548
 20
74.74100235645153
 30
0.0
  0
VERTEX
  5
209
  8
0
 10
130.9362399193548
 20
76.74100235645153
 30
0.0
  0
SEQEND
  5
20A
  8
0
  0
POLYLINE
  5
94
  8
0
 66
     1
 10
0.0
 20
0.0
 30
0.0
  0
VERTEX
  5
20B
  8
0
 10
130.9362399193548
 20
74.74100235645153
 30
0.0
  0
VERTEX
  5
20C
  8
0
 10
139.9362399193548
 20
74.74100235645153
 30
0.0
  0
SEQEND
  5
20D
  8
0
  0
POLYLINE
  5
95
  8
0
 66
     1
 10
0.0
 20
0.0
 30
0.0
  0
VERTEX
  5
20E
  8
0
 10
139.9362399193548
 20
92.84100235645153
 30
0.0
  0
VERTEX
  5
20F
  8
0
 10
139.9362399193548
 20
74.74100235645153
 30
0.0
  0
SEQEND
  5
210
  8
0
  0
POLYLINE
  5
96
  8
0
 66
     1
 10
0.0
 20
0.0
 30
0.0
  0
VERTEX
  5
211
  8
0
 10
139.9362399193548
 20
92.84100235645153
 30
0.0
 42
0.4142135623730944
  0
VERTEX
  5
212
  8
0
 10
139.4362399193548
 20
93.34100235645153
 30
0.0
  0
SEQEND
  5
213
  8
0
  0
POLYLINE
  5
97
  8
0
 66
     1
 10
0.0
 20
0.0
 30
0.0
  0
VERTEX
  5
214
  8
0
 10
137.0862399193548
 20
93.34100235645153
 30
0.0
  0
VERTEX
  5
215
  8
0
 10
139.4362399193548
 20
93.34100235645153
 30
0.0
  0
SEQEND
  5
216
  8
0
  0
POLYLINE
  5
98
  8
0
 66
     1
 10
0.0
 20
0.0
 30
0.0
  0
VERTEX
  5
217
  8
0
 10
137.0862399193548
 20
93.34100235645153
 30
0.0
  0
VERTEX
  5
218
  8
0
 10
137.0862399193548
 20
91.34100235645153
 30
0.0
  0
VERTEX
  5
219
  8
0
 10
135.0862399193548
 20
91.34100235645153
 30
0.0
  0
VERTEX
  5
21A
  8
0
 10
135.0862399193548
 20
93.34100235645153
 30
0.0
  0
SEQEND
  5
21B
  8
0
  0
POLYLINE
  5
99
  8
0
 66
     1
 10
0.0
 20
0.0
 30
0.0
  0
VERTEX
  5
21C
  8
0
 10
114.7862399193548
 20
93.34100235645153
 30
0.0
  0
VERTEX
  5
21D
  8
0
 10
135.0862399193548
 20
93.34100235645153
 30
0.0
  0
SEQEND
  5
21E
  8
0
  0
POLYLINE
  5
9A
  8
0
 66
     1
 10
0.0
 20
0.0
 30
0.0
  0
VERTEX
  5
21F
  8
0
 10
114.7862399193548
 20
91.34100235645153
 30
0.0
  0
VERTEX
  5
220
  8
0
 10
114.7862399193548
 20
93.34100235645153
 30
0.0
  0
SEQEND
  5
221
  8
0
  0
POLYLINE
  5
9B
  8
0
 66
     1
 10
0.0
 20
0.0
 30
0.0
  0
VERTEX
  5
222
  8
0
 10
112.7862399193548
 20
91.34100235645153
 30
0.0
  0
VERTEX
  5
223
  8
0
 10
114.7862399193548
 20
91.34100235645153
 30
0.0
  0
SEQEND
  5
224
  8
0
  0
POLYLINE
  5
9C
  8
0
 66
     1
 10
0.0
 20
0.0
 30
0.0
  0
VERTEX
  5
225
  8
0
 10
112.7862399193548
 20
93.34100235645153
 30
0.0
  0
VERTEX
  5
226
  8
0
 10
112.7862399193548
 20
91.34100235645153
 30
0.0
  0
SEQEND
  5
227
  8
0
  0
POLYLINE
  5
9D
  8
0
 66
     1
 10
0.0
 20
0.0
 30
0.0
  0
VERTEX
  5
228
  8
0
 10
202.0627621999304
 20
86.51350405805081
 30
0.0
 42
0.716290667375691
  0
VERTEX
  5
229
  8
0
 10
203.5862338709679
 20
82.03132493709674
 30
0.0
 42
0.716290667375691
  0
VERTEX
  5
22A
  8
0
 10
205.1097055420054
 20
86.51350405805081
 30
0.0
  0
SEQEND
  5
22B
  8
0
  0
POLYLINE
  5
9E
  8
0
 66
     1
 10
0.0
 20
0.0
 30
0.0
  0
VERTEX
  5
22C
  8
0
 10
202.0627621999679
 20
87.03132493709674
 30
0.0
  0
VERTEX
  5
22D
  8
0
 10
202.0627621999679
 20
86.51350405809674
 30
0.0
  0
SEQEND
  5
22E
  8
0
  0
POLYLINE
  5
9F
  8
0
 66
     1
 10
0.0
 20
0.0
 30
0.0
  0
VERTEX
  5
22F
  8
0
 10
202.0627621999679
 20
87.03132493709674
 30
0.0
  0
VERTEX
  5
230
  8
0
 10
188.5862338709679
 20
87.03132493709674
 30
0.0
  0
VERTEX
  5
231
  8
0
 10
188.5862338709679
 20
91.03132493709674
 30
0.0
  0
VERTEX
  5
232
  8
0
 10
183.5862338709679
 20
91.03132493709674
 30
0.0
  0
VERTEX
  5
233
  8
0
 10
183.5862338709679
 20
56.03132493709674
 30
0.0
  0
VERTEX
  5
234
  8
0
 10
188.5862338709679
 20
51.03132493709674
 30
0.0
  0
VERTEX
  5
235
  8
0
 10
191.5862338709679
 20
51.03132493709674
 30
0.0
  0
VERTEX
  5
236
  8
0
 10
191.5862338709679
 20
53.03132493709674
 30
0.0
  0
VERTEX
  5
237
  8
0
 10
193.5862338709679
 20
53.03132493709674
 30
0.0
  0
VERTEX
  5
238
  8
0
 10
193.5862338709679
 20
51.03132493709674
 30
0.0
  0
VERTEX
  5
239
  8
0
 10
213.5862338709679
 20
51.03132493709674
 30
0.0
  0
SEQEND
  5
23A
  8
0
  0
POLYLINE
  5
A0
  8
0
 66
     1
 10
0.0
 20
0.0
 30
0.0
  0
VERTEX
  5
23B
  8
0
 10
213.5862338709679
 20
53.03132493709674
 30
0.0
  0
VERTEX
  5
23C
  8
0
 10
213.5862338709679
 20
51.03132493709674
 30
0.0
  0
SEQEND
  5
23D
  8
0
  0
POLYLINE
  5
A1
  8
0
 66
     1
 10
0.0
 20
0.0
 30
0.0
  0
VERTEX
  5
23E
  8
0
 10
215.5862338709679
 20
53.03132493709674
 30
0.0
  0
VERTEX
  5
23F
  8
0
 10
213.5862338709679
 20
53.03132493709674
 30
0.0
  0
SEQEND
  5
240
  8
0
  0
POLYLINE
  5
A2
  8
0
 66
     1
 10
0.0
 20
0.0
 30
0.0
  0
VERTEX
  5
241
  8
0
 10
215.5862338709679
 20
51.03132493709674
 30
0.0
  0
VERTEX
  5
242
  8
0
 10
215.5862338709679
 20
53.03132493709674
 30
0.0
  0
SEQEND
  5
243
  8
0
  0
POLYLINE
  5
A3
  8
0
 66
     1
 10
0.0
 20
0.0
 30
0.0
  0
VERTEX
  5
244
  8
0
 10
218.5862338709679
 20
51.03132493709674
 30
0.0
  0
VERTEX
  5
245
  8
0
 10
215.5862338709679
 20
51.03132493709674
 30
0.0
  0
SEQEND
  5
246
  8
0
  0
POLYLINE
  5
A4
  8
0
 66
     1
 10
0.0
 20
0.0
 30
0.0
  0
VERTEX
  5
247
  8
0
 10
223.5862338709679
 20
56.03132493709674
 30
0.0
  0
VERTEX
  5
248
  8
0
 10
218.5862338709679
 20
51.03132493709674
 30
0.0
  0
SEQEND
  5
249
  8
0
  0
POLYLINE
  5
A5
  8
0
 66
     1
 10
0.0
 20
0.0
 30
0.0
  0
VERTEX
  5
24A
  8
0
 10
223.5862338709679
 20
91.03132493709674
 30
0.0
  0
VERTEX
  5
24B
  8
0
 10
223.5862338709679
 20
56.03132493709674
 30
0.0
  0
SEQEND
  5
24C
  8
0
  0
POLYLINE
  5
A6
  8
0
 66
     1
 10
0.0
 20
0.0
 30
0.0
  0
VERTEX
  5
24D
  8
0
 10
218.5862338709679
 20
91.03132493709674
 30
0.0
  0
VERTEX
  5
24E
  8
0
 10
223.5862338709679
 20
91.03132493709674
 30
0.0
  0
SEQEND
  5
24F
  8
0
  0
POLYLINE
  5
A7
  8
0
 66
     1
 10
0.0
 20
0.0
 30
0.0
  0
VERTEX
  5
250
  8
0
 10
218.5862338709679
 20
87.03132493709674
 30
0.0
  0
VERTEX
  5
251
  8
0
 10
218.5862338709679
 20
91.03132493709674
 30
0.0
  0
SEQEND
  5
252
  8
0
  0
POLYLINE
  5
A8
  8
0
 66
     1
 10
0.0
 20
0.0
 30
0.0
  0
VERTEX
  5
253
  8
0
 10
218.5862338709679
 20
87.03132493709674
 30
0.0
  0
VERTEX
  5
254
  8
0
 10
205.1097055419679
 20
87.03132493709674
 30
0.0
  0
VERTEX
  5
255
  8
0
 10
205.1097055419679
 20
86.51350405809674
 30
0.0
  0
SEQEND
  5
256
  8
0
  0
POLYLINE
  5
A9
  8
0
 66
     1
 10
0.0
 20
0.0
 30
0.0
  0
VERTEX
  5
257
  8
0
 10
201.9430272682679
 20
69.01444164979674
 30
0.0
  0
VERTEX
  5
258
  8
0
 10
188.5862338709679
 20
83.04943453549674
 30
0.0
  0
SEQEND
  5
259
  8
0
  0
POLYLINE
  5
AA
  8
0
 66
     1
 10
0.0
 20
0.0
 30
0.0
  0
VERTEX
  5
25A
  8
0
 10
188.5862338709679
 20
57.25157836679674
 30
0.0
  0
VERTEX
  5
25B
  8
0
 10
201.9430272682679
 20
69.01444164979674
 30
0.0
  0
SEQEND
  5
25C
  8
0
  0
POLYLINE
  5
AB
  8
0
 66
     1
 10
0.0
 20
0.0
 30
0.0
  0
VERTEX
  5
25D
  8
0
 10
188.5862338709679
 20
83.04943453549674
 30
0.0
  0
VERTEX
  5
25E
  8
0
 10
188.5862338709679
 20
57.25157836679674
 30
0.0
  0
SEQEND
  5
25F
  8
0
  0
POLYLINE
  5
AC
  8
0
 66
     1
 10
0.0
 20
0.0
 30
0.0
  0
VERTEX
  5
260
  8
0
 10
203.5862338709679
 20
67.50516314559674
 30
0.0
  0
VERTEX
  5
261
  8
0
 10
192.5571719539679
 20
57.79225199909674
 30
0.0
  0
SEQEND
  5
262
  8
0
  0
POLYLINE
  5
AD
  8
0
 66
     1
 10
0.0
 20
0.0
 30
0.0
  0
VERTEX
  5
263
  8
0
 10
203.5862338709679
 20
67.50516314559674
 30
0.0
  0
VERTEX
  5
264
  8
0
 10
214.6152957879679
 20
57.79225199909674
 30
0.0
  0
SEQEND
  5
265
  8
0
  0
POLYLINE
  5
AE
  8
0
 66
     1
 10
0.0
 20
0.0
 30
0.0
  0
VERTEX
  5
266
  8
0
 10
192.5571719539679
 20
57.79225199909674
 30
0.0
  0
VERTEX
  5
267
  8
0
 10
214.6152957879679
 20
57.79225199909674
 30
0.0
  0
SEQEND
  5
268
  8
0
  0
POLYLINE
  5
AF
  8
0
 66
     1
 10
0.0
 20
0.0
 30
0.0
  0
VERTEX
  5
269
  8
0
 10
212.1123628670679
 20
79.65091456119674
 30
0.0
  0
VERTEX
  5
26A
  8
0
 10
195.0601048748679
 20
79.65091456119674
 30
0.0
  0
SEQEND
  5
26B
  8
0
  0
POLYLINE
  5
B0
  8
0
 66
     1
 10
0.0
 20
0.0
 30
0.0
  0
VERTEX
  5
26C
  8
0
 10
212.1123628670679
 20
79.65091456119674
 30
0.0
  0
VERTEX
  5
26D
  8
0
 10
203.5862338709679
 20
70.69186606479674
 30
0.0
  0
SEQEND
  5
26E
  8
0
  0
POLYLINE
  5
B1
  8
0
 66
     1
 10
0.0
 20
0.0
 30
0.0
  0
VERTEX
  5
26F
  8
0
 10
195.0601048748679
 20
79.65091456119674
 30
0.0
  0
VERTEX
  5
270
  8
0
 10
203.5862338709679
 20
70.69186606479674
 30
0.0
  0
SEQEND
  5
271
  8
0
  0
POLYLINE
  5
B2
  8
0
 66
     1
 10
0.0
 20
0.0
 30
0.0
 70
     1
  0
VERTEX
  5
272
  8
0
 10
205.2294404736679
 20
69.01444164979674
 30
0.0
  0
VERTEX
  5
273
  8
0
 10
218.5862338709679
 20
83.04943453549674
 30
0.0
  0
VERTEX
  5
274
  8
0
 10
218.5862338709679
 20
57.25157836679674
 30
0.0
  0
SEQEND
  5
275
  8
0
  0
POLYLINE
  5
B3
  8
0
 66
     1
 10
0.0
 20
0.0
 30
0.0
 70
     1
  0
VERTEX
  5
276
  8
0
 10
155.7746375298843
 20
64.63132493709674
 30
0.0
 42
0.4142135623730951
  0
VERTEX
  5
277
  8
0
 10
154.1746375298843
 20
63.03132493709673
 30
0.0
 42
0.4142135623730951
  0
VERTEX
  5
278
  8
0
 10
155.7746375298843
 20
61.43132493709673
 30
0.0
 42
0.4142135623730951
  0
VERTEX
  5
279
  8
0
 10
157.3746375298843
 20
63.03132493709673
 30
0.0
 42
0.4142135623730951
  0
SEQEND
  5
27A
  8
0
  0
POLYLINE
  5
B4
  8
0
 66
     1
 10
0.0
 20
0.0
 30
0.0
 70
     1
  0
VERTEX
  5
27B
  8
0
 10
139.7746375298843
 20
64.63132493709674
 30
0.0
 42
0.4142135623730951
  0
VERTEX
  5
27C
  8
0
 10
138.1746375298843
 20
63.03132493709673
 30
0.0
 42
0.4142135623730951
  0
VERTEX
  5
27D
  8
0
 10
139.7746375298843
 20
61.43132493709673
 30
0.0
 42
0.4142135623730951
  0
VERTEX
  5
27E
  8
0
 10
141.3746375298843
 20
63.03132493709673
 30
0.0
 42
0.4142135623730951
  0
SEQEND
  5
27F
  8
0
  0
POLYLINE
  5
B5
  8
0
 66
     1
 10
0.0
 20
0.0
 30
0.0
  0
VERTEX
  5
280
  8
0
 10
111.6256373443843
 20
56.90675781749673
 30
0.0
  0
VERTEX
  5
281
  8
0
 10
131.0977834404843
 20
67.65762357829672
 30
0.0
  0
SEQEND
  5
282
  8
0
  0
POLYLINE
  5
B6
  8
0
 66
     1
 10
0.0
 20
0.0
 30
0.0
  0
VERTEX
  5
283
  8
0
 10
111.6256373443458
 20
56.90675781749553
 30
0.0
 42
0.7749546823730569
  0
VERTEX
  5
284
  8
0
 10
112.1089770508843
 20
55.03132493709673
 30
0.0
  0
VERTEX
  5
285
  8
0
 10
116.7746375298843
 20
55.03132493709673
 30
0.0
  0
VERTEX
  5
286
  8
0
 10
116.7746375298843
 20
51.03132493709673
 30
0.0
  0
VERTEX
  5
287
  8
0
 10
146.7746375298843
 20
51.03132493709673
 30
0.0
  0
VERTEX
  5
288
  8
0
 10
146.7746375298843
 20
55.03132493709673
 30
0.0
  0
VERTEX
  5
289
  8
0
 10
156.7746375298843
 20
55.03132493709673
 30
0.0
 42
0.4142135623730949
  0
VERTEX
  5
28A
  8
0
 10
159.7746375298843
 20
58.03132493709673
 30
0.0
  0
VERTEX
  5
28B
  8
0
 10
159.7746375298843
 20
65.03132493709673
 30
0.0
 42
0.4142135623730951
  0
VERTEX
  5
28C
  8
0
 10
156.7746375298843
 20
68.03132493709674
 30
0.0
  0
VERTEX
  5
28D
  8
0
 10
132.5478025600843
 20
68.03132493709673
 30
0.0
 42
0.1267893315034178
  0
VERTEX
  5
28E
  8
0
 10
131.097783440469
 20
67.65762357829314
 30
0.0
  0
SEQEND
  5
28F
  8
0
  0
POLYLINE
  5
B7
  8
0
 66
     1
 10
0.0
 20
0.0
 30
0.0
 70
     1
  0
VERTEX
  5
290
  8
0
 10
159.2696859387093
 20
89.24100235645153
 30
0.0
 42
-0.4142135623730951
  0
VERTEX
  5
291
  8
0
 10
161.7696859387093
 20
86.74100235645153
 30
0.0
 42
-0.4142135623730951
  0
VERTEX
  5
292
  8
0
 10
159.2696859387093
 20
84.24100235645153
 30
0.0
 42
-0.4142135623730951
  0
VERTEX
  5
293
  8
0
 10
156.7696859387093
 20
86.74100235645153
 30
0.0
 42
-0.4142135623730951
  0
SEQEND
  5
294
  8
0
  0
POLYLINE
  5
B8
  8
0
 66
     1
 10
0.0
 20
0.0
 30
0.0
  0
VERTEX
  5
295
  8
0
 10
173.7696859387093
 20
93.34100235645153
 30
0.0
  0
VERTEX
  5
296
  8
0
 10
171.4196859387093
 20
93.34100235645153
 30
0.0
  0
SEQEND
  5
297
  8
0
  0
POLYLINE
  5
B9
  8
0
 66
     1
 10
0.0
 20
0.0
 30
0.0
  0
VERTEX
  5
298
  8
0
 10
173.7696859387093
 20
93.34100235645153
 30
0.0
 42
-0.4142135623730944
  0
VERTEX
  5
299
  8
0
 10
174.2696859387093
 20
92.84100235645153
 30
0.0
  0
VERTEX
  5
29A
  8
0
 10
174.2696859387093
 20
82.94100235645153
 30
0.0
  0
SEQEND
  5
29B
  8
0
  0
POLYLINE
  5
BA
  8
0
 66
     1
 10
0.0
 20
0.0
 30
0.0
  0
VERTEX
  5
29C
  8
0
 10
168.2696859387093
 20
82.94100235645153
 30
0.0
  0
VERTEX
  5
29D
  8
0
 10
174.2696859387093
 20
82.94100235645153
 30
0.0
  0
SEQEND
  5
29E
  8
0
  0
POLYLINE
  5
BB
  8
0
 66
     1
 10
0.0
 20
0.0
 30
0.0
  0
VERTEX
  5
29F
  8
0
 10
168.2696859387093
 20
80.94100235645153
 30
0.0
  0
VERTEX
  5
2A0
  8
0
 10
168.2696859387093
 20
82.94100235645153
 30
0.0
  0
SEQEND
  5
2A1
  8
0
  0
POLYLINE
  5
BC
  8
0
 66
     1
 10
0.0
 20
0.0
 30
0.0
  0
VERTEX
  5
2A2
  8
0
 10
174.2696859387093
 20
80.94100235645153
 30
0.0
  0
VERTEX
  5
2A3
  8
0
 10
168.2696859387093
 20
80.94100235645153
 30
0.0
  0
SEQEND
  5
2A4
  8
0
  0
POLYLINE
  5
BD
  8
0
 66
     1
 10
0.0
 20
0.0
 30
0.0
  0
VERTEX
  5
2A5
  8
0
 10
174.2696859387093
 20
80.94100235645153
 30
0.0
  0
VERTEX
  5
2A6
  8
0
 10
174.2696859387093
 20
74.74100235645153
 30
0.0
  0
VERTEX
  5
2A7
  8
0
 10
165.2696859387093
 20
74.74100235645153
 30
0.0
  0
VERTEX
  5
2A8
  8
0
 10
165.2696859387093
 20
76.74100235645153
 30
0.0
  0
VERTEX
  5
2A9
  8
0
 10
163.2696859387093
 20
76.74100235645153
 30
0.0
  0
VERTEX
  5
2AA
  8
0
 10
163.2696859387093
 20
74.74100235645153
 30
0.0
  0
VERTEX
  5
2AB
  8
0
 10
155.2696859387093
 20
74.74100235645153
 30
0.0
  0
SEQEND
  5
2AC
  8
0
  0
POLYLINE
  5
BE
  8
0
 66
     1
 10
0.0
 20
0.0
 30
0.0
  0
VERTEX
  5
2AD
  8
0
 10
155.2696859387093
 20
76.74100235645153
 30
0.0
  0
VERTEX
  5
2AE
  8
0
 10
155.2696859387093
 20
74.74100235645153
 30
0.0
  0
SEQEND
  5
2AF
  8
0
  0
POLYLINE
  5
BF
  8
0
 66
     1
 10
0.0
 20
0.0
 30
0.0
  0
VERTEX
  5
2B0
  8
0
 10
153.2696859387093
 20
76.74100235645153
 30
0.0
  0
VERTEX
  5
2B1
  8
0
 10
155.2696859387093
 20
76.74100235645153
 30
0.0
  0
SEQEND
  5
2B2
  8
0
  0
POLYLINE
  5
C0
  8
0
 66
     1
 10
0.0
 20
0.0
 30
0.0
  0
VERTEX
  5
2B3
  8
0
 10
153.2696859387093
 20
74.74100235645153
 30
0.0
  0
VERTEX
  5
2B4
  8
0
 10
153.2696859387093
 20
76.74100235645153
 30
0.0
  0
SEQEND
  5
2B5
  8
0
  0
POLYLINE
  5
C1
  8
0
 66
     1
 10
0.0
 20
0.0
 30
0.0
  0
VERTEX
  5
2B6
  8
0
 10
153.2696859387093
 20
74.74100235645153
 30
0.0
  0
VERTEX
  5
2B7
  8
0
 10
144.2696859387093
 20
74.74100235645153
 30
0.0
  0
SEQEND
  5
2B8
  8
0
  0
POLYLINE
  5
C2
  8
0
 66
     1
 10
0.0
 20
0.0
 30
0.0
  0
VERTEX
  5
2B9
  8
0
 10
144.2696859387093
 20
92.84100235645153
 30
0.0
  0
VERTEX
  5
2BA
  8
0
 10
144.2696859387093
 20
74.74100235645153
 30
0.0
  0
SEQEND
  5
2BB
  8
0
  0
POLYLINE
  5
C3
  8
0
 66
     1
 10
0.0
 20
0.0
 30
0.0
  0
VERTEX
  5
2BC
  8
0
 10
144.2696859387093
 20
92.84100235645153
 30
0.0
 42
-0.4142135623730944
  0
VERTEX
  5
2BD
  8
0
 10
144.7696859387093
 20
93.34100235645153
 30
0.0
  0
SEQEND
  5
2BE
  8
0
  0
POLYLINE
  5
C4
  8
0
 66
     1
 10
0.0
 20
0.0
 30
0.0
  0
VERTEX
  5
2BF
  8
0
 10
147.1196859387093
 20
93.34100235645153
 30
0.0
  0
VERTEX
  5
2C0
  8
0
 10
144.7696859387093
 20
93.34100235645153
 30
0.0
  0
SEQEND
  5
2C1
  8
0
  0
POLYLINE
  5
C5
  8
0
 66
     1
 10
0.0
 20
0.0
 30
0.0
  0
VERTEX
  5
2C2
  8
0
 10
147.1196859387093
 20
93.34100235645153
 30
0.0
  0
VERTEX
  5
2C3
  8
0
 10
147.1196859387093
 20
91.34100235645153
 30
0.0
  0
VERTEX
  5
2C4
  8
0
 10
149.1196859387093
 20
91.34100235645153
 30
0.0
  0
VERTEX
  5
2C5
  8
0
 10
149.1196859387093
 20
93.34100235645153
 30
0.0
  0
SEQEND
  5
2C6
  8
0
  0
POLYLINE
  5
C6
  8
0
 66
     1
 10
0.0
 20
0.0
 30
0.0
  0
VERTEX
  5
2C7
  8
0
 10
169.4196859387093
 20
93.34100235645153
 30
0.0
  0
VERTEX
  5
2C8
  8
0
 10
149.1196859387093
 20
93.34100235645153
 30
0.0
  0
SEQEND
  5
2C9
  8
0
  0
POLYLINE
  5
C7
  8
0
 66
     1
 10
0.0
 20
0.0
 30
0.0
  0
VERTEX
  5
2CA
  8
0
 10
169.4196859387093
 20
91.34100235645153
 30
0.0
  0
VERTEX
  5
2CB
  8
0
 10
169.4196859387093
 20
93.34100235645153
 30
0.0
  0
SEQEND
  5
2CC
  8
0
  0
POLYLINE
  5
C8
  8
0
 66
     1
 10
0.0
 20
0.0
 30
0.0
  0
VERTEX
  5
2CD
  8
0
 10
171.4196859387093
 20
91.34100235645153
 30
0.0
  0
VERTEX
  5
2CE
  8
0
 10
169.4196859387093
 20
91.34100235645153
 30
0.0
  0
SEQEND
  5
2CF
  8
0
  0
POLYLINE
  5
C9
  8
0
 66
     1
 10
0.0
 20
0.0
 30
0.0
  0
VERTEX
  5
2D0
  8
0
 10
171.4196859387093
 20
93.34100235645153
 30
0.0
  0
VERTEX
  5
2D1
  8
0
 10
171.4196859387093
 20
91.34100235645153
 30
0.0
  0
SEQEND
  5
2D2
  8
0
  0
POLYLINE
  5
CA
  8
0
 66
     1
 10
0.0
 20
0.0
 30
0.0
  0
VERTEX
  5
2D3
  8
0
 10
250.7544358355538
 20
86.51350405805081
 30
0.0
 42
-0.716290667375691
  0
VERTEX
  5
2D4
  8
0
 10
249.2309641645163
 20
82.03132493709674
 30
0.0
 42
-0.716290667375691
  0
VERTEX
  5
2D5
  8
0
 10
247.7074924934788
 20
86.51350405805081
 30
0.0
  0
SEQEND
  5
2D6
  8
0
  0
POLYLINE
  5
CB
  8
0
 66
     1
 10
0.0
 20
0.0
 30
0.0
  0
VERTEX
  5
2D7
  8
0
 10
250.7544358355163
 20
87.03132493709674
 30
0.0
  0
VERTEX
  5
2D8
  8
0
 10
250.7544358355163
 20
86.51350405809674
 30
0.0
  0
SEQEND
  5
2D9
  8
0
  0
POLYLINE
  5
CC
  8
0
 66
     1
 10
0.0
 20
0.0
 30
0.0
  0
VERTEX
  5
2DA
  8
0
 10
250.7544358355163
 20
87.03132493709674
 30
0.0
  0
VERTEX
  5
2DB
  8
0
 10
264.2309641645163
 20
87.03132493709674
 30
0.0
  0
VERTEX
  5
2DC
  8
0
 10
264.2309641645163
 20
91.03132493709674
 30
0.0
  0
VERTEX
  5
2DD
  8
0
 10
269.2309641645163
 20
91.03132493709674
 30
0.0
  0
VERTEX
  5
2DE
  8
0
 10
269.2309641645163
 20
56.03132493709674
 30
0.0
  0
VERTEX
  5
2DF
  8
0
 10
264.2309641645163
 20
51.03132493709674
 30
0.0
  0
VERTEX
  5
2E0
  8
0
 10
261.2309641645163
 20
51.03132493709674
 30
0.0
  0
VERTEX
  5
2E1
  8
0
 10
261.2309641645163
 20
53.03132493709674
 30
0.0
  0
VERTEX
  5
2E2
  8
0
 10
259.2309641645163
 20
53.03132493709674
 30
0.0
  0
VERTEX
  5
2E3
  8
0
 10
259.2309641645163
 20
51.03132493709674
 30
0.0
  0
VERTEX
  5
2E4
  8
0
 10
239.2309641645163
 20
51.03132493709674
 30
0.0
  0
SEQEND
  5
2E5
  8
0
  0
POLYLINE
  5
CD
  8
0
 66
     1
 10
0.0
 20
0.0
 30
0.0
  0
VERTEX
  5
2E6
  8
0
 10
239.2309641645163
 20
53.03132493709674
 30
0.0
  0
VERTEX
  5
2E7
  8
0
 10
239.2309641645163
 20
51.03132493709674
 30
0.0
  0
SEQEND
  5
2E8
  8
0
  0
POLYLINE
  5
CE
  8
0
 66
     1
 10
0.0
 20
0.0
 30
0.0
  0
VERTEX
  5
2E9
  8
0
 10
237.2309641645163
 20
53.03132493709674
 30
0.0
  0
VERTEX
  5
2EA
  8
0
 10
239.2309641645163
 20
53.03132493709674
 30
0.0
  0
SEQEND
  5
2EB
  8
0
  0
POLYLINE
  5
CF
  8
0
 66
     1
 10
0.0
 20
0.0
 30
0.0
  0
VERTEX
  5
2EC
  8
0
 10
237.2309641645163
 20
51.03132493709674
 30
0.0
  0
VERTEX
  5
2ED
  8
0
 10
237.2309641645163
 20
53.03132493709674
 30
0.0
  0
SEQEND
  5
2EE
  8
0
  0
POLYLINE
  5
D0
  8
0
 66
     1
 10
0.0
 20
0.0
 30
0.0
  0
VERTEX
  5
2EF
  8
0
 10
234.2309641645163
 20
51.03132493709674
 30
0.0
  0
VERTEX
  5
2F0
  8
0
 10
237.2309641645163
 20
51.03132493709674
 30
0.0
  0
SEQEND
  5
2F1
  8
0
  0
POLYLINE
  5
D1
  8
0
 66
     1
 10
0.0
 20
0.0
 30
0.0
  0
VERTEX
  5
2F2
  8
0
 10
229.2309641645163
 20
56.03132493709674
 30
0.0
  0
VERTEX
  5
2F3
  8
0
 10
234.2309641645163
 20
51.03132493709674
 30
0.0
  0
SEQEND
  5
2F4
  8
0
  0
POLYLINE
  5
D2
  8
0
 66
     1
 10
0.0
 20
0.0
 30
0.0
  0
VERTEX
  5
2F5
  8
0
 10
229.2309641645163
 20
91.03132493709674
 30
0.0
  0
VERTEX
  5
2F6
  8
0
 10
229.2309641645163
 20
56.03132493709674
 30
0.0
  0
SEQEND
  5
2F7
  8
0
  0
POLYLINE
  5
D3
  8
0
 66
     1
 10
0.0
 20
0.0
 30
0.0
  0
VERTEX
  5
2F8
  8
0
 10
234.2309641645163
 20
91.03132493709674
 30
0.0
  0
VERTEX
  5
2F9
  8
0
 10
229.2309641645163
 20
91.03132493709674
 30
0.0
  0
SEQEND
  5
2FA
  8
0
  0
POLYLINE
  5
D4
  8
0
 66
     1
 10
0.0
 20
0.0
 30
0.0
  0
VERTEX
  5
2FB
  8
0
 10
234.2309641645163
 20
87.03132493709674
 30
0.0
  0
VERTEX
  5
2FC
  8
0
 10
234.2309641645163
 20
91.03132493709674
 30
0.0
  0
SEQEND
  5
2FD
  8
0
  0
POLYLINE
  5
D5
  8
0
 66
     1
 10
0.0
 20
0.0
 30
0.0
  0
VERTEX
  5
2FE
  8
0
 10
234.2309641645163
 20
87.03132493709674
 30
0.0
  0
VERTEX
  5
2FF
  8
0
 10
247.7074924935163
 20
87.03132493709674
 30
0.0
  0
VERTEX
  5
300
  8
0
 10
247.7074924935163
 20
86.51350405809674
 30
0.0
  0
SEQEND
  5
301
  8
0
  0
POLYLINE
  5
D6
  8
0
 66
     1
 10
0.0
 20
0.0
 30
0.0
  0
VERTEX
  5
302
  8
0
 10
250.8741707672163
 20
69.01444164979674
 30
0.0
  0
VERTEX
  5
303
  8
0
 10
264.2309641645163
 20
83.04943453549674
 30
0.0
  0
SEQEND
  5
304
  8
0
  0
POLYLINE
  5
D7
  8
0
 66
     1
 10
0.0
 20
0.0
 30
0.0
  0
VERTEX
  5
305
  8
0
 10
264.2309641645163
 20
57.25157836679674
 30
0.0
  0
VERTEX
  5
306
  8
0
 10
250.8741707672163
 20
69.01444164979674
 30
0.0
  0
SEQEND
  5
307
  8
0
  0
POLYLINE
  5
D8
  8
0
 66
     1
 10
0.0
 20
0.0
 30
0.0
  0
VERTEX
  5
308
  8
0
 10
264.2309641645163
 20
83.04943453549674
 30
0.0
  0
VERTEX
  5
309
  8
0
 10
264.2309641645163
 20
57.25157836679674
 30
0.0
  0
SEQEND
  5
30A
  8
0
  0
POLYLINE
  5
D9
  8
0
 66
     1
 10
0.0
 20
0.0
 30
0.0
  0
VERTEX
  5
30B
  8
0
 10
249.2309641645163
 20
67.50516314559674
 30
0.0
  0
VERTEX
  5
30C
  8
0
 10
260.2600260815163
 20
57.79225199909674
 30
0.0
  0
SEQEND
  5
30D
  8
0
  0
POLYLINE
  5
DA
  8
0
 66
     1
 10
0.0
 20
0.0
 30
0.0
  0
VERTEX
  5
30E
  8
0
 10
249.2309641645163
 20
67.50516314559674
 30
0.0
  0
VERTEX
  5
30F
  8
0
 10
238.2019022475163
 20
57.79225199909674
 30
0.0
  0
SEQEND
  5
310
  8
0
  0
POLYLINE
  5
DB
  8
0
 66
     1
 10
0.0
 20
0.0
 30
0.0
  0
VERTEX
  5
311
  8
0
 10
260.2600260815163
 20
57.79225199909674
 30
0.0
  0
VERTEX
  5
312
  8
0
 10
238.2019022475163
 20
57.79225199909674
 30
0.0
  0
SEQEND
  5
313
  8
0
  0
POLYLINE
  5
DC
  8
0
 66
     1
 10
0.0
 20
0.0
 30
0.0
  0
VERTEX
  5
314
  8
0
 10
240.7048351684163
 20
79.65091456119674
 30
0.0
  0
VERTEX
  5
315
  8
0
 10
257.7570931606164
 20
79.65091456119674
 30
0.0
  0
SEQEND
  5
316
  8
0
  0
POLYLINE
  5
DD
  8
0
 66
     1
 10
0.0
 20
0.0
 30
0.0
  0
VERTEX
  5
317
  8
0
 10
240.7048351684163
 20
79.65091456119674
 30
0.0
  0
VERTEX
  5
318
  8
0
 10
249.2309641645163
 20
70.69186606479674
 30
0.0
  0
SEQEND
  5
319
  8
0
  0
POLYLINE
  5
DE
  8
0
 66
     1
 10
0.0
 20
0.0
 30
0.0
  0
VERTEX
  5
31A
  8
0
 10
257.7570931606164
 20
79.65091456119674
 30
0.0
  0
VERTEX
  5
31B
  8
0
 10
249.2309641645163
 20
70.69186606479674
 30
0.0
  0
SEQEND
  5
31C
  8
0
  0
POLYLINE
  5
DF
  8
0
 66
     1
 10
0.0
 20
0.0
 30
0.0
 70
     1
  0
VERTEX
  5
31D
  8
0
 10
247.5877575618163
 20
69.01444164979674
 30
0.0
  0
VERTEX
  5
31E
  8
0
 10
234.2309641645163
 20
83.04943453549674
 30
0.0
  0
VERTEX
  5
31F
  8
0
 10
234.2309641645163
 20
57.25157836679674
 30
0.0
  0
SEQEND
  5
320
  8
0
  0
ENDSEC
  0
EOF
