  0
SECTION
  2
HEADER
  9
$ACADVER
  1
AC1009
  9
$DWGCODEPAGE
  3
ansi_932
  9
$INSBASE
 10
0.0
 20
0.0
 30
0.0
  9
$EXTMIN
 10
5.225806451612868
 20
40.52014785966513
 30
0.0
  9
$EXTMAX
 10
358.5586761616212
 20
91.47211734434558
 30
0.0
  9
$LIMMIN
 10
0.0
 20
0.0
  9
$LIMMAX
 10
12.0
 20
9.0
  9
$ORTHOMODE
 70
     0
  9
$REGENMODE
 70
     1
  9
$FILLMODE
 70
     1
  9
$QTEXTMODE
 70
     0
  9
$MIRRTEXT
 70
     1
  9
$DRAGMODE
 70
     2
  9
$LTSCALE
 40
1.0
  9
$OSMODE
 70
    37
  9
$ATTMODE
 70
     1
  9
$TEXTSIZE
 40
0.2
  9
$TRACEWID
 40
0.05
  9
$TEXTSTYLE
  7
STANDARD
  9
$CLAYER
  8
0
  9
$CELTYPE
  6
BYLAYER
  9
$CECOLOR
 62
   256
  9
$DIMSCALE
 40
1.0
  9
$DIMASZ
 40
0.18
  9
$DIMEXO
 40
0.0625
  9
$DIMDLI
 40
0.38
  9
$DIMRND
 40
0.0
  9
$DIMDLE
 40
0.0
  9
$DIMEXE
 40
0.18
  9
$DIMTP
 40
0.0
  9
$DIMTM
 40
0.0
  9
$DIMTXT
 40
0.18
  9
$DIMCEN
 40
0.09
  9
$DIMTSZ
 40
0.0
  9
$DIMTOL
 70
     0
  9
$DIMLIM
 70
     0
  9
$DIMTIH
 70
     1
  9
$DIMTOH
 70
     1
  9
$DIMSE1
 70
     0
  9
$DIMSE2
 70
     0
  9
$DIMTAD
 70
     0
  9
$DIMZIN
 70
     0
  9
$DIMBLK
  1

  9
$DIMASO
 70
     1
  9
$DIMSHO
 70
     1
  9
$DIMPOST
  1

  9
$DIMAPOST
  1

  9
$DIMALT
 70
     0
  9
$DIMALTD
 70
     2
  9
$DIMALTF
 40
25.4
  9
$DIMLFAC
 40
1.0
  9
$DIMTOFL
 70
     0
  9
$DIMTVP
 40
0.0
  9
$DIMTIX
 70
     0
  9
$DIMSOXD
 70
     0
  9
$DIMSAH
 70
     0
  9
$DIMBLK1
  1

  9
$DIMBLK2
  1

  9
$DIMSTYLE
  2
STANDARD
  9
$DIMCLRD
 70
     0
  9
$DIMCLRE
 70
     0
  9
$DIMCLRT
 70
     0
  9
$DIMTFAC
 40
1.0
  9
$DIMGAP
 40
0.09
  9
$LUNITS
 70
     2
  9
$LUPREC
 70
     4
  9
$SKETCHINC
 40
0.1
  9
$FILLETRAD
 40
0.5
  9
$AUNITS
 70
     0
  9
$AUPREC
 70
     0
  9
$MENU
  1
.
  9
$ELEVATION
 40
0.0
  9
$PELEVATION
 40
0.0
  9
$THICKNESS
 40
0.0
  9
$LIMCHECK
 70
     0
  9
$CHAMFERA
 40
0.5
  9
$CHAMFERB
 40
0.5
  9
$SKPOLY
 70
     0
  9
$TDCREATE
 40
2454910.5
  9
$TDUPDATE
 40
2459545.7516789
  9
$TDINDWG
 40
0.0000000116
  9
$TDUSRTIMER
 40
0.0000000116
  9
$USRTIMER
 70
     1
  9
$ANGBASE
 50
0.0
  9
$ANGDIR
 70
     0
  9
$PDMODE
 70
     0
  9
$PDSIZE
 40
0.0
  9
$PLINEWID
 40
0.0
  9
$COORDS
 70
     1
  9
$SPLFRAME
 70
     0
  9
$SPLINETYPE
 70
     6
  9
$SPLINESEGS
 70
     8
  9
$ATTDIA
 70
     0
  9
$ATTREQ
 70
     1
  9
$HANDLING
 70
     1
  9
$HANDSEED
  5
481
  9
$SURFTAB1
 70
     6
  9
$SURFTAB2
 70
     6
  9
$SURFTYPE
 70
     6
  9
$SURFU
 70
     6
  9
$SURFV
 70
     6
  9
$UCSNAME
  2

  9
$UCSORG
 10
0.0
 20
0.0
 30
0.0
  9
$UCSXDIR
 10
1.0
 20
0.0
 30
0.0
  9
$UCSYDIR
 10
0.0
 20
1.0
 30
0.0
  9
$PUCSNAME
  2

  9
$PUCSORG
 10
0.0
 20
0.0
 30
0.0
  9
$PUCSXDIR
 10
1.0
 20
0.0
 30
0.0
  9
$PUCSYDIR
 10
0.0
 20
1.0
 30
0.0
  9
$USERI1
 70
     0
  9
$USERI2
 70
     0
  9
$USERI3
 70
     0
  9
$USERI4
 70
     0
  9
$USERI5
 70
     0
  9
$USERR1
 40
0.0
  9
$USERR2
 40
0.0
  9
$USERR3
 40
0.0
  9
$USERR4
 40
0.0
  9
$USERR5
 40
0.0
  9
$WORLDVIEW
 70
     1
  9
$SHADEDGE
 70
     3
  9
$SHADEDIF
 70
    70
  9
$TILEMODE
 70
     1
  9
$MAXACTVP
 70
    64
  9
$PLIMCHECK
 70
     0
  9
$PEXTMIN
 10
1.000000000000000E+20
 20
1.000000000000000E+20
 30
1.000000000000000E+20
  9
$PEXTMAX
 10
-1.000000000000000E+20
 20
-1.000000000000000E+20
 30
-1.000000000000000E+20
  9
$PLIMMIN
 10
0.0
 20
0.0
  9
$PLIMMAX
 10
12.0
 20
9.0
  9
$UNITMODE
 70
     0
  9
$VISRETAIN
 70
     1
  9
$PLINEGEN
 70
     0
  9
$PSLTSCALE
 70
     1
  0
ENDSEC
  0
SECTION
  2
TABLES
  0
TABLE
  2
VPORT
 70
     1
  0
VPORT
  2
*ACTIVE
 70
     0
 10
0.0
 20
0.0
 11
1.0
 21
1.0
 12
10.42990654205607
 22
4.5
 13
0.0
 23
0.0
 14
0.5
 24
0.5
 15
0.5
 25
0.5
 16
0.0
 26
0.0
 36
1.0
 17
0.0
 27
0.0
 37
0.0
 40
9.0
 41
1.972972972850329
 42
50.0
 43
0.0
 44
0.0
 50
0.0
 51
0.0
 71
     0
 72
   100
 73
     1
 74
     3
 75
     0
 76
     0
 77
     0
 78
     0
  0
ENDTAB
  0
TABLE
  2
LTYPE
 70
     2
  0
LTYPE
  2
CONTINUOUS
 70
     0
  3
Solid line
 72
    65
 73
     0
 40
0.0
  0
LTYPE
  2
CONTINUOUS2
 70
     0
  3
Solid Line
 72
    65
 73
     0
 40
0.0
  0
ENDTAB
  0
TABLE
  2
LAYER
 70
     1
  0
LAYER
  2
0
 70
     0
 62
     7
  6
CONTINUOUS
  0
ENDTAB
  0
TABLE
  2
STYLE
 70
     1
  0
STYLE
  2
STANDARD
 70
     0
 40
0.0
 41
1.0
 50
0.0
 71
     0
 42
0.2
  3
txt
  4

  0
ENDTAB
  0
TABLE
  2
VIEW
 70
     0
  0
ENDTAB
  0
TABLE
  2
UCS
 70
     0
  0
ENDTAB
  0
TABLE
  2
APPID
 70
     1
  0
APPID
  2
ACAD
 70
     0
  0
ENDTAB
  0
TABLE
  2
DIMSTYLE
 70
     1
  0
DIMSTYLE
  2
STANDARD
 70
     0
  3

  4

  5

  6

  7

 40
1.0
 41
0.18
 42
0.0625
 43
0.38
 44
0.18
 45
0.0
 46
0.0
 47
0.0
 48
0.0
140
0.18
141
0.09
142
0.0
143
25.4
144
1.0
145
0.0
146
1.0
147
0.09
 71
     0
 72
     0
 73
     1
 74
     1
 75
     0
 76
     0
 77
     0
 78
     0
170
     0
171
     2
172
     0
173
     0
174
     0
175
     0
176
     0
177
     0
178
     0
  0
ENDTAB
  0
ENDSEC
  0
SECTION
  2
BLOCKS
  0
BLOCK
  8
0
  2
$MODEL_SPACE
 70
     0
 10
0.0
 20
0.0
 30
0.0
  3
$MODEL_SPACE
  1

  0
ENDBLK
  5
21
  8
0
  0
BLOCK
 67
     1
  8
0
  2
$PAPER_SPACE
 70
     0
 10
0.0
 20
0.0
 30
0.0
  3
$PAPER_SPACE
  1

  0
ENDBLK
  5
1D
 67
     1
  8
0
  0
ENDSEC
  0
SECTION
  2
ENTITIES
  0
POLYLINE
  5
40
  8
0
 66
     1
 10
0.0
 20
0.0
 30
0.0
 70
     1
  0
VERTEX
  5
8A
  8
0
 10
65.22580645161287
 20
49.77486873790319
 30
0.0
  0
VERTEX
  5
8B
  8
0
 10
65.22580645161287
 20
85.77486873790319
 30
0.0
  0
VERTEX
  5
8C
  8
0
 10
5.225806451612868
 20
85.77486873790319
 30
0.0
  0
VERTEX
  5
8D
  8
0
 10
5.225806451612868
 20
49.77486873790319
 30
0.0
  0
SEQEND
  5
8E
  8
0
  0
POLYLINE
  5
41
  8
0
 66
     1
 10
0.0
 20
0.0
 30
0.0
  0
VERTEX
  5
8F
  8
0
 10
52.72580645161287
 20
83.77486873790319
 30
0.0
  0
VERTEX
  5
90
  8
0
 10
17.72580645161287
 20
83.77486873790319
 30
0.0
  0
SEQEND
  5
91
  8
0
  0
POLYLINE
  5
42
  8
0
 66
     1
 10
0.0
 20
0.0
 30
0.0
  0
VERTEX
  5
92
  8
0
 10
52.72580645161287
 20
79.77486873790319
 30
0.0
  0
VERTEX
  5
93
  8
0
 10
52.72580645161287
 20
83.77486873790319
 30
0.0
  0
SEQEND
  5
94
  8
0
  0
POLYLINE
  5
43
  8
0
 66
     1
 10
0.0
 20
0.0
 30
0.0
  0
VERTEX
  5
95
  8
0
 10
17.72580645161287
 20
79.77486873790319
 30
0.0
  0
VERTEX
  5
96
  8
0
 10
52.72580645161287
 20
79.77486873790319
 30
0.0
  0
SEQEND
  5
97
  8
0
  0
POLYLINE
  5
44
  8
0
 66
     1
 10
0.0
 20
0.0
 30
0.0
  0
VERTEX
  5
98
  8
0
 10
17.72580645161287
 20
83.77486873790319
 30
0.0
  0
VERTEX
  5
99
  8
0
 10
17.72580645161287
 20
79.77486873790319
 30
0.0
  0
SEQEND
  5
9A
  8
0
  0
POLYLINE
  5
45
  8
0
 66
     1
 10
0.0
 20
0.0
 30
0.0
  0
VERTEX
  5
9B
  8
0
 10
85.13769234770189
 20
70.33894302845931
 30
0.0
  0
VERTEX
  5
9C
  8
0
 10
80.9006477652019
 20
73.89424557505932
 30
0.0
  0
SEQEND
  5
9D
  8
0
  0
POLYLINE
  5
46
  8
0
 66
     1
 10
0.0
 20
0.0
 30
0.0
  0
VERTEX
  5
9E
  8
0
 10
85.1376923477365
 20
70.33894302846954
 30
0.0
 42
0.3639702342662025
  0
VERTEX
  5
9F
  8
0
 10
97.99344454146728
 20
70.33894302846954
 30
0.0
  0
VERTEX
  5
A0
  8
0
 10
102.2304891240019
 20
73.89424557505932
 30
0.0
  0
SEQEND
  5
A1
  8
0
  0
POLYLINE
  5
47
  8
0
 66
     1
 10
0.0
 20
0.0
 30
0.0
  0
VERTEX
  5
A2
  8
0
 10
104.2746537530111
 20
75.221741606851
 30
0.0
 42
0.0611626201504826
  0
VERTEX
  5
A3
  8
0
 10
102.2304891240365
 20
73.8942455750491
 30
0.0
  0
SEQEND
  5
A4
  8
0
  0
POLYLINE
  5
48
  8
0
 66
     1
 10
0.0
 20
0.0
 30
0.0
  0
VERTEX
  5
A5
  8
0
 10
104.2746537530019
 20
75.22174160685933
 30
0.0
  0
VERTEX
  5
A6
  8
0
 10
111.5655684446019
 20
78.77775830235932
 30
0.0
  0
VERTEX
  5
A7
  8
0
 10
111.5655684446019
 20
82.77775830235932
 30
0.0
  0
VERTEX
  5
A8
  8
0
 10
109.0655684446019
 20
82.77775830235932
 30
0.0
  0
VERTEX
  5
A9
  8
0
 10
109.0655684446019
 20
84.7777583023593
 30
0.0
  0
SEQEND
  5
AA
  8
0
  0
POLYLINE
  5
49
  8
0
 66
     1
 10
0.0
 20
0.0
 30
0.0
  0
VERTEX
  5
AB
  8
0
 10
74.0655684446019
 20
84.7777583023593
 30
0.0
  0
VERTEX
  5
AC
  8
0
 10
109.0655684446019
 20
84.7777583023593
 30
0.0
  0
SEQEND
  5
AD
  8
0
  0
POLYLINE
  5
4A
  8
0
 66
     1
 10
0.0
 20
0.0
 30
0.0
  0
VERTEX
  5
AE
  8
0
 10
74.0655684446019
 20
82.77775830235932
 30
0.0
  0
VERTEX
  5
AF
  8
0
 10
74.0655684446019
 20
84.7777583023593
 30
0.0
  0
SEQEND
  5
B0
  8
0
  0
POLYLINE
  5
4B
  8
0
 66
     1
 10
0.0
 20
0.0
 30
0.0
  0
VERTEX
  5
B1
  8
0
 10
71.5655684446019
 20
82.77775830235932
 30
0.0
  0
VERTEX
  5
B2
  8
0
 10
74.0655684446019
 20
82.77775830235932
 30
0.0
  0
SEQEND
  5
B3
  8
0
  0
POLYLINE
  5
4C
  8
0
 66
     1
 10
0.0
 20
0.0
 30
0.0
  0
VERTEX
  5
B4
  8
0
 10
71.5655684446019
 20
78.77775830235932
 30
0.0
  0
VERTEX
  5
B5
  8
0
 10
71.5655684446019
 20
82.77775830235932
 30
0.0
  0
SEQEND
  5
B6
  8
0
  0
POLYLINE
  5
4D
  8
0
 66
     1
 10
0.0
 20
0.0
 30
0.0
  0
VERTEX
  5
B7
  8
0
 10
78.85648313620189
 20
75.22174160685933
 30
0.0
  0
VERTEX
  5
B8
  8
0
 10
71.5655684446019
 20
78.77775830235932
 30
0.0
  0
SEQEND
  5
B9
  8
0
  0
POLYLINE
  5
4E
  8
0
 66
     1
 10
0.0
 20
0.0
 30
0.0
 70
     1
  0
VERTEX
  5
BA
  8
0
 10
91.5655684446019
 20
75.27775830235932
 30
0.0
 42
0.4142135623730951
  0
VERTEX
  5
BB
  8
0
 10
89.0655684446019
 20
72.77775830235932
 30
0.0
 42
0.4142135623730951
  0
VERTEX
  5
BC
  8
0
 10
91.5655684446019
 20
70.27775830235932
 30
0.0
 42
0.4142135623730951
  0
VERTEX
  5
BD
  8
0
 10
94.0655684446019
 20
72.77775830235932
 30
0.0
 42
0.4142135623730951
  0
SEQEND
  5
BE
  8
0
  0
POLYLINE
  5
4F
  8
0
 66
     1
 10
0.0
 20
0.0
 30
0.0
  0
VERTEX
  5
BF
  8
0
 10
80.90064776516729
 20
73.8942455750491
 30
0.0
 42
0.0611626201504849
  0
VERTEX
  5
C0
  8
0
 10
78.85648313619267
 20
75.221741606851
 30
0.0
  0
SEQEND
  5
C1
  8
0
  0
POLYLINE
  5
50
  8
0
 66
     1
 10
0.0
 20
0.0
 30
0.0
  0
VERTEX
  5
C2
  8
0
 10
110.9972808788804
 20
85.82907993898178
 30
0.0
  0
VERTEX
  5
C3
  8
0
 10
115.2343254613804
 20
82.27377739238177
 30
0.0
 42
0.3639702342662025
  0
VERTEX
  5
C4
  8
0
 10
128.0900776551458
 20
82.273777392392
 30
0.0
  0
VERTEX
  5
C5
  8
0
 10
132.3271222376804
 20
85.82907993898178
 30
0.0
  0
SEQEND
  5
C6
  8
0
  0
POLYLINE
  5
51
  8
0
 66
     1
 10
0.0
 20
0.0
 30
0.0
  0
VERTEX
  5
C7
  8
0
 10
134.3712868666896
 20
87.15657597077345
 30
0.0
 42
0.0611626201504826
  0
VERTEX
  5
C8
  8
0
 10
132.327122237715
 20
85.82907993897156
 30
0.0
  0
SEQEND
  5
C9
  8
0
  0
POLYLINE
  5
52
  8
0
 66
     1
 10
0.0
 20
0.0
 30
0.0
  0
VERTEX
  5
CA
  8
0
 10
134.3712868666804
 20
87.15657597078177
 30
0.0
  0
VERTEX
  5
CB
  8
0
 10
141.6622015582804
 20
90.71259266628178
 30
0.0
  0
VERTEX
  5
CC
  8
0
 10
101.6622015582804
 20
90.71259266628178
 30
0.0
  0
VERTEX
  5
CD
  8
0
 10
108.9531162498804
 20
87.15657597078177
 30
0.0
  0
SEQEND
  5
CE
  8
0
  0
POLYLINE
  5
53
  8
0
 66
     1
 10
0.0
 20
0.0
 30
0.0
 70
     1
  0
VERTEX
  5
CF
  8
0
 10
121.6622015582804
 20
87.21259266628178
 30
0.0
 42
0.4142135623730951
  0
VERTEX
  5
D0
  8
0
 10
119.1622015582804
 20
84.71259266628178
 30
0.0
 42
0.4142135623730951
  0
VERTEX
  5
D1
  8
0
 10
121.6622015582804
 20
82.21259266628178
 30
0.0
 42
0.4142135623730951
  0
VERTEX
  5
D2
  8
0
 10
124.1622015582804
 20
84.71259266628178
 30
0.0
 42
0.4142135623730951
  0
SEQEND
  5
D3
  8
0
  0
POLYLINE
  5
54
  8
0
 66
     1
 10
0.0
 20
0.0
 30
0.0
  0
VERTEX
  5
D4
  8
0
 10
110.9972808788458
 20
85.82907993897156
 30
0.0
 42
0.0611626201504849
  0
VERTEX
  5
D5
  8
0
 10
108.9531162498711
 20
87.15657597077345
 30
0.0
  0
SEQEND
  5
D6
  8
0
  0
POLYLINE
  5
55
  8
0
 66
     1
 10
0.0
 20
0.0
 30
0.0
  0
VERTEX
  5
D7
  8
0
 10
85.13769234770189
 20
64.0470173122093
 30
0.0
  0
VERTEX
  5
D8
  8
0
 10
80.9006477652019
 20
60.4917147656093
 30
0.0
  0
SEQEND
  5
D9
  8
0
  0
POLYLINE
  5
56
  8
0
 66
     1
 10
0.0
 20
0.0
 30
0.0
  0
VERTEX
  5
DA
  8
0
 10
85.1376923477365
 20
64.04701731219907
 30
0.0
 42
-0.3639702342662025
  0
VERTEX
  5
DB
  8
0
 10
97.99344454146728
 20
64.04701731219907
 30
0.0
  0
VERTEX
  5
DC
  8
0
 10
102.2304891240019
 20
60.4917147656093
 30
0.0
  0
SEQEND
  5
DD
  8
0
  0
POLYLINE
  5
57
  8
0
 66
     1
 10
0.0
 20
0.0
 30
0.0
  0
VERTEX
  5
DE
  8
0
 10
104.2746537530111
 20
59.16421873381762
 30
0.0
 42
-0.0611626201504826
  0
VERTEX
  5
DF
  8
0
 10
102.2304891240365
 20
60.49171476561952
 30
0.0
  0
SEQEND
  5
E0
  8
0
  0
POLYLINE
  5
58
  8
0
 66
     1
 10
0.0
 20
0.0
 30
0.0
  0
VERTEX
  5
E1
  8
0
 10
104.2746537530019
 20
59.16421873380929
 30
0.0
  0
VERTEX
  5
E2
  8
0
 10
111.5655684446019
 20
55.6082020383093
 30
0.0
  0
VERTEX
  5
E3
  8
0
 10
111.5655684446019
 20
51.6082020383093
 30
0.0
  0
VERTEX
  5
E4
  8
0
 10
109.0655684446019
 20
51.6082020383093
 30
0.0
  0
VERTEX
  5
E5
  8
0
 10
109.0655684446019
 20
49.60820203830932
 30
0.0
  0
SEQEND
  5
E6
  8
0
  0
POLYLINE
  5
59
  8
0
 66
     1
 10
0.0
 20
0.0
 30
0.0
  0
VERTEX
  5
E7
  8
0
 10
74.0655684446019
 20
49.60820203830932
 30
0.0
  0
VERTEX
  5
E8
  8
0
 10
109.0655684446019
 20
49.60820203830932
 30
0.0
  0
SEQEND
  5
E9
  8
0
  0
POLYLINE
  5
5A
  8
0
 66
     1
 10
0.0
 20
0.0
 30
0.0
  0
VERTEX
  5
EA
  8
0
 10
74.0655684446019
 20
51.6082020383093
 30
0.0
  0
VERTEX
  5
EB
  8
0
 10
74.0655684446019
 20
49.60820203830932
 30
0.0
  0
SEQEND
  5
EC
  8
0
  0
POLYLINE
  5
5B
  8
0
 66
     1
 10
0.0
 20
0.0
 30
0.0
  0
VERTEX
  5
ED
  8
0
 10
71.5655684446019
 20
51.6082020383093
 30
0.0
  0
VERTEX
  5
EE
  8
0
 10
74.0655684446019
 20
51.6082020383093
 30
0.0
  0
SEQEND
  5
EF
  8
0
  0
POLYLINE
  5
5C
  8
0
 66
     1
 10
0.0
 20
0.0
 30
0.0
  0
VERTEX
  5
F0
  8
0
 10
71.5655684446019
 20
55.6082020383093
 30
0.0
  0
VERTEX
  5
F1
  8
0
 10
71.5655684446019
 20
51.6082020383093
 30
0.0
  0
SEQEND
  5
F2
  8
0
  0
POLYLINE
  5
5D
  8
0
 66
     1
 10
0.0
 20
0.0
 30
0.0
  0
VERTEX
  5
F3
  8
0
 10
78.85648313620189
 20
59.16421873380929
 30
0.0
  0
VERTEX
  5
F4
  8
0
 10
71.5655684446019
 20
55.6082020383093
 30
0.0
  0
SEQEND
  5
F5
  8
0
  0
POLYLINE
  5
5E
  8
0
 66
     1
 10
0.0
 20
0.0
 30
0.0
 70
     1
  0
VERTEX
  5
F6
  8
0
 10
91.5655684446019
 20
59.1082020383093
 30
0.0
 42
-0.4142135623730951
  0
VERTEX
  5
F7
  8
0
 10
89.0655684446019
 20
61.6082020383093
 30
0.0
 42
-0.4142135623730951
  0
VERTEX
  5
F8
  8
0
 10
91.5655684446019
 20
64.1082020383093
 30
0.0
 42
-0.4142135623730951
  0
VERTEX
  5
F9
  8
0
 10
94.0655684446019
 20
61.6082020383093
 30
0.0
 42
-0.4142135623730951
  0
SEQEND
  5
FA
  8
0
  0
POLYLINE
  5
5F
  8
0
 66
     1
 10
0.0
 20
0.0
 30
0.0
  0
VERTEX
  5
FB
  8
0
 10
80.90064776516729
 20
60.49171476561952
 30
0.0
 42
-0.0611626201504849
  0
VERTEX
  5
FC
  8
0
 10
78.85648313619267
 20
59.16421873381762
 30
0.0
  0
SEQEND
  5
FD
  8
0
  0
POLYLINE
  5
60
  8
0
 66
     1
 10
0.0
 20
0.0
 30
0.0
  0
VERTEX
  5
FE
  8
0
 10
110.9972808788805
 20
70.29407953482666
 30
0.0
  0
VERTEX
  5
FF
  8
0
 10
115.2343254613805
 20
73.84938208142667
 30
0.0
 42
-0.3639702342662025
  0
VERTEX
  5
100
  8
0
 10
128.0900776551459
 20
73.84938208141644
 30
0.0
  0
VERTEX
  5
101
  8
0
 10
132.3271222376805
 20
70.29407953482666
 30
0.0
  0
SEQEND
  5
102
  8
0
  0
POLYLINE
  5
61
  8
0
 66
     1
 10
0.0
 20
0.0
 30
0.0
  0
VERTEX
  5
103
  8
0
 10
134.3712868666897
 20
68.966583503035
 30
0.0
 42
-0.0611626201504826
  0
VERTEX
  5
104
  8
0
 10
132.3271222377151
 20
70.29407953483688
 30
0.0
  0
SEQEND
  5
105
  8
0
  0
POLYLINE
  5
62
  8
0
 66
     1
 10
0.0
 20
0.0
 30
0.0
  0
VERTEX
  5
106
  8
0
 10
134.3712868666805
 20
68.96658350302667
 30
0.0
  0
VERTEX
  5
107
  8
0
 10
141.6622015582805
 20
65.41056680752666
 30
0.0
  0
VERTEX
  5
108
  8
0
 10
101.6622015582805
 20
65.41056680752666
 30
0.0
  0
VERTEX
  5
109
  8
0
 10
108.9531162498805
 20
68.96658350302667
 30
0.0
  0
SEQEND
  5
10A
  8
0
  0
POLYLINE
  5
63
  8
0
 66
     1
 10
0.0
 20
0.0
 30
0.0
 70
     1
  0
VERTEX
  5
10B
  8
0
 10
121.6622015582805
 20
68.91056680752666
 30
0.0
 42
-0.4142135623730951
  0
VERTEX
  5
10C
  8
0
 10
119.1622015582805
 20
71.41056680752666
 30
0.0
 42
-0.4142135623730951
  0
VERTEX
  5
10D
  8
0
 10
121.6622015582805
 20
73.91056680752666
 30
0.0
 42
-0.4142135623730951
  0
VERTEX
  5
10E
  8
0
 10
124.1622015582805
 20
71.41056680752666
 30
0.0
 42
-0.4142135623730951
  0
SEQEND
  5
10F
  8
0
  0
POLYLINE
  5
64
  8
0
 66
     1
 10
0.0
 20
0.0
 30
0.0
  0
VERTEX
  5
110
  8
0
 10
110.9972808788459
 20
70.29407953483688
 30
0.0
 42
-0.0611626201504849
  0
VERTEX
  5
111
  8
0
 10
108.9531162498713
 20
68.966583503035
 30
0.0
  0
SEQEND
  5
112
  8
0
  0
POLYLINE
  5
65
  8
0
 66
     1
 10
0.0
 20
0.0
 30
0.0
  0
VERTEX
  5
113
  8
0
 10
141.1424421692029
 20
58.04547823939673
 30
0.0
  0
VERTEX
  5
114
  8
0
 10
145.3794867517029
 20
61.60078078599673
 30
0.0
 42
-0.3639702342662025
  0
VERTEX
  5
115
  8
0
 10
158.2352389454683
 20
61.6007807859865
 30
0.0
  0
VERTEX
  5
116
  8
0
 10
162.4722835280029
 20
58.04547823939673
 30
0.0
  0
SEQEND
  5
117
  8
0
  0
POLYLINE
  5
66
  8
0
 66
     1
 10
0.0
 20
0.0
 30
0.0
  0
VERTEX
  5
118
  8
0
 10
164.5164481570121
 20
56.71798220760506
 30
0.0
 42
-0.0611626201504826
  0
VERTEX
  5
119
  8
0
 10
162.4722835280375
 20
58.04547823940695
 30
0.0
  0
SEQEND
  5
11A
  8
0
  0
POLYLINE
  5
67
  8
0
 66
     1
 10
0.0
 20
0.0
 30
0.0
  0
VERTEX
  5
11B
  8
0
 10
164.5164481570029
 20
56.71798220759673
 30
0.0
  0
VERTEX
  5
11C
  8
0
 10
171.8073628486029
 20
53.16196551209673
 30
0.0
  0
VERTEX
  5
11D
  8
0
 10
131.8073628486029
 20
53.16196551209673
 30
0.0
  0
VERTEX
  5
11E
  8
0
 10
139.0982775402029
 20
56.71798220759673
 30
0.0
  0
SEQEND
  5
11F
  8
0
  0
POLYLINE
  5
68
  8
0
 66
     1
 10
0.0
 20
0.0
 30
0.0
 70
     1
  0
VERTEX
  5
120
  8
0
 10
151.8073628486029
 20
56.66196551209673
 30
0.0
 42
-0.4142135623730951
  0
VERTEX
  5
121
  8
0
 10
149.3073628486029
 20
59.16196551209673
 30
0.0
 42
-0.4142135623730951
  0
VERTEX
  5
122
  8
0
 10
151.8073628486029
 20
61.66196551209673
 30
0.0
 42
-0.4142135623730951
  0
VERTEX
  5
123
  8
0
 10
154.3073628486029
 20
59.16196551209673
 30
0.0
 42
-0.4142135623730951
  0
SEQEND
  5
124
  8
0
  0
POLYLINE
  5
69
  8
0
 66
     1
 10
0.0
 20
0.0
 30
0.0
  0
VERTEX
  5
125
  8
0
 10
141.1424421691683
 20
58.04547823940695
 30
0.0
 42
-0.0611626201504849
  0
VERTEX
  5
126
  8
0
 10
139.0982775401937
 20
56.71798220760506
 30
0.0
  0
SEQEND
  5
127
  8
0
  0
POLYLINE
  5
6A
  8
0
 66
     1
 10
0.0
 20
0.0
 30
0.0
  0
VERTEX
  5
128
  8
0
 10
141.142442169203
 20
73.58047864355184
 30
0.0
  0
VERTEX
  5
129
  8
0
 10
145.379486751703
 20
70.02517609695184
 30
0.0
 42
0.3639702342662025
  0
VERTEX
  5
12A
  8
0
 10
158.2352389454684
 20
70.02517609696207
 30
0.0
  0
VERTEX
  5
12B
  8
0
 10
162.4722835280031
 20
73.58047864355184
 30
0.0
  0
SEQEND
  5
12C
  8
0
  0
POLYLINE
  5
6B
  8
0
 66
     1
 10
0.0
 20
0.0
 30
0.0
  0
VERTEX
  5
12D
  8
0
 10
164.5164481570123
 20
74.90797467534351
 30
0.0
 42
0.0611626201504826
  0
VERTEX
  5
12E
  8
0
 10
162.4722835280377
 20
73.58047864354162
 30
0.0
  0
SEQEND
  5
12F
  8
0
  0
POLYLINE
  5
6C
  8
0
 66
     1
 10
0.0
 20
0.0
 30
0.0
  0
VERTEX
  5
130
  8
0
 10
164.5164481570031
 20
74.90797467535184
 30
0.0
  0
VERTEX
  5
131
  8
0
 10
171.807362848603
 20
78.46399137085184
 30
0.0
  0
VERTEX
  5
132
  8
0
 10
131.807362848603
 20
78.46399137085184
 30
0.0
  0
VERTEX
  5
133
  8
0
 10
139.098277540203
 20
74.90797467535184
 30
0.0
  0
SEQEND
  5
134
  8
0
  0
POLYLINE
  5
6D
  8
0
 66
     1
 10
0.0
 20
0.0
 30
0.0
 70
     1
  0
VERTEX
  5
135
  8
0
 10
151.807362848603
 20
74.96399137085184
 30
0.0
 42
0.4142135623730951
  0
VERTEX
  5
136
  8
0
 10
149.307362848603
 20
72.46399137085184
 30
0.0
 42
0.4142135623730951
  0
VERTEX
  5
137
  8
0
 10
151.807362848603
 20
69.96399137085184
 30
0.0
 42
0.4142135623730951
  0
VERTEX
  5
138
  8
0
 10
154.307362848603
 20
72.46399137085184
 30
0.0
 42
0.4142135623730951
  0
SEQEND
  5
139
  8
0
  0
POLYLINE
  5
6E
  8
0
 66
     1
 10
0.0
 20
0.0
 30
0.0
  0
VERTEX
  5
13A
  8
0
 10
141.1424421691684
 20
73.58047864354162
 30
0.0
 42
0.0611626201504849
  0
VERTEX
  5
13B
  8
0
 10
139.0982775401938
 20
74.90797467534351
 30
0.0
  0
SEQEND
  5
13C
  8
0
  0
POLYLINE
  5
6F
  8
0
 66
     1
 10
0.0
 20
0.0
 30
0.0
  0
VERTEX
  5
13D
  8
0
 10
166.0718615240314
 20
86.54230630233519
 30
0.0
  0
VERTEX
  5
13E
  8
0
 10
170.3089061065314
 20
82.98700375573519
 30
0.0
 42
0.3639702342662025
  0
VERTEX
  5
13F
  8
0
 10
183.1646583002968
 20
82.98700375574542
 30
0.0
  0
VERTEX
  5
140
  8
0
 10
187.4017028828314
 20
86.54230630233519
 30
0.0
  0
SEQEND
  5
141
  8
0
  0
POLYLINE
  5
70
  8
0
 66
     1
 10
0.0
 20
0.0
 30
0.0
  0
VERTEX
  5
142
  8
0
 10
189.4458675118406
 20
87.86980233412686
 30
0.0
 42
0.0611626201504826
  0
VERTEX
  5
143
  8
0
 10
187.401702882866
 20
86.54230630232497
 30
0.0
  0
SEQEND
  5
144
  8
0
  0
POLYLINE
  5
71
  8
0
 66
     1
 10
0.0
 20
0.0
 30
0.0
  0
VERTEX
  5
145
  8
0
 10
189.4458675118314
 20
87.86980233413519
 30
0.0
  0
VERTEX
  5
146
  8
0
 10
196.7367822034314
 20
91.42581902963519
 30
0.0
  0
VERTEX
  5
147
  8
0
 10
156.7367822034314
 20
91.42581902963519
 30
0.0
  0
VERTEX
  5
148
  8
0
 10
164.0276968950314
 20
87.86980233413519
 30
0.0
  0
SEQEND
  5
149
  8
0
  0
POLYLINE
  5
72
  8
0
 66
     1
 10
0.0
 20
0.0
 30
0.0
 70
     1
  0
VERTEX
  5
14A
  8
0
 10
176.7367822034314
 20
87.92581902963519
 30
0.0
 42
0.4142135623730951
  0
VERTEX
  5
14B
  8
0
 10
174.2367822034314
 20
85.42581902963519
 30
0.0
 42
0.4142135623730951
  0
VERTEX
  5
14C
  8
0
 10
176.7367822034314
 20
82.92581902963519
 30
0.0
 42
0.4142135623730951
  0
VERTEX
  5
14D
  8
0
 10
179.2367822034314
 20
85.42581902963519
 30
0.0
 42
0.4142135623730951
  0
SEQEND
  5
14E
  8
0
  0
POLYLINE
  5
73
  8
0
 66
     1
 10
0.0
 20
0.0
 30
0.0
  0
VERTEX
  5
14F
  8
0
 10
166.0718615239968
 20
86.54230630232497
 30
0.0
 42
0.0611626201504849
  0
VERTEX
  5
150
  8
0
 10
164.0276968950222
 20
87.86980233412686
 30
0.0
  0
SEQEND
  5
151
  8
0
  0
POLYLINE
  5
74
  8
0
 66
     1
 10
0.0
 20
0.0
 30
0.0
  0
VERTEX
  5
152
  8
0
 10
166.0718615240315
 20
71.00730589818008
 30
0.0
  0
VERTEX
  5
153
  8
0
 10
170.3089061065315
 20
74.56260844478008
 30
0.0
 42
-0.3639702342662025
  0
VERTEX
  5
154
  8
0
 10
183.1646583002969
 20
74.56260844476985
 30
0.0
  0
VERTEX
  5
155
  8
0
 10
187.4017028828315
 20
71.00730589818008
 30
0.0
  0
SEQEND
  5
156
  8
0
  0
POLYLINE
  5
75
  8
0
 66
     1
 10
0.0
 20
0.0
 30
0.0
  0
VERTEX
  5
157
  8
0
 10
189.4458675118407
 20
69.67980986638841
 30
0.0
 42
-0.0611626201504826
  0
VERTEX
  5
158
  8
0
 10
187.4017028828661
 20
71.0073058981903
 30
0.0
  0
SEQEND
  5
159
  8
0
  0
POLYLINE
  5
76
  8
0
 66
     1
 10
0.0
 20
0.0
 30
0.0
  0
VERTEX
  5
15A
  8
0
 10
189.4458675118315
 20
69.67980986638008
 30
0.0
  0
VERTEX
  5
15B
  8
0
 10
196.7367822034315
 20
66.12379317088008
 30
0.0
  0
VERTEX
  5
15C
  8
0
 10
156.7367822034315
 20
66.12379317088008
 30
0.0
  0
VERTEX
  5
15D
  8
0
 10
164.0276968950315
 20
69.67980986638008
 30
0.0
  0
SEQEND
  5
15E
  8
0
  0
POLYLINE
  5
77
  8
0
 66
     1
 10
0.0
 20
0.0
 30
0.0
 70
     1
  0
VERTEX
  5
15F
  8
0
 10
176.7367822034315
 20
69.62379317088008
 30
0.0
 42
-0.4142135623730951
  0
VERTEX
  5
160
  8
0
 10
174.2367822034315
 20
72.12379317088008
 30
0.0
 42
-0.4142135623730951
  0
VERTEX
  5
161
  8
0
 10
176.7367822034315
 20
74.62379317088008
 30
0.0
 42
-0.4142135623730951
  0
VERTEX
  5
162
  8
0
 10
179.2367822034315
 20
72.12379317088008
 30
0.0
 42
-0.4142135623730951
  0
SEQEND
  5
163
  8
0
  0
POLYLINE
  5
78
  8
0
 66
     1
 10
0.0
 20
0.0
 30
0.0
  0
VERTEX
  5
164
  8
0
 10
166.0718615239969
 20
71.0073058981903
 30
0.0
 42
-0.0611626201504849
  0
VERTEX
  5
165
  8
0
 10
164.0276968950223
 20
69.67980986638841
 30
0.0
  0
SEQEND
  5
166
  8
0
  0
POLYLINE
  5
79
  8
0
 66
     1
 10
0.0
 20
0.0
 30
0.0
  0
VERTEX
  5
167
  8
0
 10
196.217022814354
 20
58.75870460275014
 30
0.0
  0
VERTEX
  5
168
  8
0
 10
200.454067396854
 20
62.31400714935015
 30
0.0
 42
-0.3639702342662025
  0
VERTEX
  5
169
  8
0
 10
213.3098195906194
 20
62.31400714933991
 30
0.0
  0
VERTEX
  5
16A
  8
0
 10
217.546864173154
 20
58.75870460275014
 30
0.0
  0
SEQEND
  5
16B
  8
0
  0
POLYLINE
  5
7A
  8
0
 66
     1
 10
0.0
 20
0.0
 30
0.0
  0
VERTEX
  5
16C
  8
0
 10
219.5910288021632
 20
57.43120857095847
 30
0.0
 42
-0.0611626201504826
  0
VERTEX
  5
16D
  8
0
 10
217.5468641731886
 20
58.75870460276036
 30
0.0
  0
SEQEND
  5
16E
  8
0
  0
POLYLINE
  5
7B
  8
0
 66
     1
 10
0.0
 20
0.0
 30
0.0
  0
VERTEX
  5
16F
  8
0
 10
219.591028802154
 20
57.43120857095015
 30
0.0
  0
VERTEX
  5
170
  8
0
 10
226.881943493754
 20
53.87519187545014
 30
0.0
  0
VERTEX
  5
171
  8
0
 10
186.881943493754
 20
53.87519187545014
 30
0.0
  0
VERTEX
  5
172
  8
0
 10
194.172858185354
 20
57.43120857095015
 30
0.0
  0
SEQEND
  5
173
  8
0
  0
POLYLINE
  5
7C
  8
0
 66
     1
 10
0.0
 20
0.0
 30
0.0
 70
     1
  0
VERTEX
  5
174
  8
0
 10
206.881943493754
 20
57.37519187545014
 30
0.0
 42
-0.4142135623730951
  0
VERTEX
  5
175
  8
0
 10
204.381943493754
 20
59.87519187545014
 30
0.0
 42
-0.4142135623730951
  0
VERTEX
  5
176
  8
0
 10
206.881943493754
 20
62.37519187545014
 30
0.0
 42
-0.4142135623730951
  0
VERTEX
  5
177
  8
0
 10
209.381943493754
 20
59.87519187545014
 30
0.0
 42
-0.4142135623730951
  0
SEQEND
  5
178
  8
0
  0
POLYLINE
  5
7D
  8
0
 66
     1
 10
0.0
 20
0.0
 30
0.0
  0
VERTEX
  5
179
  8
0
 10
196.2170228143194
 20
58.75870460276036
 30
0.0
 42
-0.0611626201504849
  0
VERTEX
  5
17A
  8
0
 10
194.1728581853447
 20
57.43120857095847
 30
0.0
  0
SEQEND
  5
17B
  8
0
  0
POLYLINE
  5
7E
  8
0
 66
     1
 10
0.0
 20
0.0
 30
0.0
  0
VERTEX
  5
17C
  8
0
 10
196.2170228143541
 20
74.29370500690526
 30
0.0
  0
VERTEX
  5
17D
  8
0
 10
200.4540673968541
 20
70.73840246030525
 30
0.0
 42
0.3639702342662025
  0
VERTEX
  5
17E
  8
0
 10
213.3098195906195
 20
70.73840246031548
 30
0.0
  0
VERTEX
  5
17F
  8
0
 10
217.5468641731541
 20
74.29370500690526
 30
0.0
  0
SEQEND
  5
180
  8
0
  0
POLYLINE
  5
7F
  8
0
 66
     1
 10
0.0
 20
0.0
 30
0.0
  0
VERTEX
  5
181
  8
0
 10
219.5910288021633
 20
75.62120103869692
 30
0.0
 42
0.0611626201504826
  0
VERTEX
  5
182
  8
0
 10
217.5468641731887
 20
74.29370500689504
 30
0.0
  0
SEQEND
  5
183
  8
0
  0
POLYLINE
  5
80
  8
0
 66
     1
 10
0.0
 20
0.0
 30
0.0
  0
VERTEX
  5
184
  8
0
 10
219.5910288021541
 20
75.62120103870525
 30
0.0
  0
VERTEX
  5
185
  8
0
 10
226.8819434937541
 20
79.17721773420526
 30
0.0
  0
VERTEX
  5
186
  8
0
 10
186.8819434937541
 20
79.17721773420526
 30
0.0
  0
VERTEX
  5
187
  8
0
 10
194.1728581853541
 20
75.62120103870525
 30
0.0
  0
SEQEND
  5
188
  8
0
  0
POLYLINE
  5
81
  8
0
 66
     1
 10
0.0
 20
0.0
 30
0.0
 70
     1
  0
VERTEX
  5
189
  8
0
 10
206.8819434937541
 20
75.67721773420526
 30
0.0
 42
0.4142135623730951
  0
VERTEX
  5
18A
  8
0
 10
204.3819434937541
 20
73.17721773420526
 30
0.0
 42
0.4142135623730951
  0
VERTEX
  5
18B
  8
0
 10
206.8819434937541
 20
70.67721773420526
 30
0.0
 42
0.4142135623730951
  0
VERTEX
  5
18C
  8
0
 10
209.3819434937541
 20
73.17721773420526
 30
0.0
 42
0.4142135623730951
  0
SEQEND
  5
18D
  8
0
  0
POLYLINE
  5
82
  8
0
 66
     1
 10
0.0
 20
0.0
 30
0.0
  0
VERTEX
  5
18E
  8
0
 10
196.2170228143195
 20
74.29370500689504
 30
0.0
 42
0.0611626201504849
  0
VERTEX
  5
18F
  8
0
 10
194.1728581853448
 20
75.62120103869692
 30
0.0
  0
SEQEND
  5
190
  8
0
  0
POLYLINE
  5
83
  8
0
 66
     1
 10
0.0
 20
0.0
 30
0.0
 70
     1
  0
VERTEX
  5
191
  8
0
 10
228.8744050959959
 20
91.47037846467177
 30
0.0
  0
VERTEX
  5
192
  8
0
 10
228.8934906645468
 20
91.19436395391716
 30
0.0
  0
VERTEX
  5
193
  8
0
 10
228.9157058407846
 20
90.91749817300973
 30
0.0
  0
VERTEX
  5
194
  8
0
 10
228.9410563299283
 20
90.6397950252409
 30
0.0
  0
VERTEX
  5
195
  8
0
 10
228.9695472049669
 20
90.36126860405852
 30
0.0
  0
VERTEX
  5
196
  8
0
 10
229.0011829125142
 20
90.08193318971138
 30
0.0
  0
VERTEX
  5
197
  8
0
 10
229.0359672786481
 20
89.80180324590852
 30
0.0
  0
VERTEX
  5
198
  8
0
 10
229.0739035147346
 20
89.52089341649432
 30
0.0
  0
VERTEX
  5
199
  8
0
 10
229.1149942232352
 20
89.23921852213846
 30
0.0
  0
VERTEX
  5
19A
  8
0
 10
229.1592414034989
 20
88.95679355704118
 30
0.0
  0
VERTEX
  5
19B
  8
0
 10
229.2066464575383
 20
88.67363368565391
 30
0.0
  0
VERTEX
  5
19C
  8
0
 10
229.2572101957898
 20
88.38975423941491
 30
0.0
  0
VERTEX
  5
19D
  8
0
 10
229.3109328428579
 20
88.10517071350047
 30
0.0
  0
VERTEX
  5
19E
  8
0
 10
229.3678140432439
 20
87.81989876359096
 30
0.0
  0
VERTEX
  5
19F
  8
0
 10
229.4278528670586
 20
87.53395420265238
 30
0.0
  0
VERTEX
  5
1A0
  8
0
 10
229.491047815719
 20
87.24735299773317
 30
0.0
  0
VERTEX
  5
1A1
  8
0
 10
229.5573968276296
 20
86.96011126677601
 30
0.0
  0
VERTEX
  5
1A2
  8
0
 10
229.6268972838475
 20
86.67224527544514
 30
0.0
  0
VERTEX
  5
1A3
  8
0
 10
229.6995460137315
 20
86.38377143396869
 30
0.0
  0
VERTEX
  5
1A4
  8
0
 10
229.7753393005763
 20
86.09470629399641
 30
0.0
  0
VERTEX
  5
1A5
  8
0
 10
229.8542728872293
 20
85.80506654547254
 30
0.0
  0
VERTEX
  5
1A6
  8
0
 10
229.9363419816933
 20
85.51486901352395
 30
0.0
  0
VERTEX
  5
1A7
  8
0
 10
230.021541262712
 20
85.22413065536351
 30
0.0
  0
VERTEX
  5
1A8
  8
0
 10
230.1098648853403
 20
84.9328685572087
 30
0.0
  0
VERTEX
  5
1A9
  8
0
 10
230.2013064864988
 20
84.64109993121546
 30
0.0
  0
VERTEX
  5
1AA
  8
0
 10
230.295859190512
 20
84.34884211242726
 30
0.0
  0
VERTEX
  5
1AB
  8
0
 10
230.3935156146314
 20
84.05611255573945
 30
0.0
  0
VERTEX
  5
1AC
  8
0
 10
230.494267874542
 20
83.76292883287874
 30
0.0
  0
VERTEX
  5
1AD
  8
0
 10
230.5981075898533
 20
83.46930862939811
 30
0.0
  0
VERTEX
  5
1AE
  8
0
 10
230.7050258895747
 20
83.17526974168669
 30
0.0
  0
VERTEX
  5
1AF
  8
0
 10
230.8150134175746
 20
82.88083007399516
 30
0.0
  0
VERTEX
  5
1B0
  8
0
 10
230.9280603380241
 20
82.58600763547615
 30
0.0
  0
VERTEX
  5
1B1
  8
0
 10
231.0441563408243
 20
82.29082053724004
 30
0.0
  0
VERTEX
  5
1B2
  8
0
 10
231.1632906470186
 20
81.99528698942586
 30
0.0
  0
VERTEX
  5
1B3
  8
0
 10
231.2854520141882
 20
81.69942529828764
 30
0.0
  0
VERTEX
  5
1B4
  8
0
 10
231.4106287418326
 20
81.40325386329567
 30
0.0
  0
VERTEX
  5
1B5
  8
0
 10
231.5388086767337
 20
81.10679117425333
 30
0.0
  0
VERTEX
  5
1B6
  8
0
 10
231.6699792183044
 20
80.8100558084289
 30
0.0
  0
VERTEX
  5
1B7
  8
0
 10
231.8041273239211
 20
80.51306642770282
 30
0.0
  0
VERTEX
  5
1B8
  8
0
 10
231.9412395142405
 20
80.21584177572997
 30
0.0
  0
VERTEX
  5
1B9
  8
0
 10
232.0813018785007
 20
79.91840067511737
 30
0.0
  0
VERTEX
  5
1BA
  8
0
 10
232.2243000798063
 20
79.62076202461708
 30
0.0
  0
VERTEX
  5
1BB
  8
0
 10
232.3702193603973
 20
79.32294479633418
 30
0.0
  0
VERTEX
  5
1BC
  8
0
 10
232.5190445469033
 20
79.02496803295018
 30
0.0
  0
VERTEX
  5
1BD
  8
0
 10
232.6707600555802
 20
78.7268508449616
 30
0.0
  0
VERTEX
  5
1BE
  8
0
 10
232.8253498975328
 20
78.42861240793377
 30
0.0
  0
VERTEX
  5
1BF
  8
0
 10
232.9827976839203
 20
78.13027195976983
 30
0.0
  0
VERTEX
  5
1C0
  8
0
 10
233.1430866311462
 20
77.8318487979951
 30
0.0
  0
VERTEX
  5
1C1
  8
0
 10
233.3061995660332
 20
77.53336227705647
 30
0.0
  0
VERTEX
  5
1C2
  8
0
 10
233.4721189309811
 20
77.23483180563734
 30
0.0
  0
VERTEX
  5
1C3
  8
0
 10
233.6408267891093
 20
76.93627684398744
 30
0.0
  0
VERTEX
  5
1C4
  8
0
 10
233.8123048293842
 20
76.6377169012681
 30
0.0
  0
VERTEX
  5
1C5
  8
0
 10
233.9865343717294
 20
76.33917153291279
 30
0.0
  0
VERTEX
  5
1C6
  8
0
 10
234.1634963721214
 20
76.04066033800268
 30
0.0
  0
VERTEX
  5
1C7
  8
0
 10
234.343171427668
 20
75.74220295665772
 30
0.0
  0
VERTEX
  5
1C8
  8
0
 10
234.5255397816728
 20
75.44381906744277
 30
0.0
  0
VERTEX
  5
1C9
  8
0
 10
234.7105813286817
 20
75.14552838478897
 30
0.0
  0
VERTEX
  5
1CA
  8
0
 10
234.8982756195155
 20
74.84735065643036
 30
0.0
  0
VERTEX
  5
1CB
  8
0
 10
235.088601866285
 20
74.54930566085586
 30
0.0
  0
VERTEX
  5
1CC
  8
0
 10
235.2815389473919
 20
74.25141320477631
 30
0.0
  0
VERTEX
  5
1CD
  8
0
 10
235.4770654125123
 20
73.95369312060687
 30
0.0
  0
VERTEX
  5
1CE
  8
0
 10
235.6751594875654
 20
73.65616526396458
 30
0.0
  0
VERTEX
  5
1CF
  8
0
 10
235.875799079666
 20
73.3588495111812
 30
0.0
  0
VERTEX
  5
1D0
  8
0
 10
236.0789617820613
 20
73.06176575683125
 30
0.0
  0
VERTEX
  5
1D1
  8
0
 10
236.2846248790515
 20
72.76493391127536
 30
0.0
  0
VERTEX
  5
1D2
  8
0
 10
236.4927653508952
 20
72.4683738982188
 30
0.0
  0
VERTEX
  5
1D3
  8
0
 10
236.7033598786984
 20
72.17210565228518
 30
0.0
  0
VERTEX
  5
1D4
  8
0
 10
236.9163848492876
 20
71.87614911660552
 30
0.0
  0
VERTEX
  5
1D5
  8
0
 10
237.1318163600679
 20
71.5805242404225
 30
0.0
  0
VERTEX
  5
1D6
  8
0
 10
237.3496302238643
 20
71.28525097670996
 30
0.0
  0
VERTEX
  5
1D7
  8
0
 10
237.5698019737474
 20
70.9903492798075
 30
0.0
  0
VERTEX
  5
1D8
  8
0
 10
237.792306867844
 20
70.6958391030706
 30
0.0
  0
VERTEX
  5
1D9
  8
0
 10
238.0171198941307
 20
70.40174039653569
 30
0.0
  0
VERTEX
  5
1DA
  8
0
 10
238.2442157752124
 20
70.10807310460062
 30
0.0
  0
VERTEX
  5
1DB
  8
0
 10
238.4735689730848
 20
69.81485716372035
 30
0.0
  0
VERTEX
  5
1DC
  8
0
 10
238.7051536938815
 20
69.52211250011779
 30
0.0
  0
VERTEX
  5
1DD
  8
0
 10
238.938943892604
 20
69.22985902750997
 30
0.0
  0
VERTEX
  5
1DE
  8
0
 10
239.1749132778373
 20
68.93811664484946
 30
0.0
  0
VERTEX
  5
1DF
  8
0
 10
239.413035316449
 20
68.64690523408086
 30
0.0
  0
VERTEX
  5
1E0
  8
0
 10
239.8956300407735
 20
68.06615475760479
 30
0.0
  0
VERTEX
  5
1E1
  8
0
 10
240.386511143737
 20
67.48776622919193
 30
0.0
  0
VERTEX
  5
1E2
  8
0
 10
240.8854581341041
 20
66.9118978668087
 30
0.0
  0
VERTEX
  5
1E3
  8
0
 10
241.3922470988296
 20
66.33870740617103
 30
0.0
  0
VERTEX
  5
1E4
  8
0
 10
241.9066508496309
 20
65.76835203261238
 30
0.0
  0
VERTEX
  5
1E5
  8
0
 10
242.4284390685465
 20
65.2009883139273
 30
0.0
  0
VERTEX
  5
1E6
  8
0
 10
242.9573784524808
 20
64.63677213418975
 30
0.0
  0
VERTEX
  5
1E7
  8
0
 10
243.4932328567355
 20
64.07585862854685
 30
0.0
  0
VERTEX
  5
1E8
  8
0
 10
244.0357634375272
 20
63.5184021189875
 30
0.0
  0
VERTEX
  5
1E9
  8
0
 10
244.584728793492
 20
62.96455605108626
 30
0.0
  0
VERTEX
  5
1EA
  8
0
 10
245.1398851061759
 20
62.4144729317225
 30
0.0
  0
VERTEX
  5
1EB
  8
0
 10
245.7009862795119
 20
61.86830426777428
 30
0.0
  0
VERTEX
  5
1EC
  8
0
 10
246.2677840782834
 20
61.32620050578778
 30
0.0
  0
VERTEX
  5
1ED
  8
0
 10
246.8400282655748
 20
60.78831097262159
 30
0.0
  0
VERTEX
  5
1EE
  8
0
 10
247.4174667392071
 20
60.25478381706631
 30
0.0
  0
VERTEX
  5
1EF
  8
0
 10
247.9998456671612
 20
59.72576595243905
 30
0.0
  0
VERTEX
  5
1F0
  8
0
 10
248.5869096219871
 20
59.20140300015329
 30
0.0
  0
VERTEX
  5
1F1
  8
0
 10
249.1784017141997
 20
58.68183923426379
 30
0.0
  0
VERTEX
  5
1F2
  8
0
 10
249.7740637246607
 20
58.16721752698652
 30
0.0
  0
VERTEX
  5
1F3
  8
0
 10
250.3736362359477
 20
57.65767929519389
 30
0.0
  0
VERTEX
  5
1F4
  8
0
 10
250.9768587627084
 20
57.15336444788493
 30
0.0
  0
VERTEX
  5
1F5
  8
0
 10
251.5834698810031
 20
56.65441133463082
 30
0.0
  0
VERTEX
  5
1F6
  8
0
 10
252.1932073566318
 20
56.16095669499534
 30
0.0
  0
VERTEX
  5
1F7
  8
0
 10
252.8058082724488
 20
55.67313560893051
 30
0.0
  0
VERTEX
  5
1F8
  8
0
 10
253.4210091546635
 20
55.19108144814747
 30
0.0
  0
VERTEX
  5
1F9
  8
0
 10
254.0385460981279
 20
54.71492582846231
 30
0.0
  0
VERTEX
  5
1FA
  8
0
 10
254.6581548906097
 20
54.24479856311711
 30
0.0
  0
VERTEX
  5
1FB
  8
0
 10
255.2795711360527
 20
53.78082761707618
 30
0.0
  0
VERTEX
  5
1FC
  8
0
 10
255.9025303768235
 20
53.32313906229735
 30
0.0
  0
VERTEX
  5
1FD
  8
0
 10
256.526768214944
 20
52.87185703397834
 30
0.0
  0
VERTEX
  5
1FE
  8
0
 10
257.1520204323112
 20
52.42710368777834
 30
0.0
  0
VERTEX
  5
1FF
  8
0
 10
257.7780231099031
 20
51.98899915801474
 30
0.0
  0
VERTEX
  5
200
  8
0
 10
258.4045127459704
 20
51.55766151683488
 30
0.0
  0
VERTEX
  5
201
  8
0
 10
259.0312263732159
 20
51.13320673436302
 30
0.0
  0
VERTEX
  5
202
  8
0
 10
259.6579016749595
 20
50.71574863982242
 30
0.0
  0
VERTEX
  5
203
  8
0
 10
260.2842771002892
 20
50.30539888363249
 30
0.0
  0
VERTEX
  5
204
  8
0
 10
260.9100919781998
 20
49.90226690048121
 30
0.0
  0
VERTEX
  5
205
  8
0
 10
261.5350866307174
 20
49.50645987337246
 30
0.0
  0
VERTEX
  5
206
  8
0
 10
262.1590024850097
 20
49.11808269864868
 30
0.0
  0
VERTEX
  5
207
  8
0
 10
262.7815821844838
 20
48.73723795198858
 30
0.0
  0
VERTEX
  5
208
  8
0
 10
263.4025696988698
 20
48.36402585537994
 30
0.0
  0
VERTEX
  5
209
  8
0
 10
264.0217104332912
 20
47.99854424506756
 30
0.0
  0
VERTEX
  5
20A
  8
0
 10
264.6387513363214
 20
47.64088854047647
 30
0.0
  0
VERTEX
  5
20B
  8
0
 10
265.2534410070268
 20
47.29115171410999
 30
0.0
  0
VERTEX
  5
20C
  8
0
 10
265.8655298009961
 20
46.94942426242319
 30
0.0
  0
VERTEX
  5
20D
  8
0
 10
266.4747699353569
 20
46.61579417767133
 30
0.0
  0
VERTEX
  5
20E
  8
0
 10
267.0809155927774
 20
46.29034692073348
 30
0.0
  0
VERTEX
  5
20F
  8
0
 10
267.6837230244557
 20
45.97316539491122
 30
0.0
  0
VERTEX
  5
210
  8
0
 10
268.2829506520947
 20
45.66432992070255
 30
0.0
  0
VERTEX
  5
211
  8
0
 10
268.8783591688642
 20
45.36391821155084
 30
0.0
  0
VERTEX
  5
212
  8
0
 10
269.4697116393487
 20
45.07200535056896
 30
0.0
  0
VERTEX
  5
213
  8
0
 10
270.0567735984823
 20
44.78866376823854
 30
0.0
  0
VERTEX
  5
214
  8
0
 10
270.6393131494696
 20
44.51396322108435
 30
0.0
  0
VERTEX
  5
215
  8
0
 10
271.2171010606929
 20
44.24797077132376
 30
0.0
  0
VERTEX
  5
216
  8
0
 10
271.7899108616064
 20
43.9907507674914
 30
0.0
  0
VERTEX
  5
217
  8
0
 10
272.3575189376165
 20
43.74236482603891
 30
0.0
  0
VERTEX
  5
218
  8
0
 10
272.9197046239486
 20
43.50287181390985
 30
0.0
  0
VERTEX
  5
219
  8
0
 10
273.4762502985001
 20
43.27232783208968
 30
0.0
  0
VERTEX
  5
21A
  8
0
 10
274.0269414736802
 20
43.05078620013092
 30
0.0
  0
VERTEX
  5
21B
  8
0
 10
274.5715668872359
 20
42.83829744165342
 30
0.0
  0
VERTEX
  5
21C
  8
0
 10
275.1099185920646
 20
42.63490927081977
 30
0.0
  0
VERTEX
  5
21D
  8
0
 10
275.6417920450132
 20
42.44066657978581
 30
0.0
  0
VERTEX
  5
21E
  8
0
 10
276.166986194663
 20
42.25561142712626
 30
0.0
  0
VERTEX
  5
21F
  8
0
 10
276.6853035681022
 20
42.07978302723556
 30
0.0
  0
VERTEX
  5
220
  8
0
 10
277.1965503566835
 20
41.91321774070376
 30
0.0
  0
VERTEX
  5
221
  8
0
 10
277.7005365007693
 20
41.75594906566752
 30
0.0
  0
VERTEX
  5
222
  8
0
 10
278.1970757734626
 20
41.60800763013635
 30
0.0
  0
VERTEX
  5
223
  8
0
 10
278.6859858633247
 20
41.46942118529384
 30
0.0
  0
VERTEX
  5
224
  8
0
 10
279.1670884560791
 20
41.34021459977411
 30
0.0
  0
VERTEX
  5
225
  8
0
 10
279.640209315302
 20
41.22040985491336
 30
0.0
  0
VERTEX
  5
226
  8
0
 10
280.1051783620993
 20
41.11002604097656
 30
0.0
  0
VERTEX
  5
227
  8
0
 10
280.5618297537695
 20
41.00907935435926
 30
0.0
  0
VERTEX
  5
228
  8
0
 10
281.0100019614543
 20
40.91758309576446
 30
0.0
  0
VERTEX
  5
229
  8
0
 10
281.4495378467739
 20
40.83554766935478
 30
0.0
  0
VERTEX
  5
22A
  8
0
 10
281.8802847374501
 20
40.76298058287958
 30
0.0
  0
VERTEX
  5
22B
  8
0
 10
282.0923158392913
 20
40.73024922155236
 30
0.0
  0
VERTEX
  5
22C
  8
0
 10
282.3020945019155
 20
40.69988644877728
 30
0.0
  0
VERTEX
  5
22D
  8
0
 10
282.5096029304369
 20
40.67189238905767
 30
0.0
  0
VERTEX
  5
22E
  8
0
 10
282.7148236229085
 20
40.64626698625288
 30
0.0
  0
VERTEX
  5
22F
  8
0
 10
282.9177393725657
 20
40.62301000369664
 30
0.0
  0
VERTEX
  5
230
  8
0
 10
283.1183332700558
 20
40.60212102433044
 30
0.0
  0
VERTEX
  5
231
  8
0
 10
283.3165887056498
 20
40.58359945085231
 30
0.0
  0
VERTEX
  5
232
  8
0
 10
283.5124893714404
 20
40.56744450588081
 30
0.0
  0
VERTEX
  5
233
  8
0
 10
283.7060192635221
 20
40.5536552321341
 30
0.0
  0
VERTEX
  5
234
  8
0
 10
283.8971626841569
 20
40.54223049262453
 30
0.0
  0
VERTEX
  5
235
  8
0
 10
284.0859042439237
 20
40.53316897086813
 30
0.0
  0
VERTEX
  5
236
  8
0
 10
284.2722288638519
 20
40.5264691711097
 30
0.0
  0
VERTEX
  5
237
  8
0
 10
284.456121777539
 20
40.52212941856277
 30
0.0
  0
VERTEX
  5
238
  8
0
 10
284.6375685332526
 20
40.52014785966513
 30
0.0
  0
VERTEX
  5
239
  8
0
 10
284.8165549960166
 20
40.52052246234932
 30
0.0
  0
VERTEX
  5
23A
  8
0
 10
284.9930673496808
 20
40.52325101632854
 30
0.0
  0
VERTEX
  5
23B
  8
0
 10
285.1670920989761
 20
40.52833113339774
 30
0.0
  0
VERTEX
  5
23C
  8
0
 10
285.3386160715526
 20
40.53576024774988
 30
0.0
  0
VERTEX
  5
23D
  8
0
 10
285.5076264200023
 20
40.54553561630759
 30
0.0
  0
VERTEX
  5
23E
  8
0
 10
285.6741106238665
 20
40.55765431906984
 30
0.0
  0
VERTEX
  5
23F
  8
0
 10
285.8380564916258
 20
40.57211325947407
 30
0.0
  0
VERTEX
  5
240
  8
0
 10
285.9994521626763
 20
40.58890916477341
 30
0.0
  0
VERTEX
  5
241
  8
0
 10
286.1582861092886
 20
40.6080385864292
 30
0.0
  0
VERTEX
  5
242
  8
0
 10
286.3145471385511
 20
40.62949790051866
 30
0.0
  0
VERTEX
  5
243
  8
0
 10
286.4682243942982
 20
40.65328330815802
 30
0.0
  0
VERTEX
  5
244
  8
0
 10
286.6193073590217
 20
40.67939083594054
 30
0.0
  0
VERTEX
  5
245
  8
0
 10
286.7677858557668
 20
40.70781633639015
 30
0.0
  0
VERTEX
  5
246
  8
0
 10
286.913650050013
 20
40.73855548842995
 30
0.0
  0
VERTEX
  5
247
  8
0
 10
287.0568904515372
 20
40.77160379786625
 30
0.0
  0
VERTEX
  5
248
  8
0
 10
287.1974979162636
 20
40.80695659788771
 30
0.0
  0
VERTEX
  5
249
  8
0
 10
287.3354636480952
 20
40.8446090495797
 30
0.0
  0
VERTEX
  5
24A
  8
0
 10
287.4707792007314
 20
40.88455614245394
 30
0.0
  0
VERTEX
  5
24B
  8
0
 10
287.6034364794686
 20
40.92679269499343
 30
0.0
  0
VERTEX
  5
24C
  8
0
 10
287.7334277429854
 20
40.97131335521241
 30
0.0
  0
VERTEX
  5
24D
  8
0
 10
287.8607456051123
 20
41.01811260123186
 30
0.0
  0
VERTEX
  5
24E
  8
0
 10
287.9853830365846
 20
41.06718474186994
 30
0.0
  0
VERTEX
  5
24F
  8
0
 10
288.1073333667804
 20
41.11852391724793
 30
0.0
  0
VERTEX
  5
250
  8
0
 10
288.2265902854423
 20
41.17212409941114
 30
0.0
  0
VERTEX
  5
251
  8
0
 10
288.3431478443837
 20
41.22797909296531
 30
0.0
  0
VERTEX
  5
252
  8
0
 10
288.4570004591784
 20
41.28608253572808
 30
0.0
  0
VERTEX
  5
253
  8
0
 10
288.5681429108351
 20
41.34642789939573
 30
0.0
  0
VERTEX
  5
254
  8
0
 10
288.6765703474563
 20
41.40900849022523
 30
0.0
  0
VERTEX
  5
255
  8
0
 10
288.78227828588
 20
41.47381744973138
 30
0.0
  0
VERTEX
  5
256
  8
0
 10
288.8852626133076
 20
41.54084775539941
 30
0.0
  0
VERTEX
  5
257
  8
0
 10
288.9855195889141
 20
41.61009222141254
 30
0.0
  0
VERTEX
  5
258
  8
0
 10
289.0830458454432
 20
41.68154349939502
 30
0.0
  0
VERTEX
  5
259
  8
0
 10
289.1778383907871
 20
41.75519407917024
 30
0.0
  0
VERTEX
  5
25A
  8
0
 10
289.2698946095494
 20
41.8310362895342
 30
0.0
  0
VERTEX
  5
25B
  8
0
 10
289.3592122645932
 20
41.90906229904412
 30
0.0
  0
VERTEX
  5
25C
  8
0
 10
289.4457894985725
 20
41.98926411682231
 30
0.0
  0
VERTEX
  5
25D
  8
0
 10
289.5296248354481
 20
42.07163359337535
 30
0.0
  0
VERTEX
  5
25E
  8
0
 10
289.6107171819881
 20
42.15616242142838
 30
0.0
  0
VERTEX
  5
25F
  8
0
 10
289.6890658292517
 20
42.24284213677477
 30
0.0
  0
VERTEX
  5
260
  8
0
 10
289.7646704540579
 20
42.33166411914084
 30
0.0
  0
VERTEX
  5
261
  8
0
 10
289.837531120438
 20
42.42261959306604
 30
0.0
  0
VERTEX
  5
262
  8
0
 10
289.9076482810724
 20
42.51569962879818
 30
0.0
  0
VERTEX
  5
263
  8
0
 10
289.9750227787115
 20
42.61089514320403
 30
0.0
  0
VERTEX
  5
264
  8
0
 10
290.0396558475805
 20
42.70819690069501
 30
0.0
  0
VERTEX
  5
265
  8
0
 10
290.1015491147692
 20
42.80759551416828
 30
0.0
  0
VERTEX
  5
266
  8
0
 10
290.1607046016048
 20
42.90908144596296
 30
0.0
  0
VERTEX
  5
267
  8
0
 10
290.21712472501
 20
43.0126450088316
 30
0.0
  0
VERTEX
  5
268
  8
0
 10
290.2708122988443
 20
43.11827636692693
 30
0.0
  0
VERTEX
  5
269
  8
0
 10
290.32177053523
 20
43.22596553680379
 30
0.0
  0
VERTEX
  5
26A
  8
0
 10
290.3700030458625
 20
43.33570238843633
 30
0.0
  0
VERTEX
  5
26B
  8
0
 10
290.4155138433041
 20
43.44747664625048
 30
0.0
  0
VERTEX
  5
26C
  8
0
 10
290.4583073422627
 20
43.56127789017153
 30
0.0
  0
VERTEX
  5
26D
  8
0
 10
290.4983883608545
 20
43.67709555668713
 30
0.0
  0
VERTEX
  5
26E
  8
0
 10
290.53576212185
 20
43.79491893992538
 30
0.0
  0
VERTEX
  5
26F
  8
0
 10
290.5704342539055
 20
43.91473719274817
 30
0.0
  0
VERTEX
  5
270
  8
0
 10
290.6024107927781
 20
44.03653932785987
 30
0.0
  0
VERTEX
  5
271
  8
0
 10
290.6316981825246
 20
44.16031421893116
 30
0.0
  0
VERTEX
  5
272
  8
0
 10
290.6583032766849
 20
44.28605060173803
 30
0.0
  0
VERTEX
  5
273
  8
0
 10
290.6822333394499
 20
44.41373707531623
 30
0.0
  0
VERTEX
  5
274
  8
0
 10
290.7034960468125
 20
44.54336210313073
 30
0.0
  0
VERTEX
  5
275
  8
0
 10
290.7220994877042
 20
44.67491401426055
 30
0.0
  0
VERTEX
  5
276
  8
0
 10
290.7380521651147
 20
44.80838100459881
 30
0.0
  0
VERTEX
  5
277
  8
0
 10
290.7513629971959
 20
44.94375113806796
 30
0.0
  0
VERTEX
  5
278
  8
0
 10
290.7620413183507
 20
45.08101234785029
 30
0.0
  0
VERTEX
  5
279
  8
0
 10
290.7700968803051
 20
45.2201524376337
 30
0.0
  0
VERTEX
  5
27A
  8
0
 10
290.7755398531652
 20
45.36115908287262
 30
0.0
  0
VERTEX
  5
27B
  8
0
 10
290.7783808264578
 20
45.50401983206429
 30
0.0
  0
VERTEX
  5
27C
  8
0
 10
290.7786308101553
 20
45.64872210804017
 30
0.0
  0
VERTEX
  5
27D
  8
0
 10
290.776301235685
 20
45.79525320927259
 30
0.0
  0
VERTEX
  5
27E
  8
0
 10
290.7714039569225
 20
45.94360031119678
 30
0.0
  0
VERTEX
  5
27F
  8
0
 10
290.7639512511692
 20
46.0937504675479
 30
0.0
  0
VERTEX
  5
280
  8
0
 10
290.7539558201135
 20
46.24569061171348
 30
0.0
  0
VERTEX
  5
281
  8
0
 10
290.7414307907772
 20
46.39940755810112
 30
0.0
  0
VERTEX
  5
282
  8
0
 10
290.726389716445
 20
46.55488800352128
 30
0.0
  0
VERTEX
  5
283
  8
0
 10
290.7088465775789
 20
46.71211852858537
 30
0.0
  0
VERTEX
  5
284
  8
0
 10
290.6888157827165
 20
46.87108559911916
 30
0.0
  0
VERTEX
  5
285
  8
0
 10
290.666312169353
 20
47.0317755675913
 30
0.0
  0
VERTEX
  5
286
  8
0
 10
290.6413510048088
 20
47.19417467455715
 30
0.0
  0
VERTEX
  5
287
  8
0
 10
290.613947987079
 20
47.35826905011784
 30
0.0
  0
VERTEX
  5
288
  8
0
 10
290.5841192456695
 20
47.52404471539453
 30
0.0
  0
VERTEX
  5
289
  8
0
 10
290.5518813424154
 20
47.69148758401796
 30
0.0
  0
VERTEX
  5
28A
  8
0
 10
290.5172512722845
 20
47.86058346363319
 30
0.0
  0
VERTEX
  5
28B
  8
0
 10
290.4408847816358
 20
48.20367696562605
 30
0.0
  0
VERTEX
  5
28C
  8
0
 10
290.3551644256463
 20
48.55320962096073
 30
0.0
  0
VERTEX
  5
28D
  8
0
 10
290.2602418351105
 20
48.90906423231819
 30
0.0
  0
VERTEX
  5
28E
  8
0
 10
290.1562756426123
 20
49.27112205630664
 30
0.0
  0
VERTEX
  5
28F
  8
0
 10
290.0434315044282
 20
49.63926285527052
 30
0.0
  0
VERTEX
  5
290
  8
0
 10
289.921882121418
 20
50.01336495007457
 30
0.0
  0
VERTEX
  5
291
  8
0
 10
289.7918072589014
 20
50.39330527386314
 30
0.0
  0
VERTEX
  5
292
  8
0
 10
289.6533937655207
 20
50.77895942679443
 30
0.0
  0
VERTEX
  5
293
  8
0
 10
289.5068355910911
 20
51.1702017317501
 30
0.0
  0
VERTEX
  5
294
  8
0
 10
289.3523338034363
 20
51.56690529101989
 30
0.0
  0
VERTEX
  5
295
  8
0
 10
289.1900966042105
 20
51.96894204396122
 30
0.0
  0
VERTEX
  5
296
  8
0
 10
289.0203393437081
 20
52.37618282563425
 30
0.0
  0
VERTEX
  5
297
  8
0
 10
288.8432845346586
 20
52.78849742641179
 30
0.0
  0
VERTEX
  5
298
  8
0
 10
288.6591618650079
 20
53.20575465256444
 30
0.0
  0
VERTEX
  5
299
  8
0
 10
288.4682082096875
 20
53.6278223878209
 30
0.0
  0
VERTEX
  5
29A
  8
0
 10
288.270667641368
 20
54.05456765590327
 30
0.0
  0
VERTEX
  5
29B
  8
0
 10
288.0667914402011
 20
54.48585668403766
 30
0.0
  0
VERTEX
  5
29C
  8
0
 10
287.8568381025465
 20
54.92155496743979
 30
0.0
  0
VERTEX
  5
29D
  8
0
 10
287.641073348686
 20
55.36152733477572
 30
0.0
  0
VERTEX
  5
29E
  8
0
 10
287.4197701295238
 20
55.80563801459785
 30
0.0
  0
VERTEX
  5
29F
  8
0
 10
287.1932086322736
 20
56.25375070275587
 30
0.0
  0
VERTEX
  5
2A0
  8
0
 10
286.9616762851311
 20
56.70572863078296
 30
0.0
  0
VERTEX
  5
2A1
  8
0
 10
286.7254677609349
 20
57.16143463525707
 30
0.0
  0
VERTEX
  5
2A2
  8
0
 10
286.4848849798113
 20
57.62073122813731
 30
0.0
  0
VERTEX
  5
2A3
  8
0
 10
285.9918405725113
 20
58.54954503270288
 30
0.0
  0
VERTEX
  5
2A4
  8
0
 10
285.4851034067066
 20
59.49106638199287
 30
0.0
  0
VERTEX
  5
2A5
  8
0
 10
284.9673497815583
 20
60.4441910849713
 30
0.0
  0
VERTEX
  5
2A6
  8
0
 10
283.910077501164
 20
62.38084574183848
 30
0.0
  0
VERTEX
  5
2A7
  8
0
 10
283.376490054923
 20
63.36218678444034
 30
0.0
  0
VERTEX
  5
2A8
  8
0
 10
282.8437480555852
 20
64.35075851497342
 30
0.0
  0
VERTEX
  5
2A9
  8
0
 10
282.3151048777054
 20
65.34549168363642
 30
0.0
  0
VERTEX
  5
2AA
  8
0
 10
282.0533683259491
 20
65.84483867633028
 30
0.0
  0
VERTEX
  5
2AB
  8
0
 10
281.7939283162345
 20
66.34533198252862
 30
0.0
  0
VERTEX
  5
2AC
  8
0
 10
281.5372236218886
 20
66.84684260727184
 30
0.0
  0
VERTEX
  5
2AD
  8
0
 10
281.2837001036003
 20
67.34924284248666
 30
0.0
  0
VERTEX
  5
2AE
  8
0
 10
281.0338106907823
 20
67.85240635780035
 30
0.0
  0
VERTEX
  5
2AF
  8
0
 10
280.7880153619188
 20
68.35620829232978
 30
0.0
  0
VERTEX
  5
2B0
  8
0
 10
280.5467811238994
 20
68.8605253474459
 30
0.0
  0
VERTEX
  5
2B1
  8
0
 10
280.3105819903399
 20
69.3652358805132
 30
0.0
  0
VERTEX
  5
2B2
  8
0
 10
280.0798989588891
 20
69.87021999960427
 30
0.0
  0
VERTEX
  5
2B3
  8
0
 10
279.8552199875227
 20
70.37535965918968
 30
0.0
  0
VERTEX
  5
2B4
  8
0
 10
279.6370399698228
 20
70.88053875680265
 30
0.0
  0
VERTEX
  5
2B5
  8
0
 10
279.4258607092443
 20
71.38564323067922
 30
0.0
  0
VERTEX
  5
2B6
  8
0
 10
279.2221908923681
 20
71.89056115837334
 30
0.0
  0
VERTEX
  5
2B7
  8
0
 10
279.0265460611399
 20
72.39518285634706
 30
0.0
  0
VERTEX
  5
2B8
  8
0
 10
278.9318959894552
 20
72.64734898001313
 30
0.0
  0
VERTEX
  5
2B9
  8
0
 10
278.8394485840959
 20
72.89940098053602
 30
0.0
  0
VERTEX
  5
2BA
  8
0
 10
278.7492702028966
 20
73.15132582210936
 30
0.0
  0
VERTEX
  5
2BB
  8
0
 10
278.6614276265751
 20
73.40311062788984
 30
0.0
  0
VERTEX
  5
2BC
  8
0
 10
278.5759880577458
 20
73.65474268322359
 30
0.0
  0
VERTEX
  5
2BD
  8
0
 10
278.4930191199177
 20
73.90620943888787
 30
0.0
  0
VERTEX
  5
2BE
  8
0
 10
278.4125888564764
 20
74.1574985143481
 30
0.0
  0
VERTEX
  5
2BF
  8
0
 10
278.3347657296502
 20
74.40859770102992
 30
0.0
  0
VERTEX
  5
2C0
  8
0
 10
278.2596186194605
 20
74.65949496560671
 30
0.0
  0
VERTEX
  5
2C1
  8
0
 10
278.1872168226565
 20
74.91017845330211
 30
0.0
  0
VERTEX
  5
2C2
  8
0
 10
278.1176300516336
 20
75.1606364912081
 30
0.0
  0
VERTEX
  5
2C3
  8
0
 10
278.0509284333363
 20
75.41085759161794
 30
0.0
  0
VERTEX
  5
2C4
  8
0
 10
277.9871825081453
 20
75.66083045537462
 30
0.0
  0
VERTEX
  5
2C5
  8
0
 10
277.9264632287486
 20
75.91054397523446
 30
0.0
  0
VERTEX
  5
2C6
  8
0
 10
277.8688419589971
 20
76.15998723924586
 30
0.0
  0
VERTEX
  5
2C7
  8
0
 10
277.8143904727434
 20
76.40914953414351
 30
0.0
  0
VERTEX
  5
2C8
  8
0
 10
277.7631809526663
 20
76.65802034875755
 30
0.0
  0
VERTEX
  5
2C9
  8
0
 10
277.715285989078
 20
76.90658937743817
 30
0.0
  0
VERTEX
  5
2CA
  8
0
 10
277.6707785787164
 20
77.15484652349545
 30
0.0
  0
VERTEX
  5
2CB
  8
0
 10
277.6297321235211
 20
77.40278190265427
 30
0.0
  0
VERTEX
  5
2CC
  8
0
 10
277.5922204293937
 20
77.6503858465246
 30
0.0
  0
VERTEX
  5
2CD
  8
0
 10
277.5583177049425
 20
77.89764890608703
 30
0.0
  0
VERTEX
  5
2CE
  8
0
 10
277.5280985602108
 20
78.1445618551934
 30
0.0
  0
VERTEX
  5
2CF
  8
0
 10
277.5016380053899
 20
78.39111569408291
 30
0.0
  0
VERTEX
  5
2D0
  8
0
 10
277.479011449516
 20
78.63730165291312
 30
0.0
  0
VERTEX
  5
2D1
  8
0
 10
277.4602946991516
 20
78.8831111953065
 30
0.0
  0
VERTEX
  5
2D2
  8
0
 10
277.4455639570501
 20
79.12853602191214
 30
0.0
  0
VERTEX
  5
2D3
  8
0
 10
277.4348958208059
 20
79.37356807398255
 30
0.0
  0
VERTEX
  5
2D4
  8
0
 10
277.4283672814879
 20
79.61819953696588
 30
0.0
  0
VERTEX
  5
2D5
  8
0
 10
277.4260557222569
 20
79.86242284411321
 30
0.0
  0
VERTEX
  5
2D6
  8
0
 10
277.4280389169682
 20
80.1062306801013
 30
0.0
  0
VERTEX
  5
2D7
  8
0
 10
277.4343950287569
 20
80.34961598467028
 30
0.0
  0
VERTEX
  5
2D8
  8
0
 10
277.4452026086087
 20
80.59257195627687
 30
0.0
  0
VERTEX
  5
2D9
  8
0
 10
277.4605405939144
 20
80.83509205576264
 30
0.0
  0
VERTEX
  5
2DA
  8
0
 10
277.480488307008
 20
81.07717001003758
 30
0.0
  0
VERTEX
  5
2DB
  8
0
 10
277.50512545369
 20
81.31879981577886
 30
0.0
  0
VERTEX
  5
2DC
  8
0
 10
277.534532121734
 20
81.55997574314496
 30
0.0
  0
VERTEX
  5
2DD
  8
0
 10
277.5687887793777
 20
81.80069233950485
 30
0.0
  0
VERTEX
  5
2DE
  8
0
 10
277.6079762737984
 20
82.0409444331825
 30
0.0
  0
VERTEX
  5
2DF
  8
0
 10
277.6521758295725
 20
82.2807271372167
 30
0.0
  0
VERTEX
  5
2E0
  8
0
 10
277.7014690471183
 20
82.52003585313591
 30
0.0
  0
VERTEX
  5
2E1
  8
0
 10
277.755937901125
 20
82.75886627474858
 30
0.0
  0
VERTEX
  5
2E2
  8
0
 10
277.8156647389634
 20
82.9972143919486
 30
0.0
  0
VERTEX
  5
2E3
  8
0
 10
277.8807322790827
 20
83.23507649453589
 30
0.0
  0
VERTEX
  5
2E4
  8
0
 10
277.9512236093904
 20
83.47244917605245
 30
0.0
  0
VERTEX
  5
2E5
  8
0
 10
278.0272221856166
 20
83.7093293376334
 30
0.0
  0
VERTEX
  5
2E6
  8
0
 10
278.1088118296631
 20
83.94571419187348
 30
0.0
  0
VERTEX
  5
2E7
  8
0
 10
278.1960767279353
 20
84.18160126670861
 30
0.0
  0
VERTEX
  5
2E8
  8
0
 10
278.2891014296598
 20
84.4169884093128
 30
0.0
  0
VERTEX
  5
2E9
  8
0
 10
278.3879708451849
 20
84.6518737900102
 30
0.0
  0
VERTEX
  5
2EA
  8
0
 10
278.4927702442664
 20
84.88625590620255
 30
0.0
  0
VERTEX
  5
2EB
  8
0
 10
278.6035852543361
 20
85.12013358631162
 30
0.0
  0
VERTEX
  5
2EC
  8
0
 10
278.7205018587562
 20
85.35350599373714
 30
0.0
  0
VERTEX
  5
2ED
  8
0
 10
278.8436063950565
 20
85.58637263082979
 30
0.0
  0
VERTEX
  5
2EE
  8
0
 10
278.9729855531564
 20
85.81873334287948
 30
0.0
  0
VERTEX
  5
2EF
  8
0
 10
279.1087263735708
 20
86.05058832211895
 30
0.0
  0
VERTEX
  5
2F0
  8
0
 10
279.2509162456005
 20
86.28193811174243
 30
0.0
  0
VERTEX
  5
2F1
  8
0
 10
279.3996429055062
 20
86.51278360993967
 30
0.0
  0
VERTEX
  5
2F2
  8
0
 10
279.5549944346674
 20
86.74312607394523
 30
0.0
  0
VERTEX
  5
2F3
  8
0
 10
279.7170592577248
 20
86.97296712410287
 30
0.0
  0
VERTEX
  5
2F4
  8
0
 10
279.8859261407072
 20
87.20230874794528
 30
0.0
  0
VERTEX
  5
2F5
  8
0
 10
280.0616841891426
 20
87.43115330428908
 30
0.0
  0
VERTEX
  5
2F6
  8
0
 10
280.2444228461532
 20
87.6595035273449
 30
0.0
  0
VERTEX
  5
2F7
  8
0
 10
280.4342318905347
 20
87.88736253084286
 30
0.0
  0
VERTEX
  5
2F8
  8
0
 10
280.63120143482
 20
88.1147338121732
 30
0.0
  0
VERTEX
  5
2F9
  8
0
 10
280.8354219233266
 20
88.34162125654218
 30
0.0
  0
VERTEX
  5
2FA
  8
0
 10
281.0469841301885
 20
88.5680291411432
 30
0.0
  0
VERTEX
  5
2FB
  8
0
 10
281.2659791573726
 20
88.79396213934314
 30
0.0
  0
VERTEX
  5
2FC
  8
0
 10
281.4924984326778
 20
89.01942532488395
 30
0.0
  0
VERTEX
  5
2FD
  8
0
 10
281.7266337077204
 20
89.24442417609956
 30
0.0
  0
VERTEX
  5
2FE
  8
0
 10
281.9684770559019
 20
89.46896458014783
 30
0.0
  0
VERTEX
  5
2FF
  8
0
 10
282.2181208703618
 20
89.69305283725797
 30
0.0
  0
VERTEX
  5
300
  8
0
 10
282.4756578619146
 20
89.916695664993
 30
0.0
  0
VERTEX
  5
301
  8
0
 10
282.7411810569703
 20
90.13990020252758
 30
0.0
  0
VERTEX
  5
302
  8
0
 10
283.0147837954399
 20
90.362674014941
 30
0.0
  0
VERTEX
  5
303
  8
0
 10
283.2965597286247
 20
90.58502509752543
 30
0.0
  0
VERTEX
  5
304
  8
0
 10
283.5866028170893
 20
90.8069618801094
 30
0.0
  0
VERTEX
  5
305
  8
0
 10
283.8850073285198
 20
91.02849323139654
 30
0.0
  0
VERTEX
  5
306
  8
0
 10
284.1918678355649
 20
91.24962846331954
 30
0.0
  0
VERTEX
  5
307
  8
0
 10
284.5072792136626
 20
91.47037733540938
 30
0.0
  0
SEQEND
  5
308
  8
0
  0
POLYLINE
  5
84
  8
0
 66
     1
 10
0.0
 20
0.0
 30
0.0
 70
     1
  0
VERTEX
  5
309
  8
0
 10
358.5586761616212
 20
91.47211734434558
 30
0.0
  0
VERTEX
  5
30A
  8
0
 10
358.5395905930703
 20
91.19610283359097
 30
0.0
  0
VERTEX
  5
30B
  8
0
 10
358.5173754168326
 20
90.91923705268354
 30
0.0
  0
VERTEX
  5
30C
  8
0
 10
358.4920249276888
 20
90.6415339049147
 30
0.0
  0
VERTEX
  5
30D
  8
0
 10
358.4635340526502
 20
90.36300748373233
 30
0.0
  0
VERTEX
  5
30E
  8
0
 10
358.4318983451029
 20
90.08367206938519
 30
0.0
  0
VERTEX
  5
30F
  8
0
 10
358.397113978969
 20
89.80354212558231
 30
0.0
  0
VERTEX
  5
310
  8
0
 10
358.3591777428825
 20
89.52263229616813
 30
0.0
  0
VERTEX
  5
311
  8
0
 10
358.3180870343819
 20
89.24095740181227
 30
0.0
  0
VERTEX
  5
312
  8
0
 10
358.2738398541182
 20
88.95853243671499
 30
0.0
  0
VERTEX
  5
313
  8
0
 10
358.2264348000788
 20
88.6753725653277
 30
0.0
  0
VERTEX
  5
314
  8
0
 10
358.1758710618273
 20
88.39149311908872
 30
0.0
  0
VERTEX
  5
315
  8
0
 10
358.1221484147592
 20
88.10690959317427
 30
0.0
  0
VERTEX
  5
316
  8
0
 10
358.0652672143732
 20
87.82163764326475
 30
0.0
  0
VERTEX
  5
317
  8
0
 10
358.0052283905586
 20
87.53569308232619
 30
0.0
  0
VERTEX
  5
318
  8
0
 10
357.9420334418982
 20
87.24909187740698
 30
0.0
  0
VERTEX
  5
319
  8
0
 10
357.8756844299875
 20
86.96185014644982
 30
0.0
  0
VERTEX
  5
31A
  8
0
 10
357.8061839737696
 20
86.67398415511894
 30
0.0
  0
VERTEX
  5
31B
  8
0
 10
357.7335352438856
 20
86.3855103136425
 30
0.0
  0
VERTEX
  5
31C
  8
0
 10
357.6577419570409
 20
86.09644517367022
 30
0.0
  0
VERTEX
  5
31D
  8
0
 10
357.5788083703878
 20
85.80680542514634
 30
0.0
  0
VERTEX
  5
31E
  8
0
 10
357.4967392759238
 20
85.51660789319774
 30
0.0
  0
VERTEX
  5
31F
  8
0
 10
357.4115399949051
 20
85.2258695350373
 30
0.0
  0
VERTEX
  5
320
  8
0
 10
357.3232163722768
 20
84.93460743688252
 30
0.0
  0
VERTEX
  5
321
  8
0
 10
357.2317747711184
 20
84.64283881088926
 30
0.0
  0
VERTEX
  5
322
  8
0
 10
357.1372220671051
 20
84.35058099210107
 30
0.0
  0
VERTEX
  5
323
  8
0
 10
357.0395656429857
 20
84.05785143541326
 30
0.0
  0
VERTEX
  5
324
  8
0
 10
356.9388133830751
 20
83.76466771255255
 30
0.0
  0
VERTEX
  5
325
  8
0
 10
356.8349736677638
 20
83.47104750907192
 30
0.0
  0
VERTEX
  5
326
  8
0
 10
356.7280553680424
 20
83.1770086213605
 30
0.0
  0
VERTEX
  5
327
  8
0
 10
356.6180678400425
 20
82.88256895366897
 30
0.0
  0
VERTEX
  5
328
  8
0
 10
356.5050209195931
 20
82.58774651514995
 30
0.0
  0
VERTEX
  5
329
  8
0
 10
356.3889249167928
 20
82.29255941691383
 30
0.0
  0
VERTEX
  5
32A
  8
0
 10
356.2697906105985
 20
81.99702586909967
 30
0.0
  0
VERTEX
  5
32B
  8
0
 10
356.1476292434289
 20
81.70116417796143
 30
0.0
  0
VERTEX
  5
32C
  8
0
 10
356.0224525157846
 20
81.40499274296948
 30
0.0
  0
VERTEX
  5
32D
  8
0
 10
355.8942725808834
 20
81.10853005392713
 30
0.0
  0
VERTEX
  5
32E
  8
0
 10
355.7631020393127
 20
80.81179468810271
 30
0.0
  0
VERTEX
  5
32F
  8
0
 10
355.628953933696
 20
80.51480530737663
 30
0.0
  0
VERTEX
  5
330
  8
0
 10
355.4918417433767
 20
80.21758065540376
 30
0.0
  0
VERTEX
  5
331
  8
0
 10
355.3517793791164
 20
79.92013955479118
 30
0.0
  0
VERTEX
  5
332
  8
0
 10
355.2087811778109
 20
79.62250090429089
 30
0.0
  0
VERTEX
  5
333
  8
0
 10
355.0628618972198
 20
79.324683676008
 30
0.0
  0
VERTEX
  5
334
  8
0
 10
354.9140367107138
 20
79.02670691262398
 30
0.0
  0
VERTEX
  5
335
  8
0
 10
354.7623212020369
 20
78.72858972463541
 30
0.0
  0
VERTEX
  5
336
  8
0
 10
354.6077313600842
 20
78.43035128760758
 30
0.0
  0
VERTEX
  5
337
  8
0
 10
354.4502835736968
 20
78.13201083944364
 30
0.0
  0
VERTEX
  5
338
  8
0
 10
354.2899946264709
 20
77.8335876776689
 30
0.0
  0
VERTEX
  5
339
  8
0
 10
354.1268816915839
 20
77.53510115673026
 30
0.0
  0
VERTEX
  5
33A
  8
0
 10
353.960962326636
 20
77.23657068531114
 30
0.0
  0
VERTEX
  5
33B
  8
0
 10
353.7922544685078
 20
76.93801572366124
 30
0.0
  0
VERTEX
  5
33C
  8
0
 10
353.6207764282329
 20
76.63945578094192
 30
0.0
  0
VERTEX
  5
33D
  8
0
 10
353.4465468858876
 20
76.3409104125866
 30
0.0
  0
VERTEX
  5
33E
  8
0
 10
353.2695848854958
 20
76.04239921767649
 30
0.0
  0
VERTEX
  5
33F
  8
0
 10
353.0899098299491
 20
75.74394183633152
 30
0.0
  0
VERTEX
  5
340
  8
0
 10
352.9075414759443
 20
75.44555794711658
 30
0.0
  0
VERTEX
  5
341
  8
0
 10
352.7224999289354
 20
75.14726726446278
 30
0.0
  0
VERTEX
  5
342
  8
0
 10
352.5348056381017
 20
74.84908953610417
 30
0.0
  0
VERTEX
  5
343
  8
0
 10
352.3444793913321
 20
74.55104454052966
 30
0.0
  0
VERTEX
  5
344
  8
0
 10
352.1515423102252
 20
74.25315208445011
 30
0.0
  0
VERTEX
  5
345
  8
0
 10
351.9560158451048
 20
73.95543200028067
 30
0.0
  0
VERTEX
  5
346
  8
0
 10
351.7579217700517
 20
73.65790414363838
 30
0.0
  0
VERTEX
  5
347
  8
0
 10
351.5572821779511
 20
73.36058839085501
 30
0.0
  0
VERTEX
  5
348
  8
0
 10
351.3541194755558
 20
73.06350463650506
 30
0.0
  0
VERTEX
  5
349
  8
0
 10
351.1484563785656
 20
72.76667279094917
 30
0.0
  0
VERTEX
  5
34A
  8
0
 10
350.9403159067219
 20
72.47011277789261
 30
0.0
  0
VERTEX
  5
34B
  8
0
 10
350.7297213789187
 20
72.17384453195899
 30
0.0
  0
VERTEX
  5
34C
  8
0
 10
350.5166964083295
 20
71.87788799627933
 30
0.0
  0
VERTEX
  5
34D
  8
0
 10
350.3012648975492
 20
71.58226312009631
 30
0.0
  0
VERTEX
  5
34E
  8
0
 10
350.0834510337529
 20
71.28698985638377
 30
0.0
  0
VERTEX
  5
34F
  8
0
 10
349.8632792838697
 20
70.99208815948131
 30
0.0
  0
VERTEX
  5
350
  8
0
 10
349.6407743897731
 20
70.6975779827444
 30
0.0
  0
VERTEX
  5
351
  8
0
 10
349.4159613634864
 20
70.40347927620948
 30
0.0
  0
VERTEX
  5
352
  8
0
 10
349.1888654824048
 20
70.10981198427442
 30
0.0
  0
VERTEX
  5
353
  8
0
 10
348.9595122845323
 20
69.81659604339416
 30
0.0
  0
VERTEX
  5
354
  8
0
 10
348.7279275637356
 20
69.52385137979158
 30
0.0
  0
VERTEX
  5
355
  8
0
 10
348.4941373650131
 20
69.23159790718378
 30
0.0
  0
VERTEX
  5
356
  8
0
 10
348.2581679797798
 20
68.93985552452327
 30
0.0
  0
VERTEX
  5
357
  8
0
 10
348.0200459411682
 20
68.64864411375467
 30
0.0
  0
VERTEX
  5
358
  8
0
 10
347.5374512168436
 20
68.06789363727859
 30
0.0
  0
VERTEX
  5
359
  8
0
 10
347.0465701138801
 20
67.48950510886573
 30
0.0
  0
VERTEX
  5
35A
  8
0
 10
346.547623123513
 20
66.9136367464825
 30
0.0
  0
VERTEX
  5
35B
  8
0
 10
346.0408341587876
 20
66.34044628584482
 30
0.0
  0
VERTEX
  5
35C
  8
0
 10
345.5264304079863
 20
65.77009091228618
 30
0.0
  0
VERTEX
  5
35D
  8
0
 10
345.0046421890706
 20
65.2027271936011
 30
0.0
  0
VERTEX
  5
35E
  8
0
 10
344.4757028051363
 20
64.63851101386356
 30
0.0
  0
VERTEX
  5
35F
  8
0
 10
343.9398484008817
 20
64.07759750822066
 30
0.0
  0
VERTEX
  5
360
  8
0
 10
343.3973178200899
 20
63.5201409986613
 30
0.0
  0
VERTEX
  5
361
  8
0
 10
342.8483524641251
 20
62.96629493076006
 30
0.0
  0
VERTEX
  5
362
  8
0
 10
342.2931961514412
 20
62.4162118113963
 30
0.0
  0
VERTEX
  5
363
  8
0
 10
341.7320949781052
 20
61.87004314744809
 30
0.0
  0
VERTEX
  5
364
  8
0
 10
341.1652971793337
 20
61.32793938546158
 30
0.0
  0
VERTEX
  5
365
  8
0
 10
340.5930529920423
 20
60.7900498522954
 30
0.0
  0
VERTEX
  5
366
  8
0
 10
340.0156145184101
 20
60.25652269674011
 30
0.0
  0
VERTEX
  5
367
  8
0
 10
339.433235590456
 20
59.72750483211285
 30
0.0
  0
VERTEX
  5
368
  8
0
 10
338.8461716356301
 20
59.20314187982709
 30
0.0
  0
VERTEX
  5
369
  8
0
 10
338.2546795434175
 20
58.68357811393759
 30
0.0
  0
VERTEX
  5
36A
  8
0
 10
337.6590175329564
 20
58.16895640666032
 30
0.0
  0
VERTEX
  5
36B
  8
0
 10
337.0594450216695
 20
57.65941817486769
 30
0.0
  0
VERTEX
  5
36C
  8
0
 10
336.4562224949087
 20
57.15510332755873
 30
0.0
  0
VERTEX
  5
36D
  8
0
 10
335.849611376614
 20
56.65615021430462
 30
0.0
  0
VERTEX
  5
36E
  8
0
 10
335.2398739009853
 20
56.16269557466914
 30
0.0
  0
VERTEX
  5
36F
  8
0
 10
334.6272729851684
 20
55.67487448860431
 30
0.0
  0
VERTEX
  5
370
  8
0
 10
334.0120721029536
 20
55.19282032782127
 30
0.0
  0
VERTEX
  5
371
  8
0
 10
333.3945351594892
 20
54.71666470813611
 30
0.0
  0
VERTEX
  5
372
  8
0
 10
332.7749263670074
 20
54.24653744279091
 30
0.0
  0
VERTEX
  5
373
  8
0
 10
332.1535101215644
 20
53.78256649674999
 30
0.0
  0
VERTEX
  5
374
  8
0
 10
331.5305508807936
 20
53.32487794197115
 30
0.0
  0
VERTEX
  5
375
  8
0
 10
330.9063130426732
 20
52.87359591365215
 30
0.0
  0
VERTEX
  5
376
  8
0
 10
330.2810608253059
 20
52.42884256745214
 30
0.0
  0
VERTEX
  5
377
  8
0
 10
329.655058147714
 20
51.99073803768854
 30
0.0
  0
VERTEX
  5
378
  8
0
 10
329.0285685116467
 20
51.55940039650869
 30
0.0
  0
VERTEX
  5
379
  8
0
 10
328.4018548844012
 20
51.13494561403682
 30
0.0
  0
VERTEX
  5
37A
  8
0
 10
327.7751795826576
 20
50.71748751949622
 30
0.0
  0
VERTEX
  5
37B
  8
0
 10
327.148804157328
 20
50.30713776330629
 30
0.0
  0
VERTEX
  5
37C
  8
0
 10
326.5229892794173
 20
49.90400578015501
 30
0.0
  0
VERTEX
  5
37D
  8
0
 10
325.8979946268997
 20
49.50819875304627
 30
0.0
  0
VERTEX
  5
37E
  8
0
 10
325.2740787726074
 20
49.11982157832249
 30
0.0
  0
VERTEX
  5
37F
  8
0
 10
324.6514990731333
 20
48.73897683166238
 30
0.0
  0
VERTEX
  5
380
  8
0
 10
324.0305115587473
 20
48.36576473505374
 30
0.0
  0
VERTEX
  5
381
  8
0
 10
323.4113708243259
 20
48.00028312474137
 30
0.0
  0
VERTEX
  5
382
  8
0
 10
322.7943299212957
 20
47.64262742015028
 30
0.0
  0
VERTEX
  5
383
  8
0
 10
322.1796402505903
 20
47.29289059378379
 30
0.0
  0
VERTEX
  5
384
  8
0
 10
321.567551456621
 20
46.95116314209699
 30
0.0
  0
VERTEX
  5
385
  8
0
 10
320.9583113222602
 20
46.61753305734513
 30
0.0
  0
VERTEX
  5
386
  8
0
 10
320.3521656648397
 20
46.29208580040728
 30
0.0
  0
VERTEX
  5
387
  8
0
 10
319.7493582331614
 20
45.97490427458502
 30
0.0
  0
VERTEX
  5
388
  8
0
 10
319.1501306055225
 20
45.66606880037635
 30
0.0
  0
VERTEX
  5
389
  8
0
 10
318.554722088753
 20
45.36565709122464
 30
0.0
  0
VERTEX
  5
38A
  8
0
 10
317.9633696182684
 20
45.07374423024276
 30
0.0
  0
VERTEX
  5
38B
  8
0
 10
317.3763076591348
 20
44.79040264791234
 30
0.0
  0
VERTEX
  5
38C
  8
0
 10
316.7937681081476
 20
44.51570210075815
 30
0.0
  0
VERTEX
  5
38D
  8
0
 10
316.2159801969242
 20
44.24970965099756
 30
0.0
  0
VERTEX
  5
38E
  8
0
 10
315.6431703960108
 20
43.9924896471652
 30
0.0
  0
VERTEX
  5
38F
  8
0
 10
315.0755623200006
 20
43.74410370571271
 30
0.0
  0
VERTEX
  5
390
  8
0
 10
314.5133766336685
 20
43.50461069358365
 30
0.0
  0
VERTEX
  5
391
  8
0
 10
313.956830959117
 20
43.27406671176348
 30
0.0
  0
VERTEX
  5
392
  8
0
 10
313.406139783937
 20
43.05252507980472
 30
0.0
  0
VERTEX
  5
393
  8
0
 10
312.8615143703813
 20
42.84003632132723
 30
0.0
  0
VERTEX
  5
394
  8
0
 10
312.3231626655525
 20
42.63664815049357
 30
0.0
  0
VERTEX
  5
395
  8
0
 10
311.7912892126039
 20
42.44240545945961
 30
0.0
  0
VERTEX
  5
396
  8
0
 10
311.2660950629541
 20
42.25735030680006
 30
0.0
  0
VERTEX
  5
397
  8
0
 10
310.7477776895149
 20
42.08152190690936
 30
0.0
  0
VERTEX
  5
398
  8
0
 10
310.2365309009336
 20
41.91495662037757
 30
0.0
  0
VERTEX
  5
399
  8
0
 10
309.7325447568478
 20
41.75768794534132
 30
0.0
  0
VERTEX
  5
39A
  8
0
 10
309.2360054841545
 20
41.60974650981015
 30
0.0
  0
VERTEX
  5
39B
  8
0
 10
308.7470953942924
 20
41.47116006496764
 30
0.0
  0
VERTEX
  5
39C
  8
0
 10
308.265992801538
 20
41.34195347944791
 30
0.0
  0
VERTEX
  5
39D
  8
0
 10
307.7928719423151
 20
41.22214873458716
 30
0.0
  0
VERTEX
  5
39E
  8
0
 10
307.3279028955179
 20
41.11176492065037
 30
0.0
  0
VERTEX
  5
39F
  8
0
 10
306.8712515038476
 20
41.01081823403306
 30
0.0
  0
VERTEX
  5
3A0
  8
0
 10
306.4230792961628
 20
40.91932197543826
 30
0.0
  0
VERTEX
  5
3A1
  8
0
 10
305.9835434108433
 20
40.83728654902858
 30
0.0
  0
VERTEX
  5
3A2
  8
0
 10
305.552796520167
 20
40.76471946255338
 30
0.0
  0
VERTEX
  5
3A3
  8
0
 10
305.3407654183258
 20
40.73198810122616
 30
0.0
  0
VERTEX
  5
3A4
  8
0
 10
305.1309867557017
 20
40.70162532845109
 30
0.0
  0
VERTEX
  5
3A5
  8
0
 10
304.9234783271802
 20
40.67363126873148
 30
0.0
  0
VERTEX
  5
3A6
  8
0
 10
304.7182576347087
 20
40.64800586592668
 30
0.0
  0
VERTEX
  5
3A7
  8
0
 10
304.5153418850514
 20
40.62474888337044
 30
0.0
  0
VERTEX
  5
3A8
  8
0
 10
304.3147479875614
 20
40.60385990400424
 30
0.0
  0
VERTEX
  5
3A9
  8
0
 10
304.1164925519673
 20
40.58533833052611
 30
0.0
  0
VERTEX
  5
3AA
  8
0
 10
303.9205918861767
 20
40.56918338555461
 30
0.0
  0
VERTEX
  5
3AB
  8
0
 10
303.727061994095
 20
40.55539411180791
 30
0.0
  0
VERTEX
  5
3AC
  8
0
 10
303.5359185734603
 20
40.54396937229833
 30
0.0
  0
VERTEX
  5
3AD
  8
0
 10
303.3471770136935
 20
40.53490785054193
 30
0.0
  0
VERTEX
  5
3AE
  8
0
 10
303.1608523937653
 20
40.5282080507835
 30
0.0
  0
VERTEX
  5
3AF
  8
0
 10
302.9769594800781
 20
40.52386829823657
 30
0.0
  0
VERTEX
  5
3B0
  8
0
 10
302.7955127243645
 20
40.52188673933893
 30
0.0
  0
VERTEX
  5
3B1
  8
0
 10
302.6165262616005
 20
40.52226134202312
 30
0.0
  0
VERTEX
  5
3B2
  8
0
 10
302.4400139079364
 20
40.52498989600235
 30
0.0
  0
VERTEX
  5
3B3
  8
0
 10
302.265989158641
 20
40.53007001307154
 30
0.0
  0
VERTEX
  5
3B4
  8
0
 10
302.0944651860646
 20
40.53749912742369
 30
0.0
  0
VERTEX
  5
3B5
  8
0
 10
301.9254548376148
 20
40.54727449598139
 30
0.0
  0
VERTEX
  5
3B6
  8
0
 10
301.7589706337507
 20
40.55939319874364
 30
0.0
  0
VERTEX
  5
3B7
  8
0
 10
301.5950247659914
 20
40.57385213914787
 30
0.0
  0
VERTEX
  5
3B8
  8
0
 10
301.4336290949408
 20
40.59064804444721
 30
0.0
  0
VERTEX
  5
3B9
  8
0
 10
301.2747951483286
 20
40.609777466103
 30
0.0
  0
VERTEX
  5
3BA
  8
0
 10
301.118534119066
 20
40.63123678019246
 30
0.0
  0
VERTEX
  5
3BB
  8
0
 10
300.9648568633189
 20
40.65502218783182
 30
0.0
  0
VERTEX
  5
3BC
  8
0
 10
300.8137738985955
 20
40.68112971561435
 30
0.0
  0
VERTEX
  5
3BD
  8
0
 10
300.6652954018503
 20
40.70955521606395
 30
0.0
  0
VERTEX
  5
3BE
  8
0
 10
300.5194312076042
 20
40.74029436810375
 30
0.0
  0
VERTEX
  5
3BF
  8
0
 10
300.3761908060799
 20
40.77334267754005
 30
0.0
  0
VERTEX
  5
3C0
  8
0
 10
300.2355833413535
 20
40.80869547756151
 30
0.0
  0
VERTEX
  5
3C1
  8
0
 10
300.0976176095219
 20
40.8463479292535
 30
0.0
  0
VERTEX
  5
3C2
  8
0
 10
299.9623020568857
 20
40.88629502212774
 30
0.0
  0
VERTEX
  5
3C3
  8
0
 10
299.8296447781485
 20
40.92853157466723
 30
0.0
  0
VERTEX
  5
3C4
  8
0
 10
299.6996535146317
 20
40.97305223488621
 30
0.0
  0
VERTEX
  5
3C5
  8
0
 10
299.5723356525048
 20
41.01985148090566
 30
0.0
  0
VERTEX
  5
3C6
  8
0
 10
299.4476982210325
 20
41.06892362154375
 30
0.0
  0
VERTEX
  5
3C7
  8
0
 10
299.3257478908367
 20
41.12026279692174
 30
0.0
  0
VERTEX
  5
3C8
  8
0
 10
299.2064909721748
 20
41.17386297908494
 30
0.0
  0
VERTEX
  5
3C9
  8
0
 10
299.0899334132334
 20
41.22971797263911
 30
0.0
  0
VERTEX
  5
3CA
  8
0
 10
298.9760807984387
 20
41.28782141540188
 30
0.0
  0
VERTEX
  5
3CB
  8
0
 10
298.864938346782
 20
41.34816677906953
 30
0.0
  0
VERTEX
  5
3CC
  8
0
 10
298.7565109101608
 20
41.41074736989903
 30
0.0
  0
VERTEX
  5
3CD
  8
0
 10
298.6508029717371
 20
41.47555632940519
 30
0.0
  0
VERTEX
  5
3CE
  8
0
 10
298.5478186443095
 20
41.54258663507321
 30
0.0
  0
VERTEX
  5
3CF
  8
0
 10
298.447561668703
 20
41.61183110108635
 30
0.0
  0
VERTEX
  5
3D0
  8
0
 10
298.350035412174
 20
41.68328237906882
 30
0.0
  0
VERTEX
  5
3D1
  8
0
 10
298.25524286683
 20
41.75693295884405
 30
0.0
  0
VERTEX
  5
3D2
  8
0
 10
298.1631866480677
 20
41.83277516920801
 30
0.0
  0
VERTEX
  5
3D3
  8
0
 10
298.0738689930239
 20
41.91080117871793
 30
0.0
  0
VERTEX
  5
3D4
  8
0
 10
297.9872917590446
 20
41.99100299649611
 30
0.0
  0
VERTEX
  5
3D5
  8
0
 10
297.903456422169
 20
42.07337247304915
 30
0.0
  0
VERTEX
  5
3D6
  8
0
 10
297.822364075629
 20
42.15790130110219
 30
0.0
  0
VERTEX
  5
3D7
  8
0
 10
297.7440154283655
 20
42.24458101644857
 30
0.0
  0
VERTEX
  5
3D8
  8
0
 10
297.6684108035593
 20
42.33340299881464
 30
0.0
  0
VERTEX
  5
3D9
  8
0
 10
297.5955501371791
 20
42.42435847273984
 30
0.0
  0
VERTEX
  5
3DA
  8
0
 10
297.5254329765447
 20
42.51743850847198
 30
0.0
  0
VERTEX
  5
3DB
  8
0
 10
297.4580584789056
 20
42.61263402287783
 30
0.0
  0
VERTEX
  5
3DC
  8
0
 10
297.3934254100366
 20
42.70993578036881
 30
0.0
  0
VERTEX
  5
3DD
  8
0
 10
297.3315321428479
 20
42.80933439384208
 30
0.0
  0
VERTEX
  5
3DE
  8
0
 10
297.2723766560123
 20
42.91082032563676
 30
0.0
  0
VERTEX
  5
3DF
  8
0
 10
297.2159565326071
 20
43.01438388850541
 30
0.0
  0
VERTEX
  5
3E0
  8
0
 10
297.1622689587728
 20
43.12001524660074
 30
0.0
  0
VERTEX
  5
3E1
  8
0
 10
297.1113107223871
 20
43.22770441647759
 30
0.0
  0
VERTEX
  5
3E2
  8
0
 10
297.0630782117547
 20
43.33744126811013
 30
0.0
  0
VERTEX
  5
3E3
  8
0
 10
297.017567414313
 20
43.44921552592428
 30
0.0
  0
VERTEX
  5
3E4
  8
0
 10
296.9747739153544
 20
43.56301676984533
 30
0.0
  0
VERTEX
  5
3E5
  8
0
 10
296.9346928967626
 20
43.67883443636093
 30
0.0
  0
VERTEX
  5
3E6
  8
0
 10
296.8973191357671
 20
43.79665781959918
 30
0.0
  0
VERTEX
  5
3E7
  8
0
 10
296.8626470037116
 20
43.91647607242197
 30
0.0
  0
VERTEX
  5
3E8
  8
0
 10
296.830670464839
 20
44.03827820753367
 30
0.0
  0
VERTEX
  5
3E9
  8
0
 10
296.8013830750925
 20
44.16205309860496
 30
0.0
  0
VERTEX
  5
3EA
  8
0
 10
296.7747779809322
 20
44.28778948141183
 30
0.0
  0
VERTEX
  5
3EB
  8
0
 10
296.7508479181673
 20
44.41547595499003
 30
0.0
  0
VERTEX
  5
3EC
  8
0
 10
296.7295852108046
 20
44.54510098280453
 30
0.0
  0
VERTEX
  5
3ED
  8
0
 10
296.7109817699129
 20
44.67665289393435
 30
0.0
  0
VERTEX
  5
3EE
  8
0
 10
296.6950290925024
 20
44.81011988427261
 30
0.0
  0
VERTEX
  5
3EF
  8
0
 10
296.6817182604212
 20
44.94549001774176
 30
0.0
  0
VERTEX
  5
3F0
  8
0
 10
296.6710399392664
 20
45.08275122752409
 30
0.0
  0
VERTEX
  5
3F1
  8
0
 10
296.662984377312
 20
45.2218913173075
 30
0.0
  0
VERTEX
  5
3F2
  8
0
 10
296.6575414044519
 20
45.36289796254642
 30
0.0
  0
VERTEX
  5
3F3
  8
0
 10
296.6547004311593
 20
45.5057587117381
 30
0.0
  0
VERTEX
  5
3F4
  8
0
 10
296.6544504474618
 20
45.65046098771397
 30
0.0
  0
VERTEX
  5
3F5
  8
0
 10
296.6567800219321
 20
45.7969920889464
 30
0.0
  0
VERTEX
  5
3F6
  8
0
 10
296.6616773006946
 20
45.94533919087058
 30
0.0
  0
VERTEX
  5
3F7
  8
0
 10
296.6691300064479
 20
46.0954893472217
 30
0.0
  0
VERTEX
  5
3F8
  8
0
 10
296.6791254375036
 20
46.24742949138729
 30
0.0
  0
VERTEX
  5
3F9
  8
0
 10
296.6916504668399
 20
46.40114643777493
 30
0.0
  0
VERTEX
  5
3FA
  8
0
 10
296.7066915411721
 20
46.55662688319508
 30
0.0
  0
VERTEX
  5
3FB
  8
0
 10
296.7242346800382
 20
46.71385740825917
 30
0.0
  0
VERTEX
  5
3FC
  8
0
 10
296.7442654749007
 20
46.87282447879296
 30
0.0
  0
VERTEX
  5
3FD
  8
0
 10
296.7667690882641
 20
47.0335144472651
 30
0.0
  0
VERTEX
  5
3FE
  8
0
 10
296.7917302528083
 20
47.19591355423096
 30
0.0
  0
VERTEX
  5
3FF
  8
0
 10
296.8191332705381
 20
47.36000792979164
 30
0.0
  0
VERTEX
  5
400
  8
0
 10
296.8489620119476
 20
47.52578359506833
 30
0.0
  0
VERTEX
  5
401
  8
0
 10
296.8811999152017
 20
47.69322646369177
 30
0.0
  0
VERTEX
  5
402
  8
0
 10
296.9158299853326
 20
47.86232234330699
 30
0.0
  0
VERTEX
  5
403
  8
0
 10
296.9921964759814
 20
48.20541584529985
 30
0.0
  0
VERTEX
  5
404
  8
0
 10
297.0779168319709
 20
48.55494850063453
 30
0.0
  0
VERTEX
  5
405
  8
0
 10
297.1728394225066
 20
48.910803111992
 30
0.0
  0
VERTEX
  5
406
  8
0
 10
297.2768056150048
 20
49.27286093598044
 30
0.0
  0
VERTEX
  5
407
  8
0
 10
297.3896497531889
 20
49.64100173494432
 30
0.0
  0
VERTEX
  5
408
  8
0
 10
297.5111991361991
 20
50.01510382974838
 30
0.0
  0
VERTEX
  5
409
  8
0
 10
297.6412739987157
 20
50.39504415353694
 30
0.0
  0
VERTEX
  5
40A
  8
0
 10
297.7796874920964
 20
50.78069830646823
 30
0.0
  0
VERTEX
  5
40B
  8
0
 10
297.926245666526
 20
51.17194061142391
 30
0.0
  0
VERTEX
  5
40C
  8
0
 10
298.0807474541808
 20
51.56864417069369
 30
0.0
  0
VERTEX
  5
40D
  8
0
 10
298.2429846534066
 20
51.97068092363502
 30
0.0
  0
VERTEX
  5
40E
  8
0
 10
298.412741913909
 20
52.37792170530805
 30
0.0
  0
VERTEX
  5
40F
  8
0
 10
298.5897967229586
 20
52.79023630608559
 30
0.0
  0
VERTEX
  5
410
  8
0
 10
298.7739193926092
 20
53.20749353223824
 30
0.0
  0
VERTEX
  5
411
  8
0
 10
298.9648730479296
 20
53.6295612674947
 30
0.0
  0
VERTEX
  5
412
  8
0
 10
299.1624136162491
 20
54.05630653557707
 30
0.0
  0
VERTEX
  5
413
  8
0
 10
299.366289817416
 20
54.48759556371147
 30
0.0
  0
VERTEX
  5
414
  8
0
 10
299.5762431550706
 20
54.92329384711359
 30
0.0
  0
VERTEX
  5
415
  8
0
 10
299.7920079089311
 20
55.36326621444952
 30
0.0
  0
VERTEX
  5
416
  8
0
 10
300.0133111280933
 20
55.80737689427165
 30
0.0
  0
VERTEX
  5
417
  8
0
 10
300.2398726253435
 20
56.25548958242967
 30
0.0
  0
VERTEX
  5
418
  8
0
 10
300.471404972486
 20
56.70746751045676
 30
0.0
  0
VERTEX
  5
419
  8
0
 10
300.7076134966822
 20
57.16317351493087
 30
0.0
  0
VERTEX
  5
41A
  8
0
 10
300.9481962778058
 20
57.62247010781111
 30
0.0
  0
VERTEX
  5
41B
  8
0
 10
301.4412406851059
 20
58.55128391237668
 30
0.0
  0
VERTEX
  5
41C
  8
0
 10
301.9479778509105
 20
59.49280526166667
 30
0.0
  0
VERTEX
  5
41D
  8
0
 10
302.4657314760589
 20
60.4459299646451
 30
0.0
  0
VERTEX
  5
41E
  8
0
 10
303.5230037564531
 20
62.38258462151228
 30
0.0
  0
VERTEX
  5
41F
  8
0
 10
304.0565912026941
 20
63.36392566411414
 30
0.0
  0
VERTEX
  5
420
  8
0
 10
304.5893332020319
 20
64.35249739464723
 30
0.0
  0
VERTEX
  5
421
  8
0
 10
305.1179763799117
 20
65.34723056331023
 30
0.0
  0
VERTEX
  5
422
  8
0
 10
305.379712931668
 20
65.84657755600409
 30
0.0
  0
VERTEX
  5
423
  8
0
 10
305.6391529413826
 20
66.34707086220243
 30
0.0
  0
VERTEX
  5
424
  8
0
 10
305.8958576357285
 20
66.84858148694565
 30
0.0
  0
VERTEX
  5
425
  8
0
 10
306.1493811540169
 20
67.35098172216047
 30
0.0
  0
VERTEX
  5
426
  8
0
 10
306.3992705668348
 20
67.85414523747414
 30
0.0
  0
VERTEX
  5
427
  8
0
 10
306.6450658956983
 20
68.35794717200358
 30
0.0
  0
VERTEX
  5
428
  8
0
 10
306.8863001337177
 20
68.86226422711971
 30
0.0
  0
VERTEX
  5
429
  8
0
 10
307.1224992672772
 20
69.36697476018699
 30
0.0
  0
VERTEX
  5
42A
  8
0
 10
307.353182298728
 20
69.87195887927808
 30
0.0
  0
VERTEX
  5
42B
  8
0
 10
307.5778612700944
 20
70.37709853886349
 30
0.0
  0
VERTEX
  5
42C
  8
0
 10
307.7960412877944
 20
70.88227763647646
 30
0.0
  0
VERTEX
  5
42D
  8
0
 10
308.0072205483729
 20
71.38738211035303
 30
0.0
  0
VERTEX
  5
42E
  8
0
 10
308.210890365249
 20
71.89230003804715
 30
0.0
  0
VERTEX
  5
42F
  8
0
 10
308.4065351964773
 20
72.39692173602086
 30
0.0
  0
VERTEX
  5
430
  8
0
 10
308.5011852681619
 20
72.64908785968694
 30
0.0
  0
VERTEX
  5
431
  8
0
 10
308.5936326735213
 20
72.90113986020981
 30
0.0
  0
VERTEX
  5
432
  8
0
 10
308.6838110547205
 20
73.15306470178317
 30
0.0
  0
VERTEX
  5
433
  8
0
 10
308.771653631042
 20
73.40484950756365
 30
0.0
  0
VERTEX
  5
434
  8
0
 10
308.8570931998713
 20
73.6564815628974
 30
0.0
  0
VERTEX
  5
435
  8
0
 10
308.9400621376994
 20
73.90794831856167
 30
0.0
  0
VERTEX
  5
436
  8
0
 10
309.0204924011407
 20
74.15923739402191
 30
0.0
  0
VERTEX
  5
437
  8
0
 10
309.0983155279669
 20
74.41033658070373
 30
0.0
  0
VERTEX
  5
438
  8
0
 10
309.1734626381566
 20
74.66123384528052
 30
0.0
  0
VERTEX
  5
439
  8
0
 10
309.2458644349606
 20
74.91191733297592
 30
0.0
  0
VERTEX
  5
43A
  8
0
 10
309.3154512059835
 20
75.1623753708819
 30
0.0
  0
VERTEX
  5
43B
  8
0
 10
309.3821528242809
 20
75.41259647129175
 30
0.0
  0
VERTEX
  5
43C
  8
0
 10
309.4458987494718
 20
75.66256933504843
 30
0.0
  0
VERTEX
  5
43D
  8
0
 10
309.5066180288685
 20
75.91228285490826
 30
0.0
  0
VERTEX
  5
43E
  8
0
 10
309.56423929862
 20
76.16172611891966
 30
0.0
  0
VERTEX
  5
43F
  8
0
 10
309.6186907848737
 20
76.4108884138173
 30
0.0
  0
VERTEX
  5
440
  8
0
 10
309.6699003049508
 20
76.65975922843134
 30
0.0
  0
VERTEX
  5
441
  8
0
 10
309.7177952685391
 20
76.90832825711198
 30
0.0
  0
VERTEX
  5
442
  8
0
 10
309.7623026789007
 20
77.15658540316926
 30
0.0
  0
VERTEX
  5
443
  8
0
 10
309.803349134096
 20
77.40452078232806
 30
0.0
  0
VERTEX
  5
444
  8
0
 10
309.8408608282234
 20
77.6521247261984
 30
0.0
  0
VERTEX
  5
445
  8
0
 10
309.8747635526746
 20
77.89938778576084
 30
0.0
  0
VERTEX
  5
446
  8
0
 10
309.9049826974064
 20
78.1463007348672
 30
0.0
  0
VERTEX
  5
447
  8
0
 10
309.9314432522273
 20
78.39285457375672
 30
0.0
  0
VERTEX
  5
448
  8
0
 10
309.9540698081011
 20
78.63904053258693
 30
0.0
  0
VERTEX
  5
449
  8
0
 10
309.9727865584655
 20
78.8848500749803
 30
0.0
  0
VERTEX
  5
44A
  8
0
 10
309.987517300567
 20
79.13027490158595
 30
0.0
  0
VERTEX
  5
44B
  8
0
 10
309.9981854368112
 20
79.37530695365635
 30
0.0
  0
VERTEX
  5
44C
  8
0
 10
310.0047139761292
 20
79.61993841663968
 30
0.0
  0
VERTEX
  5
44D
  8
0
 10
310.0070255353602
 20
79.86416172378702
 30
0.0
  0
VERTEX
  5
44E
  8
0
 10
310.0050423406489
 20
80.10796955977511
 30
0.0
  0
VERTEX
  5
44F
  8
0
 10
309.9986862288603
 20
80.35135486434407
 30
0.0
  0
VERTEX
  5
450
  8
0
 10
309.9878786490084
 20
80.59431083595067
 30
0.0
  0
VERTEX
  5
451
  8
0
 10
309.9725406637027
 20
80.83683093543644
 30
0.0
  0
VERTEX
  5
452
  8
0
 10
309.9525929506091
 20
81.07890888971139
 30
0.0
  0
VERTEX
  5
453
  8
0
 10
309.9279558039271
 20
81.32053869545265
 30
0.0
  0
VERTEX
  5
454
  8
0
 10
309.8985491358831
 20
81.56171462281876
 30
0.0
  0
VERTEX
  5
455
  8
0
 10
309.8642924782394
 20
81.80243121917866
 30
0.0
  0
VERTEX
  5
456
  8
0
 10
309.8251049838187
 20
82.0426833128563
 30
0.0
  0
VERTEX
  5
457
  8
0
 10
309.7809054280447
 20
82.28246601689051
 30
0.0
  0
VERTEX
  5
458
  8
0
 10
309.7316122104988
 20
82.52177473280972
 30
0.0
  0
VERTEX
  5
459
  8
0
 10
309.6771433564921
 20
82.7606051544224
 30
0.0
  0
VERTEX
  5
45A
  8
0
 10
309.6174165186537
 20
82.99895327162241
 30
0.0
  0
VERTEX
  5
45B
  8
0
 10
309.5523489785344
 20
83.2368153742097
 30
0.0
  0
VERTEX
  5
45C
  8
0
 10
309.4818576482268
 20
83.47418805572624
 30
0.0
  0
VERTEX
  5
45D
  8
0
 10
309.4058590720005
 20
83.7110682173072
 30
0.0
  0
VERTEX
  5
45E
  8
0
 10
309.3242694279541
 20
83.94745307154727
 30
0.0
  0
VERTEX
  5
45F
  8
0
 10
309.2370045296818
 20
84.18334014638242
 30
0.0
  0
VERTEX
  5
460
  8
0
 10
309.1439798279574
 20
84.41872728898659
 30
0.0
  0
VERTEX
  5
461
  8
0
 10
309.0451104124322
 20
84.65361266968401
 30
0.0
  0
VERTEX
  5
462
  8
0
 10
308.9403110133508
 20
84.88799478587634
 30
0.0
  0
VERTEX
  5
463
  8
0
 10
308.8294960032811
 20
85.12187246598543
 30
0.0
  0
VERTEX
  5
464
  8
0
 10
308.712579398861
 20
85.35524487341095
 30
0.0
  0
VERTEX
  5
465
  8
0
 10
308.5894748625606
 20
85.58811151050358
 30
0.0
  0
VERTEX
  5
466
  8
0
 10
308.4600957044607
 20
85.82047222255329
 30
0.0
  0
VERTEX
  5
467
  8
0
 10
308.3243548840463
 20
86.05232720179276
 30
0.0
  0
VERTEX
  5
468
  8
0
 10
308.1821650120166
 20
86.28367699141623
 30
0.0
  0
VERTEX
  5
469
  8
0
 10
308.0334383521109
 20
86.51452248961348
 30
0.0
  0
VERTEX
  5
46A
  8
0
 10
307.8780868229497
 20
86.74486495361904
 30
0.0
  0
VERTEX
  5
46B
  8
0
 10
307.7160219998923
 20
86.97470600377667
 30
0.0
  0
VERTEX
  5
46C
  8
0
 10
307.5471551169099
 20
87.20404762761908
 30
0.0
  0
VERTEX
  5
46D
  8
0
 10
307.3713970684745
 20
87.43289218396288
 30
0.0
  0
VERTEX
  5
46E
  8
0
 10
307.1886584114639
 20
87.6612424070187
 30
0.0
  0
VERTEX
  5
46F
  8
0
 10
306.9988493670824
 20
87.88910141051667
 30
0.0
  0
VERTEX
  5
470
  8
0
 10
306.8018798227972
 20
88.11647269184701
 30
0.0
  0
VERTEX
  5
471
  8
0
 10
306.5976593342905
 20
88.34336013621598
 30
0.0
  0
VERTEX
  5
472
  8
0
 10
306.3860971274286
 20
88.56976802081701
 30
0.0
  0
VERTEX
  5
473
  8
0
 10
306.1671021002445
 20
88.79570101901695
 30
0.0
  0
VERTEX
  5
474
  8
0
 10
305.9405828249393
 20
89.02116420455775
 30
0.0
  0
VERTEX
  5
475
  8
0
 10
305.7064475498967
 20
89.24616305577337
 30
0.0
  0
VERTEX
  5
476
  8
0
 10
305.4646042017152
 20
89.47070345982164
 30
0.0
  0
VERTEX
  5
477
  8
0
 10
305.2149603872553
 20
89.69479171693177
 30
0.0
  0
VERTEX
  5
478
  8
0
 10
304.9574233957026
 20
89.91843454466681
 30
0.0
  0
VERTEX
  5
479
  8
0
 10
304.6919002006468
 20
90.14163908220138
 30
0.0
  0
VERTEX
  5
47A
  8
0
 10
304.4182974621772
 20
90.36441289461482
 30
0.0
  0
VERTEX
  5
47B
  8
0
 10
304.1365215289924
 20
90.58676397719924
 30
0.0
  0
VERTEX
  5
47C
  8
0
 10
303.8464784405278
 20
90.80870075978319
 30
0.0
  0
VERTEX
  5
47D
  8
0
 10
303.5480739290973
 20
91.03023211107035
 30
0.0
  0
VERTEX
  5
47E
  8
0
 10
303.2412134220522
 20
91.25136734299335
 30
0.0
  0
VERTEX
  5
47F
  8
0
 10
302.9258020439545
 20
91.47211621508319
 30
0.0
  0
SEQEND
  5
480
  8
0
  0
ENDSEC
  0
EOF
