  0
SECTION
  2
HEADER
  9
$ACADVER
  1
AC1009
  9
$DWGCODEPAGE
  3
ansi_932
  9
$INSBASE
 10
0.0
 20
0.0
 30
0.0
  9
$EXTMIN
 10
5.225806451612868
 20
49.60820203830932
 30
0.0
  9
$EXTMAX
 10
226.8819434937541
 20
91.42581902963519
 30
0.0
  9
$LIMMIN
 10
0.0
 20
0.0
  9
$LIMMAX
 10
12.0
 20
9.0
  9
$ORTHOMODE
 70
     0
  9
$REGENMODE
 70
     1
  9
$FILLMODE
 70
     1
  9
$QTEXTMODE
 70
     0
  9
$MIRRTEXT
 70
     1
  9
$DRAGMODE
 70
     2
  9
$LTSCALE
 40
1.0
  9
$OSMODE
 70
    37
  9
$ATTMODE
 70
     1
  9
$TEXTSIZE
 40
0.2
  9
$TRACEWID
 40
0.05
  9
$TEXTSTYLE
  7
STANDARD
  9
$CLAYER
  8
0
  9
$CELTYPE
  6
BYLAYER
  9
$CECOLOR
 62
   256
  9
$DIMSCALE
 40
1.0
  9
$DIMASZ
 40
0.18
  9
$DIMEXO
 40
0.0625
  9
$DIMDLI
 40
0.38
  9
$DIMRND
 40
0.0
  9
$DIMDLE
 40
0.0
  9
$DIMEXE
 40
0.18
  9
$DIMTP
 40
0.0
  9
$DIMTM
 40
0.0
  9
$DIMTXT
 40
0.18
  9
$DIMCEN
 40
0.09
  9
$DIMTSZ
 40
0.0
  9
$DIMTOL
 70
     0
  9
$DIMLIM
 70
     0
  9
$DIMTIH
 70
     1
  9
$DIMTOH
 70
     1
  9
$DIMSE1
 70
     0
  9
$DIMSE2
 70
     0
  9
$DIMTAD
 70
     0
  9
$DIMZIN
 70
     0
  9
$DIMBLK
  1

  9
$DIMASO
 70
     1
  9
$DIMSHO
 70
     1
  9
$DIMPOST
  1

  9
$DIMAPOST
  1

  9
$DIMALT
 70
     0
  9
$DIMALTD
 70
     2
  9
$DIMALTF
 40
25.4
  9
$DIMLFAC
 40
1.0
  9
$DIMTOFL
 70
     0
  9
$DIMTVP
 40
0.0
  9
$DIMTIX
 70
     0
  9
$DIMSOXD
 70
     0
  9
$DIMSAH
 70
     0
  9
$DIMBLK1
  1

  9
$DIMBLK2
  1

  9
$DIMSTYLE
  2
STANDARD
  9
$DIMCLRD
 70
     0
  9
$DIMCLRE
 70
     0
  9
$DIMCLRT
 70
     0
  9
$DIMTFAC
 40
1.0
  9
$DIMGAP
 40
0.09
  9
$LUNITS
 70
     2
  9
$LUPREC
 70
     4
  9
$SKETCHINC
 40
0.1
  9
$FILLETRAD
 40
0.5
  9
$AUNITS
 70
     0
  9
$AUPREC
 70
     0
  9
$MENU
  1
.
  9
$ELEVATION
 40
0.0
  9
$PELEVATION
 40
0.0
  9
$THICKNESS
 40
0.0
  9
$LIMCHECK
 70
     0
  9
$CHAMFERA
 40
0.5
  9
$CHAMFERB
 40
0.5
  9
$SKPOLY
 70
     0
  9
$TDCREATE
 40
2454910.5
  9
$TDUPDATE
 40
2459545.74676559
  9
$TDINDWG
 40
0.0000000116
  9
$TDUSRTIMER
 40
0.0000000116
  9
$USRTIMER
 70
     1
  9
$ANGBASE
 50
0.0
  9
$ANGDIR
 70
     0
  9
$PDMODE
 70
     0
  9
$PDSIZE
 40
0.0
  9
$PLINEWID
 40
0.0
  9
$COORDS
 70
     1
  9
$SPLFRAME
 70
     0
  9
$SPLINETYPE
 70
     6
  9
$SPLINESEGS
 70
     8
  9
$ATTDIA
 70
     0
  9
$ATTREQ
 70
     1
  9
$HANDLING
 70
     1
  9
$HANDSEED
  5
18F
  9
$SURFTAB1
 70
     6
  9
$SURFTAB2
 70
     6
  9
$SURFTYPE
 70
     6
  9
$SURFU
 70
     6
  9
$SURFV
 70
     6
  9
$UCSNAME
  2

  9
$UCSORG
 10
0.0
 20
0.0
 30
0.0
  9
$UCSXDIR
 10
1.0
 20
0.0
 30
0.0
  9
$UCSYDIR
 10
0.0
 20
1.0
 30
0.0
  9
$PUCSNAME
  2

  9
$PUCSORG
 10
0.0
 20
0.0
 30
0.0
  9
$PUCSXDIR
 10
1.0
 20
0.0
 30
0.0
  9
$PUCSYDIR
 10
0.0
 20
1.0
 30
0.0
  9
$USERI1
 70
     0
  9
$USERI2
 70
     0
  9
$USERI3
 70
     0
  9
$USERI4
 70
     0
  9
$USERI5
 70
     0
  9
$USERR1
 40
0.0
  9
$USERR2
 40
0.0
  9
$USERR3
 40
0.0
  9
$USERR4
 40
0.0
  9
$USERR5
 40
0.0
  9
$WORLDVIEW
 70
     1
  9
$SHADEDGE
 70
     3
  9
$SHADEDIF
 70
    70
  9
$TILEMODE
 70
     1
  9
$MAXACTVP
 70
    64
  9
$PLIMCHECK
 70
     0
  9
$PEXTMIN
 10
1.000000000000000E+20
 20
1.000000000000000E+20
 30
1.000000000000000E+20
  9
$PEXTMAX
 10
-1.000000000000000E+20
 20
-1.000000000000000E+20
 30
-1.000000000000000E+20
  9
$PLIMMIN
 10
0.0
 20
0.0
  9
$PLIMMAX
 10
12.0
 20
9.0
  9
$UNITMODE
 70
     0
  9
$VISRETAIN
 70
     1
  9
$PLINEGEN
 70
     0
  9
$PSLTSCALE
 70
     1
  0
ENDSEC
  0
SECTION
  2
TABLES
  0
TABLE
  2
VPORT
 70
     1
  0
VPORT
  2
*ACTIVE
 70
     0
 10
0.0
 20
0.0
 11
1.0
 21
1.0
 12
10.42990654205607
 22
4.5
 13
0.0
 23
0.0
 14
0.5
 24
0.5
 15
0.5
 25
0.5
 16
0.0
 26
0.0
 36
1.0
 17
0.0
 27
0.0
 37
0.0
 40
9.0
 41
1.972972972850329
 42
50.0
 43
0.0
 44
0.0
 50
0.0
 51
0.0
 71
     0
 72
   100
 73
     1
 74
     3
 75
     0
 76
     0
 77
     0
 78
     0
  0
ENDTAB
  0
TABLE
  2
LTYPE
 70
     2
  0
LTYPE
  2
CONTINUOUS
 70
     0
  3
Solid line
 72
    65
 73
     0
 40
0.0
  0
LTYPE
  2
CONTINUOUS2
 70
     0
  3
Solid Line
 72
    65
 73
     0
 40
0.0
  0
ENDTAB
  0
TABLE
  2
LAYER
 70
     1
  0
LAYER
  2
0
 70
     0
 62
     7
  6
CONTINUOUS
  0
ENDTAB
  0
TABLE
  2
STYLE
 70
     1
  0
STYLE
  2
STANDARD
 70
     0
 40
0.0
 41
1.0
 50
0.0
 71
     0
 42
0.2
  3
txt
  4

  0
ENDTAB
  0
TABLE
  2
VIEW
 70
     0
  0
ENDTAB
  0
TABLE
  2
UCS
 70
     0
  0
ENDTAB
  0
TABLE
  2
APPID
 70
     1
  0
APPID
  2
ACAD
 70
     0
  0
ENDTAB
  0
TABLE
  2
DIMSTYLE
 70
     1
  0
DIMSTYLE
  2
STANDARD
 70
     0
  3

  4

  5

  6

  7

 40
1.0
 41
0.18
 42
0.0625
 43
0.38
 44
0.18
 45
0.0
 46
0.0
 47
0.0
 48
0.0
140
0.18
141
0.09
142
0.0
143
25.4
144
1.0
145
0.0
146
1.0
147
0.09
 71
     0
 72
     0
 73
     1
 74
     1
 75
     0
 76
     0
 77
     0
 78
     0
170
     0
171
     2
172
     0
173
     0
174
     0
175
     0
176
     0
177
     0
178
     0
  0
ENDTAB
  0
ENDSEC
  0
SECTION
  2
BLOCKS
  0
BLOCK
  8
0
  2
$MODEL_SPACE
 70
     0
 10
0.0
 20
0.0
 30
0.0
  3
$MODEL_SPACE
  1

  0
ENDBLK
  5
21
  8
0
  0
BLOCK
 67
     1
  8
0
  2
$PAPER_SPACE
 70
     0
 10
0.0
 20
0.0
 30
0.0
  3
$PAPER_SPACE
  1

  0
ENDBLK
  5
1D
 67
     1
  8
0
  0
ENDSEC
  0
SECTION
  2
ENTITIES
  0
POLYLINE
  5
40
  8
0
 66
     1
 10
0.0
 20
0.0
 30
0.0
 70
     1
  0
VERTEX
  5
88
  8
0
 10
65.22580645161287
 20
49.77486873790319
 30
0.0
  0
VERTEX
  5
89
  8
0
 10
65.22580645161287
 20
85.77486873790319
 30
0.0
  0
VERTEX
  5
8A
  8
0
 10
5.225806451612868
 20
85.77486873790319
 30
0.0
  0
VERTEX
  5
8B
  8
0
 10
5.225806451612868
 20
49.77486873790319
 30
0.0
  0
SEQEND
  5
8C
  8
0
  0
POLYLINE
  5
41
  8
0
 66
     1
 10
0.0
 20
0.0
 30
0.0
  0
VERTEX
  5
8D
  8
0
 10
52.72580645161287
 20
83.77486873790319
 30
0.0
  0
VERTEX
  5
8E
  8
0
 10
17.72580645161287
 20
83.77486873790319
 30
0.0
  0
SEQEND
  5
8F
  8
0
  0
POLYLINE
  5
42
  8
0
 66
     1
 10
0.0
 20
0.0
 30
0.0
  0
VERTEX
  5
90
  8
0
 10
52.72580645161287
 20
79.77486873790319
 30
0.0
  0
VERTEX
  5
91
  8
0
 10
52.72580645161287
 20
83.77486873790319
 30
0.0
  0
SEQEND
  5
92
  8
0
  0
POLYLINE
  5
43
  8
0
 66
     1
 10
0.0
 20
0.0
 30
0.0
  0
VERTEX
  5
93
  8
0
 10
17.72580645161287
 20
79.77486873790319
 30
0.0
  0
VERTEX
  5
94
  8
0
 10
52.72580645161287
 20
79.77486873790319
 30
0.0
  0
SEQEND
  5
95
  8
0
  0
POLYLINE
  5
44
  8
0
 66
     1
 10
0.0
 20
0.0
 30
0.0
  0
VERTEX
  5
96
  8
0
 10
17.72580645161287
 20
83.77486873790319
 30
0.0
  0
VERTEX
  5
97
  8
0
 10
17.72580645161287
 20
79.77486873790319
 30
0.0
  0
SEQEND
  5
98
  8
0
  0
POLYLINE
  5
45
  8
0
 66
     1
 10
0.0
 20
0.0
 30
0.0
  0
VERTEX
  5
99
  8
0
 10
85.13769234770189
 20
70.33894302845931
 30
0.0
  0
VERTEX
  5
9A
  8
0
 10
80.9006477652019
 20
73.89424557505932
 30
0.0
  0
SEQEND
  5
9B
  8
0
  0
POLYLINE
  5
46
  8
0
 66
     1
 10
0.0
 20
0.0
 30
0.0
  0
VERTEX
  5
9C
  8
0
 10
85.1376923477365
 20
70.33894302846954
 30
0.0
 42
0.3639702342662025
  0
VERTEX
  5
9D
  8
0
 10
97.99344454146728
 20
70.33894302846954
 30
0.0
  0
VERTEX
  5
9E
  8
0
 10
102.2304891240019
 20
73.89424557505932
 30
0.0
  0
SEQEND
  5
9F
  8
0
  0
POLYLINE
  5
47
  8
0
 66
     1
 10
0.0
 20
0.0
 30
0.0
  0
VERTEX
  5
A0
  8
0
 10
104.2746537530111
 20
75.221741606851
 30
0.0
 42
0.0611626201504826
  0
VERTEX
  5
A1
  8
0
 10
102.2304891240365
 20
73.8942455750491
 30
0.0
  0
SEQEND
  5
A2
  8
0
  0
POLYLINE
  5
48
  8
0
 66
     1
 10
0.0
 20
0.0
 30
0.0
  0
VERTEX
  5
A3
  8
0
 10
104.2746537530019
 20
75.22174160685933
 30
0.0
  0
VERTEX
  5
A4
  8
0
 10
111.5655684446019
 20
78.77775830235932
 30
0.0
  0
VERTEX
  5
A5
  8
0
 10
111.5655684446019
 20
82.77775830235932
 30
0.0
  0
VERTEX
  5
A6
  8
0
 10
109.0655684446019
 20
82.77775830235932
 30
0.0
  0
VERTEX
  5
A7
  8
0
 10
109.0655684446019
 20
84.7777583023593
 30
0.0
  0
SEQEND
  5
A8
  8
0
  0
POLYLINE
  5
49
  8
0
 66
     1
 10
0.0
 20
0.0
 30
0.0
  0
VERTEX
  5
A9
  8
0
 10
74.0655684446019
 20
84.7777583023593
 30
0.0
  0
VERTEX
  5
AA
  8
0
 10
109.0655684446019
 20
84.7777583023593
 30
0.0
  0
SEQEND
  5
AB
  8
0
  0
POLYLINE
  5
4A
  8
0
 66
     1
 10
0.0
 20
0.0
 30
0.0
  0
VERTEX
  5
AC
  8
0
 10
74.0655684446019
 20
82.77775830235932
 30
0.0
  0
VERTEX
  5
AD
  8
0
 10
74.0655684446019
 20
84.7777583023593
 30
0.0
  0
SEQEND
  5
AE
  8
0
  0
POLYLINE
  5
4B
  8
0
 66
     1
 10
0.0
 20
0.0
 30
0.0
  0
VERTEX
  5
AF
  8
0
 10
71.5655684446019
 20
82.77775830235932
 30
0.0
  0
VERTEX
  5
B0
  8
0
 10
74.0655684446019
 20
82.77775830235932
 30
0.0
  0
SEQEND
  5
B1
  8
0
  0
POLYLINE
  5
4C
  8
0
 66
     1
 10
0.0
 20
0.0
 30
0.0
  0
VERTEX
  5
B2
  8
0
 10
71.5655684446019
 20
78.77775830235932
 30
0.0
  0
VERTEX
  5
B3
  8
0
 10
71.5655684446019
 20
82.77775830235932
 30
0.0
  0
SEQEND
  5
B4
  8
0
  0
POLYLINE
  5
4D
  8
0
 66
     1
 10
0.0
 20
0.0
 30
0.0
  0
VERTEX
  5
B5
  8
0
 10
78.85648313620189
 20
75.22174160685933
 30
0.0
  0
VERTEX
  5
B6
  8
0
 10
71.5655684446019
 20
78.77775830235932
 30
0.0
  0
SEQEND
  5
B7
  8
0
  0
POLYLINE
  5
4E
  8
0
 66
     1
 10
0.0
 20
0.0
 30
0.0
 70
     1
  0
VERTEX
  5
B8
  8
0
 10
91.5655684446019
 20
75.27775830235932
 30
0.0
 42
0.4142135623730951
  0
VERTEX
  5
B9
  8
0
 10
89.0655684446019
 20
72.77775830235932
 30
0.0
 42
0.4142135623730951
  0
VERTEX
  5
BA
  8
0
 10
91.5655684446019
 20
70.27775830235932
 30
0.0
 42
0.4142135623730951
  0
VERTEX
  5
BB
  8
0
 10
94.0655684446019
 20
72.77775830235932
 30
0.0
 42
0.4142135623730951
  0
SEQEND
  5
BC
  8
0
  0
POLYLINE
  5
4F
  8
0
 66
     1
 10
0.0
 20
0.0
 30
0.0
  0
VERTEX
  5
BD
  8
0
 10
80.90064776516729
 20
73.8942455750491
 30
0.0
 42
0.0611626201504849
  0
VERTEX
  5
BE
  8
0
 10
78.85648313619267
 20
75.221741606851
 30
0.0
  0
SEQEND
  5
BF
  8
0
  0
POLYLINE
  5
50
  8
0
 66
     1
 10
0.0
 20
0.0
 30
0.0
  0
VERTEX
  5
C0
  8
0
 10
110.9972808788804
 20
85.82907993898178
 30
0.0
  0
VERTEX
  5
C1
  8
0
 10
115.2343254613804
 20
82.27377739238177
 30
0.0
 42
0.3639702342662025
  0
VERTEX
  5
C2
  8
0
 10
128.0900776551458
 20
82.273777392392
 30
0.0
  0
VERTEX
  5
C3
  8
0
 10
132.3271222376804
 20
85.82907993898178
 30
0.0
  0
SEQEND
  5
C4
  8
0
  0
POLYLINE
  5
51
  8
0
 66
     1
 10
0.0
 20
0.0
 30
0.0
  0
VERTEX
  5
C5
  8
0
 10
134.3712868666896
 20
87.15657597077345
 30
0.0
 42
0.0611626201504826
  0
VERTEX
  5
C6
  8
0
 10
132.327122237715
 20
85.82907993897156
 30
0.0
  0
SEQEND
  5
C7
  8
0
  0
POLYLINE
  5
52
  8
0
 66
     1
 10
0.0
 20
0.0
 30
0.0
  0
VERTEX
  5
C8
  8
0
 10
134.3712868666804
 20
87.15657597078177
 30
0.0
  0
VERTEX
  5
C9
  8
0
 10
141.6622015582804
 20
90.71259266628178
 30
0.0
  0
VERTEX
  5
CA
  8
0
 10
101.6622015582804
 20
90.71259266628178
 30
0.0
  0
VERTEX
  5
CB
  8
0
 10
108.9531162498804
 20
87.15657597078177
 30
0.0
  0
SEQEND
  5
CC
  8
0
  0
POLYLINE
  5
53
  8
0
 66
     1
 10
0.0
 20
0.0
 30
0.0
 70
     1
  0
VERTEX
  5
CD
  8
0
 10
121.6622015582804
 20
87.21259266628178
 30
0.0
 42
0.4142135623730951
  0
VERTEX
  5
CE
  8
0
 10
119.1622015582804
 20
84.71259266628178
 30
0.0
 42
0.4142135623730951
  0
VERTEX
  5
CF
  8
0
 10
121.6622015582804
 20
82.21259266628178
 30
0.0
 42
0.4142135623730951
  0
VERTEX
  5
D0
  8
0
 10
124.1622015582804
 20
84.71259266628178
 30
0.0
 42
0.4142135623730951
  0
SEQEND
  5
D1
  8
0
  0
POLYLINE
  5
54
  8
0
 66
     1
 10
0.0
 20
0.0
 30
0.0
  0
VERTEX
  5
D2
  8
0
 10
110.9972808788458
 20
85.82907993897156
 30
0.0
 42
0.0611626201504849
  0
VERTEX
  5
D3
  8
0
 10
108.9531162498711
 20
87.15657597077345
 30
0.0
  0
SEQEND
  5
D4
  8
0
  0
POLYLINE
  5
55
  8
0
 66
     1
 10
0.0
 20
0.0
 30
0.0
  0
VERTEX
  5
D5
  8
0
 10
85.13769234770189
 20
64.0470173122093
 30
0.0
  0
VERTEX
  5
D6
  8
0
 10
80.9006477652019
 20
60.4917147656093
 30
0.0
  0
SEQEND
  5
D7
  8
0
  0
POLYLINE
  5
56
  8
0
 66
     1
 10
0.0
 20
0.0
 30
0.0
  0
VERTEX
  5
D8
  8
0
 10
85.1376923477365
 20
64.04701731219907
 30
0.0
 42
-0.3639702342662025
  0
VERTEX
  5
D9
  8
0
 10
97.99344454146728
 20
64.04701731219907
 30
0.0
  0
VERTEX
  5
DA
  8
0
 10
102.2304891240019
 20
60.4917147656093
 30
0.0
  0
SEQEND
  5
DB
  8
0
  0
POLYLINE
  5
57
  8
0
 66
     1
 10
0.0
 20
0.0
 30
0.0
  0
VERTEX
  5
DC
  8
0
 10
104.2746537530111
 20
59.16421873381762
 30
0.0
 42
-0.0611626201504826
  0
VERTEX
  5
DD
  8
0
 10
102.2304891240365
 20
60.49171476561952
 30
0.0
  0
SEQEND
  5
DE
  8
0
  0
POLYLINE
  5
58
  8
0
 66
     1
 10
0.0
 20
0.0
 30
0.0
  0
VERTEX
  5
DF
  8
0
 10
104.2746537530019
 20
59.16421873380929
 30
0.0
  0
VERTEX
  5
E0
  8
0
 10
111.5655684446019
 20
55.6082020383093
 30
0.0
  0
VERTEX
  5
E1
  8
0
 10
111.5655684446019
 20
51.6082020383093
 30
0.0
  0
VERTEX
  5
E2
  8
0
 10
109.0655684446019
 20
51.6082020383093
 30
0.0
  0
VERTEX
  5
E3
  8
0
 10
109.0655684446019
 20
49.60820203830932
 30
0.0
  0
SEQEND
  5
E4
  8
0
  0
POLYLINE
  5
59
  8
0
 66
     1
 10
0.0
 20
0.0
 30
0.0
  0
VERTEX
  5
E5
  8
0
 10
74.0655684446019
 20
49.60820203830932
 30
0.0
  0
VERTEX
  5
E6
  8
0
 10
109.0655684446019
 20
49.60820203830932
 30
0.0
  0
SEQEND
  5
E7
  8
0
  0
POLYLINE
  5
5A
  8
0
 66
     1
 10
0.0
 20
0.0
 30
0.0
  0
VERTEX
  5
E8
  8
0
 10
74.0655684446019
 20
51.6082020383093
 30
0.0
  0
VERTEX
  5
E9
  8
0
 10
74.0655684446019
 20
49.60820203830932
 30
0.0
  0
SEQEND
  5
EA
  8
0
  0
POLYLINE
  5
5B
  8
0
 66
     1
 10
0.0
 20
0.0
 30
0.0
  0
VERTEX
  5
EB
  8
0
 10
71.5655684446019
 20
51.6082020383093
 30
0.0
  0
VERTEX
  5
EC
  8
0
 10
74.0655684446019
 20
51.6082020383093
 30
0.0
  0
SEQEND
  5
ED
  8
0
  0
POLYLINE
  5
5C
  8
0
 66
     1
 10
0.0
 20
0.0
 30
0.0
  0
VERTEX
  5
EE
  8
0
 10
71.5655684446019
 20
55.6082020383093
 30
0.0
  0
VERTEX
  5
EF
  8
0
 10
71.5655684446019
 20
51.6082020383093
 30
0.0
  0
SEQEND
  5
F0
  8
0
  0
POLYLINE
  5
5D
  8
0
 66
     1
 10
0.0
 20
0.0
 30
0.0
  0
VERTEX
  5
F1
  8
0
 10
78.85648313620189
 20
59.16421873380929
 30
0.0
  0
VERTEX
  5
F2
  8
0
 10
71.5655684446019
 20
55.6082020383093
 30
0.0
  0
SEQEND
  5
F3
  8
0
  0
POLYLINE
  5
5E
  8
0
 66
     1
 10
0.0
 20
0.0
 30
0.0
 70
     1
  0
VERTEX
  5
F4
  8
0
 10
91.5655684446019
 20
59.1082020383093
 30
0.0
 42
-0.4142135623730951
  0
VERTEX
  5
F5
  8
0
 10
89.0655684446019
 20
61.6082020383093
 30
0.0
 42
-0.4142135623730951
  0
VERTEX
  5
F6
  8
0
 10
91.5655684446019
 20
64.1082020383093
 30
0.0
 42
-0.4142135623730951
  0
VERTEX
  5
F7
  8
0
 10
94.0655684446019
 20
61.6082020383093
 30
0.0
 42
-0.4142135623730951
  0
SEQEND
  5
F8
  8
0
  0
POLYLINE
  5
5F
  8
0
 66
     1
 10
0.0
 20
0.0
 30
0.0
  0
VERTEX
  5
F9
  8
0
 10
80.90064776516729
 20
60.49171476561952
 30
0.0
 42
-0.0611626201504849
  0
VERTEX
  5
FA
  8
0
 10
78.85648313619267
 20
59.16421873381762
 30
0.0
  0
SEQEND
  5
FB
  8
0
  0
POLYLINE
  5
60
  8
0
 66
     1
 10
0.0
 20
0.0
 30
0.0
  0
VERTEX
  5
FC
  8
0
 10
110.9972808788805
 20
70.29407953482666
 30
0.0
  0
VERTEX
  5
FD
  8
0
 10
115.2343254613805
 20
73.84938208142667
 30
0.0
 42
-0.3639702342662025
  0
VERTEX
  5
FE
  8
0
 10
128.0900776551459
 20
73.84938208141644
 30
0.0
  0
VERTEX
  5
FF
  8
0
 10
132.3271222376805
 20
70.29407953482666
 30
0.0
  0
SEQEND
  5
100
  8
0
  0
POLYLINE
  5
61
  8
0
 66
     1
 10
0.0
 20
0.0
 30
0.0
  0
VERTEX
  5
101
  8
0
 10
134.3712868666897
 20
68.966583503035
 30
0.0
 42
-0.0611626201504826
  0
VERTEX
  5
102
  8
0
 10
132.3271222377151
 20
70.29407953483688
 30
0.0
  0
SEQEND
  5
103
  8
0
  0
POLYLINE
  5
62
  8
0
 66
     1
 10
0.0
 20
0.0
 30
0.0
  0
VERTEX
  5
104
  8
0
 10
134.3712868666805
 20
68.96658350302667
 30
0.0
  0
VERTEX
  5
105
  8
0
 10
141.6622015582805
 20
65.41056680752666
 30
0.0
  0
VERTEX
  5
106
  8
0
 10
101.6622015582805
 20
65.41056680752666
 30
0.0
  0
VERTEX
  5
107
  8
0
 10
108.9531162498805
 20
68.96658350302667
 30
0.0
  0
SEQEND
  5
108
  8
0
  0
POLYLINE
  5
63
  8
0
 66
     1
 10
0.0
 20
0.0
 30
0.0
 70
     1
  0
VERTEX
  5
109
  8
0
 10
121.6622015582805
 20
68.91056680752666
 30
0.0
 42
-0.4142135623730951
  0
VERTEX
  5
10A
  8
0
 10
119.1622015582805
 20
71.41056680752666
 30
0.0
 42
-0.4142135623730951
  0
VERTEX
  5
10B
  8
0
 10
121.6622015582805
 20
73.91056680752666
 30
0.0
 42
-0.4142135623730951
  0
VERTEX
  5
10C
  8
0
 10
124.1622015582805
 20
71.41056680752666
 30
0.0
 42
-0.4142135623730951
  0
SEQEND
  5
10D
  8
0
  0
POLYLINE
  5
64
  8
0
 66
     1
 10
0.0
 20
0.0
 30
0.0
  0
VERTEX
  5
10E
  8
0
 10
110.9972808788459
 20
70.29407953483688
 30
0.0
 42
-0.0611626201504849
  0
VERTEX
  5
10F
  8
0
 10
108.9531162498713
 20
68.966583503035
 30
0.0
  0
SEQEND
  5
110
  8
0
  0
POLYLINE
  5
65
  8
0
 66
     1
 10
0.0
 20
0.0
 30
0.0
  0
VERTEX
  5
111
  8
0
 10
141.1424421692029
 20
58.04547823939673
 30
0.0
  0
VERTEX
  5
112
  8
0
 10
145.3794867517029
 20
61.60078078599673
 30
0.0
 42
-0.3639702342662025
  0
VERTEX
  5
113
  8
0
 10
158.2352389454683
 20
61.6007807859865
 30
0.0
  0
VERTEX
  5
114
  8
0
 10
162.4722835280029
 20
58.04547823939673
 30
0.0
  0
SEQEND
  5
115
  8
0
  0
POLYLINE
  5
66
  8
0
 66
     1
 10
0.0
 20
0.0
 30
0.0
  0
VERTEX
  5
116
  8
0
 10
164.5164481570121
 20
56.71798220760506
 30
0.0
 42
-0.0611626201504826
  0
VERTEX
  5
117
  8
0
 10
162.4722835280375
 20
58.04547823940695
 30
0.0
  0
SEQEND
  5
118
  8
0
  0
POLYLINE
  5
67
  8
0
 66
     1
 10
0.0
 20
0.0
 30
0.0
  0
VERTEX
  5
119
  8
0
 10
164.5164481570029
 20
56.71798220759673
 30
0.0
  0
VERTEX
  5
11A
  8
0
 10
171.8073628486029
 20
53.16196551209673
 30
0.0
  0
VERTEX
  5
11B
  8
0
 10
131.8073628486029
 20
53.16196551209673
 30
0.0
  0
VERTEX
  5
11C
  8
0
 10
139.0982775402029
 20
56.71798220759673
 30
0.0
  0
SEQEND
  5
11D
  8
0
  0
POLYLINE
  5
68
  8
0
 66
     1
 10
0.0
 20
0.0
 30
0.0
 70
     1
  0
VERTEX
  5
11E
  8
0
 10
151.8073628486029
 20
56.66196551209673
 30
0.0
 42
-0.4142135623730951
  0
VERTEX
  5
11F
  8
0
 10
149.3073628486029
 20
59.16196551209673
 30
0.0
 42
-0.4142135623730951
  0
VERTEX
  5
120
  8
0
 10
151.8073628486029
 20
61.66196551209673
 30
0.0
 42
-0.4142135623730951
  0
VERTEX
  5
121
  8
0
 10
154.3073628486029
 20
59.16196551209673
 30
0.0
 42
-0.4142135623730951
  0
SEQEND
  5
122
  8
0
  0
POLYLINE
  5
69
  8
0
 66
     1
 10
0.0
 20
0.0
 30
0.0
  0
VERTEX
  5
123
  8
0
 10
141.1424421691683
 20
58.04547823940695
 30
0.0
 42
-0.0611626201504849
  0
VERTEX
  5
124
  8
0
 10
139.0982775401937
 20
56.71798220760506
 30
0.0
  0
SEQEND
  5
125
  8
0
  0
POLYLINE
  5
6A
  8
0
 66
     1
 10
0.0
 20
0.0
 30
0.0
  0
VERTEX
  5
126
  8
0
 10
141.142442169203
 20
73.58047864355184
 30
0.0
  0
VERTEX
  5
127
  8
0
 10
145.379486751703
 20
70.02517609695184
 30
0.0
 42
0.3639702342662025
  0
VERTEX
  5
128
  8
0
 10
158.2352389454684
 20
70.02517609696207
 30
0.0
  0
VERTEX
  5
129
  8
0
 10
162.4722835280031
 20
73.58047864355184
 30
0.0
  0
SEQEND
  5
12A
  8
0
  0
POLYLINE
  5
6B
  8
0
 66
     1
 10
0.0
 20
0.0
 30
0.0
  0
VERTEX
  5
12B
  8
0
 10
164.5164481570123
 20
74.90797467534351
 30
0.0
 42
0.0611626201504826
  0
VERTEX
  5
12C
  8
0
 10
162.4722835280377
 20
73.58047864354162
 30
0.0
  0
SEQEND
  5
12D
  8
0
  0
POLYLINE
  5
6C
  8
0
 66
     1
 10
0.0
 20
0.0
 30
0.0
  0
VERTEX
  5
12E
  8
0
 10
164.5164481570031
 20
74.90797467535184
 30
0.0
  0
VERTEX
  5
12F
  8
0
 10
171.807362848603
 20
78.46399137085184
 30
0.0
  0
VERTEX
  5
130
  8
0
 10
131.807362848603
 20
78.46399137085184
 30
0.0
  0
VERTEX
  5
131
  8
0
 10
139.098277540203
 20
74.90797467535184
 30
0.0
  0
SEQEND
  5
132
  8
0
  0
POLYLINE
  5
6D
  8
0
 66
     1
 10
0.0
 20
0.0
 30
0.0
 70
     1
  0
VERTEX
  5
133
  8
0
 10
151.807362848603
 20
74.96399137085184
 30
0.0
 42
0.4142135623730951
  0
VERTEX
  5
134
  8
0
 10
149.307362848603
 20
72.46399137085184
 30
0.0
 42
0.4142135623730951
  0
VERTEX
  5
135
  8
0
 10
151.807362848603
 20
69.96399137085184
 30
0.0
 42
0.4142135623730951
  0
VERTEX
  5
136
  8
0
 10
154.307362848603
 20
72.46399137085184
 30
0.0
 42
0.4142135623730951
  0
SEQEND
  5
137
  8
0
  0
POLYLINE
  5
6E
  8
0
 66
     1
 10
0.0
 20
0.0
 30
0.0
  0
VERTEX
  5
138
  8
0
 10
141.1424421691684
 20
73.58047864354162
 30
0.0
 42
0.0611626201504849
  0
VERTEX
  5
139
  8
0
 10
139.0982775401938
 20
74.90797467534351
 30
0.0
  0
SEQEND
  5
13A
  8
0
  0
POLYLINE
  5
6F
  8
0
 66
     1
 10
0.0
 20
0.0
 30
0.0
  0
VERTEX
  5
13B
  8
0
 10
166.0718615240314
 20
86.54230630233519
 30
0.0
  0
VERTEX
  5
13C
  8
0
 10
170.3089061065314
 20
82.98700375573519
 30
0.0
 42
0.3639702342662025
  0
VERTEX
  5
13D
  8
0
 10
183.1646583002968
 20
82.98700375574542
 30
0.0
  0
VERTEX
  5
13E
  8
0
 10
187.4017028828314
 20
86.54230630233519
 30
0.0
  0
SEQEND
  5
13F
  8
0
  0
POLYLINE
  5
70
  8
0
 66
     1
 10
0.0
 20
0.0
 30
0.0
  0
VERTEX
  5
140
  8
0
 10
189.4458675118406
 20
87.86980233412686
 30
0.0
 42
0.0611626201504826
  0
VERTEX
  5
141
  8
0
 10
187.401702882866
 20
86.54230630232497
 30
0.0
  0
SEQEND
  5
142
  8
0
  0
POLYLINE
  5
71
  8
0
 66
     1
 10
0.0
 20
0.0
 30
0.0
  0
VERTEX
  5
143
  8
0
 10
189.4458675118314
 20
87.86980233413519
 30
0.0
  0
VERTEX
  5
144
  8
0
 10
196.7367822034314
 20
91.42581902963519
 30
0.0
  0
VERTEX
  5
145
  8
0
 10
156.7367822034314
 20
91.42581902963519
 30
0.0
  0
VERTEX
  5
146
  8
0
 10
164.0276968950314
 20
87.86980233413519
 30
0.0
  0
SEQEND
  5
147
  8
0
  0
POLYLINE
  5
72
  8
0
 66
     1
 10
0.0
 20
0.0
 30
0.0
 70
     1
  0
VERTEX
  5
148
  8
0
 10
176.7367822034314
 20
87.92581902963519
 30
0.0
 42
0.4142135623730951
  0
VERTEX
  5
149
  8
0
 10
174.2367822034314
 20
85.42581902963519
 30
0.0
 42
0.4142135623730951
  0
VERTEX
  5
14A
  8
0
 10
176.7367822034314
 20
82.92581902963519
 30
0.0
 42
0.4142135623730951
  0
VERTEX
  5
14B
  8
0
 10
179.2367822034314
 20
85.42581902963519
 30
0.0
 42
0.4142135623730951
  0
SEQEND
  5
14C
  8
0
  0
POLYLINE
  5
73
  8
0
 66
     1
 10
0.0
 20
0.0
 30
0.0
  0
VERTEX
  5
14D
  8
0
 10
166.0718615239968
 20
86.54230630232497
 30
0.0
 42
0.0611626201504849
  0
VERTEX
  5
14E
  8
0
 10
164.0276968950222
 20
87.86980233412686
 30
0.0
  0
SEQEND
  5
14F
  8
0
  0
POLYLINE
  5
74
  8
0
 66
     1
 10
0.0
 20
0.0
 30
0.0
  0
VERTEX
  5
150
  8
0
 10
166.0718615240315
 20
71.00730589818008
 30
0.0
  0
VERTEX
  5
151
  8
0
 10
170.3089061065315
 20
74.56260844478008
 30
0.0
 42
-0.3639702342662025
  0
VERTEX
  5
152
  8
0
 10
183.1646583002969
 20
74.56260844476985
 30
0.0
  0
VERTEX
  5
153
  8
0
 10
187.4017028828315
 20
71.00730589818008
 30
0.0
  0
SEQEND
  5
154
  8
0
  0
POLYLINE
  5
75
  8
0
 66
     1
 10
0.0
 20
0.0
 30
0.0
  0
VERTEX
  5
155
  8
0
 10
189.4458675118407
 20
69.67980986638841
 30
0.0
 42
-0.0611626201504826
  0
VERTEX
  5
156
  8
0
 10
187.4017028828661
 20
71.0073058981903
 30
0.0
  0
SEQEND
  5
157
  8
0
  0
POLYLINE
  5
76
  8
0
 66
     1
 10
0.0
 20
0.0
 30
0.0
  0
VERTEX
  5
158
  8
0
 10
189.4458675118315
 20
69.67980986638008
 30
0.0
  0
VERTEX
  5
159
  8
0
 10
196.7367822034315
 20
66.12379317088008
 30
0.0
  0
VERTEX
  5
15A
  8
0
 10
156.7367822034315
 20
66.12379317088008
 30
0.0
  0
VERTEX
  5
15B
  8
0
 10
164.0276968950315
 20
69.67980986638008
 30
0.0
  0
SEQEND
  5
15C
  8
0
  0
POLYLINE
  5
77
  8
0
 66
     1
 10
0.0
 20
0.0
 30
0.0
 70
     1
  0
VERTEX
  5
15D
  8
0
 10
176.7367822034315
 20
69.62379317088008
 30
0.0
 42
-0.4142135623730951
  0
VERTEX
  5
15E
  8
0
 10
174.2367822034315
 20
72.12379317088008
 30
0.0
 42
-0.4142135623730951
  0
VERTEX
  5
15F
  8
0
 10
176.7367822034315
 20
74.62379317088008
 30
0.0
 42
-0.4142135623730951
  0
VERTEX
  5
160
  8
0
 10
179.2367822034315
 20
72.12379317088008
 30
0.0
 42
-0.4142135623730951
  0
SEQEND
  5
161
  8
0
  0
POLYLINE
  5
78
  8
0
 66
     1
 10
0.0
 20
0.0
 30
0.0
  0
VERTEX
  5
162
  8
0
 10
166.0718615239969
 20
71.0073058981903
 30
0.0
 42
-0.0611626201504849
  0
VERTEX
  5
163
  8
0
 10
164.0276968950223
 20
69.67980986638841
 30
0.0
  0
SEQEND
  5
164
  8
0
  0
POLYLINE
  5
79
  8
0
 66
     1
 10
0.0
 20
0.0
 30
0.0
  0
VERTEX
  5
165
  8
0
 10
196.217022814354
 20
58.75870460275014
 30
0.0
  0
VERTEX
  5
166
  8
0
 10
200.454067396854
 20
62.31400714935015
 30
0.0
 42
-0.3639702342662025
  0
VERTEX
  5
167
  8
0
 10
213.3098195906194
 20
62.31400714933991
 30
0.0
  0
VERTEX
  5
168
  8
0
 10
217.546864173154
 20
58.75870460275014
 30
0.0
  0
SEQEND
  5
169
  8
0
  0
POLYLINE
  5
7A
  8
0
 66
     1
 10
0.0
 20
0.0
 30
0.0
  0
VERTEX
  5
16A
  8
0
 10
219.5910288021632
 20
57.43120857095847
 30
0.0
 42
-0.0611626201504826
  0
VERTEX
  5
16B
  8
0
 10
217.5468641731886
 20
58.75870460276036
 30
0.0
  0
SEQEND
  5
16C
  8
0
  0
POLYLINE
  5
7B
  8
0
 66
     1
 10
0.0
 20
0.0
 30
0.0
  0
VERTEX
  5
16D
  8
0
 10
219.591028802154
 20
57.43120857095015
 30
0.0
  0
VERTEX
  5
16E
  8
0
 10
226.881943493754
 20
53.87519187545014
 30
0.0
  0
VERTEX
  5
16F
  8
0
 10
186.881943493754
 20
53.87519187545014
 30
0.0
  0
VERTEX
  5
170
  8
0
 10
194.172858185354
 20
57.43120857095015
 30
0.0
  0
SEQEND
  5
171
  8
0
  0
POLYLINE
  5
7C
  8
0
 66
     1
 10
0.0
 20
0.0
 30
0.0
 70
     1
  0
VERTEX
  5
172
  8
0
 10
206.881943493754
 20
57.37519187545014
 30
0.0
 42
-0.4142135623730951
  0
VERTEX
  5
173
  8
0
 10
204.381943493754
 20
59.87519187545014
 30
0.0
 42
-0.4142135623730951
  0
VERTEX
  5
174
  8
0
 10
206.881943493754
 20
62.37519187545014
 30
0.0
 42
-0.4142135623730951
  0
VERTEX
  5
175
  8
0
 10
209.381943493754
 20
59.87519187545014
 30
0.0
 42
-0.4142135623730951
  0
SEQEND
  5
176
  8
0
  0
POLYLINE
  5
7D
  8
0
 66
     1
 10
0.0
 20
0.0
 30
0.0
  0
VERTEX
  5
177
  8
0
 10
196.2170228143194
 20
58.75870460276036
 30
0.0
 42
-0.0611626201504849
  0
VERTEX
  5
178
  8
0
 10
194.1728581853447
 20
57.43120857095847
 30
0.0
  0
SEQEND
  5
179
  8
0
  0
POLYLINE
  5
7E
  8
0
 66
     1
 10
0.0
 20
0.0
 30
0.0
  0
VERTEX
  5
17A
  8
0
 10
196.2170228143541
 20
74.29370500690526
 30
0.0
  0
VERTEX
  5
17B
  8
0
 10
200.4540673968541
 20
70.73840246030525
 30
0.0
 42
0.3639702342662025
  0
VERTEX
  5
17C
  8
0
 10
213.3098195906195
 20
70.73840246031548
 30
0.0
  0
VERTEX
  5
17D
  8
0
 10
217.5468641731541
 20
74.29370500690526
 30
0.0
  0
SEQEND
  5
17E
  8
0
  0
POLYLINE
  5
7F
  8
0
 66
     1
 10
0.0
 20
0.0
 30
0.0
  0
VERTEX
  5
17F
  8
0
 10
219.5910288021633
 20
75.62120103869692
 30
0.0
 42
0.0611626201504826
  0
VERTEX
  5
180
  8
0
 10
217.5468641731887
 20
74.29370500689504
 30
0.0
  0
SEQEND
  5
181
  8
0
  0
POLYLINE
  5
80
  8
0
 66
     1
 10
0.0
 20
0.0
 30
0.0
  0
VERTEX
  5
182
  8
0
 10
219.5910288021541
 20
75.62120103870525
 30
0.0
  0
VERTEX
  5
183
  8
0
 10
226.8819434937541
 20
79.17721773420526
 30
0.0
  0
VERTEX
  5
184
  8
0
 10
186.8819434937541
 20
79.17721773420526
 30
0.0
  0
VERTEX
  5
185
  8
0
 10
194.1728581853541
 20
75.62120103870525
 30
0.0
  0
SEQEND
  5
186
  8
0
  0
POLYLINE
  5
81
  8
0
 66
     1
 10
0.0
 20
0.0
 30
0.0
 70
     1
  0
VERTEX
  5
187
  8
0
 10
206.8819434937541
 20
75.67721773420526
 30
0.0
 42
0.4142135623730951
  0
VERTEX
  5
188
  8
0
 10
204.3819434937541
 20
73.17721773420526
 30
0.0
 42
0.4142135623730951
  0
VERTEX
  5
189
  8
0
 10
206.8819434937541
 20
70.67721773420526
 30
0.0
 42
0.4142135623730951
  0
VERTEX
  5
18A
  8
0
 10
209.3819434937541
 20
73.17721773420526
 30
0.0
 42
0.4142135623730951
  0
SEQEND
  5
18B
  8
0
  0
POLYLINE
  5
82
  8
0
 66
     1
 10
0.0
 20
0.0
 30
0.0
  0
VERTEX
  5
18C
  8
0
 10
196.2170228143195
 20
74.29370500689504
 30
0.0
 42
0.0611626201504849
  0
VERTEX
  5
18D
  8
0
 10
194.1728581853448
 20
75.62120103869692
 30
0.0
  0
SEQEND
  5
18E
  8
0
  0
ENDSEC
  0
EOF
